<svg width="29" height="29" viewBox="0 0 29 29" fill="none" xmlns="http://www.w3.org/2000/svg">
<path d="M15.9906 0.00178401C17.0487 -0.00227617 18.1067 0.00835793 19.1645 0.033683L19.4458 0.0438326C19.7706 0.0554322 20.091 0.0699317 20.4781 0.0873311C22.0209 0.159829 23.0735 0.403421 23.9971 0.761558C24.9541 1.12985 25.7602 1.62863 26.5664 2.4348C27.3035 3.15921 27.874 4.03547 28.2381 5.00266C28.5963 5.92628 28.8399 6.9804 28.9124 8.52314C28.9298 8.90883 28.9443 9.23072 28.9559 9.55551L28.9646 9.8368C28.9903 10.8941 29.0014 11.9517 28.9979 13.0093L28.9994 14.091V15.9904C29.0029 17.0485 28.9918 18.1066 28.966 19.1643L28.9573 19.4456C28.9457 19.7704 28.9312 20.0908 28.9138 20.478C28.8413 22.0207 28.5948 23.0734 28.2381 23.997C27.8751 24.9652 27.3045 25.8422 26.5664 26.5663C25.8414 27.3034 24.9647 27.8738 23.9971 28.2381C23.0735 28.5963 22.0209 28.8399 20.4781 28.9123C20.091 28.9297 19.7706 28.9442 19.4458 28.9558L19.1645 28.9645C18.1067 28.9903 17.0487 29.0014 15.9906 28.9979L14.909 28.9993H13.011C11.953 29.0029 10.8949 28.9918 9.83713 28.966L9.55585 28.9573C9.21165 28.9448 8.86753 28.9303 8.5235 28.9138C6.98078 28.8413 5.92813 28.5948 5.00308 28.2381C4.03552 27.8747 3.15912 27.3041 2.43526 26.5663C1.69732 25.8418 1.1263 24.9649 0.762048 23.997C0.403916 23.0734 0.160328 22.0207 0.0878321 20.478C0.0716841 20.1339 0.0571847 19.7898 0.0443343 19.4456L0.0370849 19.1643C0.0103535 18.1066 -0.00173055 17.0485 0.000836608 15.9904V13.0093C-0.00321009 11.9517 0.00742384 10.8941 0.0327351 9.8368L0.0428845 9.55551C0.0544839 9.23072 0.0689831 8.90883 0.0863822 8.52314C0.158879 6.97895 0.402466 5.92773 0.760598 5.00266C1.12507 4.035 1.6972 3.15897 2.43671 2.43625C3.16007 1.69787 4.03592 1.12633 5.00308 0.761558C5.92813 0.403421 6.97933 0.159829 8.5235 0.0873311L9.55585 0.0438326L9.83713 0.0365831C10.8944 0.00986456 11.952 -0.00221966 13.0096 0.000334167L15.9906 0.00178401ZM14.5001 7.25154C13.5395 7.23795 12.5858 7.41542 11.6945 7.77362C10.8031 8.13182 9.99176 8.66361 9.30768 9.3381C8.62361 10.0126 8.0804 10.8163 7.70964 11.7025C7.33887 12.5888 7.14794 13.5399 7.14794 14.5006C7.14794 15.4612 7.33887 16.4123 7.70964 17.2986C8.0804 18.1848 8.62361 18.9886 9.30768 19.663C9.99176 20.3375 10.8031 20.8693 11.6945 21.2275C12.5858 21.5857 13.5395 21.7632 14.5001 21.7496C16.4228 21.7496 18.2668 20.9858 19.6264 19.6262C20.9859 18.2666 21.7497 16.4226 21.7497 14.4998C21.7497 12.5771 20.9859 10.7331 19.6264 9.37349C18.2668 8.0139 16.4228 7.25154 14.5001 7.25154ZM14.5001 10.1514C15.0779 10.1408 15.652 10.2454 16.189 10.4591C16.7259 10.6729 17.2148 10.9915 17.6273 11.3963C18.0397 11.8011 18.3673 12.2841 18.591 12.8169C18.8147 13.3498 18.9299 13.9219 18.93 14.4998C18.9301 15.0777 18.815 15.6499 18.5915 16.1828C18.368 16.7158 18.0406 17.1988 17.6283 17.6038C17.216 18.0088 16.7272 18.3275 16.1903 18.5414C15.6535 18.7554 15.0794 18.8601 14.5015 18.8497C13.3479 18.8497 12.2415 18.3914 11.4258 17.5757C10.61 16.7599 10.1518 15.6535 10.1518 14.4998C10.1518 13.3462 10.61 12.2398 11.4258 11.424C12.2415 10.6083 13.3479 10.15 14.5015 10.15L14.5001 10.1514ZM22.1122 5.07661C21.6444 5.09533 21.2021 5.29432 20.8777 5.6319C20.5534 5.96948 20.3723 6.41946 20.3723 6.8876C20.3723 7.35574 20.5534 7.80572 20.8777 8.1433C21.2021 8.48088 21.6444 8.67987 22.1122 8.69859C22.5929 8.69859 23.0539 8.50763 23.3938 8.16774C23.7337 7.82784 23.9246 7.36684 23.9246 6.88615C23.9246 6.40546 23.7337 5.94446 23.3938 5.60456C23.0539 5.26466 22.5929 5.07371 22.1122 5.07371V5.07661Z" fill="#282C11"/>
</svg>
