<svg width="1898" height="1028" viewBox="0 0 1898 1028" fill="none" xmlns="http://www.w3.org/2000/svg">
<g clip-path="url(#clip0_315_7)">
<rect width="1898" height="1028" fill="white"/>
<rect x="-93" y="129" width="2025" height="899" fill="url(#paint0_linear_315_7)"/>
<path d="M1691.15 43.9638C1694.6 34.4826 1698.04 25.5759 1698.9 24.4267C1700.05 22.9902 1701.2 22.7028 1701.49 23.2775C1701.78 23.8521 1700.92 30.1729 1699.48 37.0683C1698.33 43.9638 1696.89 52.5831 1696.89 56.3181C1696.89 59.7658 1702.35 69.247 1708.96 77.579C1715.85 85.911 1726.77 97.6907 1733.38 104.299C1739.99 110.62 1745.45 117.802 1745.45 120.101C1745.45 122.399 1741.14 130.157 1735.68 137.339C1730.51 144.522 1724.76 153.716 1723.04 158.313C1721.03 163.485 1720.74 166.645 1722.75 167.507C1724.19 168.369 1731.08 163.772 1737.69 157.738C1744.58 151.418 1753.49 145.097 1757.8 143.373C1762.4 141.649 1769.58 140.213 1774.46 140.213C1780.78 140.213 1783.08 138.776 1783.08 135.328C1783.08 132.455 1787.68 125.56 1803.48 110.045L1837.09 109.47C1866.4 108.896 1871.57 109.47 1878.46 114.355C1883.06 117.515 1886.51 122.112 1886.51 124.411C1886.51 127.858 1885.36 128.146 1879.9 125.56C1876.45 123.836 1870.13 123.261 1857.78 125.847L1873.01 142.511C1881.34 151.418 1889.09 161.761 1890.24 165.496C1891.39 169.231 1891.1 171.817 1889.38 171.817C1887.66 171.817 1885.36 169.518 1883.64 166.932C1881.34 162.623 1881.05 163.197 1880.76 178.999L1873.58 169.805C1866.97 160.899 1866.11 160.612 1860.65 164.634C1855.19 168.656 1854.62 168.369 1850.6 158.888C1848.3 153.429 1844.85 148.257 1843.41 147.395C1841.69 146.533 1839.97 146.246 1839.1 146.821C1838.53 147.108 1839.68 154.578 1841.98 163.197C1844.28 171.817 1846.29 183.884 1846.29 189.917C1846.29 195.663 1844.56 201.41 1842.55 202.559C1840.83 203.421 1836.52 204.57 1833.36 204.57C1828.47 204.857 1827.33 207.443 1826.18 222.671C1825.31 232.439 1824.17 241.058 1823.3 241.92C1822.44 242.782 1821 238.185 1819.57 232.152C1818.42 225.831 1815.83 217.499 1813.82 213.477C1812.1 209.454 1809.51 206.294 1808.08 206.294C1806.93 206.294 1806.07 208.305 1806.07 210.604C1806.07 212.902 1804.63 214.913 1803.19 214.913C1801.47 214.913 1800.32 222.671 1800.32 232.152C1800.32 245.943 1799.17 249.678 1795.15 251.402C1792.56 252.263 1787.97 255.137 1785.38 257.722C1780.78 262.032 1780.21 261.745 1778.77 255.137C1777.34 249.103 1775.32 247.954 1767.86 248.528C1761.73 248.72 1758.95 250.156 1759.52 252.838C1760.1 254.849 1764.41 265.192 1769 276.11C1773.6 286.741 1777.34 296.796 1777.34 298.233C1777.34 299.957 1779.35 301.106 1781.65 301.106C1783.94 301.106 1796.01 296.796 1808.08 291.625C1820.43 286.166 1840.83 278.409 1853.47 274.386C1866.11 270.364 1881.34 266.054 1898 263.756V288.177C1898 302.543 1896.85 312.599 1895.13 312.599C1893.4 312.599 1890.82 308.863 1889.38 303.979C1887.66 299.382 1885.07 295.36 1883.64 295.36C1881.91 295.36 1879.04 298.808 1876.74 303.405C1874.44 307.714 1872.14 314.322 1871.86 318.345C1870.71 325.24 1871.28 325.527 1898 324.091V343.628C1898 359.717 1897.14 363.452 1892.25 366.613C1887.66 369.486 1886.51 369.486 1886.51 366.613C1886.8 364.027 1885.36 364.027 1881.91 367.187C1879.33 369.486 1875.3 374.945 1873.29 379.542C1869.27 387.012 1869.56 387.299 1880.76 393.045C1891.68 398.504 1892.54 398.504 1895.13 393.907C1896.85 390.459 1897.71 402.814 1898 432.694C1898 456.541 1897.14 476.365 1895.7 476.365C1894.55 476.365 1891.97 471.768 1889.96 466.309C1888.23 460.85 1885.07 456.828 1883.64 457.69C1881.91 458.552 1880.76 456.253 1880.76 452.806C1880.76 449.071 1879.61 444.186 1878.18 441.888C1876.74 439.589 1875.02 438.728 1874.15 440.451C1873.58 442.175 1871.86 447.921 1868.7 463.436L1862.38 455.679C1857.78 449.933 1855.48 448.783 1852.61 451.369C1849.73 454.242 1849.16 452.806 1849.16 445.623C1849.16 440.451 1848.59 434.131 1847.72 431.832C1846.86 429.534 1845.42 427.522 1843.99 427.522C1842.84 427.522 1840.25 430.683 1838.24 434.705C1836.52 438.728 1834.8 444.186 1834.8 447.06C1834.8 449.645 1831.92 454.817 1821.87 464.873L1813.82 457.69C1809.51 453.668 1806.07 448.209 1806.07 445.623C1806.07 442.75 1804.92 439.302 1803.19 437.578C1801.18 435.567 1801.18 432.119 1803.19 426.948C1804.63 422.351 1805.49 418.903 1804.63 418.903C1803.77 418.903 1796.58 425.799 1773.89 449.071L1775.61 438.44C1776.47 432.407 1777.91 422.638 1780.5 405.974L1773.03 419.765C1769 427.235 1765.27 433.269 1764.41 433.269C1763.55 433.269 1763.55 428.672 1764.41 423.213C1765.27 417.467 1764.7 413.157 1762.97 413.157C1761.25 413.157 1757.23 417.754 1753.49 423.213C1750.04 428.672 1746.31 433.269 1744.87 433.269C1743.72 433.269 1743.72 427.81 1744.87 421.489C1746.88 411.72 1746.31 409.709 1742.86 410.571C1740.56 411.146 1735.68 409.997 1731.94 407.985C1726.77 405.112 1725.05 405.4 1722.75 409.709C1720.16 414.019 1720.16 414.019 1720.16 408.847C1720.16 405.687 1719.02 402.239 1717.87 401.09C1716.72 399.941 1711.55 400.515 1706.95 402.239C1700.05 404.538 1696.32 404.25 1687.41 399.941C1680.33 396.301 1675.73 395.439 1673.62 397.355C1672.19 399.079 1669.89 430.396 1666.73 545.894L1676.78 545.319C1682.24 544.745 1690 544.745 1694.02 545.032C1700.05 545.607 1699.48 546.469 1689.71 549.629C1683.39 551.64 1680.23 553.651 1682.53 553.939C1684.83 554.226 1693.16 555.088 1701.2 555.663C1709.82 556.525 1717.58 558.823 1720.74 561.983C1725.05 566.006 1725.91 566.006 1725.91 562.558C1725.91 560.26 1723.61 555.088 1720.74 551.066C1717.87 547.043 1713.84 538.999 1711.83 533.252C1710.11 527.219 1708.96 521.473 1709.82 520.324C1710.68 518.887 1715.86 520.324 1721.31 523.197C1726.77 525.782 1731.37 529.23 1731.37 530.954C1731.37 532.678 1733.67 534.689 1736.25 535.551C1740.28 536.988 1740.85 536.126 1739.13 532.678C1737.98 530.092 1739.13 523.197 1742 516.588C1744.87 510.268 1748.03 505.096 1749.18 505.096C1750.62 505.096 1751.48 508.257 1751.48 512.279C1751.48 516.301 1753.49 520.036 1755.79 520.898C1758.09 521.76 1762.97 520.324 1766.42 518.025C1770.15 515.727 1773.89 513.715 1775.04 513.715C1776.47 513.715 1777.34 516.301 1777.34 519.462C1777.34 522.622 1779.35 525.208 1781.65 525.208C1783.94 525.208 1785.95 526.357 1785.95 528.081C1785.95 529.805 1783.37 532.678 1780.21 534.689C1777.05 536.413 1774.46 538.999 1774.46 540.435C1774.46 541.584 1777.05 542.446 1780.21 542.446C1783.37 542.446 1785.38 543.596 1784.52 545.319C1783.66 547.043 1784.81 550.204 1786.53 552.502C1789.4 556.237 1789.4 557.099 1786.53 556.812C1784.81 556.812 1782.51 555.088 1781.93 553.364C1781.36 551.353 1780.21 550.491 1779.06 551.928C1778.2 553.077 1777.91 555.088 1778.77 556.812C1779.63 558.536 1785.38 559.685 1791.7 559.685C1798.02 559.685 1807.79 562.271 1813.25 565.431C1819.86 569.166 1824.45 570.315 1826.75 568.592C1829.24 566.868 1830.49 567.251 1830.49 569.741C1830.49 571.752 1829.05 572.901 1827.61 571.752C1825.89 570.89 1827.9 573.763 1831.92 577.786C1835.94 582.095 1839.39 584.968 1839.68 584.106C1840.25 583.244 1839.68 580.946 1838.53 579.222C1837.38 577.211 1835.94 573.763 1835.66 572.039C1835.08 570.028 1835.94 568.879 1837.67 569.741C1839.1 570.603 1841.12 567.73 1841.69 563.42C1841.98 558.823 1842.84 566.006 1843.13 579.222C1843.13 592.726 1844.56 602.781 1846.29 602.781C1847.72 602.781 1848.87 600.483 1848.3 597.897C1848.01 593.875 1850.02 592.438 1857.78 591.864C1863.24 591.576 1868.98 592.438 1870.71 594.162C1872.72 596.173 1870.99 597.035 1865.54 597.035C1861.23 597.035 1857.2 598.185 1856.34 599.908C1855.48 601.632 1856.92 603.356 1859.22 604.218C1861.51 605.08 1867.26 605.655 1872.14 605.655C1878.75 605.655 1880.47 604.505 1879.9 600.77C1879.52 597.323 1881.43 595.407 1885.65 595.024C1891.1 594.449 1892.25 595.599 1892.25 601.345C1892.25 605.367 1893.4 608.528 1895.13 608.528C1897.14 608.528 1898 663.978 1898 769.421C1898 920.259 1897.71 930.315 1892.83 932.039C1889.96 932.901 1886.51 931.464 1884.5 928.304C1882.49 925.43 1878.75 920.833 1875.88 918.248C1873.01 915.375 1869.84 913.938 1868.41 914.513C1867.26 915.375 1866.4 913.938 1866.4 911.64C1866.4 908.766 1864.48 907.809 1860.65 908.766C1856.82 909.724 1854.33 908.575 1853.18 905.319C1852.03 900.722 1851.46 900.722 1849.16 904.457C1847.72 906.755 1846.29 910.778 1846.29 913.076C1846.29 915.375 1850.88 919.684 1856.92 922.557C1862.95 925.43 1871.57 930.602 1885.07 941.232L1873.58 943.244C1867.26 944.393 1860.36 945.542 1858.35 946.404C1856.63 946.979 1855.19 949.852 1855.77 952.725C1856.34 957.035 1859.5 957.609 1898 956.173V977.146C1898 994.672 1897.14 998.407 1892.25 1001.57C1887.37 1004.44 1886.51 1004.15 1886.51 1000.13C1886.22 995.247 1886.22 995.247 1882.77 999.844C1880.76 1002.72 1878.46 1004.73 1877.03 1005.02C1875.88 1005.02 1875.02 1003 1875.02 1000.71C1875.02 998.407 1873.58 996.396 1872.14 996.396C1870.42 996.396 1868.41 998.694 1867.55 1001.57C1866.11 1006.16 1865.54 1005.88 1861.8 1000.71C1858.35 995.821 1857.49 995.534 1854.91 999.269C1853.47 1001.57 1852.03 1009.04 1852.03 1015.93C1852.03 1027.71 1851.75 1028 1841.98 1028C1833.93 1028 1831.63 1026.85 1830.49 1021.68C1829.62 1017.94 1829.05 1011.91 1829.05 1007.89C1829.05 1001.85 1827.9 1000.99 1821 1001.85C1816.7 1002.43 1811.81 1004.73 1810.38 1006.74C1808.08 1009.9 1806.35 1009.61 1801.76 1005.02C1798.6 1001.57 1795.15 998.982 1793.71 999.269C1792.56 999.269 1791.7 1002.14 1791.7 1005.88C1791.7 1010.76 1791.13 1011.62 1788.25 1008.75C1785.38 1005.88 1783.66 1005.88 1780.78 1008.75C1777.91 1011.62 1777.05 1011.05 1777.34 1007.31C1777.34 1004.44 1775.9 1001.57 1774.46 1000.71C1772.74 999.844 1769.58 1003.29 1767.28 1007.89C1764.98 1012.49 1762.97 1019.09 1762.97 1022.25C1762.97 1026.56 1760.96 1028 1754.93 1028C1749.76 1028 1744.01 1024.55 1737.4 1017.08C1731.66 1010.76 1727.35 1007.89 1726.77 1010.19C1725.91 1012.77 1723.9 1012.2 1719.59 1008.75C1714.71 1004.44 1712.98 1004.15 1708.1 1007.31C1705.22 1009.04 1702.06 1010.76 1701.2 1010.76C1700.34 1010.76 1699.77 1008.75 1699.77 1006.45C1699.77 1004.15 1698.33 1002.14 1696.89 1002.14C1695.17 1002.14 1694.02 1003.29 1694.02 1005.02C1694.02 1006.74 1691.15 1007.6 1687.41 1007.31C1681.95 1006.45 1681.09 1007.89 1680.23 1017.37C1679.66 1027.71 1679.37 1028 1668.16 1028C1656.67 1028 1656.67 1028 1658.11 1018.81C1658.97 1013.63 1658.68 1007.6 1657.53 1005.59C1655.81 1003 1653.22 1002.72 1648.05 1004.73C1644.03 1006.16 1588.58 1008.75 1524.52 1010.47C1460.45 1012.2 1348.12 1015.65 1274.57 1017.94C1201.02 1020.24 1117.13 1023.69 1087.83 1025.13C1057.09 1026.85 858.855 1028 616.665 1028C304.089 1027.71 200.088 1027.14 204.397 1024.55C207.558 1022.83 211.005 1019.67 212.154 1017.37C213.591 1015.36 216.177 1014.5 217.9 1015.65C219.911 1016.79 229.392 1018.81 238.873 1020.24C248.354 1021.68 258.122 1022.83 260.42 1022.83C262.718 1022.83 275.647 1022.25 289.149 1021.68C302.652 1021.1 315.293 1019.38 317.017 1018.52C319.028 1017.37 321.326 1017.37 321.901 1018.81C322.476 1019.96 328.796 1020.53 335.691 1020.24C342.299 1020.24 374.476 1019.09 406.94 1018.23C439.405 1017.37 548.002 1015.93 648.268 1014.78C748.534 1013.92 831.849 1012.2 833.573 1011.34C835.009 1010.47 873.22 1010.19 918.325 1010.47C963.43 1010.76 1007.67 1009.9 1016.87 1008.75C1031.81 1006.74 1033.53 1005.59 1036.12 997.833C1037.84 993.236 1038.99 987.489 1038.99 985.766C1038.99 982.892 1024.34 982.318 970.613 983.754C933.264 984.616 868.336 986.34 826.391 987.777C784.445 989.5 685.616 991.799 606.61 993.523C527.604 994.959 408.664 997.545 342.299 999.269C275.934 1000.99 220.199 1003.58 218.762 1004.73C217.038 1006.16 208.994 1007.03 200.663 1006.16C192.618 1005.59 185.723 1005.88 185.723 1007.31C185.436 1008.46 188.309 1011.91 191.469 1015.07C194.629 1018.23 197.502 1022.54 197.215 1024.55C197.215 1027.14 190.033 1028 171.359 1028C147.226 1028 145.215 1027.71 143.204 1021.68C141.767 1017.94 138.894 1014.21 136.596 1013.06C134.298 1011.91 130.275 1012.49 127.402 1014.5C124.817 1016.51 116.485 1017.66 109.59 1017.37C102.408 1016.79 96.6619 1017.37 96.6619 1018.81C96.6619 1019.96 91.2034 1021.1 84.3083 1021.1C77.7005 1021.39 69.6562 1022.83 66.496 1024.55C63.0485 1026.28 31.7334 1027.43 -92.378 1026.56L-84.0464 1017.37C-79.4497 1012.2 -76.2895 1006.74 -77.1514 1005.02C-78.0132 1003.29 -80.8862 1003 -83.7591 1003.87C-86.6321 1004.73 -90.9415 1007.31 -93.2399 1009.61C-96.6874 1013.06 -97.8366 1013.06 -100.71 1008.75C-104.157 1003.87 -104.444 1004.15 -105.881 1010.19C-106.743 1013.63 -108.754 1016.51 -110.19 1016.51C-111.914 1016.51 -113.063 1014.5 -113.063 1012.2C-113.063 1009.32 -114.978 1008.37 -118.809 1009.32C-123.693 1010.47 -124.268 1009.61 -122.831 1003C-121.682 998.407 -118.235 989.501 -114.787 982.892C-111.627 975.997 -109.616 969.963 -111.052 969.102C-112.201 968.24 -115.649 968.814 -118.809 970.538C-121.969 972.262 -125.13 972.836 -125.991 971.975C-126.853 971.113 -123.119 967.378 -118.235 963.355C-113.063 959.62 -103.582 954.736 -85.7702 948.415L-97.8366 941.52C-104.444 937.785 -109.041 933.475 -107.892 932.039C-106.743 930.602 -98.4112 930.315 -89.505 931.177C-74.5657 932.901 -72.5546 932.613 -70.8309 927.442C-69.3944 923.994 -67.3833 921.983 -65.6596 922.557C-64.2231 923.132 -61.6374 926.292 -59.9137 929.74C-58.4772 933.188 -56.1788 936.061 -55.0297 936.061C-53.5932 936.061 -52.1567 934.05 -51.2948 931.751C-50.4329 928.878 -46.1235 927.442 -26.8748 927.442L-28.3113 915.375C-28.8858 908.479 -30.6096 888.367 -31.7588 870.554C-33.7699 841.249 -34.6317 837.514 -40.6649 833.779C-44.1125 831.48 -48.9965 825.447 -51.2948 820.562C-55.317 811.656 -55.6043 811.368 -57.0407 817.689C-57.9026 821.137 -59.9137 824.01 -61.3501 824.01C-63.0739 824.01 -64.7977 821.999 -65.6596 819.7C-66.5215 817.402 -69.1071 815.391 -71.4055 815.391C-73.7038 815.391 -78.3005 818.838 -87.494 831.193L-86.0575 820.562C-84.621 811.368 -85.1956 809.645 -89.505 809.645C-92.0907 809.645 -96.9747 811.368 -100.135 813.954C-103.295 816.253 -107.605 818.264 -109.616 818.264C-111.627 818.264 -113.063 814.529 -112.776 809.07C-112.776 803.898 -111.627 797.003 -110.478 793.843C-109.041 790.682 -103.582 786.66 -98.4112 784.936C-89.7923 782.063 -89.2177 781.201 -94.389 779.477C-97.5493 778.04 -104.732 775.455 -120.246 769.134L-113.063 763.388C-109.041 760.227 -103.295 757.641 -100.135 757.641C-96.9747 757.929 -88.0686 759.653 -80.0243 761.951C-72.2673 764.537 -65.3723 765.686 -65.085 765.111C-64.5104 764.25 -71.4055 759.365 -80.0243 754.481C-89.2177 748.735 -95.8255 742.989 -95.8255 740.116C-95.8255 736.955 -92.9526 734.369 -88.0686 733.22C-83.4718 732.071 -74.2784 732.071 -67.096 732.646C-59.9137 733.508 -51.5821 735.231 -48.4219 736.38C-43.5379 738.392 -43.5379 737.817 -49.8584 730.922C-53.8805 726.612 -61.9247 719.717 -67.9579 715.407C-73.9911 711.097 -78.8751 706.788 -78.5878 705.638C-78.5878 704.202 -74.2784 704.202 -69.3944 705.064C-63.3612 706.213 -59.0518 705.638 -57.9026 703.627C-56.4661 701.903 -58.4772 696.732 -62.212 691.847C-65.6596 687.25 -67.6706 682.366 -66.5215 681.217C-65.3723 679.781 -58.4772 682.366 -51.2948 686.963C-44.1125 691.273 -38.3666 693.571 -38.3666 691.847C-38.3666 690.124 -39.803 686.101 -41.8141 682.654C-44.9743 676.333 -44.6871 676.045 -37.5047 678.344C-33.1953 679.493 -30.3223 679.493 -31.1842 678.344C-31.7588 676.907 -30.6096 673.172 -28.3113 669.725C-26.0129 665.99 -22.2781 663.117 -20.5543 663.117C-18.5432 663.117 -12.51 658.807 -7.33875 653.635C-2.16743 648.751 1.85471 642.43 1.85471 640.132C1.85471 637.259 -1.59284 639.27 -7.62603 645.591C-16.5322 655.072 -16.8195 655.072 -19.1178 649.326C-20.267 645.591 -24.5764 642.143 -29.1731 641.281C-33.4826 640.132 -40.0903 637.546 -44.1125 635.247C-50.7202 631.225 -51.5821 631.225 -55.0297 636.109C-57.6153 640.132 -59.3391 640.706 -60.7756 638.121C-62.212 635.535 -65.3723 635.247 -72.8419 637.259C-78.3005 638.982 -83.1845 640.132 -83.7591 640.132C-84.0464 640.132 -83.7591 637.546 -82.8973 634.385C-82.0354 630.363 -83.4718 627.777 -88.0686 625.479C-91.5161 623.468 -98.9858 622.893 -105.306 624.042C-111.052 624.904 -115.936 624.904 -115.936 623.755C-116.223 622.319 -112.489 620.02 -108.179 618.009C-103.87 615.998 -95.5382 613.412 -90.0796 611.975C-82.3227 610.252 -79.737 607.953 -79.1624 602.494C-78.5878 598.759 -76.8641 594.449 -75.1403 592.726C-73.7038 591.002 -65.085 587.554 -56.1788 584.968C-47.2727 582.095 -37.2174 579.797 -34.0572 579.797C-30.8969 579.797 -23.4272 581.521 -17.6814 584.106C-11.6482 586.405 -6.18956 588.416 -5.32767 588.416C-4.46579 588.416 -3.8912 582.382 -4.1785 574.912C-4.1785 567.155 -5.32767 554.801 -6.18955 546.756C-7.91332 535.264 -9.34979 532.678 -13.3719 533.252C-15.9576 533.54 -18.5432 532.103 -18.5432 530.379C-18.8305 528.368 -19.6924 530.379 -20.8416 534.976C-21.7035 539.861 -24.0018 543.308 -25.4383 543.021C-27.1621 543.021 -29.4604 537.849 -30.6096 531.816C-31.7588 525.782 -34.0572 519.749 -35.2063 518.025C-36.9301 516.301 -38.9412 518.887 -40.9522 524.633C-42.676 529.517 -45.5489 533.827 -46.9854 533.827C-48.7092 533.827 -51.0075 531.529 -52.7313 528.943C-55.317 524.346 -56.1788 524.346 -62.7866 531.816C-66.8088 536.126 -70.5436 539.573 -71.4055 539.573C-72.2673 539.573 -72.8419 536.126 -73.1292 523.771L-76.5768 530.954C-79.737 537.562 -80.0243 536.987 -80.5989 523.197C-81.1735 514.865 -82.8973 507.969 -84.3337 507.969C-86.0575 507.969 -89.7923 511.417 -92.9526 516.014C-97.8366 522.909 -98.4112 523.197 -98.6985 518.025C-98.9858 512.853 -99.2731 512.566 -102.433 517.163C-104.444 520.036 -107.892 522.047 -110.19 522.047C-112.489 522.047 -116.511 524.059 -118.809 526.644C-121.107 529.23 -123.693 531.241 -124.555 530.954C-125.417 530.954 -126.279 523.197 -126.853 513.715C-127.428 498.488 -126.566 495.328 -119.671 487.283C-114.5 481.537 -112.776 477.802 -115.362 477.227C-117.085 476.652 -118.809 473.779 -118.809 470.619C-118.809 467.458 -115.936 462.862 -112.489 460.563C-107.892 457.69 -98.6985 456.253 -83.7591 456.253C-71.4055 456.253 -61.9247 455.391 -62.4993 454.242C-63.0739 452.806 -73.4165 447.06 -85.4829 441.313C-97.5493 435.28 -106.743 429.246 -105.881 427.522C-105.019 425.799 -99.8476 424.649 -94.389 424.649C-88.9304 424.649 -77.4387 427.235 -54.1678 436.142L-64.7977 425.511C-70.8309 419.478 -75.7149 413.732 -75.7149 412.582C-75.7149 411.146 -71.4055 411.146 -66.5215 412.008C-61.3502 412.87 -54.7424 414.019 -52.1567 414.881C-47.8473 415.743 -47.56 415.168 -49.8584 410.284C-51.7737 406.453 -51.7737 404.538 -49.8584 404.538C-48.4219 404.538 -42.3887 408.273 -26.8748 421.776L-21.9908 413.444C-18.5432 408.273 -15.0957 405.687 -11.9355 406.262C-9.06251 406.836 -6.76415 409.997 -6.76415 413.157C-6.76415 416.892 -4.17849 419.765 9.03706 423.5L-2.45473 429.821C-8.77521 433.556 -13.0846 437.004 -11.9355 437.578C-10.499 438.44 -6.76414 437.004 -3.3166 434.705C0.418221 432.407 9.03706 430.396 16.2194 430.396C23.4018 430.396 31.1588 431.545 33.4571 433.269C35.7555 434.705 37.1919 436.142 36.3301 436.716C35.4682 437.291 29.7223 440.164 23.6891 443.324C17.3686 446.485 11.91 450.795 11.3354 452.806C10.7608 455.392 13.9211 455.679 23.9764 454.242C31.7333 453.38 40.3522 452.518 43.5124 452.806C46.6727 453.093 49.8329 454.242 50.6948 455.104C51.5567 455.966 49.5456 458.552 46.3854 460.85C43.2251 463.149 39.203 465.447 37.7665 466.022C36.0428 466.597 41.7887 474.067 49.8329 483.261C58.1645 492.167 65.0595 500.499 65.0595 502.223C65.0595 503.947 62.7612 504.234 59.8882 503.372C57.3026 502.51 50.9821 501.074 37.7665 498.201L50.6948 519.462L42.076 525.208C36.3301 529.039 33.4571 529.805 33.4571 527.506C33.4571 524.633 32.8825 524.633 30.0096 527.219C27.1366 529.805 24.8383 529.517 19.0924 524.921C15.0703 521.76 10.4735 519.174 9.03706 519.462C7.31329 519.462 6.73869 530.954 7.60059 550.778C8.74976 578.073 9.89894 583.244 15.6448 590.427C19.0924 594.737 24.8383 603.069 28.2858 608.528C34.0317 617.722 34.8936 618.009 36.6174 612.837C37.7665 609.677 40.0649 597.323 41.7887 585.543C43.7997 573.763 46.96 562.271 48.6837 560.26C51.2694 557.099 51.2694 555.95 47.8219 553.939C45.2362 552.502 44.3743 549.916 45.5235 547.043C46.96 544.458 57.3026 537.849 68.5071 532.391C88.0431 523.484 92.6398 522.335 169.922 517.45L188.596 526.932C198.939 532.103 211.005 540.148 215.889 545.032C221.922 550.778 226.232 552.79 229.679 551.64C232.552 550.491 234.563 547.618 233.989 545.319C233.414 542.446 230.254 541.297 225.083 541.872C218.475 542.446 217.326 541.297 217.326 535.264C217.326 531.241 214.165 522.335 210.143 515.152C206.121 507.969 202.386 503.085 201.525 504.521C200.663 505.671 199.801 509.118 199.801 512.279C199.801 517.45 199.513 517.45 196.928 511.704C195.491 507.969 193.48 505.096 192.044 505.096C190.895 505.383 188.596 507.395 186.585 510.268C183.138 514.865 183.138 514.865 182.85 510.268C182.85 506.245 180.839 505.383 174.806 505.958C170.497 506.245 164.464 508.257 161.303 510.268C158.143 511.992 154.695 512.853 153.259 512.279C152.11 511.417 155.845 503.372 161.303 494.466C166.762 485.272 171.359 476.94 171.359 475.79C171.359 474.354 169.348 473.492 167.049 473.492C164.751 473.492 162.74 471.481 162.74 469.182C162.74 466.884 166.187 463.149 170.497 460.85C175.093 458.839 184.287 455.966 204.397 452.806L196.066 446.772C191.182 443.037 188.596 439.015 189.458 437.004C190.895 434.131 197.79 433.843 216.464 435.28C235.713 436.716 241.171 436.429 239.447 433.843C238.298 431.832 232.84 429.246 227.381 427.522C221.922 425.799 217.9 423.5 218.762 421.776C219.624 420.052 225.37 419.478 231.69 420.34C238.011 421.202 243.182 421.202 243.182 420.34C243.182 419.478 240.884 415.743 238.011 411.72C235.425 407.698 233.989 403.388 235.425 402.239C236.574 401.09 242.32 402.526 248.354 405.687C254.961 409.135 260.42 409.997 263.006 408.56C265.879 406.549 266.453 402.814 265.017 393.907C263.58 382.989 263.867 381.553 269.039 381.553C273.923 381.553 274.785 383.564 274.785 393.045C274.785 403.676 275.359 404.538 282.542 404.538C289.724 404.825 290.011 405.112 285.702 408.273C282.829 410.284 280.818 412.295 280.531 413.157C280.531 414.019 285.415 414.019 291.448 413.732C298.343 412.87 302.652 414.019 304.089 416.605C305.238 418.903 303.227 422.064 298.343 425.224C294.033 428.097 288 430.396 284.84 430.396C279.381 430.396 279.381 430.683 285.415 434.705C291.16 438.44 293.746 438.44 306.962 434.992C315.293 432.694 323.05 431.257 324.199 432.119C325.636 432.694 323.625 437.004 319.89 441.888C316.442 446.485 314.144 450.795 315.006 451.369C315.868 451.656 321.326 454.242 327.072 457.115C333.105 459.701 337.99 463.149 337.99 464.873C337.99 466.597 335.978 467.171 333.68 466.309C331.382 465.447 326.785 466.022 323.625 467.746C319.794 469.661 317.879 473.492 317.879 479.238C317.879 485.272 316.73 487.283 314.144 485.846C312.42 484.41 307.824 483.548 304.376 483.548C299.779 483.548 297.768 485.272 297.768 489.294C297.768 492.454 296.044 499.924 293.459 505.958C290.011 514.577 289.724 518.025 292.597 523.771C295.183 528.943 298.63 530.954 303.514 530.954C307.536 530.667 315.006 526.932 319.89 522.335C325.061 517.45 331.956 513.715 335.117 513.715C338.277 513.715 347.758 516.301 355.802 519.462C364.133 522.622 376.2 529.23 394.012 543.308L411.824 536.987C425.902 532.391 436.819 530.954 461.526 530.954C489.107 530.954 495.14 530.092 509.504 523.771C518.698 519.749 531.052 515.152 536.797 513.715C544.076 511.8 553.461 505.096 564.952 493.604C578.455 480.1 582.19 477.514 582.19 482.111C582.19 485.272 583.339 490.156 584.776 493.029C586.212 495.615 599.428 503.66 614.08 510.842C630.743 518.887 643.384 527.219 647.98 533.252C652.003 538.424 658.61 543.308 662.633 544.17C667.421 545.128 670.485 544.17 671.826 541.297C673.262 538.711 676.135 536.7 678.434 536.7C680.732 536.7 683.605 538.424 684.754 540.723C686.191 542.734 689.064 545.319 691.362 546.181C694.522 547.331 693.948 547.905 689.926 547.905C684.754 547.905 684.754 548.48 688.489 552.502C690.787 555.088 691.362 557.099 689.926 557.099C688.202 557.387 691.649 558.536 697.108 560.26C702.566 561.696 710.611 563.42 714.92 564.282C721.815 565.144 722.964 564.569 722.964 558.248C722.964 553.364 720.953 550.491 716.357 549.055C710.036 547.043 710.036 547.043 717.219 545.319C721.528 544.17 724.688 541.297 724.688 538.137C724.976 534.976 725.263 527.794 725.55 522.335C725.837 514.865 726.699 513.428 728.71 516.588C730.147 518.887 731.583 523.484 731.583 526.644C731.583 529.805 733.594 535.838 735.893 540.435C738.191 544.745 738.766 548.193 737.329 548.193C735.605 548.193 734.456 549.916 734.456 551.928C734.456 553.651 741.064 559.398 749.396 563.995C757.727 568.879 766.921 572.327 769.506 572.039C772.379 571.465 774.677 568.592 774.677 565.431C774.677 561.122 777.55 558.823 785.307 556.812C791.341 555.375 801.109 553.939 806.855 553.939C814.037 553.939 818.346 552.502 819.208 549.629C820.07 546.756 824.667 545.319 832.711 545.319C842.479 545.032 846.214 546.469 849.661 551.64C853.971 557.674 857.418 558.536 884.137 559.972C900.513 561.122 917.75 562.845 922.634 564.282C929.817 566.006 930.678 565.719 928.38 562.271C926.656 559.972 925.507 556.237 925.795 553.939C925.795 551.64 927.518 546.181 929.242 541.872C931.253 537.275 932.69 530.667 932.69 526.644C932.69 522.622 933.839 518.887 935.562 518.025C937.286 517.163 938.435 521.185 938.435 527.506C938.148 534.402 940.447 541.01 951.364 554.801L944.756 553.077C940.159 551.64 938.435 552.215 938.435 555.375C938.435 558.536 941.883 559.685 951.938 559.685C959.695 559.685 968.889 558.823 972.911 557.961C977.22 556.812 978.657 555.375 976.646 554.226C974.635 553.364 978.37 550.204 986.126 546.756C993.021 543.596 998.767 540.148 998.767 538.999C998.767 537.562 995.894 537.562 992.16 538.424C988.712 539.573 984.115 541.872 982.104 543.596C979.231 546.181 978.944 545.319 980.668 539.861C982.104 536.126 984.69 532.103 986.414 530.667C988.712 529.23 993.883 529.23 998.767 530.954C1003.36 532.678 1007.39 532.965 1007.39 531.816C1007.67 530.379 1003.65 527.794 998.767 526.07C994.171 524.059 990.723 521.185 991.585 519.462C992.543 517.546 995.607 517.546 1000.78 519.462C1005.38 521.185 1010.55 521.76 1012.27 520.898C1014.28 520.036 1016.01 514.865 1016.01 509.406C1016.01 502.51 1017.44 499.35 1020.31 499.35C1022.61 499.35 1026.64 503.947 1028.93 509.406C1031.23 514.865 1034.39 519.462 1036.12 519.462C1037.55 519.462 1038.99 521.473 1038.99 523.771C1038.99 526.07 1041 527.794 1043.87 527.506C1046.46 526.932 1051.92 522.047 1055.65 516.588C1059.39 511.13 1063.41 506.245 1065.13 505.958C1066.57 505.383 1068.29 509.406 1068.58 514.577C1069.15 519.462 1070.59 526.07 1071.45 528.943C1072.89 532.678 1072.03 533.827 1067.72 533.827C1064.56 533.827 1061.97 534.976 1061.97 536.7C1061.97 538.424 1064.85 538.999 1068.29 538.424C1072.03 537.849 1078.35 538.711 1082.94 540.723C1087.25 542.446 1090.7 544.745 1090.7 546.181C1090.7 547.331 1086.39 548.193 1081.22 548.48C1073.75 548.48 1073.18 549.055 1077.77 550.778C1080.93 552.215 1085.53 552.502 1087.83 551.353C1090.41 550.491 1091.28 550.778 1090.13 552.502C1088.98 554.226 1091.28 557.099 1095.01 559.11C1099.03 560.834 1105.64 564.282 1109.95 566.293C1113.97 568.017 1127.48 569.741 1139.83 569.741C1152.18 569.741 1161.38 570.603 1160.23 571.752C1159.08 572.901 1151.03 576.349 1142.41 579.222C1133.8 582.382 1126.33 586.117 1125.75 588.129C1125.46 589.852 1126.9 591.289 1128.62 591.289C1130.64 591.289 1147.87 585.543 1166.83 578.36C1185.8 571.177 1201.6 565.431 1201.88 565.431C1202.46 565.431 1201.88 566.868 1200.45 568.879C1199.01 571.465 1200.16 572.039 1204.18 570.89C1207.63 569.741 1211.65 571.177 1214.24 573.763C1216.54 576.062 1220.85 582.957 1223.43 588.991C1228.32 599.621 1229.18 599.908 1242.97 599.908C1250.72 599.908 1257.33 599.046 1257.33 597.897C1257.62 596.461 1254.75 593.013 1251.59 589.852C1248.43 586.692 1245.55 581.808 1245.84 579.222C1245.84 576.349 1248.43 573.476 1251.59 572.614C1254.75 571.752 1257.91 572.327 1258.77 574.05C1259.63 575.774 1263.08 576.924 1266.53 576.924C1270.26 576.924 1274.86 578.36 1276.87 580.371C1280.03 583.532 1281.18 583.244 1283.48 579.222C1284.91 576.349 1287.21 574.05 1288.93 574.05C1290.37 574.05 1292.96 576.924 1294.39 580.659C1296.4 585.255 1298.99 586.692 1303.87 585.83C1307.32 585.256 1313.93 587.267 1318.53 590.14C1322.84 593.3 1326.86 598.472 1327.72 602.207C1328.58 605.655 1330.31 608.528 1332.03 608.528C1333.47 608.528 1337.49 603.356 1340.65 597.035C1343.81 590.714 1347.54 585.543 1349.27 585.543C1350.7 585.543 1354.15 588.703 1356.45 592.726C1358.75 596.748 1360.76 604.218 1360.76 609.39C1360.76 618.583 1360.76 618.583 1374.84 618.583C1388.05 618.583 1389.49 619.445 1402.7 633.524C1410.46 641.856 1419.08 648.751 1421.67 648.751C1424.54 648.751 1426.84 648.464 1426.84 648.176C1426.84 647.602 1422.53 633.236 1416.78 615.71C1411.32 598.185 1406.73 582.957 1406.73 581.233C1406.73 579.509 1408.74 581.521 1411.04 585.543C1413.33 589.565 1419.65 602.204 1425.4 613.696L1425.4 613.699C1430.86 624.904 1435.46 635.535 1435.46 637.259C1435.46 638.982 1436.89 640.132 1438.33 640.132C1439.76 640.132 1441.2 636.397 1441.2 631.512C1441.2 626.628 1439.76 615.998 1438.04 607.953C1436.03 597.61 1436.03 591.864 1438.04 589.852C1440.05 587.841 1442.35 591.576 1444.94 601.345C1447.23 609.39 1450.39 615.998 1452.41 616.572C1454.13 616.86 1456.14 611.688 1457 603.643C1457.86 595.886 1460.45 587.841 1463.04 585.543C1467.34 581.808 1467.63 581.808 1467.06 585.543C1466.77 587.841 1466.48 592.726 1466.77 596.461C1466.77 599.908 1467.92 602.781 1469.07 602.781C1470.51 602.781 1473.09 597.035 1474.81 589.852C1476.83 582.67 1479.41 576.924 1480.56 576.924C1482 576.924 1482.57 580.371 1482 584.106C1481.71 589.278 1483.15 591.864 1487.74 593.875C1491.48 595.311 1495.21 595.886 1496.36 595.311C1497.8 594.737 1497.8 591.864 1496.94 589.278C1495.5 585.256 1496.36 584.681 1499.81 586.405C1502.68 587.554 1505.27 586.979 1506.42 584.968C1507.28 582.957 1505.84 579.797 1502.68 577.786C1497.51 574.625 1497.51 574.338 1504.41 572.901C1508.43 572.039 1512.74 572.901 1513.89 574.912C1515.61 577.498 1516.76 577.211 1517.91 574.05C1519.06 570.603 1519.92 570.89 1523.37 575.487C1525.67 578.647 1526.82 579.222 1525.95 576.924C1525.09 574.625 1525.67 569.166 1527.39 564.857C1529.11 559.685 1532.27 556.812 1536.01 556.812C1539.74 556.812 1540.89 555.663 1539.46 553.651C1538.31 551.928 1539.46 549.342 1541.75 547.905C1544.05 546.756 1548.94 546.181 1552.38 546.756C1558.13 547.905 1558.99 547.043 1558.99 539.573C1558.99 534.689 1560.43 530.954 1562.44 530.954C1564.45 530.954 1568.47 532.391 1571.35 534.402C1574.22 536.413 1576.8 541.01 1577.09 544.458C1577.67 549.916 1579.96 551.353 1590.59 552.79C1597.78 553.651 1605.82 555.088 1608.41 555.663C1611.28 556.237 1613.58 555.663 1613.58 553.939C1613.58 552.215 1616.74 551.066 1620.76 551.066C1626.22 551.066 1628.23 552.79 1630.82 565.431L1636.56 559.11C1641.16 553.651 1642.59 546.469 1644.03 518.025C1645.18 499.063 1645.18 472.343 1644.03 458.552C1642.59 437.866 1641.45 433.556 1638 434.705C1635.13 435.567 1631.96 432.407 1628.23 425.511C1625.36 419.478 1619.32 411.433 1615.01 407.411C1608.41 401.377 1607.54 401.09 1609.84 405.974C1611.57 409.135 1615.01 413.732 1617.6 416.03C1620.19 418.329 1622.48 421.202 1622.2 422.638C1622.2 423.787 1617.31 424.075 1611.28 423.213C1605.53 422.351 1598.64 421.489 1596.34 421.489C1594.04 421.489 1588.87 421.776 1584.85 422.064C1580.83 422.351 1575.08 421.489 1572.21 420.052C1566.75 417.467 1566.46 418.329 1568.47 438.44C1569.91 451.656 1569.33 459.126 1567.61 459.126C1566.17 459.126 1561.58 454.242 1550.37 437.578V447.06C1550.37 451.944 1549.51 456.253 1548.07 456.253C1546.93 455.966 1544.63 453.955 1542.62 451.082C1539.46 446.772 1539.17 447.059 1538.88 454.242C1538.88 458.552 1538.31 464.011 1537.45 466.309C1536.58 468.608 1534.28 470.619 1532.27 470.619C1530.55 470.619 1525.67 467.746 1515.04 457.69L1517.05 468.608C1518.2 475.79 1517.62 478.951 1515.61 478.664C1513.6 478.089 1510.44 473.205 1508.43 467.746C1506.42 462.287 1504.69 459.701 1504.69 462C1504.69 465.447 1503.83 465.735 1500.1 462.862C1496.65 459.701 1495.5 460.276 1494.06 465.735C1493.2 469.182 1490.62 476.365 1488.32 481.537C1485.73 487.57 1482.86 490.156 1479.99 489.294C1477.69 488.432 1475.68 489.007 1475.68 490.731C1475.68 492.454 1472.8 493.316 1469.36 493.029C1465.33 492.454 1462.46 489.869 1461.89 486.421C1461.31 483.261 1459.59 479.526 1458.15 477.802C1456.43 476.078 1455.57 480.1 1455.57 488.719C1455.57 496.764 1454.42 501.648 1452.69 500.786C1451.26 499.925 1449.82 496.764 1449.82 493.604C1449.82 490.443 1448.38 487.857 1446.95 487.857C1445.51 487.857 1444.07 491.018 1444.07 495.04C1444.07 499.063 1441.49 504.521 1438.62 507.395C1435.74 509.98 1429.71 515.152 1425.69 518.887C1421.67 522.335 1416.21 524.633 1413.91 523.771C1411.04 522.814 1408.64 525.208 1406.73 530.954C1404.43 537.562 1402.13 539.573 1396.67 539.573C1392.65 539.573 1387.19 541.872 1384.32 544.745C1381.73 547.618 1378 552.502 1376.56 555.375C1374.55 559.11 1371.96 559.972 1367.94 558.536C1363.06 556.812 1362.48 554.801 1363.92 544.458C1364.78 537.849 1370.24 522.335 1375.99 510.268C1381.73 497.913 1391.5 482.399 1397.25 475.79C1403.28 469.182 1417.93 456.541 1429.71 447.921C1441.49 439.015 1464.47 424.649 1480.85 416.03C1506.42 402.239 1510.44 399.366 1510.15 393.045C1510.15 389.023 1508.43 382.702 1506.42 378.967C1504.69 374.945 1501.53 371.497 1500.1 370.922C1498.37 370.635 1497.22 372.934 1497.51 376.669C1497.51 380.116 1497.22 383.851 1496.65 385.288C1496.07 386.437 1493.78 385.001 1491.48 382.415C1487.74 377.531 1487.46 377.818 1488.6 383.851C1489.75 388.161 1488.6 390.172 1485.73 390.172C1483.43 390.172 1480.85 389.023 1479.99 387.299C1479.12 385.575 1475.39 384.426 1471.37 384.426C1467.35 384.426 1463.61 382.415 1462.75 380.116C1461.89 377.818 1459.88 375.807 1458.44 375.807C1456.72 375.807 1455.57 378.105 1455.57 380.978C1455.57 385.001 1454.42 384.426 1444.07 371.497V381.553C1444.07 387.012 1443.21 394.194 1442.35 397.355C1441.49 401.09 1438.33 403.101 1433.16 403.388C1427.12 403.388 1424.25 401.377 1420.23 393.907C1417.64 388.736 1413.91 384.426 1412.47 384.426C1410.75 384.426 1409.6 390.172 1409.6 397.355C1409.6 404.538 1408.16 412.87 1406.73 416.03C1404.43 420.34 1402.7 421.202 1399.54 418.903C1396.38 416.892 1394.37 417.467 1391.5 421.489C1388.05 426.661 1387.76 426.661 1382.88 420.052C1380.29 416.317 1376.56 413.157 1375.12 413.157C1373.4 413.157 1372.25 420.052 1372.25 428.384C1372.25 439.015 1371.39 442.175 1369.38 439.015C1367.94 436.716 1366.5 431.257 1366.5 426.948C1366.5 421.202 1365.36 419.19 1362.2 420.34C1359.9 421.202 1357.31 419.765 1356.45 417.467C1355.59 415.168 1354.15 413.732 1352.71 414.306C1351.57 414.881 1349.84 421.776 1348.41 429.246C1347.26 437.004 1344.67 448.209 1342.66 454.242C1340.94 459.988 1338.35 464.873 1336.91 464.873C1335.76 464.873 1334.9 461.712 1334.9 457.69C1334.9 452.518 1333.75 450.795 1330.59 451.944C1328.01 452.806 1324.56 450.22 1317.95 437.578L1317.66 448.496C1317.66 454.53 1316.52 458.552 1314.79 457.69C1313.07 456.828 1311.92 453.093 1311.92 449.071C1311.92 445.048 1310.48 441.888 1309.05 441.888C1307.32 441.888 1305.6 444.761 1304.74 448.496C1303.87 451.944 1303.3 458.265 1303.3 462.862C1303.3 467.171 1301.86 470.044 1300.43 469.182C1298.7 468.32 1297.55 464.585 1297.55 460.563C1297.55 456.541 1296.12 452.806 1294.68 451.944C1292.96 451.082 1290.95 454.817 1288.07 469.182L1278.31 449.071L1269.11 462C1263.94 469.182 1258.77 476.94 1257.33 479.238C1255.9 481.537 1253.89 482.399 1252.45 481.249C1251.3 480.1 1251.59 472.343 1253.6 464.011C1255.32 455.679 1259.92 441.313 1263.37 431.832C1267.1 422.351 1273.71 410.284 1278.02 405.4C1282.33 400.228 1285.49 394.769 1284.63 393.045C1283.76 391.321 1280.03 390.747 1276.01 391.609C1271.98 392.471 1268.25 391.896 1267.39 390.172C1266.53 388.448 1269.11 386.724 1273.13 385.863C1278.31 384.713 1281.18 381.553 1283.48 373.795C1285.49 367.762 1292.1 355.408 1298.7 346.214C1305.6 336.158 1316.8 325.24 1326.28 318.919C1334.9 313.173 1357.02 301.106 1375.12 291.912C1393.22 283.006 1415.92 272.662 1425.4 269.502C1434.88 266.342 1446.09 263.756 1450.39 263.756C1454.99 263.756 1473.95 271.8 1527.1 299.67L1533.42 293.923C1536.87 290.763 1542.04 282.431 1544.91 275.248C1548.07 268.065 1549.8 261.745 1548.65 260.883C1547.79 260.021 1544.05 263.181 1533.71 276.685L1531.99 266.054C1531.12 260.021 1528.83 255.711 1527.39 256.573C1525.95 257.435 1525.09 261.17 1525.95 265.192C1527.1 270.651 1526.24 272.375 1522.22 272.375C1517.91 272.375 1517.62 270.651 1519.35 257.435C1520.21 249.103 1521.93 239.909 1522.79 237.323C1523.65 234.45 1523.08 232.152 1521.64 232.152C1520.21 232.152 1518.2 235.312 1517.33 239.334C1516.47 243.357 1512.74 247.666 1508.72 249.39C1504.69 250.827 1500.67 253.987 1499.52 255.998C1498.18 258.297 1496.94 257.052 1495.79 252.263C1494.64 247.666 1492.34 245.368 1489.18 245.943C1486.59 246.23 1484.3 245.943 1484.3 245.081C1484.3 244.219 1485.73 240.484 1487.17 236.461C1489.47 230.715 1489.18 229.279 1485.73 229.279C1482 229.279 1482 227.842 1486.02 217.212C1488.32 210.316 1491.48 204.283 1492.91 203.421C1494.06 202.559 1495.5 197.387 1495.79 191.928C1496.07 186.469 1496.07 180.436 1496.07 178.999C1495.79 177.563 1489.75 182.734 1469.93 204.857V194.227C1469.93 188.193 1469.36 181.298 1468.49 178.999C1467.63 176.701 1465.05 175.264 1462.75 176.126C1460.45 176.988 1458.44 176.701 1458.44 175.552C1458.73 174.115 1460.45 170.093 1462.75 166.07C1465.05 162.048 1466.77 156.015 1467.06 152.567C1467.06 148.832 1465.05 143.948 1462.75 141.649C1460.45 139.351 1454.42 136.765 1449.82 135.903C1444.94 135.041 1441.78 133.03 1442.64 131.593C1443.5 130.157 1449.53 128.72 1456.14 128.72C1464.18 128.433 1472.52 126.134 1479.99 121.537C1486.31 117.515 1493.49 114.355 1495.79 114.355C1498.09 114.355 1503.83 116.366 1508.72 118.952C1513.31 121.25 1524.52 124.698 1533.14 126.422C1541.75 127.858 1554.68 132.168 1561.87 135.903C1569.05 139.638 1583.7 150.556 1594.9 160.324C1611.57 174.977 1615.59 177.276 1618.75 174.115C1621.91 170.955 1621.62 168.369 1616.74 158.313C1610.99 146.533 1610.99 145.384 1615.3 132.455C1617.6 124.698 1623.06 114.929 1627.37 110.62C1631.68 106.023 1640.01 99.9892 1645.76 96.8288C1651.79 93.9557 1658.68 91.3699 1660.98 91.3699C1663.28 91.3699 1665.29 89.646 1665.29 87.9222C1665.29 85.911 1669.6 79.0156 1675.06 72.6948C1680.52 66.3739 1687.7 53.445 1691.15 43.9638Z" fill="#A2B969"/>
<path fill-rule="evenodd" clip-rule="evenodd" d="M1610.53 180.411C1612.25 180.411 1613.98 182.422 1614.84 184.72C1615.7 187.018 1616.28 193.625 1616.28 199.083C1616.28 204.541 1614.84 209.138 1613.4 209.138C1611.97 209.138 1609.09 205.691 1607.37 201.094C1605.93 196.785 1605.07 190.465 1606.22 186.731C1607.08 183.284 1609.09 180.411 1610.53 180.411ZM1807.88 185.582C1808.46 189.029 1807.31 194.487 1805.87 197.647C1804.43 200.807 1802.14 203.105 1801.27 202.531C1800.41 202.243 1801.27 196.785 1803.28 190.465C1806.44 181.56 1807.31 180.411 1807.88 185.295V185.582ZM1619.43 226.661C1620.87 226.661 1626.04 231.257 1630.64 236.715C1635.23 242.173 1639.26 248.78 1639.26 251.078C1639.26 253.664 1636.67 255.387 1632.65 255.387C1629.2 255.387 1622.88 251.653 1618.29 247.344C1613.98 243.035 1610.53 238.726 1610.53 237.29C1610.53 236.141 1612.83 236.141 1615.41 237.29C1619.43 239.301 1620.01 238.439 1618.57 232.981C1617.71 229.534 1618 226.661 1619.43 226.661ZM1592.43 272.623C1594.44 272.623 1596.74 274.06 1597.6 275.496C1598.46 276.932 1597.6 280.954 1596.17 284.114C1594.73 287.274 1591.57 289.285 1589.56 288.71C1587.84 288.423 1584.68 285.55 1583.24 282.965C1581.23 279.518 1581.52 277.507 1584.68 275.496C1586.97 274.06 1590.71 272.623 1592.43 272.623ZM1743.25 275.496C1744.4 275.496 1747.56 278.369 1749.85 281.816C1752.15 285.55 1754.16 290.147 1754.16 291.87C1754.16 294.168 1750.43 295.605 1745.54 295.605C1738.08 295.605 1736.93 294.456 1736.35 287.561C1736.06 282.965 1736.93 278.369 1738.36 277.507C1739.8 276.358 1741.81 275.496 1743.25 275.496ZM1851.83 304.223C1853.27 304.223 1855.57 307.095 1856.43 310.542C1857.58 314.277 1857.58 319.448 1856.43 322.033C1855.28 325.48 1851.83 327.204 1846.09 327.204C1841.49 327.204 1837.47 326.342 1837.47 324.906C1837.47 323.757 1840.06 318.586 1843.21 313.415C1846.37 308.532 1850.11 304.223 1851.83 304.223ZM1815.64 315.713C1817.36 315.426 1820.81 317.437 1823.11 320.022C1826.84 324.331 1826.84 325.193 1823.11 327.491C1820.81 328.927 1814.2 331.226 1808.74 332.949C1803.29 334.386 1796.97 335.822 1794.95 335.822C1793.23 335.822 1791.79 333.524 1792.37 330.651C1792.66 328.066 1795.82 325.48 1799.26 324.906C1802.71 324.331 1807.02 322.033 1809.03 319.735C1810.75 317.437 1813.63 315.713 1815.64 315.713ZM1490.74 324.906C1493.9 325.48 1497.06 327.491 1497.63 329.215C1498.21 331.513 1495.62 332.949 1491.31 332.949C1486.72 332.949 1484.13 331.513 1484.42 328.353C1484.42 325.48 1486.72 324.331 1490.74 324.906ZM1775.71 327.204C1779.73 327.204 1783.75 328.927 1784.61 330.651C1785.47 332.662 1785.19 335.535 1784.04 336.684C1782.6 338.12 1778.58 338.407 1774.85 337.545C1771.4 336.684 1768.53 333.811 1768.53 331.513C1768.53 328.927 1771.11 327.204 1775.71 327.204V327.204ZM1568.01 336.109C1573.19 337.545 1579.22 340.418 1581.23 342.429C1583.24 344.44 1584.96 346.738 1584.68 347.887C1584.68 349.323 1582.38 350.185 1579.51 350.185C1576.92 350.185 1570.31 347.6 1565.14 344.44C1560.26 341.28 1556.52 337.545 1557.39 336.109C1557.96 334.386 1562.27 334.386 1568.01 336.109V336.109ZM1836.03 351.621L1836.61 360.814C1837.18 365.985 1836.03 372.879 1834.6 376.039C1833.16 379.199 1830.29 381.21 1828.85 380.348C1827.42 379.486 1825.98 376.039 1825.69 372.305C1825.4 368.857 1827.7 362.538 1830.86 358.803L1836.03 351.621ZM1798.69 361.676C1800.99 361.676 1804.72 362.25 1807.31 363.112C1809.6 363.687 1811.62 367.134 1811.62 370.294C1811.62 374.89 1810.18 375.465 1805.01 374.315C1801.56 373.166 1796.97 371.156 1794.95 370.006C1792.94 368.57 1792.08 365.985 1792.94 364.548C1793.81 362.825 1796.39 361.676 1798.69 361.676ZM1634.09 382.359C1638.39 382.933 1640.98 385.806 1642.13 391.839C1642.99 396.435 1643.28 402.755 1642.13 405.627C1640.69 410.224 1638.97 409.362 1627.77 399.308C1616.28 388.966 1615.41 387.53 1621.16 387.53C1624.61 387.53 1627.77 386.093 1627.77 384.37C1628.05 382.646 1630.93 381.784 1634.09 382.359V382.359ZM268.999 539.78C270.435 539.78 272.446 542.079 273.308 544.664C274.17 547.537 274.17 552.133 273.308 554.718C271.872 559.315 274.744 559.889 306.343 559.889C326.452 559.889 341.39 561.038 342.252 562.762C342.826 564.198 337.368 567.933 329.899 571.092C322.43 573.965 312.376 577.412 307.78 578.561C302.896 579.71 292.267 583.732 283.937 587.467C270.148 593.786 268.999 594.936 270.435 602.117C272.159 609.873 271.872 609.873 267.563 604.415C264.403 600.394 262.966 592.637 262.966 577.7C262.966 566.209 264.403 556.155 266.126 555.58C268.041 554.623 268.041 552.707 266.126 549.835C264.403 547.249 263.828 544.089 264.69 542.653C265.552 540.93 267.563 539.78 268.999 539.78ZM597.631 549.835C602.514 550.409 616.303 551.846 628.368 552.707C640.721 553.857 650.775 555.867 650.775 557.304C650.775 558.74 647.902 560.464 644.455 561.325C641.008 561.9 628.656 562.762 617.165 562.762C605.674 562.762 595.62 561.325 595.045 559.889C594.184 558.166 591.598 559.027 589.3 561.9C585.566 566.783 583.842 566.783 551.956 561.325C533.858 558.166 518.633 554.431 518.633 553.282C518.633 552.133 532.134 552.133 548.221 552.995C567.181 554.144 579.82 553.857 583.268 551.846C586.427 550.122 592.747 549.26 597.631 549.835V549.835ZM238.836 554.718C249.465 554.144 251.476 555.006 250.901 558.74C250.614 561.613 248.603 564.198 246.592 564.485C244.294 565.251 243.815 564.102 245.156 561.038C246.879 557.304 246.305 556.729 241.996 558.74C239.123 560.176 237.4 563.049 237.687 565.634C238.261 567.933 241.709 571.092 245.156 572.816C249.752 574.827 251.763 578.849 253.199 590.052C254.061 597.808 254.348 604.415 254.061 604.703C253.487 604.99 249.752 606.139 246.018 607.288C239.985 608.724 238.261 607.862 236.538 602.404C235.389 598.67 234.527 589.765 234.527 582.87C234.527 575.689 232.516 567.358 230.218 564.198C227.92 561.038 225.909 557.591 225.909 557.016C225.909 556.155 231.654 555.293 238.836 554.718ZM62.4548 559.889C63.8912 559.889 65.0402 561.613 65.0402 564.198C65.0402 566.496 67.0511 568.22 69.9237 567.933C72.7964 567.358 78.2544 569.369 82.2762 572.242C86.0106 574.827 91.1814 576.551 93.7668 575.689C96.0649 574.827 100.948 576.551 104.396 579.71C108.13 583.158 111.577 584.307 112.439 582.87C113.014 581.147 115.024 580.572 116.748 581.434C118.184 582.009 119.621 588.616 119.621 595.797C119.621 602.692 119.046 608.724 118.759 608.724C118.472 608.724 113.588 606.713 108.13 604.128C99.7994 600.106 95.7777 599.819 86.5851 602.404C80.2653 604.128 73.9455 604.703 72.7964 604.128C71.6473 603.553 70.7855 604.128 70.7855 605.852C70.7855 607.288 67.6256 608.724 64.1784 608.724C60.7312 608.724 55.2732 607.001 52.4005 604.99C47.8043 602.117 47.2297 599.245 48.9533 586.318C49.8151 577.987 52.6878 568.794 55.2732 565.634C57.8586 562.475 61.0185 559.889 62.4548 559.889V559.889ZM225.334 577.7C228.207 578.274 230.505 581.721 230.793 586.318C231.08 590.627 230.793 594.361 230.218 594.361C229.356 594.361 226.196 591.488 223.036 587.754C220.164 584.307 218.44 580.285 219.302 579.136C220.164 577.7 222.749 577.125 225.334 577.7ZM208.673 579.998C210.109 579.998 212.12 581.721 212.982 584.307C213.557 586.605 214.418 591.776 214.418 595.797C214.418 599.532 212.982 602.979 211.546 602.979C209.822 602.979 207.811 605.564 207.237 608.724C206.375 611.884 204.364 614.47 202.928 614.47C201.204 614.47 199.768 610.735 199.768 606.426C199.768 602.117 201.204 594.361 202.928 589.19C204.651 584.019 207.237 579.998 208.673 579.998ZM128.239 582.87C129.675 582.87 131.111 585.456 131.111 588.616C131.111 591.776 132.835 594.936 135.42 595.797C137.718 596.372 140.878 596.372 142.602 595.797C144.038 594.936 145.475 592.925 145.475 591.488C145.475 589.765 143.464 589.19 141.166 590.052C138.58 590.914 136.857 589.765 136.857 587.179C136.857 584.594 138.293 582.87 140.304 582.87C142.315 582.87 145.475 583.732 147.773 584.881C149.784 586.03 151.22 589.477 150.645 592.637C150.071 595.797 146.049 599.245 141.166 600.681C136.282 602.117 130.824 602.692 128.813 601.83C126.802 600.681 125.366 596.085 125.366 591.488C125.366 586.605 126.515 582.87 128.239 582.87ZM681.8 582.87C682.949 582.87 685.821 584.019 688.407 585.743C691.854 588.041 691.854 588.328 687.545 588.616C684.672 588.616 682.661 589.765 682.661 591.488C682.661 592.925 685.247 594.361 688.407 594.361C691.567 594.361 694.727 595.51 695.588 597.234C696.45 598.957 698.174 598.957 700.472 597.234C702.77 595.797 705.643 595.51 708.515 597.234C710.814 598.67 722.304 599.819 734.369 599.819C746.147 599.819 761.085 598.67 767.405 597.234C773.725 596.085 805.898 594.361 839.221 593.786C885.758 593.212 899.547 593.786 900.122 596.372C900.409 598.383 900.696 604.99 900.696 610.735C900.696 616.768 901.558 620.502 902.994 619.066C904.143 617.917 905.867 611.31 906.729 604.99C907.878 593.499 908.165 593.212 920.23 592.35C928.561 591.776 932.295 592.637 932.295 594.936C932.295 597.808 933.157 597.808 936.604 594.936C939.19 592.925 941.488 592.35 942.062 593.499C942.637 594.648 945.51 602.692 954.128 627.397L954.702 609.299C955.564 591.488 955.564 591.488 964.182 590.627C969.065 590.339 973.662 590.914 974.236 592.063C975.098 593.212 977.109 592.925 979.12 591.488C981.131 590.052 985.44 589.477 988.599 590.339C992.621 591.488 994.058 593.786 993.483 598.67C992.908 603.266 995.494 608.15 1000.66 613.033C1004.97 617.055 1007.85 620.502 1007.27 621.077C1006.41 621.651 984.29 627.684 958.437 634.291C932.295 641.185 907.591 647.218 903.856 648.08C898.685 648.941 890.929 645.782 878.577 637.451C864.213 628.258 857.894 625.96 846.978 625.673C836.636 625.673 832.04 627.109 827.731 631.993C824.571 635.153 818.825 639.174 815.378 640.611C810.495 642.334 804.462 641.185 792.397 635.727C783.205 631.706 769.99 627.109 763.096 625.673C751.318 623.088 749.594 623.375 745.86 628.833C741.838 634.004 739.827 634.291 730.06 632.28C722.304 630.556 715.984 630.844 711.388 632.855C707.366 634.578 701.908 638.313 699.036 640.898C696.163 643.771 692.716 646.069 691.279 646.069C689.556 646.069 687.545 644.632 686.97 643.196C686.109 641.473 681.512 640.324 676.916 640.324C670.596 640.324 667.724 638.6 666.862 634.578C665.713 630.269 662.84 628.833 656.808 628.833C649.339 628.833 647.615 627.397 645.891 619.928C643.881 612.171 642.732 611.31 632.39 611.31C621.474 611.597 620.612 611.022 620.038 602.979C619.463 595.797 620.325 594.361 625.783 594.074C629.23 594.074 641.87 593.212 653.935 592.35C668.011 591.488 676.054 589.477 677.491 586.892C678.927 584.594 680.938 582.87 681.8 582.87V582.87ZM1481.55 597.234C1482.7 597.234 1484.13 599.819 1484.13 602.979C1484.13 606.139 1485.28 608.724 1487.01 608.724C1488.44 608.724 1489.88 610.161 1489.88 612.171C1489.88 614.182 1487.29 618.204 1484.13 620.789C1480.97 623.662 1476.95 625.96 1475.51 625.96C1473.79 625.96 1473.22 623.662 1474.37 620.789C1475.51 618.204 1476.95 611.597 1477.53 606.426C1478.1 601.255 1480.11 597.234 1481.55 597.234ZM141.166 608.724C146.624 608.724 151.794 609.873 152.656 611.597C153.231 613.033 152.369 617.055 150.358 620.215C148.347 623.375 145.762 625.96 144.613 625.96C143.464 625.96 140.017 623.375 136.857 620.215C133.697 617.055 131.111 613.033 131.111 611.597C131.111 609.873 135.42 608.724 141.166 608.724ZM22.8122 641.76C26.2593 642.909 31.4301 646.356 34.0155 649.803C37.1754 653.538 39.1863 660.432 39.1863 666.752C39.1863 673.646 37.75 677.668 35.4518 677.381C33.441 677.381 25.6848 673.359 18.2159 668.188C10.4597 663.017 4.42715 657.847 4.42715 656.698C4.42715 655.549 6.15075 653.538 8.44887 652.389C10.4597 651.24 13.0451 648.08 14.1942 645.207C15.9178 641.185 18.2159 640.324 22.8122 641.76V641.76ZM763.096 658.996C782.63 659.858 800.728 660.719 803.313 660.719C805.611 660.719 822.56 660.145 841.232 658.996C874.842 657.559 875.129 657.559 874.842 663.879C874.842 670.486 874.555 670.486 839.796 669.337C819.687 668.763 801.589 669.625 797.568 671.348C791.248 673.934 791.248 674.508 796.131 674.508C799.291 674.508 804.462 676.519 807.622 678.817C812.793 682.552 811.931 682.839 799.004 681.977C790.961 681.69 782.055 680.253 778.895 679.104C775.736 677.955 770.565 675.944 767.405 674.795C764.245 673.359 754.478 671.348 745.86 670.486C736.955 669.337 727.475 667.039 724.315 665.603C719.431 663.017 719.144 662.156 722.879 660.145C725.177 658.708 743.275 658.134 763.096 658.996V658.996ZM1038.58 663.592C1048.64 663.305 1056.39 663.879 1055.82 664.454C1054.96 665.316 1037.72 667.901 1017.33 670.199C996.643 672.785 974.236 674.795 967.055 674.795C960.16 674.795 955.564 673.934 957 673.359C958.437 672.497 973.374 669.912 990.036 667.901C1006.41 665.603 1028.24 663.879 1038.58 663.592ZM830.603 675.944C832.04 676.232 833.476 678.243 833.476 679.966C833.476 681.69 832.901 686.573 832.614 690.595C832.327 694.617 830.029 697.777 827.731 697.777C825.145 697.777 821.985 693.468 820.262 688.297C818.825 683.126 817.102 678.817 816.815 678.53C816.527 678.243 818.825 677.381 821.985 676.806C825.145 675.944 828.88 675.657 830.603 675.944V675.944ZM909.314 690.02C911.9 690.308 913.91 692.893 914.485 695.479C915.059 699.5 913.049 700.649 905.292 700.649C899.547 700.649 894.376 699.213 893.802 697.777C892.94 696.053 895.238 693.468 898.685 692.031C902.133 690.595 907.016 689.733 909.314 690.02V690.02ZM1094.03 692.606C1204.05 693.18 1264.66 694.329 1265.81 696.34C1266.39 697.777 1259.78 700.075 1250.01 701.511C1240.53 702.947 1223.58 704.096 1212.67 704.384C1201.46 704.384 1183.37 703.522 1172.45 702.086C1154.64 700.075 1150.62 700.362 1137.98 706.107C1129.93 709.555 1118.44 715.013 1112.12 718.172C1105.23 721.907 1098.62 723.343 1096.32 721.907C1093.74 720.758 1076.5 719.322 1057.54 719.034C1033.41 718.46 1021.92 719.034 1019.34 721.62C1016.18 724.205 1014.45 723.918 1010.72 719.896C1005.84 715.013 1006.12 714.725 1012.16 715.013C1015.6 715.013 1018.76 713.576 1018.76 712.14C1018.76 710.416 1016.46 709.267 1013.59 708.98C1010.72 708.98 1006.12 711.565 1002.96 715.013C999.803 718.173 994.058 720.758 990.61 720.758C986.014 720.758 984.29 719.034 984.29 715.013C984.29 710.416 982.28 709.267 975.673 709.267C970.789 709.267 967.055 707.831 967.055 706.395C967.055 704.671 968.204 703.522 969.927 703.522C971.364 703.522 972.8 702.086 972.8 700.649C972.8 698.926 963.033 698.064 948.382 698.351C930.572 698.926 923.965 698.064 923.677 695.479C923.677 692.893 961.022 692.319 1094.03 692.606V692.606ZM1279.31 692.031C1286.21 692.031 1288.22 692.893 1287.36 696.34C1286.4 699.213 1287.83 700.649 1291.66 700.649C1294.82 700.649 1297.98 698.638 1298.85 696.34C1300 692.606 1312.64 692.031 1389.91 692.031C1447.94 692.031 1478.1 692.893 1475.51 694.904C1472.93 696.34 1471.21 700.362 1471.21 704.096C1471.21 710.129 1469.48 710.704 1448.22 712.714C1435.58 713.864 1415.48 716.162 1403.7 717.598C1391.63 719.322 1351.7 721.332 1314.65 722.194C1277.3 723.056 1242.26 724.492 1236.22 725.067C1228.47 725.929 1225.02 725.354 1224.16 722.194C1223.01 718.747 1224.44 718.173 1230.48 719.322C1235.94 720.471 1239.1 719.609 1240.53 716.449C1241.97 713.864 1244.84 712.714 1248.57 713.576C1251.73 714.151 1254.03 713.864 1254.03 712.714C1254.03 711.565 1251.73 708.98 1249.15 707.256C1244.55 704.096 1244.84 703.522 1251.45 703.522C1255.18 703.522 1259.78 704.671 1261.5 706.107C1262.94 707.831 1267.25 708.405 1270.69 707.544C1274.14 706.969 1277.3 704.671 1277.3 702.66C1277.3 700.649 1275.58 697.489 1273.57 695.479C1270.69 692.606 1271.84 691.744 1279.31 692.031V692.031ZM228.782 715.3C234.24 715.3 245.73 716.449 254.636 717.598C268.424 719.609 266.701 719.896 240.272 720.183C219.876 720.471 211.258 719.609 214.418 717.885C216.717 716.162 223.036 715.013 228.782 715.3ZM28.8447 721.62C32.8665 723.343 35.4518 725.641 35.1646 726.503C34.5901 727.078 29.9938 729.376 25.1103 731.387C19.0777 733.972 15.9178 733.972 15.9178 731.961C15.6305 730.238 17.0668 726.503 18.7904 723.343C21.3758 718.747 22.8122 718.46 28.8447 721.62V721.62ZM217.004 744.888C248.028 746.325 274.744 747.761 276.755 748.335C278.766 748.91 279.34 750.921 278.191 752.644C276.755 754.942 265.552 755.517 240.272 754.081C220.451 752.932 193.448 751.495 180.521 750.921C163.86 749.772 157.54 748.335 158.689 746.037C160.125 743.739 176.212 743.452 217.004 744.888V744.888ZM373.851 746.899C408.61 746.612 443.369 747.186 451.413 748.335C461.467 749.484 464.34 750.921 461.467 752.644C458.882 753.793 421.824 754.943 378.734 755.23C329.325 755.23 300.024 754.081 299.162 752.357C298.3 750.634 300.598 748.91 304.045 748.335C307.492 747.761 339.092 747.186 373.851 746.899ZM83.7125 750.059C92.3305 749.772 100.948 750.346 102.959 751.495C105.257 752.644 102.097 754.655 95.2031 756.666C88.3087 758.677 80.2653 758.964 75.6691 757.528C71.3601 756.092 67.9129 754.081 67.9129 752.932C67.9129 751.783 74.8073 750.634 83.7125 750.059ZM1338.2 766.72C1343.37 766.72 1352.85 769.306 1359.17 772.466C1365.49 775.626 1373.54 778.211 1376.98 778.211C1380.43 778.211 1384.16 779.36 1384.74 780.509C1385.6 781.945 1376.12 783.956 1364.06 784.818C1351.7 785.967 1335.9 786.829 1329.01 786.542C1318.96 786.542 1316.94 785.967 1320.39 783.382C1322.69 781.945 1328.15 780.796 1332.17 781.371C1336.19 781.945 1339.35 781.658 1338.49 781.084C1337.91 780.222 1339.93 777.924 1342.51 776.2C1346.82 773.04 1346.25 772.466 1338.2 772.466C1333.03 772.466 1329.01 771.029 1329.01 769.593C1329.01 767.869 1333.03 766.72 1338.2 766.72ZM1169.58 775.913C1182.22 775.913 1195.14 776.775 1204.05 779.935L1198.3 783.095C1192.56 786.254 1192.85 786.542 1200.31 789.414C1204.62 791.138 1211.23 792.574 1214.68 792.862C1219.85 792.862 1219.56 793.436 1212.67 795.447C1207.78 796.883 1173.02 800.618 1135.1 803.778C1097.19 806.938 1042.03 811.247 1013.02 812.97C970.214 815.843 957.288 815.843 946.946 812.97C939.764 810.959 928.274 807.799 921.667 805.789C914.772 804.065 909.314 801.48 909.314 800.33C909.314 799.181 913.049 797.458 917.358 796.596C921.667 795.734 946.659 792.574 972.8 789.702C998.654 786.542 1041.46 782.807 1067.6 781.084C1093.45 779.36 1121.89 777.636 1130.8 777.062C1139.41 776.775 1156.94 776.2 1169.58 775.913ZM1585.25 781.084C1609.38 781.371 1634.09 782.233 1640.41 783.382C1646.44 784.531 1651.9 786.829 1652.47 788.84C1653.33 791.713 1642.99 792.574 1608.23 792.574C1580.37 792.287 1558.82 791.138 1552.21 788.84C1546.18 786.829 1541.3 784.244 1541.3 783.095C1541.3 781.945 1561.12 781.084 1585.25 781.084V781.084ZM306.056 783.956C422.112 783.956 458.881 784.818 456.296 787.116C453.711 789.702 413.206 790.563 305.482 790.276C203.502 789.989 157.253 789.127 155.529 786.829C153.231 784.531 195.746 783.669 306.056 783.956V783.956ZM1726.87 786.254C1750.43 786.829 1771.69 788.553 1774.27 789.989C1776.57 791.425 1757.61 792.287 1728.88 792.287C1698.72 792.574 1678.9 791.425 1678.04 789.702C1677.18 787.978 1678.04 786.254 1680.05 785.68C1682.06 785.393 1703.03 785.393 1726.87 786.254V786.254ZM129.1 786.829C130.824 786.829 129.962 788.84 126.802 791.138C123.642 793.436 113.301 796.596 103.821 798.032C94.3413 799.756 80.5526 801.767 73.6582 802.916C66.4765 803.778 61.3058 804.065 62.1676 802.916C62.7421 801.767 71.3601 799.181 80.8398 796.883C90.3196 794.585 103.534 792.574 110.141 792.574C116.748 792.574 123.068 791.138 123.93 789.702C124.791 787.978 127.09 786.829 129.1 786.829V786.829ZM1448.22 786.829L1441.04 792.574C1437.02 795.447 1419.79 804.065 1402.84 811.534C1385.89 818.715 1371.24 826.184 1369.8 827.908C1368.36 830.206 1369.51 830.493 1373.54 828.77C1376.7 827.621 1390.77 824.461 1405.13 822.163C1420.65 819.577 1437.6 818.428 1448.22 819.577C1457.7 820.726 1468.62 821.588 1472.64 821.588C1476.38 821.588 1481.83 823.024 1484.71 824.461C1487.58 825.897 1489.88 828.77 1489.88 831.355C1489.88 834.228 1487.01 835.664 1481.26 835.664C1476.38 835.664 1468.05 837.388 1462.59 839.973C1456.84 842.271 1448.22 850.027 1443.05 857.209C1437.88 864.391 1433 870.136 1432.42 870.136C1431.56 870.423 1428.98 868.125 1426.68 865.54C1424.09 862.954 1418.64 858.933 1414.33 856.922C1406.57 852.9 1406.28 853.187 1405.13 861.518C1403.99 866.976 1400.83 871.285 1396.23 873.583C1392.21 875.594 1388.47 879.616 1387.61 882.201C1387.04 885.074 1384.45 887.372 1382.15 887.372C1379.57 887.372 1376.98 884.499 1374.68 874.445L1368.94 880.765C1363.48 887.085 1363.19 887.085 1360.61 881.627C1358.88 878.467 1356.01 876.169 1354.29 876.456C1352.57 877.03 1349.98 873.296 1348.26 868.7C1346.82 863.816 1345.1 858.071 1344.23 855.773C1343.37 853.187 1340.5 858.933 1337.63 868.7C1335.04 878.179 1331.31 888.521 1329.3 891.681C1326.14 897.139 1326.14 897.139 1323.26 884.499L1317.52 890.819C1312.35 897.139 1312.06 897.139 1306.89 892.256C1301.72 887.372 1301.43 887.372 1296.84 892.256C1293.96 895.128 1286.78 897.714 1280.17 898.001C1271.56 898.575 1268.68 897.714 1268.68 894.554C1268.68 891.681 1266.96 890.819 1263.51 891.968C1260.64 893.117 1256.33 893.692 1253.46 893.405C1250.59 893.117 1247.71 894.266 1247.14 895.99C1246.28 897.426 1241.11 898.863 1235.65 898.863C1229.9 898.863 1221.86 900.299 1217.55 901.735C1213.24 903.459 1205.2 904.033 1189.69 901.161L1193.99 861.518L1174.46 863.242C1163.83 864.103 1146.31 866.402 1135.68 868.125C1124.76 870.136 1114.42 870.711 1112.7 869.561C1110.4 868.221 1110.21 866.593 1112.12 864.678C1113.56 863.242 1125.34 859.22 1137.98 856.06C1150.62 852.9 1200.89 843.133 1250.01 834.515C1298.85 825.61 1345.67 816.705 1354 814.119C1364.15 811.247 1368.46 808.661 1366.93 806.363C1365.49 804.065 1357.45 803.778 1339.06 805.214C1324.7 806.363 1300.28 809.236 1284.48 811.534C1268.68 813.545 1235.07 819.29 1209.79 824.174C1184.51 829.057 1146.31 837.388 1125.05 842.559C1103.51 848.017 1085.98 851.751 1085.41 850.602C1085.12 849.453 1082.54 845.144 1079.38 841.409C1073.92 834.515 1072.19 834.228 1048.35 834.802C1034.27 835.09 1002.39 838.537 977.109 842.559C951.829 846.868 922.241 852.038 911.612 854.336C895.813 857.784 892.078 859.794 890.642 864.965C889.78 868.7 890.355 875.02 892.078 879.329C893.802 883.638 898.111 888.808 901.558 890.819C905.867 893.405 922.241 894.554 952.691 894.554C977.109 894.554 1008.71 892.543 1023.07 890.532C1037.15 888.234 1051.8 884.787 1055.25 882.488C1058.69 880.478 1069.03 876.743 1078.23 874.445C1087.42 872.147 1095.46 870.711 1096.32 871.572C1096.9 872.147 1095.75 874.732 1093.45 877.318C1090.87 879.903 1079.38 885.074 1067.6 888.808C1054.38 893.117 1041.17 899.724 1033.7 905.757C1026.81 911.502 1021.64 918.397 1021.64 921.844C1021.64 925.004 1023.07 928.164 1025.08 928.738C1027.09 929.6 1029.68 932.76 1030.83 935.92C1031.98 939.367 1037.15 942.814 1042.32 944.251C1051.51 946.549 1051.51 946.549 1045.19 949.996C1041.74 951.719 1022.21 954.592 1002.1 956.316C981.992 958.039 943.499 959.188 916.783 959.188C889.78 959.188 865.362 959.476 862.203 959.476C859.043 959.763 847.265 959.763 836.349 959.476C825.145 959.476 810.207 959.476 803.026 960.05C792.397 960.337 786.939 958.614 760.223 941.952L757.638 948.272C756.202 952.007 753.329 956.316 751.031 958.039C748.733 959.763 735.231 961.487 719.144 961.774C703.057 961.774 690.418 960.625 689.843 959.188C688.981 957.465 684.96 956.316 681.225 956.316C677.203 956.316 672.607 958.614 671.171 961.199C668.873 965.508 667.436 965.795 662.553 962.636C657.957 959.763 655.659 959.763 651.062 962.636C646.753 965.508 644.168 965.508 638.135 962.636C634.114 960.625 629.23 960.05 627.219 961.199C625.208 962.348 606.536 963.21 585.853 963.21C564.883 963.497 547.359 964.359 546.21 965.508C545.348 966.657 541.901 966.083 538.741 964.072C533.858 961.199 532.422 961.199 530.411 964.934C528.4 968.381 526.963 968.381 523.229 965.508C520.356 963.21 518.346 962.923 517.484 964.934C516.526 966.849 514.803 966.849 512.313 964.934C510.302 963.21 507.717 962.923 506.28 964.072C504.844 965.221 500.535 966.657 496.226 966.945C491.917 967.232 487.034 965.795 485.023 964.072C482.15 961.199 481.288 961.486 481.288 964.072C481.288 966.083 479.565 967.806 477.267 967.806C474.681 967.806 472.958 966.083 472.958 964.072C472.958 962.061 470.659 962.923 466.925 966.37C461.754 971.254 460.605 971.541 458.594 967.806C456.296 963.785 455.434 963.785 451.413 967.806C447.104 971.541 446.242 971.541 444.231 967.806C442.507 964.646 440.209 964.072 436.475 965.795C433.602 967.232 426.42 968.668 420.388 968.668C414.643 968.955 409.759 967.806 409.759 966.37C409.759 964.646 407.748 964.934 405.45 966.945C402.003 969.817 400.854 969.817 399.992 966.945C399.418 964.359 397.981 964.359 393.959 967.806C389.65 971.541 388.789 971.541 386.491 967.806C384.192 963.785 383.331 963.785 381.032 967.806C378.447 971.541 377.873 971.541 375.287 967.806C372.989 963.785 372.127 963.785 367.818 967.806C364.084 970.966 362.36 971.254 361.786 968.381C360.924 965.508 359.775 965.508 356.04 968.381C352.306 971.254 350.87 971.254 348.284 967.519C345.412 963.497 344.55 963.497 341.39 966.657C338.804 969.53 336.506 969.817 333.634 967.806C330.761 965.891 328.846 965.891 327.888 967.806C327.027 969.243 323.867 969.817 320.707 969.243C317.547 968.381 314.1 969.243 312.951 971.254C311.801 974.126 310.652 973.839 308.929 970.679C306.918 967.232 305.769 966.945 302.609 969.817C299.736 972.69 298.3 972.69 295.427 969.817C292.267 966.945 290.831 966.945 288.246 969.817C285.373 972.69 283.937 972.69 280.489 969.817C277.33 966.945 276.468 966.945 275.606 969.817C274.744 972.69 273.595 972.69 270.148 969.817C266.413 966.945 264.977 967.232 263.254 970.679C260.955 974.413 260.094 974.413 255.785 970.679C251.476 966.657 250.901 966.945 248.603 971.254C246.592 974.988 244.869 975.563 241.709 973.552C239.123 971.828 235.963 971.541 233.952 972.69C232.229 973.839 229.643 972.977 228.494 970.679C226.484 966.945 225.334 967.232 221.887 972.115C219.015 976.137 217.578 976.712 216.142 974.126C214.993 972.115 212.982 970.679 211.546 970.679C209.822 970.679 209.248 971.828 210.109 973.552C210.684 974.988 210.109 976.999 208.673 977.861C206.949 978.435 204.939 977.861 204.364 976.424C203.502 974.701 200.917 974.126 198.619 974.988C195.746 975.85 192.586 973.264 190.001 968.381C185.979 960.912 185.692 960.912 185.692 966.945C185.692 970.679 184.83 975.275 184.255 977.861C182.819 981.308 181.957 981.308 178.223 978.435C174.488 975.563 173.052 975.85 171.329 979.297C169.892 981.595 168.456 982.17 167.594 980.733C166.732 979.01 165.87 973.264 165.296 967.806C165.009 962.061 165.009 955.454 165.296 952.581C165.296 949.134 168.169 947.41 174.488 946.836C179.659 946.549 183.681 947.698 184.543 949.709C185.309 952.198 187.32 952.581 190.575 950.858C193.448 949.421 204.651 947.411 215.855 946.549C226.771 945.4 269.573 942.814 310.652 940.516C351.731 938.218 422.686 934.771 468.649 933.047C514.324 931.611 580.969 928.164 616.59 925.578C651.924 923.28 683.811 920.982 686.97 920.408C690.13 920.12 699.61 918.397 708.515 916.673C717.133 914.949 736.38 912.077 751.605 910.64C766.543 908.917 784.928 905.47 792.397 903.172C801.302 900.299 807.335 896.277 809.633 891.681C812.506 885.936 812.506 883.925 809.058 880.19C806.473 877.605 802.451 875.594 799.579 875.594C796.419 875.881 794.695 873.583 794.695 870.136C794.695 866.976 797.281 862.954 800.44 861.518C803.6 859.794 827.731 855.198 854.159 851.177C880.588 847.442 913.336 842.271 926.837 839.973C940.052 837.675 967.342 834.515 987.163 832.792C1006.7 831.068 1046.91 827.621 1076.22 825.323C1105.23 822.737 1153.78 817.854 1183.94 814.119C1213.82 810.385 1256.62 805.789 1278.74 803.778C1300.86 801.767 1343.37 797.458 1373.54 793.723C1403.41 790.276 1432.42 787.404 1448.22 786.829V786.829ZM1543.6 801.48C1546.18 802.054 1548.48 804.065 1549.05 806.076C1549.63 808.087 1547.04 810.385 1543.6 811.247C1540.15 812.108 1536.42 812.396 1535.84 811.247C1534.98 810.385 1535.27 807.799 1536.7 805.214C1537.85 802.629 1541.01 801.192 1543.6 801.48V801.48ZM1611.97 801.192C1634.09 800.905 1653.04 802.054 1653.91 803.203C1655.06 804.352 1655.06 807.799 1653.91 810.672C1652.18 815.843 1649.02 816.13 1611.39 814.981C1582.95 814.406 1569.45 812.97 1566.87 810.385C1563.71 807.225 1563.71 806.076 1567.44 803.778C1569.74 802.341 1589.85 801.192 1611.97 801.192V801.192ZM873.693 804.352C875.13 804.065 884.897 806.65 895.238 810.097C905.292 813.257 915.634 816.705 918.219 817.566C920.805 818.428 918.507 820.152 912.474 821.301C906.729 822.737 878.289 826.472 849.276 829.632C819.974 832.791 778.608 836.813 757.351 838.537C735.806 840.26 710.239 842.271 700.472 842.846C683.523 843.995 682.661 844.569 682.661 851.464C682.661 855.773 684.96 859.794 688.407 861.518C691.567 862.954 712.824 864.391 735.806 864.391C758.5 864.391 779.183 864.965 781.768 865.827C784.066 866.402 786.077 869.849 786.077 873.009C786.077 876.169 783.779 879.329 780.906 880.19C778.034 881.052 758.5 883.638 737.242 885.936C715.697 888.234 676.342 891.968 649.626 894.266C622.623 896.852 581.257 900.012 557.701 901.735C533.858 903.459 447.965 907.193 366.669 910.353C285.086 913.513 207.237 916.099 193.448 916.099C177.648 916.099 168.743 914.949 169.892 913.226C170.467 911.502 176.787 909.491 183.394 908.917C190.001 908.055 237.687 904.608 289.107 901.735C340.241 898.575 430.729 893.405 490.193 889.957C549.37 886.797 607.398 882.776 619.463 881.339C631.241 879.616 644.168 876.743 648.19 874.732C651.924 873.009 655.659 868.7 655.946 864.965C656.233 861.518 654.797 855.773 652.211 852.038C649.913 848.591 648.764 843.42 649.339 840.548C650.488 836.813 657.957 833.941 677.491 829.632C692.141 826.472 723.453 821.301 747.296 818.141C770.852 814.981 808.484 810.672 830.603 808.661C852.723 806.363 871.97 804.639 873.693 804.352ZM1448.22 804.065C1457.7 804.065 1468.62 806.076 1479.82 812.396H1471.21C1466.32 812.396 1453.97 811.821 1443.34 810.672C1432.42 809.523 1425.82 807.799 1427.54 806.363C1429.55 805.214 1438.74 804.065 1448.22 804.065V804.065ZM1721.99 804.065C1744.97 804.065 1765.94 805.214 1768.53 806.65C1770.82 808.087 1771.69 810.385 1770.54 812.396C1769.1 814.406 1753.3 815.556 1724 815.556C1697 815.556 1678.9 814.407 1678.04 812.683C1677.18 810.959 1677.18 808.374 1678.04 806.938C1678.9 805.214 1696.71 804.065 1721.99 804.065ZM1807.88 807.225C1809.89 806.938 1811.62 808.661 1811.62 811.247C1811.62 813.832 1808.74 815.556 1804.43 815.556C1800.41 815.556 1796.97 814.406 1796.68 812.97C1796.1 811.534 1797.83 809.523 1800.13 808.661C1802.42 808.087 1805.87 807.225 1807.88 807.225ZM1824.54 807.225C1824.54 807.225 1830.86 808.948 1838.91 810.959C1846.66 812.97 1853.84 816.417 1854.42 818.715C1855.28 821.875 1854.13 822.163 1848.67 820.152C1844.94 818.715 1836.03 817.279 1829.43 816.705C1822.82 815.843 1817.07 814.406 1816.79 812.97C1816.21 811.534 1817.94 809.523 1820.23 808.661C1822.53 808.087 1824.54 807.225 1824.54 807.225ZM565.457 810.097C580.682 809.81 590.736 810.959 590.736 812.683C590.736 814.119 581.257 816.13 569.766 816.992C558.275 817.854 526.389 819.865 498.811 821.301C470.947 822.737 444.518 822.737 439.922 821.588C433.602 819.865 432.453 818.428 435.613 817.279C437.911 816.417 462.329 814.406 490.193 812.97C517.771 811.821 551.668 810.385 565.457 810.097ZM308.354 818.715C371.84 818.715 424.122 819.29 424.122 820.439C424.122 821.588 416.079 823.599 406.025 824.748C396.258 825.897 340.241 827.046 281.926 827.046C223.324 827.046 171.041 826.184 165.583 824.748C156.103 822.737 156.965 822.45 174.201 821.014C184.255 820.152 244.869 819.003 308.354 818.715ZM125.941 825.035C127.09 825.323 127.951 826.759 127.951 828.483C127.951 829.919 124.504 832.217 120.195 833.366C115.886 834.515 96.9267 836.239 77.9672 837.1C54.7944 838.25 44.7401 837.867 47.8043 835.951C50.1024 834.515 65.6148 832.217 82.2762 831.068C98.6503 829.919 115.024 827.908 118.184 826.759C121.344 825.61 124.791 824.748 125.941 825.035ZM1577.49 825.61C1580.65 826.184 1595.3 827.333 1610.53 828.195C1625.47 829.344 1641.84 830.781 1656.49 832.792L1656.21 852.038C1656.21 862.667 1655.06 876.456 1653.33 882.201C1651.9 888.234 1649.6 893.117 1648.45 893.117C1647.3 893.117 1644.71 891.681 1642.99 889.67C1640.98 887.659 1638.39 880.478 1637.25 873.583C1635.52 864.678 1633.51 861.231 1629.78 861.518C1626.9 861.518 1624.03 862.667 1623.46 864.391C1622.59 865.827 1619.43 867.263 1616.28 867.263C1613.12 867.263 1610.24 868.125 1610.24 869.274C1610.24 870.423 1607.66 874.732 1604.5 878.754C1598.75 885.648 1598.75 885.936 1594.44 880.19C1591.86 877.03 1588.12 870.136 1585.82 864.965C1582.95 858.358 1582.38 854.049 1584.68 850.027C1586.11 846.868 1586.4 843.708 1585.25 842.846C1584.1 842.271 1574.33 840.548 1544.46 837.1L1531.53 850.602C1524.35 858.071 1517.17 863.529 1515.73 862.954C1514.01 862.093 1512.86 859.794 1512.86 857.784C1512.86 855.773 1510.27 850.889 1507.4 847.155C1504.24 843.133 1502.23 837.388 1503.09 834.228C1503.95 829.919 1506.83 828.483 1512.86 828.483C1517.46 828.483 1521.48 829.344 1521.48 830.493C1521.48 831.642 1524.35 831.93 1527.8 831.068C1531.24 830.206 1542.74 828.483 1553.08 827.046C1563.13 825.897 1574.33 825.035 1577.49 825.61V825.61ZM0.692699 829.919C1.5545 832.217 -1.03089 843.133 -4.47808 853.762C-8.21254 864.678 -12.5215 873.583 -13.9579 873.296C-15.6814 873.009 -17.405 865.54 -17.6923 856.347C-18.2668 847.442 -17.9796 837.962 -17.1178 835.664C-15.6814 832.217 -14.8196 831.93 -11.947 834.802C-9.93613 836.813 -7.35074 838.537 -6.20168 838.537C-5.05261 838.537 -3.32902 835.664 -2.17996 831.93C-1.0309 827.333 -0.169098 826.759 0.692699 829.919V829.919ZM1699.01 829.919C1711.07 830.206 1727.45 831.355 1735.49 832.792C1743.25 834.515 1755.6 836.239 1762.78 836.813C1769.67 837.1 1777.14 836.239 1779.44 834.515C1782.31 831.93 1783.46 832.792 1784.33 837.675C1785.19 841.409 1786.91 844.282 1788.63 844.282C1790.07 844.282 1791.51 845.431 1791.51 847.155C1791.51 848.591 1788.06 850.027 1784.33 850.027C1780.3 850.027 1776.57 851.464 1775.71 853.475C1774.85 856.06 1772.55 854.911 1768.53 850.602C1765.37 847.155 1758.18 842.846 1752.73 841.409C1746.02 839.494 1738.84 839.494 1731.18 841.409C1724.86 842.846 1715.67 847.442 1711.07 851.464C1706.19 855.198 1702.45 860.082 1702.45 862.093C1702.45 864.103 1698.43 871.86 1693.84 879.329C1688.95 886.797 1683.78 893.117 1682.35 893.117C1680.62 893.117 1678.32 879.903 1677.18 863.529C1675.74 847.442 1675.16 833.079 1675.74 831.93C1676.31 830.781 1686.66 829.919 1699.01 829.919V829.919ZM1064.72 842.846C1070.18 843.708 1075.64 845.718 1076.79 847.729C1077.94 849.74 1077.94 852.326 1076.79 853.762C1075.64 854.911 1052.09 860.369 1024.51 865.827C996.643 871.285 960.735 876.743 944.073 877.892C918.219 879.903 914.485 879.616 915.634 875.881C916.496 873.296 921.667 870.711 926.837 869.561C932.295 868.412 956.713 863.529 981.418 858.645C1005.84 853.762 1032.26 847.729 1040.31 845.431C1048.06 843.42 1058.98 841.984 1064.72 842.846ZM601.365 844.857C617.452 844.282 628.081 845.431 628.081 847.155C628.081 848.591 626.357 850.602 624.347 851.177C622.336 852.038 588.438 854.624 549.083 856.922C509.44 859.507 447.391 862.667 411.195 864.391C374.713 865.827 303.758 868.125 253.199 868.987C190.575 870.136 162.136 869.849 164.147 867.838C165.583 866.114 200.055 863.529 244.581 861.518C287.097 859.794 371.84 855.773 432.74 852.613C493.353 849.74 550.232 846.58 559.137 846.293C567.755 845.718 586.715 845.144 601.365 844.857V844.857ZM117.323 864.965C127.951 864.678 137.144 865.253 138.006 866.402C138.58 867.551 131.686 869.562 122.781 870.711C113.875 872.147 88.596 874.732 66.4765 877.03C44.3571 879.329 25.3976 880.765 24.823 879.903C23.9612 879.041 25.6848 876.169 28.2702 873.583C32.2919 869.849 40.6226 868.125 65.6147 866.976C83.4252 866.114 106.694 865.253 117.323 864.965V864.965ZM11.0343 868.125C14.4815 867.838 17.9286 868.412 18.2159 868.987C18.5032 869.561 16.4923 872.721 13.6197 875.881C10.4597 879.041 5.86348 881.627 3.56536 881.627C0.979965 881.627 -1.31816 879.903 -1.60543 877.892C-2.17996 875.881 -0.743628 872.721 0.979966 871.285C2.70356 869.849 7.29981 868.412 11.0343 868.125V868.125ZM1174.46 884.787C1183.65 884.499 1185.38 885.361 1185.38 890.819C1185.38 894.554 1183.94 898.863 1181.64 900.586C1179.63 902.31 1176.18 904.033 1173.89 904.321C1171.3 904.895 1157.8 905.182 1143.72 905.47C1128.79 905.757 1117.87 904.895 1117.29 903.172C1116.72 901.448 1117.29 898.575 1118.44 896.564C1119.59 894.554 1130.22 891.106 1142.29 888.808C1154.06 886.797 1168.43 884.787 1174.46 884.787ZM1780.3 891.968C1781.74 892.543 1781.74 894.554 1780.59 896.564C1779.15 898.863 1780.3 899.15 1784.9 898.001C1789.3 896.66 1791.41 897.139 1791.22 899.437C1791.22 902.31 1791.79 902.31 1794.95 899.437C1797.83 896.852 1799.26 896.852 1802.42 899.437C1805.3 902.31 1806.73 902.023 1808.74 898.001C1810.18 895.415 1812.48 893.692 1813.91 894.554C1815.06 895.415 1815.92 898.001 1815.35 900.299C1814.78 902.597 1817.07 905.757 1820.23 907.481C1824.54 909.491 1826.84 909.204 1830 905.182C1832.3 902.597 1835.17 901.161 1836.32 902.31C1837.76 903.746 1836.32 906.906 1833.74 909.491C1829.43 913.513 1822.53 914.375 1796.97 914.375C1773.7 914.662 1765.65 913.513 1765.65 910.928C1765.65 908.917 1768.24 903.746 1771.69 899.15C1775.13 894.554 1779.15 891.394 1780.3 891.968V891.968ZM1734.34 902.023C1737.21 903.459 1742.38 903.746 1745.54 903.172C1750.43 901.735 1750.72 902.597 1748.7 908.055C1747.27 911.79 1742.67 917.248 1738.36 920.408C1732.33 924.717 1726.01 926.153 1710.5 926.153C1693.55 926.153 1689.82 925.291 1686.37 920.408C1684.07 917.248 1683.21 913.513 1684.07 912.077C1684.93 910.64 1692.11 910.353 1699.87 911.502C1711.93 912.939 1714.81 912.364 1721.41 906.332C1727.16 901.161 1730.32 900.012 1734.34 902.023ZM1101.21 902.023C1103.22 901.735 1105.23 903.172 1106.09 905.182C1106.67 907.193 1107.81 918.971 1110.69 953.443L1101.21 952.581C1094.03 952.007 1091.73 950.283 1090.58 944.825C1089.43 940.037 1085.98 936.782 1080.24 935.058C1075.07 933.622 1070.47 929.6 1068.17 924.429C1065.3 917.822 1065.3 915.524 1068.17 913.8C1070.18 912.651 1077.36 909.491 1084.55 906.906C1091.73 904.321 1099.2 902.023 1101.21 902.023V902.023ZM131.686 907.768C134.559 907.481 138.58 908.055 141.166 908.917C143.464 909.491 145.475 911.502 145.475 913.226C145.475 914.662 141.74 916.673 137.431 917.535C133.122 918.109 105.545 920.12 76.5308 921.844C38.3245 923.855 21.3758 925.866 16.7796 929.026C11.0343 932.76 10.1725 932.76 10.1725 928.164C10.1725 925.578 12.4706 920.982 15.3432 918.109C19.6522 913.8 28.5575 912.651 73.6582 910.64C102.672 909.491 128.813 908.055 131.686 907.768V907.768ZM1629.2 916.673C1653.62 915.811 1658.22 916.386 1658.79 920.12C1659.08 922.706 1657.64 925.291 1655.63 925.866C1653.62 926.727 1635.23 928.738 1614.84 930.462C1594.16 932.185 1570.03 936.207 1544.46 944.825L1536.13 931.898L1535.84 938.218C1535.84 941.952 1534.4 944.825 1532.97 944.825C1531.24 944.825 1529.23 943.101 1528.37 941.091C1527.51 938.505 1519.47 937.644 1500.51 937.931C1485.86 938.218 1419.79 941.091 1353.43 944.251C1287.07 947.698 1210.66 950.57 1183.94 950.858C1156.94 951.145 1133.38 950.57 1131.37 949.709C1129.36 948.56 1125.91 948.272 1123.61 949.134C1120.17 949.996 1119.02 948.272 1119.02 941.091C1119.02 932.76 1119.88 931.611 1129.93 929.6C1135.97 928.451 1169.29 927.589 1204.05 927.589C1238.81 927.589 1332.46 926.153 1412.32 924.429C1491.89 922.706 1566.87 920.408 1578.93 919.259C1590.71 918.109 1613.4 916.96 1629.2 916.673V916.673ZM146.911 950.57L146.049 962.636C145.187 971.828 143.464 975.563 138.868 978.148C133.984 980.446 130.25 980.446 124.217 978.148C117.61 975.563 115.599 975.85 113.301 979.297C111.29 982.457 110.141 982.457 109.279 979.871C108.417 977.861 106.694 976.424 105.257 976.424C103.534 976.424 102.385 978.148 102.385 980.733C102.385 983.031 101.236 985.042 100.087 985.042C98.9376 985.042 96.0649 983.319 93.7668 980.733C90.6069 977.573 88.3087 977.286 85.7234 979.297C83.138 981.308 81.4144 980.733 79.4035 976.999C76.8181 972.403 76.2436 972.403 74.8072 977.861C73.6582 981.882 71.0728 983.031 66.7638 982.457C63.3166 981.595 59.5822 979.872 58.7204 978.148C57.3798 976.041 54.9859 976.616 51.5387 979.871C47.2297 983.893 45.5061 984.18 42.6335 981.308C40.0481 978.435 38.899 978.722 37.75 982.744C36.8882 985.617 34.8773 987.915 33.441 987.915C31.7174 987.915 29.132 983.606 27.6957 978.435C25.6848 971.254 25.1103 970.679 24.823 975.563C24.823 979.584 22.5249 982.744 19.0777 983.606C15.9178 984.181 13.3324 986.766 13.3324 989.351C13.3324 992.224 11.3215 993.086 6.72528 991.937C3.27809 990.788 -0.743629 989.351 -2.17996 988.202C-3.32902 987.34 -3.61629 981.308 -2.75449 974.988C-1.89269 968.668 0.692699 961.487 3.27809 959.188C7.29981 955.454 9.02341 955.454 14.1942 958.614C18.5032 961.487 20.8013 961.487 21.9504 959.188C22.8122 957.465 31.7174 956.028 44.9316 956.316C56.7095 956.316 71.6473 955.167 77.9672 953.73C84.287 952.294 102.385 951.145 146.911 950.57V950.57ZM1497.06 969.817C1511.14 970.392 1527.22 971.541 1532.97 972.403C1539.29 973.264 1541.87 974.988 1540.15 976.712C1538.43 978.148 1528.66 980.446 1518.6 981.882C1508.26 983.319 1472.07 985.904 1438.17 987.628C1403.99 989.351 1316.08 993.373 1242.83 996.533C1169.29 999.406 1098.91 1002.28 1086.27 1002.57C1073.63 1002.85 1063 1001.99 1062.43 1000.55C1062.14 999.118 1064.44 994.522 1067.31 990.788C1072.77 983.606 1073.06 983.606 1146.88 980.159C1187.67 978.435 1267.82 975.275 1324.7 973.552C1381.58 971.828 1437.6 970.105 1449.66 969.53C1461.44 968.955 1482.7 968.955 1497.06 969.817V969.817Z" fill="#E6EDCD"/>
</g>
<defs>
<linearGradient id="paint0_linear_315_7" x1="919.5" y1="129" x2="919.5" y2="1545.99" gradientUnits="userSpaceOnUse">
<stop stop-color="white"/>
<stop offset="1" stop-color="#D5E1A8"/>
</linearGradient>
<clipPath id="clip0_315_7">
<rect width="1898" height="1028" fill="white"/>
</clipPath>
</defs>
</svg>
