<svg width="1427" height="709" viewBox="0 0 1427 709" fill="none" xmlns="http://www.w3.org/2000/svg">
<rect x="-1.41895" y="58.5889" width="1428.78" height="650.385" fill="url(#paint0_linear_392_24)"/>
<path d="M1281.3 14.7894C1283.73 8.10063 1286.17 1.81726 1286.77 1.0065C1287.59 -0.00694302 1288.4 -0.209632 1288.6 0.195746C1288.8 0.601125 1288.19 5.06029 1287.18 9.92483C1286.37 14.7894 1285.36 20.8701 1285.36 23.505C1285.36 25.9373 1289.21 32.626 1293.87 38.504C1298.73 44.382 1306.44 52.6923 1311.1 57.3541C1315.76 61.8133 1319.61 66.8805 1319.61 68.502C1319.61 70.1235 1316.57 75.5961 1312.72 80.6634C1309.07 85.7306 1305.02 92.2167 1303.8 95.4597C1302.38 99.1081 1302.18 101.338 1303.6 101.946C1304.61 102.554 1309.48 99.3108 1314.14 95.0543C1319 90.5952 1325.29 86.136 1328.33 84.9199C1331.57 83.7037 1336.64 82.6903 1340.08 82.6903C1344.54 82.6903 1346.16 81.6768 1346.16 79.2445C1346.16 77.2177 1349.41 72.3531 1360.55 61.4079L1384.27 61.0025C1404.94 60.5971 1408.59 61.0025 1413.46 64.4482C1416.7 66.6778 1419.13 69.9208 1419.13 71.5424C1419.13 73.9746 1418.32 74.1773 1414.47 72.3531C1412.04 71.137 1407.58 70.7316 1398.86 72.5558L1409.6 84.3118C1415.48 90.5951 1420.95 97.892 1421.77 100.527C1422.58 103.162 1422.37 104.986 1421.16 104.986C1419.94 104.986 1418.32 103.365 1417.1 101.54C1415.48 98.5 1415.28 98.9054 1415.08 110.053L1410.01 103.567C1405.35 97.2839 1404.74 97.0812 1400.89 99.9189C1397.04 102.757 1396.63 102.554 1393.79 95.8651C1392.17 92.014 1389.74 88.3656 1388.73 87.7575C1387.51 87.1494 1386.3 86.9467 1385.69 87.3521C1385.28 87.5548 1386.09 92.8247 1387.71 98.9054C1389.34 104.986 1390.75 113.499 1390.75 117.756C1390.75 121.809 1389.54 125.863 1388.12 126.674C1386.9 127.282 1383.86 128.093 1381.63 128.093C1378.19 128.295 1377.38 130.12 1376.57 140.862C1375.96 147.754 1375.15 153.834 1374.54 154.442C1373.93 155.05 1372.92 151.807 1371.9 147.551C1371.09 143.092 1369.27 137.214 1367.85 134.376C1366.63 131.538 1364.81 129.309 1363.8 129.309C1362.99 129.309 1362.38 130.728 1362.38 132.349C1362.38 133.971 1361.36 135.389 1360.35 135.389C1359.13 135.389 1358.32 140.862 1358.32 147.551C1358.32 157.28 1357.51 159.915 1354.68 161.131C1352.85 161.739 1349.61 163.766 1347.78 165.59C1344.54 168.63 1344.14 168.428 1343.12 163.766C1342.11 159.509 1340.69 158.699 1335.42 159.104C1331.1 159.239 1329.14 160.253 1329.54 162.144C1329.95 163.563 1332.99 170.86 1336.23 178.562C1339.47 186.062 1342.11 193.156 1342.11 194.169C1342.11 195.385 1343.53 196.196 1345.15 196.196C1346.77 196.196 1355.28 193.156 1363.8 189.507C1372.51 185.656 1386.9 180.184 1395.82 177.346C1404.74 174.508 1415.48 171.468 1427.24 169.847V187.075C1427.24 197.21 1426.43 204.304 1425.21 204.304C1424 204.304 1422.17 201.669 1421.16 198.223C1419.94 194.98 1418.12 192.142 1417.1 192.142C1415.89 192.142 1413.86 194.575 1412.24 197.818C1410.62 200.858 1409 205.52 1408.79 208.358C1407.98 213.222 1408.39 213.425 1427.24 212.411V226.194C1427.24 237.545 1426.63 240.18 1423.18 242.409C1419.94 244.436 1419.13 244.436 1419.13 242.409C1419.33 240.585 1418.32 240.585 1415.89 242.815C1414.06 244.436 1411.23 248.287 1409.81 251.53C1406.97 256.8 1407.17 257.003 1415.08 261.057C1422.78 264.908 1423.39 264.908 1425.21 261.665C1426.43 259.233 1427.04 267.948 1427.24 289.028C1427.24 305.851 1426.63 319.837 1425.62 319.837C1424.81 319.837 1422.98 316.594 1421.56 312.743C1420.35 308.891 1418.12 306.054 1417.1 306.662C1415.89 307.27 1415.08 305.648 1415.08 303.216C1415.08 300.581 1414.27 297.135 1413.25 295.514C1412.24 293.892 1411.02 293.284 1410.42 294.501C1410.01 295.717 1408.79 299.77 1406.56 310.716L1402.1 305.243C1398.86 301.189 1397.24 300.379 1395.21 302.203C1393.19 304.23 1392.78 303.216 1392.78 298.149C1392.78 294.501 1392.38 290.041 1391.77 288.42C1391.16 286.798 1390.15 285.379 1389.13 285.379C1388.32 285.379 1386.5 287.609 1385.08 290.447C1383.86 293.284 1382.65 297.135 1382.65 299.162C1382.65 300.987 1380.62 304.635 1373.53 311.729L1367.85 306.662C1364.81 303.824 1362.38 299.973 1362.38 298.149C1362.38 296.122 1361.57 293.69 1360.35 292.474C1358.93 291.055 1358.93 288.623 1360.35 284.974C1361.36 281.731 1361.97 279.299 1361.36 279.299C1360.76 279.299 1355.69 284.163 1339.68 300.581L1340.89 293.082C1341.5 288.825 1342.51 281.934 1344.34 270.178L1339.07 279.907C1336.23 285.177 1333.6 289.433 1332.99 289.433C1332.38 289.433 1332.38 286.19 1332.99 282.339C1333.6 278.285 1333.19 275.245 1331.97 275.245C1330.76 275.245 1327.92 278.488 1325.29 282.339C1322.85 286.19 1320.22 289.433 1319.2 289.433C1318.39 289.433 1318.39 285.582 1319.2 281.123C1320.62 274.232 1320.22 272.813 1317.79 273.421C1316.16 273.826 1312.72 273.015 1310.08 271.597C1306.44 269.57 1305.22 269.772 1303.6 272.813C1301.77 275.853 1301.77 275.853 1301.77 272.205C1301.77 269.975 1300.96 267.543 1300.15 266.732C1299.34 265.921 1295.69 266.327 1292.45 267.543C1287.59 269.164 1284.95 268.962 1278.67 265.921C1273.67 263.354 1270.42 262.746 1268.94 264.097C1267.92 265.313 1266.3 287.406 1264.07 368.887L1271.17 368.482C1275.02 368.077 1280.49 368.077 1283.33 368.279C1287.59 368.685 1287.18 369.293 1280.29 371.522C1275.83 372.941 1273.6 374.36 1275.22 374.563C1276.84 374.765 1282.72 375.374 1288.4 375.779C1294.48 376.387 1299.95 378.008 1302.18 380.238C1305.22 383.076 1305.83 383.076 1305.83 380.643C1305.83 379.022 1304.21 375.374 1302.18 372.536C1300.15 369.698 1297.31 364.023 1295.9 359.969C1294.68 355.713 1293.87 351.659 1294.48 350.848C1295.08 349.835 1298.73 350.848 1302.58 352.875C1306.44 354.699 1309.68 357.132 1309.68 358.348C1309.68 359.564 1311.3 360.983 1313.12 361.591C1315.96 362.604 1316.37 361.996 1315.15 359.564C1314.34 357.74 1315.15 352.875 1317.18 348.213C1319.2 343.754 1321.43 340.106 1322.25 340.106C1323.26 340.106 1323.87 342.335 1323.87 345.173C1323.87 348.01 1325.29 350.645 1326.91 351.254C1328.53 351.862 1331.97 350.848 1334.41 349.227C1337.04 347.605 1339.68 346.186 1340.49 346.186C1341.5 346.186 1342.11 348.01 1342.11 350.24C1342.11 352.47 1343.53 354.294 1345.15 354.294C1346.77 354.294 1348.19 355.105 1348.19 356.321C1348.19 357.537 1346.37 359.564 1344.14 360.983C1341.91 362.199 1340.08 364.023 1340.08 365.036C1340.08 365.847 1341.91 366.455 1344.14 366.455C1346.37 366.455 1347.78 367.266 1347.18 368.482C1346.57 369.698 1347.38 371.928 1348.59 373.549C1350.62 376.184 1350.62 376.792 1348.59 376.59C1347.38 376.59 1345.76 375.374 1345.35 374.157C1344.95 372.739 1344.14 372.13 1343.32 373.144C1342.72 373.955 1342.51 375.374 1343.12 376.59C1343.73 377.806 1347.78 378.617 1352.24 378.617C1356.7 378.617 1363.59 380.441 1367.45 382.67C1372.11 385.305 1375.35 386.116 1376.97 384.9C1378.73 383.684 1379.61 383.954 1379.61 385.711C1379.61 387.129 1378.59 387.94 1377.58 387.13C1376.36 386.521 1377.78 388.548 1380.62 391.386C1383.46 394.426 1385.89 396.453 1386.09 395.845C1386.5 395.237 1386.09 393.616 1385.28 392.399C1384.47 390.981 1383.46 388.548 1383.25 387.332C1382.85 385.913 1383.46 385.103 1384.67 385.711C1385.69 386.319 1387.11 384.292 1387.51 381.252C1387.71 378.008 1388.32 383.076 1388.52 392.399C1388.52 401.926 1389.54 409.02 1390.75 409.02C1391.77 409.02 1392.58 407.398 1392.17 405.574C1391.97 402.737 1393.39 401.723 1398.86 401.318C1402.71 401.115 1406.77 401.723 1407.98 402.939C1409.4 404.358 1408.19 404.966 1404.33 404.966C1401.29 404.966 1398.46 405.777 1397.85 406.993C1397.24 408.209 1398.25 409.425 1399.88 410.033C1401.5 410.641 1405.55 411.047 1409 411.047C1413.66 411.047 1414.87 410.236 1414.47 407.601C1414.2 405.169 1415.55 403.818 1418.52 403.547C1422.37 403.142 1423.18 403.953 1423.18 408.007C1423.18 410.844 1424 413.074 1425.21 413.074C1426.63 413.074 1427.24 452.193 1427.24 526.58C1427.24 632.992 1427.04 640.086 1423.59 641.302C1421.56 641.91 1419.13 640.896 1417.71 638.667C1416.29 636.64 1413.66 633.397 1411.63 631.573C1409.6 629.546 1407.37 628.532 1406.36 628.938C1405.55 629.546 1404.94 628.532 1404.94 626.911C1404.94 624.884 1403.59 624.208 1400.89 624.884C1398.19 625.56 1396.43 624.749 1395.62 622.452C1394.81 619.209 1394.4 619.209 1392.78 621.844C1391.77 623.465 1390.75 626.303 1390.75 627.924C1390.75 629.546 1394 632.586 1398.25 634.613C1402.51 636.64 1408.59 640.288 1418.12 647.788L1410.01 649.207C1405.55 650.017 1400.69 650.828 1399.27 651.436C1398.05 651.842 1397.04 653.869 1397.44 655.895C1397.85 658.936 1400.08 659.341 1427.24 658.328V673.124C1427.24 685.488 1426.63 688.123 1423.18 690.353C1419.74 692.38 1419.13 692.177 1419.13 689.339C1418.93 685.893 1418.93 685.893 1416.5 689.136C1415.08 691.163 1413.46 692.582 1412.44 692.785C1411.63 692.785 1411.02 691.366 1411.02 689.745C1411.02 688.123 1410.01 686.704 1409 686.704C1407.78 686.704 1406.36 688.326 1405.75 690.353C1404.74 693.596 1404.33 693.393 1401.7 689.745C1399.27 686.299 1398.66 686.096 1396.83 688.731C1395.82 690.353 1394.81 695.623 1394.81 700.487C1394.81 708.797 1394.61 709 1387.71 709C1382.04 709 1380.42 708.189 1379.61 704.541C1379 701.906 1378.59 697.649 1378.59 694.812C1378.59 690.555 1377.78 689.947 1372.92 690.555C1369.88 690.961 1366.43 692.582 1365.42 694.001C1363.8 696.231 1362.58 696.028 1359.34 692.785C1357.11 690.353 1354.68 688.528 1353.66 688.731C1352.85 688.731 1352.24 690.758 1352.24 693.393C1352.24 696.839 1351.84 697.447 1349.81 695.42C1347.78 693.393 1346.57 693.393 1344.54 695.42C1342.51 697.447 1341.91 697.041 1342.11 694.406C1342.11 692.38 1341.1 690.353 1340.08 689.745C1338.87 689.136 1336.64 691.569 1335.01 694.812C1333.39 698.055 1331.97 702.717 1331.97 704.946C1331.97 707.987 1330.56 709 1326.3 709C1322.65 709 1318.6 706.568 1313.94 701.298C1309.88 696.839 1306.84 694.812 1306.44 696.433C1305.83 698.258 1304.41 697.852 1301.37 695.42C1297.92 692.38 1296.71 692.177 1293.26 694.406C1291.23 695.623 1289 696.839 1288.4 696.839C1287.79 696.839 1287.38 695.42 1287.38 693.798C1287.38 692.177 1286.37 690.758 1285.36 690.758C1284.14 690.758 1283.33 691.569 1283.33 692.785C1283.33 694.001 1281.3 694.609 1278.67 694.406C1274.82 693.798 1274.21 694.812 1273.6 701.501C1273.19 708.797 1272.99 709 1265.09 709C1256.98 709 1256.98 709 1257.99 702.514C1258.6 698.866 1258.4 694.609 1257.59 693.19C1256.37 691.366 1254.55 691.163 1250.9 692.582C1248.06 693.596 1208.94 695.42 1163.74 696.636C1118.54 697.852 1039.29 700.284 987.403 701.906C935.514 703.527 876.329 705.96 855.655 706.973C833.967 708.189 694.111 709 523.244 709C302.718 708.797 229.345 708.392 232.385 706.568C234.615 705.352 237.047 703.122 237.858 701.501C238.871 700.082 240.695 699.474 241.912 700.284C243.33 701.095 250.019 702.514 256.708 703.527C263.397 704.541 270.288 705.352 271.91 705.352C273.531 705.352 282.652 704.946 292.179 704.541C301.705 704.135 310.623 702.919 311.839 702.311C313.258 701.501 314.88 701.501 315.285 702.514C315.691 703.325 320.15 703.73 325.014 703.527C329.676 703.527 352.377 702.717 375.281 702.109C398.185 701.501 474.802 700.487 545.54 699.676C616.279 699.068 675.059 697.852 676.275 697.244C677.288 696.636 704.246 696.433 736.068 696.636C767.89 696.839 799.104 696.231 805.59 695.42C816.13 694.001 817.346 693.19 819.171 687.718C820.387 684.475 821.197 680.421 821.197 679.205C821.197 677.178 810.86 676.772 772.957 677.786C746.608 678.394 700.8 679.61 671.207 680.624C641.615 681.84 571.89 683.461 516.15 684.677C460.411 685.691 376.497 687.515 329.676 688.731C282.855 689.947 243.533 691.771 242.52 692.582C241.304 693.596 235.628 694.204 229.75 693.596C224.075 693.19 219.21 693.393 219.21 694.406C219.008 695.217 221.035 697.649 223.264 699.879C225.494 702.109 227.521 705.149 227.318 706.568C227.318 708.392 222.251 709 209.076 709C192.05 709 190.631 708.797 189.212 704.541C188.199 701.906 186.172 699.271 184.551 698.46C182.929 697.649 180.091 698.055 178.064 699.474C176.24 700.892 170.362 701.703 165.498 701.501C160.431 701.095 156.377 701.501 156.377 702.514C156.377 703.325 152.526 704.135 147.661 704.135C142.999 704.338 137.324 705.352 135.094 706.568C132.662 707.784 110.569 708.595 23.0072 707.987L28.8852 701.501C32.1282 697.852 34.3578 694.001 33.7498 692.785C33.1417 691.569 31.1148 691.366 29.0879 691.974C27.061 692.582 24.0207 694.406 22.3992 696.028C19.9669 698.46 19.1561 698.46 17.1292 695.42C14.697 691.974 14.4943 692.177 13.4808 696.433C12.8728 698.866 11.4539 700.892 10.4405 700.892C9.22436 700.892 8.41361 699.474 8.41361 697.852C8.41361 695.825 7.06234 695.15 4.35982 695.825C0.914104 696.636 0.508725 696.028 1.52217 691.366C2.33293 688.123 4.7652 681.84 7.19747 677.178C9.42705 672.313 10.8459 668.057 9.83243 667.449C9.02167 666.841 6.5894 667.246 4.35982 668.462C2.13024 669.678 -0.0993425 670.084 -0.70741 669.476C-1.31548 668.868 1.31948 666.233 4.7652 663.395C8.41361 660.76 15.1024 657.314 27.6691 652.855L19.1561 647.991C14.4943 645.356 11.2513 642.315 12.062 641.302C12.8728 640.288 18.7508 640.086 25.0341 640.694C35.574 641.91 36.9928 641.707 38.2089 638.059C39.2224 635.627 40.6412 634.208 41.8573 634.613C42.8708 635.018 44.695 637.248 45.9111 639.68C46.9246 642.113 48.5461 644.139 49.3568 644.139C50.3703 644.139 51.3837 642.721 51.9918 641.099C52.5999 639.072 55.6402 638.059 69.2204 638.059L68.2069 629.546C67.8016 624.681 66.5854 610.493 65.7747 597.926C64.3558 577.252 63.7478 574.617 59.4913 571.982C57.059 570.361 53.6133 566.104 51.9918 562.658C49.1541 556.375 48.9515 556.172 47.938 560.632C47.3299 563.064 45.9111 565.091 44.8977 565.091C43.6815 565.091 42.4654 563.672 41.8573 562.05C41.2493 560.429 39.4251 559.01 37.8035 559.01C36.182 559.01 32.939 561.442 26.4529 570.158L27.4664 562.658C28.4798 556.172 28.0745 554.956 25.0341 554.956C23.2099 554.956 19.7642 556.172 17.5346 557.997C15.305 559.618 12.2647 561.037 10.8459 561.037C9.42705 561.037 8.41361 558.402 8.61629 554.551C8.61629 550.902 9.42705 546.038 10.2378 543.808C11.2513 541.579 15.1024 538.741 18.7508 537.525C24.8314 535.498 25.2368 534.89 21.5884 533.674C19.3588 532.66 14.2916 530.836 3.34637 526.377L8.41361 522.323C11.2513 520.094 15.305 518.269 17.5346 518.269C19.7642 518.472 26.0476 519.688 31.7229 521.31C37.1955 523.134 42.06 523.945 42.2627 523.539C42.6681 522.931 37.8035 519.486 31.7229 516.04C25.2368 511.986 20.575 507.932 20.575 505.905C20.575 503.676 22.6019 501.852 26.0476 501.041C29.2906 500.23 35.7767 500.23 40.8439 500.635C45.9111 501.244 51.7891 502.46 54.0187 503.27C57.4644 504.689 57.4644 504.284 53.0052 499.419C50.1676 496.379 44.4923 491.514 40.2358 488.474C35.9793 485.434 32.5336 482.393 32.7363 481.583C32.7363 480.569 35.7767 480.569 39.2224 481.177C43.4788 481.988 46.5192 481.583 47.3299 480.164C48.3434 478.948 46.9246 475.299 44.2896 471.854C41.8573 468.611 40.4385 465.165 41.2493 464.354C42.06 463.341 46.9246 465.165 51.9918 468.408C57.059 471.448 61.1128 473.07 61.1128 471.854C61.1128 470.637 60.0994 467.8 58.6805 465.368C56.451 460.908 56.6536 460.706 61.7209 462.327C64.7612 463.138 66.7881 463.138 66.18 462.327C65.7747 461.314 66.5854 458.679 68.2069 456.247C69.8284 453.612 72.4634 451.585 73.6795 451.585C75.0984 451.585 79.3548 448.544 83.0032 444.896C86.6516 441.45 89.4893 436.991 89.4893 435.37C89.4893 433.343 87.057 434.762 82.8006 439.221C76.5172 445.909 76.3145 445.909 74.693 441.856C73.8822 439.221 70.8419 436.788 67.5989 436.18C64.5585 435.37 59.8967 433.545 57.059 431.924C52.3972 429.086 51.7891 429.086 49.3568 432.532C47.5326 435.37 46.3165 435.775 45.303 433.951C44.2896 432.127 42.06 431.924 36.7901 433.343C32.939 434.559 29.4933 435.37 29.0879 435.37C28.8852 435.37 29.0879 433.545 29.696 431.316C30.304 428.478 29.2906 426.654 26.0476 425.032C23.6153 423.614 18.3454 423.208 13.8862 424.019C9.83243 424.627 6.38671 424.627 6.38671 423.816C6.18402 422.803 8.81898 421.181 11.8593 419.762C14.8997 418.344 20.7777 416.519 24.6287 415.506C30.1014 414.29 31.9256 412.668 32.3309 408.817C32.7363 406.182 33.9524 403.142 35.1686 401.926C36.182 400.71 42.2627 398.277 48.5461 396.453C54.8294 394.426 61.9236 392.805 64.1531 392.805C66.3827 392.805 71.6526 394.021 75.7064 395.845C79.9629 397.467 83.814 398.885 84.4221 398.885C85.0301 398.885 85.4355 394.629 85.2328 389.359C85.2328 383.886 84.4221 375.171 83.814 369.496C82.5979 361.388 81.5844 359.564 78.7468 359.969C76.9226 360.172 75.0984 359.158 75.0984 357.942C74.8957 356.523 74.2876 357.942 73.4769 361.185C72.8688 364.631 71.2473 367.063 70.2338 366.861C69.0177 366.861 67.3962 363.212 66.5854 358.956C65.7747 354.699 64.1531 350.443 63.3424 349.227C62.1263 348.01 60.7074 349.835 59.2886 353.888C58.0725 357.334 56.0456 360.375 55.0321 360.375C53.816 360.375 52.1945 358.753 50.9783 356.929C49.1541 353.686 48.5461 353.686 43.8842 358.956C41.0466 361.996 38.4116 364.428 37.8035 364.428C37.1955 364.428 36.7901 361.996 36.5874 353.28L34.1551 358.348C31.9256 363.009 31.7229 362.604 31.3175 352.875C30.9121 346.997 29.696 342.132 28.6825 342.132C27.4664 342.132 24.8314 344.565 22.6019 347.808C19.1561 352.672 18.7508 352.875 18.5481 349.227C18.3454 345.578 18.1427 345.376 15.9131 348.619C14.4943 350.645 12.062 352.064 10.4405 352.064C8.81898 352.064 5.98133 353.483 4.35982 355.307C2.73831 357.132 0.914104 358.55 0.306036 358.348C-0.302032 358.348 -0.910099 352.875 -1.31548 346.186C-1.72086 335.444 -1.11279 333.214 3.75175 327.539C7.40016 323.485 8.61629 320.85 6.79209 320.445C5.57596 320.039 4.35982 318.012 4.35982 315.783C4.35982 313.553 6.38671 310.31 8.81898 308.689C12.062 306.662 18.5481 305.648 29.0879 305.648C37.8035 305.648 44.4923 305.04 44.0869 304.23C43.6815 303.216 36.3847 299.162 27.8718 295.109C19.3588 290.852 12.8728 286.596 13.4808 285.379C14.0889 284.163 17.7373 283.353 21.5884 283.353C25.4395 283.353 33.5471 285.177 49.9649 291.46L42.4654 283.961C38.2089 279.704 34.7632 275.65 34.7632 274.84C34.7632 273.826 37.8035 273.826 41.2493 274.434C44.8977 275.042 49.5595 275.853 51.3837 276.461C54.4241 277.069 54.6268 276.664 53.0052 273.218C51.654 270.516 51.654 269.164 53.0052 269.164C54.0187 269.164 58.2752 271.799 69.2204 281.326L72.6661 275.448C75.0984 271.799 77.5306 269.975 79.7602 270.381C81.7871 270.786 83.4086 273.015 83.4086 275.245C83.4086 277.88 85.2328 279.907 94.5565 282.542L86.449 287.001C81.9898 289.636 78.9495 292.068 79.7602 292.474C80.7737 293.082 83.4086 292.068 85.8409 290.447C88.4759 288.825 94.5565 287.406 99.6238 287.406C104.691 287.406 110.164 288.217 111.785 289.433C113.407 290.447 114.42 291.46 113.812 291.866C113.204 292.271 109.15 294.298 104.894 296.527C100.435 298.757 96.5834 301.797 96.178 303.216C95.7727 305.04 98.0023 305.243 105.096 304.23C110.569 303.622 116.65 303.013 118.879 303.216C121.109 303.419 123.338 304.23 123.946 304.838C124.555 305.446 123.136 307.27 120.906 308.891C118.677 310.513 115.839 312.134 114.825 312.54C113.609 312.945 117.663 318.215 123.338 324.701C129.216 330.985 134.081 336.863 134.081 338.079C134.081 339.295 132.459 339.498 130.433 338.889C128.608 338.281 124.149 337.268 114.825 335.241L123.946 350.24L117.866 354.294C113.812 356.996 111.785 357.537 111.785 355.915C111.785 353.888 111.38 353.888 109.353 355.713C107.326 357.537 105.704 357.334 101.651 354.091C98.813 351.862 95.57 350.037 94.5565 350.24C93.3404 350.24 92.935 358.348 93.5431 372.333C94.3538 391.589 95.1646 395.237 99.2184 400.304C101.651 403.345 105.704 409.223 108.137 413.074C112.19 419.56 112.799 419.762 114.015 416.114C114.825 413.884 116.447 405.169 117.663 396.859C119.082 388.548 121.312 380.441 122.528 379.022C124.352 376.792 124.352 375.982 121.92 374.563C120.095 373.549 119.487 371.725 120.298 369.698C121.312 367.874 128.608 363.212 136.513 359.361C150.296 353.078 153.539 352.267 208.062 348.821L221.237 355.51C228.534 359.158 237.047 364.834 240.493 368.279C244.749 372.333 247.79 373.752 250.222 372.941C252.249 372.131 253.668 370.104 253.262 368.482C252.857 366.455 250.627 365.644 246.979 366.05C242.317 366.455 241.506 365.644 241.506 361.388C241.506 358.55 239.277 352.267 236.439 347.2C233.601 342.132 230.966 338.687 230.358 339.7C229.75 340.511 229.142 342.943 229.142 345.173C229.142 348.821 228.939 348.821 227.115 344.767C226.102 342.133 224.683 340.106 223.67 340.106C222.859 340.308 221.237 341.727 219.818 343.754C217.386 346.997 217.386 346.997 217.184 343.754C217.184 340.916 215.765 340.308 211.508 340.714C208.468 340.916 204.211 342.335 201.982 343.754C199.752 344.97 197.32 345.578 196.307 345.173C195.496 344.565 198.131 338.889 201.982 332.606C205.833 326.12 209.076 320.242 209.076 319.431C209.076 318.418 207.657 317.81 206.036 317.81C204.414 317.81 202.995 316.391 202.995 314.769C202.995 313.148 205.428 310.513 208.468 308.891C211.711 307.473 218.197 305.446 232.385 303.216L226.507 298.96C223.062 296.325 221.237 293.487 221.845 292.068C222.859 290.041 227.723 289.839 240.898 290.852C254.478 291.866 258.329 291.663 257.113 289.839C256.303 288.42 252.451 286.596 248.6 285.379C244.749 284.163 241.912 282.542 242.52 281.326C243.128 280.11 247.182 279.704 251.641 280.312C256.1 280.92 259.748 280.92 259.748 280.312C259.748 279.704 258.127 277.069 256.1 274.232C254.276 271.394 253.262 268.354 254.276 267.543C255.086 266.732 259.14 267.746 263.397 269.975C268.059 272.407 271.91 273.015 273.734 272.002C275.761 270.583 276.166 267.948 275.153 261.665C274.139 253.963 274.342 252.949 277.99 252.949C281.436 252.949 282.044 254.368 282.044 261.057C282.044 268.556 282.449 269.164 287.517 269.164C292.584 269.367 292.787 269.57 289.746 271.799C287.719 273.218 286.301 274.637 286.098 275.245C286.098 275.853 289.544 275.853 293.8 275.65C298.665 275.042 301.705 275.853 302.718 277.677C303.529 279.299 302.11 281.528 298.665 283.758C295.624 285.785 291.368 287.406 289.138 287.406C285.287 287.406 285.287 287.609 289.544 290.447C293.597 293.082 295.422 293.082 304.745 290.649C310.623 289.028 316.096 288.014 316.907 288.623C317.92 289.028 316.501 292.068 313.866 295.514C311.434 298.757 309.812 301.797 310.421 302.203C311.029 302.405 314.88 304.23 318.934 306.257C323.19 308.081 326.636 310.513 326.636 311.729C326.636 312.945 325.217 313.351 323.595 312.743C321.974 312.134 318.731 312.54 316.501 313.756C313.799 315.107 312.447 317.81 312.447 321.864C312.447 326.12 311.637 327.539 309.812 326.525C308.596 325.512 305.353 324.904 302.921 324.904C299.678 324.904 298.259 326.12 298.259 328.958C298.259 331.187 297.043 336.457 295.219 340.714C292.787 346.794 292.584 349.227 294.611 353.28C296.435 356.929 298.867 358.348 302.313 358.348C305.151 358.145 310.421 355.51 313.866 352.267C317.515 348.821 322.379 346.186 324.609 346.186C326.838 346.186 333.527 348.01 339.202 350.24C345.08 352.47 353.593 357.132 366.16 367.063L378.727 362.604C388.659 359.361 396.361 358.348 413.792 358.348C433.25 358.348 437.507 357.74 447.641 353.28C454.127 350.443 462.843 347.2 466.897 346.186C472.031 344.835 478.653 340.106 486.76 331.998C496.287 322.472 498.922 320.647 498.922 323.89C498.922 326.12 499.732 329.566 500.746 331.593C501.759 333.417 511.083 339.092 521.42 344.159C533.176 349.835 542.094 355.713 545.337 359.969C548.175 363.618 552.837 367.063 555.675 367.671C559.053 368.347 561.215 367.671 562.161 365.644C563.174 363.82 565.201 362.401 566.822 362.401C568.444 362.401 570.471 363.618 571.282 365.239C572.295 366.658 574.322 368.482 575.943 369.09C578.173 369.901 577.768 370.306 574.93 370.306C571.282 370.306 571.282 370.712 573.917 373.549C575.538 375.374 575.943 376.792 574.93 376.792C573.714 376.995 576.146 377.806 579.997 379.022C583.848 380.035 589.524 381.252 592.564 381.86C597.429 382.468 598.239 382.062 598.239 377.603C598.239 374.157 596.82 372.13 593.577 371.117C589.118 369.698 589.118 369.698 594.185 368.482C597.226 367.671 599.455 365.644 599.455 363.415C599.658 361.185 599.861 356.118 600.063 352.267C600.266 346.997 600.874 345.984 602.293 348.213C603.307 349.835 604.32 353.078 604.32 355.307C604.32 357.537 605.739 361.793 607.36 365.036C608.982 368.077 609.387 370.509 608.374 370.509C607.158 370.509 606.347 371.725 606.347 373.144C606.347 374.36 611.009 378.414 616.887 381.657C622.765 385.103 629.251 387.535 631.075 387.332C633.102 386.927 634.723 384.9 634.723 382.67C634.723 379.63 636.75 378.008 642.223 376.59C646.479 375.576 653.371 374.563 657.425 374.563C662.492 374.563 665.532 373.549 666.14 371.522C666.748 369.496 669.991 368.482 675.667 368.482C682.558 368.279 685.193 369.293 687.625 372.941C690.666 377.198 693.098 377.806 711.948 378.819C723.501 379.63 735.663 380.846 739.108 381.86C744.176 383.076 744.784 382.873 743.162 380.441C741.946 378.819 741.135 376.184 741.338 374.563C741.338 372.941 742.554 369.09 743.77 366.05C745.189 362.807 746.202 358.145 746.202 355.307C746.202 352.47 747.013 349.835 748.229 349.227C749.445 348.619 750.256 351.456 750.256 355.915C750.054 360.78 751.675 365.442 759.377 375.171L754.715 373.955C751.472 372.941 750.256 373.347 750.256 375.576C750.256 377.806 752.689 378.617 759.783 378.617C765.255 378.617 771.741 378.009 774.579 377.4C777.619 376.59 778.633 375.576 777.214 374.765C775.795 374.157 778.43 371.928 783.903 369.496C788.767 367.266 792.821 364.834 792.821 364.023C792.821 363.009 790.794 363.009 788.159 363.618C785.727 364.428 782.484 366.05 781.065 367.266C779.038 369.09 778.835 368.482 780.052 364.631C781.065 361.996 782.889 359.158 784.105 358.145C785.727 357.132 789.375 357.132 792.821 358.348C796.064 359.564 798.902 359.766 798.902 358.956C799.104 357.942 796.267 356.118 792.821 354.902C789.578 353.483 787.146 351.456 787.754 350.24C788.429 348.889 790.591 348.889 794.24 350.24C797.483 351.456 801.131 351.862 802.347 351.254C803.766 350.645 804.982 346.997 804.982 343.146C804.982 338.281 805.996 336.052 808.023 336.052C809.644 336.052 812.482 339.295 814.103 343.146C815.725 346.997 817.954 350.24 819.171 350.24C820.184 350.24 821.197 351.659 821.197 353.28C821.197 354.902 822.616 356.118 824.643 355.915C826.467 355.51 830.319 352.064 832.953 348.213C835.588 344.362 838.426 340.916 839.642 340.714C840.656 340.308 841.872 343.146 842.074 346.794C842.48 350.24 843.493 354.902 844.101 356.929C845.115 359.564 844.507 360.375 841.466 360.375C839.237 360.375 837.413 361.185 837.413 362.401C837.413 363.618 839.44 364.023 841.872 363.618C844.507 363.212 848.966 363.82 852.209 365.239C855.249 366.455 857.682 368.077 857.682 369.09C857.682 369.901 854.641 370.509 850.993 370.712C845.723 370.712 845.318 371.117 848.56 372.333C850.79 373.347 854.033 373.549 855.655 372.739C857.479 372.131 858.087 372.333 857.276 373.549C856.465 374.765 858.087 376.792 860.722 378.211C863.56 379.427 868.221 381.86 871.262 383.278C874.099 384.495 883.626 385.711 892.341 385.711C901.057 385.711 907.543 386.319 906.732 387.13C905.922 387.94 900.246 390.373 894.166 392.399C888.085 394.629 882.815 397.264 882.41 398.683C882.207 399.899 883.22 400.912 884.437 400.912C885.855 400.912 898.017 396.859 911.394 391.791C924.772 386.724 935.92 382.67 936.122 382.67C936.528 382.67 936.122 383.684 935.109 385.103C934.095 386.927 934.906 387.332 937.744 386.521C940.176 385.711 943.014 386.724 944.838 388.548C946.459 390.17 949.5 395.034 951.324 399.291C954.77 406.79 955.378 406.993 965.107 406.993C970.579 406.993 975.241 406.385 975.241 405.574C975.444 404.561 973.417 402.129 971.188 399.899C968.958 397.669 966.931 394.224 967.134 392.399C967.134 390.373 968.958 388.346 971.188 387.738C973.417 387.129 975.647 387.535 976.255 388.751C976.863 389.967 979.295 390.778 981.727 390.778C984.362 390.778 987.605 391.791 989.024 393.21C991.254 395.44 992.065 395.237 993.686 392.399C994.699 390.373 996.321 388.751 997.537 388.751C998.551 388.751 1000.37 390.778 1001.39 393.413C1002.81 396.656 1004.63 397.669 1008.08 397.061C1010.51 396.656 1015.17 398.075 1018.41 400.102C1021.45 402.331 1024.29 405.98 1024.9 408.615C1025.51 411.047 1026.72 413.074 1027.94 413.074C1028.95 413.074 1031.79 409.425 1034.02 404.966C1036.25 400.507 1038.89 396.859 1040.1 396.859C1041.12 396.859 1043.55 399.088 1045.17 401.926C1046.79 404.763 1048.21 410.033 1048.21 413.682C1048.21 420.168 1048.21 420.168 1058.14 420.168C1067.46 420.168 1068.48 420.776 1077.8 430.708C1083.27 436.586 1089.36 441.45 1091.18 441.45C1093.21 441.45 1094.83 441.248 1094.83 441.045C1094.83 440.639 1091.79 430.505 1087.73 418.141C1083.88 405.777 1080.64 395.034 1080.64 393.818C1080.64 392.602 1082.06 394.021 1083.68 396.859C1085.3 399.695 1089.76 408.605 1093.81 416.709L1093.81 416.722C1097.67 424.627 1100.91 432.127 1100.91 433.343C1100.91 434.559 1101.92 435.37 1102.94 435.37C1103.95 435.37 1104.96 432.735 1104.96 429.289C1104.96 425.843 1103.95 418.344 1102.73 412.668C1101.31 405.372 1101.31 401.318 1102.73 399.899C1104.15 398.48 1105.77 401.115 1107.6 408.007C1109.22 413.682 1111.45 418.344 1112.87 418.749C1114.08 418.952 1115.5 415.303 1116.11 409.628C1116.72 404.155 1118.54 398.48 1120.37 396.859C1123.41 394.224 1123.61 394.224 1123.2 396.859C1123 398.48 1122.8 401.926 1123 404.561C1123 406.993 1123.81 409.02 1124.62 409.02C1125.64 409.02 1127.46 404.966 1128.68 399.899C1130.1 394.832 1131.92 390.778 1132.73 390.778C1133.74 390.778 1134.15 393.21 1133.74 395.845C1133.54 399.494 1134.55 401.318 1137.8 402.737C1140.43 403.75 1143.07 404.155 1143.88 403.75C1144.89 403.345 1144.89 401.318 1144.28 399.494C1143.27 396.656 1143.88 396.251 1146.31 397.467C1148.34 398.277 1150.16 397.872 1150.97 396.453C1151.58 395.034 1150.57 392.805 1148.34 391.386C1144.69 389.156 1144.69 388.954 1149.55 387.94C1152.39 387.332 1155.43 387.94 1156.24 389.359C1157.46 391.183 1158.27 390.981 1159.08 388.751C1159.89 386.319 1160.5 386.521 1162.93 389.764C1164.55 391.994 1165.36 392.399 1164.76 390.778C1164.15 389.156 1164.55 385.305 1165.77 382.265C1166.99 378.617 1169.21 376.59 1171.85 376.59C1174.48 376.59 1175.3 375.779 1174.28 374.36C1173.47 373.144 1174.28 371.32 1175.9 370.306C1177.53 369.496 1180.97 369.09 1183.4 369.496C1187.46 370.306 1188.07 369.698 1188.07 364.428C1188.07 360.983 1189.08 358.348 1190.5 358.348C1191.92 358.348 1194.75 359.361 1196.78 360.78C1198.81 362.199 1200.63 365.442 1200.83 367.874C1201.24 371.725 1202.86 372.739 1210.36 373.752C1215.43 374.36 1221.1 375.374 1222.93 375.779C1224.95 376.184 1226.58 375.779 1226.58 374.563C1226.58 373.347 1228.81 372.536 1231.64 372.536C1235.49 372.536 1236.91 373.752 1238.74 382.67L1242.79 378.211C1246.03 374.36 1247.05 369.293 1248.06 349.227C1248.87 335.849 1248.87 316.999 1248.06 307.27C1247.05 292.676 1246.24 289.636 1243.8 290.447C1241.78 291.055 1239.55 288.825 1236.91 283.961C1234.89 279.704 1230.63 274.029 1227.59 271.191C1222.93 266.935 1222.32 266.732 1223.94 270.178C1225.16 272.407 1227.59 275.65 1229.41 277.272C1231.24 278.893 1232.86 280.92 1232.66 281.934C1232.66 282.745 1229.21 282.947 1224.95 282.339C1220.9 281.731 1216.04 281.123 1214.41 281.123C1212.79 281.123 1209.14 281.326 1206.31 281.528C1203.47 281.731 1199.42 281.123 1197.39 280.11C1193.54 278.285 1193.33 278.893 1194.75 293.082C1195.77 302.405 1195.36 307.675 1194.15 307.675C1193.13 307.675 1189.89 304.23 1181.98 292.474V299.162C1181.98 302.608 1181.38 305.648 1180.36 305.648C1179.55 305.446 1177.93 304.027 1176.51 302C1174.28 298.96 1174.08 299.162 1173.88 304.23C1173.88 307.27 1173.47 311.121 1172.86 312.743C1172.26 314.364 1170.63 315.783 1169.21 315.783C1168 315.783 1164.55 313.756 1157.05 306.662L1158.47 314.364C1159.28 319.431 1158.88 321.661 1157.46 321.458C1156.04 321.053 1153.81 317.607 1152.39 313.756C1150.97 309.905 1149.76 308.081 1149.76 309.702C1149.76 312.134 1149.15 312.337 1146.51 310.31C1144.08 308.081 1143.27 308.486 1142.26 312.337C1141.65 314.769 1139.82 319.837 1138.2 323.485C1136.38 327.742 1134.35 329.566 1132.33 328.958C1130.7 328.35 1129.29 328.755 1129.29 329.971C1129.29 331.187 1127.26 331.795 1124.83 331.593C1121.99 331.187 1119.96 329.363 1119.56 326.931C1119.15 324.701 1117.93 322.066 1116.92 320.85C1115.7 319.634 1115.1 322.472 1115.1 328.552C1115.1 334.228 1114.29 337.673 1113.07 337.065C1112.06 336.457 1111.04 334.228 1111.04 331.998C1111.04 329.768 1110.03 327.944 1109.02 327.944C1108 327.944 1106.99 330.174 1106.99 333.011C1106.99 335.849 1105.17 339.7 1103.14 341.727C1101.11 343.551 1096.85 347.2 1094.02 349.835C1091.18 352.267 1087.33 353.888 1085.71 353.28C1083.68 352.605 1081.99 354.294 1080.64 358.348C1079.02 363.009 1077.4 364.428 1073.55 364.428C1070.71 364.428 1066.86 366.05 1064.83 368.077C1063.01 370.104 1060.37 373.549 1059.36 375.576C1057.94 378.211 1056.11 378.819 1053.28 377.806C1049.83 376.59 1049.43 375.171 1050.44 367.874C1051.05 363.212 1054.9 352.267 1058.95 343.754C1063.01 335.038 1069.9 324.093 1073.95 319.431C1078.21 314.769 1088.54 305.851 1096.85 299.77C1105.17 293.487 1121.38 283.353 1132.93 277.272C1150.97 267.543 1153.81 265.516 1153.61 261.057C1153.61 258.219 1152.39 253.76 1150.97 251.125C1149.76 248.287 1147.53 245.855 1146.51 245.45C1145.3 245.247 1144.49 246.869 1144.69 249.504C1144.69 251.936 1144.49 254.571 1144.08 255.584C1143.68 256.395 1142.05 255.382 1140.43 253.557C1137.8 250.112 1137.6 250.314 1138.41 254.571C1139.22 257.611 1138.41 259.03 1136.38 259.03C1134.76 259.03 1132.93 258.219 1132.33 257.003C1131.72 255.787 1129.08 254.976 1126.24 254.976C1123.41 254.976 1120.77 253.557 1120.16 251.936C1119.56 250.314 1118.14 248.895 1117.12 248.895C1115.91 248.895 1115.1 250.517 1115.1 252.544C1115.1 255.382 1114.29 254.976 1106.99 245.855V252.949C1106.99 256.8 1106.38 261.868 1105.77 264.097C1105.17 266.732 1102.94 268.151 1099.29 268.354C1095.03 268.354 1093 266.935 1090.17 261.665C1088.34 258.016 1085.71 254.976 1084.69 254.976C1083.48 254.976 1082.67 259.03 1082.67 264.097C1082.67 269.164 1081.65 275.042 1080.64 277.272C1079.02 280.312 1077.8 280.92 1075.57 279.299C1073.34 277.88 1071.92 278.285 1069.9 281.123C1067.46 284.771 1067.26 284.771 1063.82 280.11C1061.99 277.475 1059.36 275.245 1058.34 275.245C1057.13 275.245 1056.32 280.11 1056.32 285.988C1056.32 293.487 1055.71 295.717 1054.29 293.487C1053.28 291.866 1052.26 288.014 1052.26 284.974C1052.26 280.92 1051.45 279.502 1049.22 280.312C1047.6 280.92 1045.78 279.907 1045.17 278.285C1044.56 276.664 1043.55 275.65 1042.53 276.056C1041.72 276.461 1040.51 281.326 1039.49 286.596C1038.68 292.068 1036.86 299.973 1035.44 304.23C1034.22 308.283 1032.4 311.729 1031.39 311.729C1030.58 311.729 1029.97 309.5 1029.97 306.662C1029.97 303.013 1029.16 301.797 1026.93 302.608C1025.1 303.216 1022.67 301.392 1018.01 292.474L1017.81 300.176C1017.81 304.432 1017 307.27 1015.78 306.662C1014.56 306.054 1013.75 303.419 1013.75 300.581C1013.75 297.744 1012.74 295.514 1011.73 295.514C1010.51 295.514 1009.29 297.541 1008.68 300.176C1008.08 302.608 1007.67 307.067 1007.67 310.31C1007.67 313.351 1006.66 315.378 1005.64 314.769C1004.43 314.161 1003.62 311.526 1003.62 308.689C1003.62 305.851 1002.6 303.216 1001.59 302.608C1000.37 302 998.956 304.635 996.929 314.769L990.038 300.581L983.552 309.702C979.903 314.769 976.255 320.242 975.241 321.864C974.228 323.485 972.809 324.093 971.796 323.282C970.985 322.472 971.188 316.999 972.606 311.121C973.823 305.243 977.065 295.109 979.498 288.42C982.133 281.731 986.795 273.218 989.835 269.772C992.875 266.124 995.105 262.273 994.497 261.057C993.889 259.841 991.254 259.435 988.416 260.043C985.578 260.651 982.943 260.246 982.335 259.03C981.727 257.814 983.552 256.598 986.389 255.99C990.038 255.179 992.065 252.949 993.686 247.477C995.105 243.22 999.767 234.505 1004.43 228.018C1009.29 220.924 1017.2 213.222 1023.89 208.763C1029.97 204.709 1045.57 196.196 1058.34 189.71C1071.11 183.427 1087.13 176.13 1093.81 173.9C1100.5 171.671 1108.41 169.847 1111.45 169.847C1114.69 169.847 1128.07 175.522 1165.57 195.183L1170.03 191.129C1172.46 188.899 1176.11 183.021 1178.13 177.954C1180.36 172.887 1181.58 168.428 1180.77 167.82C1180.16 167.212 1177.53 169.441 1170.23 178.968L1169.01 171.468C1168.4 167.212 1166.78 164.171 1165.77 164.779C1164.76 165.387 1164.15 168.022 1164.76 170.86C1165.57 174.711 1164.96 175.927 1162.12 175.927C1159.08 175.927 1158.88 174.711 1160.09 165.387C1160.7 159.509 1161.92 153.023 1162.53 151.199C1163.13 149.172 1162.73 147.551 1161.72 147.551C1160.7 147.551 1159.28 149.78 1158.68 152.618C1158.07 155.456 1155.43 158.496 1152.59 159.712C1149.76 160.726 1146.92 162.955 1146.11 164.374C1145.16 165.996 1144.28 165.117 1143.47 161.739C1142.66 158.496 1141.04 156.875 1138.81 157.28C1136.99 157.483 1135.37 157.28 1135.37 156.672C1135.37 156.064 1136.38 153.429 1137.39 150.591C1139.01 146.537 1138.81 145.524 1136.38 145.524C1133.74 145.524 1133.74 144.51 1136.58 137.011C1138.2 132.146 1140.43 127.89 1141.45 127.282C1142.26 126.674 1143.27 123.025 1143.47 119.174C1143.68 115.326 1143.68 111.072 1143.68 110.055V110.053C1143.47 109.04 1139.22 112.688 1125.23 128.295V120.796C1125.23 116.539 1124.83 111.675 1124.22 110.053C1123.61 108.432 1121.79 107.418 1120.16 108.026C1118.54 108.634 1117.12 108.432 1117.12 107.621C1117.33 106.608 1118.54 103.77 1120.16 100.932C1121.79 98.0947 1123 93.8382 1123.2 91.4059C1123.2 88.7709 1121.79 85.3252 1120.16 83.7037C1118.54 82.0822 1114.29 80.258 1111.04 79.6499C1107.6 79.0419 1105.37 77.623 1105.98 76.6096C1106.58 75.5961 1110.84 74.5827 1115.5 74.5827C1121.18 74.38 1127.06 72.7585 1132.33 69.5155C1136.78 66.6778 1141.85 64.4482 1143.47 64.4482C1145.09 64.4482 1149.15 65.8671 1152.59 67.6913C1155.84 69.3128 1163.74 71.745 1169.82 72.9612C1175.9 73.9746 1185.02 77.015 1190.09 79.6499C1195.16 82.2849 1205.5 89.9871 1213.4 96.8785C1225.16 107.216 1227.99 108.837 1230.22 106.608C1232.45 104.378 1232.25 102.554 1228.81 95.4597C1224.75 87.1494 1224.75 86.3387 1227.79 77.2177C1229.41 71.745 1233.26 64.8536 1236.31 61.8133C1239.35 58.5702 1245.22 54.3138 1249.28 52.0842C1253.53 50.0573 1258.4 48.2331 1260.02 48.2331C1261.64 48.2331 1263.06 47.017 1263.06 45.8008C1263.06 44.382 1266.1 39.5175 1269.95 35.0583C1273.8 30.5991 1278.87 21.4781 1281.3 14.7894Z" fill="#A2B969"/>
<path fill-rule="evenodd" clip-rule="evenodd" d="M1224.55 111.066C1225.77 111.066 1226.98 112.485 1227.59 114.107C1228.2 115.728 1228.6 120.39 1228.6 124.241C1228.6 128.092 1227.59 131.335 1226.58 131.335C1225.56 131.335 1223.54 128.903 1222.32 125.66C1221.31 122.62 1220.7 118.161 1221.51 115.526C1222.12 113.093 1223.54 111.066 1224.55 111.066ZM1363.8 114.715C1364.2 117.147 1363.39 120.998 1362.38 123.228C1361.36 125.457 1359.74 127.079 1359.14 126.673C1358.53 126.471 1359.14 122.62 1360.55 118.161C1362.78 111.877 1363.39 111.066 1363.8 114.512V114.715ZM1230.83 143.699C1231.85 143.699 1235.49 146.942 1238.74 150.793C1241.98 154.645 1244.82 159.306 1244.82 160.928C1244.82 162.752 1242.99 163.968 1240.16 163.968C1237.72 163.968 1233.27 161.333 1230.02 158.293C1226.98 155.253 1224.55 152.212 1224.55 151.199C1224.55 150.388 1226.17 150.388 1228 151.199C1230.83 152.618 1231.24 152.01 1230.22 148.159C1229.62 145.726 1229.82 143.699 1230.83 143.699ZM1211.78 176.13C1213.2 176.13 1214.82 177.143 1215.43 178.157C1216.04 179.17 1215.43 182.008 1214.42 184.237C1213.4 186.467 1211.17 187.886 1209.75 187.48C1208.54 187.278 1206.31 185.251 1205.29 183.426C1203.88 180.994 1204.08 179.575 1206.31 178.157C1207.93 177.143 1210.56 176.13 1211.78 176.13ZM1318.19 178.157C1319 178.157 1321.23 180.183 1322.85 182.616C1324.48 185.251 1325.89 188.494 1325.89 189.71C1325.89 191.331 1323.26 192.345 1319.81 192.345C1314.54 192.345 1313.73 191.534 1313.33 186.669C1313.12 183.426 1313.73 180.183 1314.75 179.575C1315.76 178.765 1317.18 178.157 1318.19 178.157ZM1394.81 198.425C1395.82 198.425 1397.44 200.452 1398.05 202.885C1398.86 205.52 1398.86 209.168 1398.05 210.992C1397.24 213.424 1394.81 214.641 1390.75 214.641C1387.51 214.641 1384.67 214.033 1384.67 213.019C1384.67 212.208 1386.5 208.56 1388.73 204.912C1390.96 201.466 1393.59 198.425 1394.81 198.425ZM1369.27 206.533C1370.49 206.33 1372.92 207.749 1374.54 209.573C1377.17 212.614 1377.17 213.222 1374.54 214.843C1372.92 215.857 1368.26 217.478 1364.41 218.694C1360.55 219.708 1356.09 220.721 1354.68 220.721C1353.46 220.721 1352.45 219.1 1352.85 217.073C1353.05 215.249 1355.28 213.424 1357.72 213.019C1360.15 212.614 1363.19 210.992 1364.61 209.371C1365.82 207.749 1367.85 206.533 1369.27 206.533ZM1140.03 213.019C1142.26 213.424 1144.49 214.843 1144.89 216.059C1145.3 217.681 1143.47 218.694 1140.43 218.694C1137.19 218.694 1135.37 217.681 1135.57 215.451C1135.57 213.424 1137.19 212.614 1140.03 213.019ZM1341.1 214.641C1343.93 214.641 1346.77 215.857 1347.38 217.073C1347.99 218.492 1347.78 220.519 1346.97 221.329C1345.96 222.343 1343.12 222.545 1340.49 221.937C1338.06 221.329 1336.03 219.302 1336.03 217.681C1336.03 215.857 1337.85 214.641 1341.1 214.641V214.641ZM1194.55 220.924C1198.2 221.937 1202.46 223.964 1203.88 225.383C1205.29 226.802 1206.51 228.423 1206.31 229.234C1206.31 230.248 1204.69 230.856 1202.66 230.856C1200.84 230.856 1196.17 229.032 1192.52 226.802C1189.08 224.572 1186.44 221.937 1187.05 220.924C1187.46 219.708 1190.5 219.708 1194.55 220.924V220.924ZM1383.66 231.869L1384.07 238.355C1384.47 242.004 1383.66 246.868 1382.65 249.098C1381.63 251.327 1379.61 252.746 1378.59 252.138C1377.58 251.53 1376.57 249.098 1376.36 246.463C1376.16 244.031 1377.78 239.571 1380.01 236.936L1383.66 231.869ZM1357.31 238.963C1358.93 238.963 1361.57 239.369 1363.39 239.977C1365.01 240.382 1366.43 242.814 1366.43 245.044C1366.43 248.287 1365.42 248.692 1361.77 247.882C1359.34 247.071 1356.09 245.652 1354.68 244.841C1353.26 243.828 1352.65 242.004 1353.26 240.99C1353.87 239.774 1355.69 238.963 1357.31 238.963ZM1241.17 253.557C1244.21 253.962 1246.03 255.989 1246.85 260.246C1247.45 263.489 1247.66 267.948 1246.85 269.975C1245.83 273.218 1244.62 272.61 1236.71 265.516C1228.6 258.219 1228 257.205 1232.05 257.205C1234.48 257.205 1236.71 256.192 1236.71 254.976C1236.91 253.76 1238.94 253.152 1241.17 253.557V253.557ZM277.991 364.631C279.004 364.631 280.423 366.252 281.031 368.076C281.639 370.103 281.639 373.346 281.031 375.17C280.018 378.414 282.045 378.819 304.34 378.819C318.529 378.819 329.069 379.63 329.677 380.846C330.082 381.859 326.231 384.494 320.961 386.724C315.691 388.751 308.597 391.183 305.354 391.994C301.908 392.804 294.409 395.642 288.531 398.277C278.802 402.736 277.991 403.547 279.004 408.614C280.22 414.087 280.018 414.087 276.977 410.236C274.748 407.398 273.734 401.925 273.734 391.386C273.734 383.278 274.748 376.184 275.964 375.779C277.315 375.103 277.315 373.752 275.964 371.725C274.748 369.901 274.342 367.671 274.951 366.658C275.559 365.441 276.977 364.631 277.991 364.631ZM509.867 371.725C513.313 372.13 523.042 373.144 531.555 373.752C540.271 374.562 547.365 375.981 547.365 376.995C547.365 378.008 545.338 379.224 542.906 379.832C540.473 380.238 531.758 380.846 523.65 380.846C515.543 380.846 508.449 379.832 508.043 378.819C507.435 377.603 505.611 378.211 503.989 380.238C501.354 383.683 500.138 383.683 477.64 379.832C464.87 377.603 454.128 374.968 454.128 374.157C454.128 373.346 463.654 373.346 475.005 373.954C488.382 374.765 497.301 374.562 499.733 373.144C501.962 371.927 506.422 371.319 509.867 371.725V371.725ZM256.708 375.17C264.208 374.765 265.627 375.373 265.221 378.008C265.019 380.035 263.6 381.859 262.181 382.062C260.56 382.602 260.222 381.792 261.168 379.63C262.384 376.995 261.978 376.589 258.938 378.008C256.911 379.022 255.695 381.048 255.898 382.873C256.303 384.494 258.735 386.724 261.168 387.94C264.411 389.359 265.83 392.196 266.843 400.101C267.451 405.574 267.654 410.236 267.451 410.438C267.046 410.641 264.411 411.452 261.776 412.263C257.519 413.276 256.303 412.668 255.087 408.817C254.276 406.182 253.668 399.899 253.668 395.034C253.668 389.967 252.249 384.089 250.628 381.859C249.006 379.63 247.587 377.197 247.587 376.792C247.587 376.184 251.641 375.576 256.708 375.17ZM132.257 378.819C133.271 378.819 134.081 380.035 134.081 381.859C134.081 383.481 135.5 384.697 137.527 384.494C139.554 384.089 143.405 385.508 146.243 387.535C148.878 389.359 152.526 390.575 154.35 389.967C155.972 389.359 159.418 390.575 161.85 392.804C164.485 395.237 166.917 396.047 167.525 395.034C167.931 393.818 169.349 393.413 170.566 394.021C171.579 394.426 172.592 399.088 172.592 404.155C172.592 409.02 172.187 413.276 171.984 413.276C171.782 413.276 168.336 411.857 164.485 410.033C158.607 407.195 155.769 406.993 149.283 408.817C144.824 410.033 140.365 410.438 139.554 410.033C138.743 409.628 138.135 410.033 138.135 411.249C138.135 412.263 135.906 413.276 133.473 413.276C131.041 413.276 127.19 412.06 125.163 410.641C121.92 408.614 121.515 406.587 122.731 397.466C123.339 391.588 125.366 385.102 127.19 382.873C129.014 380.643 131.244 378.819 132.257 378.819V378.819ZM247.182 391.386C249.209 391.791 250.83 394.223 251.033 397.466C251.236 400.507 251.033 403.142 250.628 403.142C250.02 403.142 247.79 401.115 245.561 398.48C243.534 396.047 242.318 393.21 242.926 392.399C243.534 391.386 245.358 390.98 247.182 391.386ZM235.426 393.007C236.44 393.007 237.858 394.223 238.466 396.047C238.872 397.669 239.48 401.317 239.48 404.155C239.48 406.79 238.466 409.222 237.453 409.222C236.237 409.222 234.818 411.046 234.413 413.276C233.805 415.506 232.386 417.33 231.372 417.33C230.156 417.33 229.143 414.695 229.143 411.655C229.143 408.614 230.156 403.142 231.372 399.493C232.588 395.845 234.413 393.007 235.426 393.007ZM178.673 395.034C179.687 395.034 180.7 396.858 180.7 399.088C180.7 401.317 181.916 403.547 183.74 404.155C185.362 404.56 187.591 404.56 188.808 404.155C189.821 403.547 190.834 402.128 190.834 401.115C190.834 399.899 189.416 399.493 187.794 400.101C185.97 400.709 184.754 399.899 184.754 398.074C184.754 396.25 185.767 395.034 187.186 395.034C188.605 395.034 190.834 395.642 192.456 396.453C193.875 397.264 194.888 399.696 194.483 401.925C194.078 404.155 191.24 406.587 187.794 407.601C184.348 408.614 180.497 409.02 179.079 408.412C177.66 407.601 176.646 404.358 176.646 401.115C176.646 397.669 177.457 395.034 178.673 395.034ZM569.255 395.034C570.066 395.034 572.093 395.845 573.917 397.061C576.349 398.682 576.349 398.885 573.309 399.088C571.282 399.088 569.863 399.899 569.863 401.115C569.863 402.128 571.688 403.142 573.917 403.142C576.147 403.142 578.376 403.952 578.984 405.169C579.592 406.385 580.809 406.385 582.43 405.169C584.052 404.155 586.079 403.952 588.105 405.169C589.727 406.182 597.834 406.993 606.347 406.993C614.658 406.993 625.198 406.182 629.657 405.169C634.116 404.358 656.817 403.142 680.329 402.736C713.165 402.331 722.894 402.736 723.299 404.56C723.502 405.979 723.704 410.641 723.704 414.695C723.704 418.951 724.313 421.586 725.326 420.573C726.137 419.762 727.353 415.1 727.961 410.641C728.772 402.534 728.974 402.331 737.487 401.723C743.365 401.317 746 401.925 746 403.547C746 405.574 746.608 405.574 749.041 403.547C750.865 402.128 752.486 401.723 752.892 402.534C753.297 403.344 755.324 409.02 761.405 426.451L761.81 413.681C762.418 401.115 762.418 401.115 768.499 400.507C771.945 400.304 775.188 400.709 775.593 401.52C776.201 402.331 777.62 402.128 779.039 401.115C780.458 400.101 783.498 399.696 785.727 400.304C788.565 401.115 789.579 402.736 789.173 406.182C788.768 409.425 790.592 412.871 794.24 416.316C797.281 419.154 799.308 421.586 798.902 421.992C798.294 422.397 782.687 426.654 764.445 431.315C746 436.18 728.569 440.436 725.934 441.044C722.286 441.653 716.813 439.423 708.097 433.545C697.963 427.059 693.504 425.437 685.802 425.235C678.505 425.235 675.262 426.248 672.221 429.694C669.992 431.923 665.938 434.761 663.506 435.775C660.06 436.991 655.804 436.18 647.291 432.329C640.805 429.491 631.481 426.248 626.616 425.235C618.306 423.411 617.09 423.613 614.455 427.464C611.617 431.113 610.199 431.315 603.307 429.897C597.834 428.68 593.375 428.883 590.132 430.302C587.295 431.518 583.444 434.153 581.417 435.977C579.39 438.004 576.957 439.626 575.944 439.626C574.728 439.626 573.309 438.612 572.904 437.599C572.296 436.383 569.053 435.572 565.81 435.572C561.35 435.572 559.324 434.356 558.715 431.518C557.905 428.478 555.878 427.464 551.621 427.464C546.351 427.464 545.135 426.451 543.919 421.181C542.5 415.708 541.69 415.1 534.393 415.1C526.691 415.303 526.082 414.898 525.677 409.222C525.272 404.155 525.88 403.142 529.731 402.939C532.163 402.939 541.081 402.331 549.594 401.723C559.526 401.115 565.202 399.696 566.215 397.872C567.228 396.25 568.647 395.034 569.255 395.034V395.034ZM1133.54 405.169C1134.35 405.169 1135.37 406.993 1135.37 409.222C1135.37 411.452 1136.18 413.276 1137.39 413.276C1138.41 413.276 1139.42 414.29 1139.42 415.708C1139.42 417.127 1137.6 419.965 1135.37 421.789C1133.14 423.816 1130.3 425.437 1129.29 425.437C1128.07 425.437 1127.66 423.816 1128.47 421.789C1129.29 419.965 1130.3 415.303 1130.7 411.655C1131.11 408.006 1132.53 405.169 1133.54 405.169ZM187.794 413.276C191.645 413.276 195.294 414.087 195.902 415.303C196.307 416.316 195.699 419.154 194.28 421.384C192.861 423.613 191.037 425.437 190.226 425.437C189.416 425.437 186.983 423.613 184.754 421.384C182.524 419.154 180.7 416.316 180.7 415.303C180.7 414.087 183.74 413.276 187.794 413.276ZM104.286 436.585C106.718 437.396 110.367 439.828 112.191 442.261C114.421 444.896 115.839 449.76 115.839 454.219C115.839 459.084 114.826 461.921 113.205 461.719C111.786 461.719 106.313 458.881 101.043 455.233C95.5705 451.584 91.3141 447.936 91.3141 447.125C91.3141 446.314 92.5302 444.896 94.1517 444.085C95.5705 443.274 97.3947 441.044 98.2055 439.018C99.4216 436.18 101.043 435.572 104.286 436.585V436.585ZM626.616 448.747C640.399 449.355 653.169 449.963 654.993 449.963C656.614 449.963 668.573 449.557 681.748 448.747C705.462 447.733 705.665 447.733 705.462 452.192C705.462 456.854 705.26 456.854 680.734 456.043C666.546 455.638 653.777 456.246 650.939 457.462C646.48 459.287 646.48 459.692 649.926 459.692C652.155 459.692 655.804 461.111 658.033 462.732C661.682 465.367 661.074 465.57 651.953 464.962C646.277 464.759 639.994 463.746 637.764 462.935C635.535 462.124 631.886 460.705 629.657 459.895C627.427 458.881 620.536 457.462 614.455 456.854C608.172 456.044 601.483 454.422 599.253 453.409C595.808 451.584 595.605 450.976 598.24 449.557C599.861 448.544 612.631 448.139 626.616 448.747V448.747ZM820.995 451.99C828.089 451.787 833.562 452.192 833.157 452.598C832.549 453.206 820.387 455.03 805.996 456.652C791.403 458.476 775.593 459.895 770.526 459.895C765.661 459.895 762.418 459.287 763.432 458.881C764.445 458.273 774.985 456.449 786.741 455.03C798.294 453.409 813.699 452.192 820.995 451.99ZM674.248 460.705C675.262 460.908 676.275 462.327 676.275 463.543C676.275 464.759 675.87 468.205 675.667 471.043C675.464 473.88 673.843 476.11 672.221 476.11C670.397 476.11 668.168 473.069 666.952 469.421C665.938 465.773 664.722 462.732 664.519 462.53C664.317 462.327 665.938 461.719 668.168 461.313C670.397 460.705 673.032 460.503 674.248 460.705V460.705ZM729.785 470.637C731.609 470.84 733.028 472.664 733.434 474.488C733.839 477.326 732.42 478.137 726.948 478.137C722.894 478.137 719.245 477.123 718.84 476.11C718.232 474.894 719.853 473.069 722.286 472.056C724.718 471.043 728.164 470.434 729.785 470.637V470.637ZM860.114 472.461C937.744 472.867 980.512 473.677 981.323 475.096C981.728 476.11 977.066 477.731 970.175 478.745C963.486 479.758 951.527 480.569 943.825 480.772C935.92 480.772 923.151 480.164 915.449 479.15C902.882 477.731 900.044 477.934 891.126 481.988C885.451 484.42 877.343 488.271 872.884 490.501C868.019 493.136 863.357 494.149 861.736 493.136C859.912 492.325 847.75 491.311 834.373 491.109C817.347 490.703 809.239 491.109 807.415 492.933C805.186 494.757 803.969 494.554 801.335 491.717C797.889 488.271 798.091 488.068 802.348 488.271C804.78 488.271 807.01 487.258 807.01 486.244C807.01 485.028 805.388 484.217 803.361 484.015C801.335 484.015 798.091 485.839 795.862 488.271C793.632 490.501 789.579 492.325 787.146 492.325C783.903 492.325 782.687 491.109 782.687 488.271C782.687 485.028 781.268 484.217 776.606 484.217C773.161 484.217 770.526 483.204 770.526 482.19C770.526 480.974 771.336 480.164 772.553 480.164C773.566 480.164 774.58 479.15 774.58 478.137C774.58 476.921 767.688 476.312 757.351 476.515C744.784 476.92 740.122 476.312 739.92 474.488C739.92 472.664 766.269 472.259 860.114 472.461V472.461ZM990.849 472.056C995.713 472.056 997.132 472.664 996.524 475.096C995.849 477.123 996.862 478.137 999.565 478.137C1001.79 478.137 1004.02 476.718 1004.63 475.096C1005.44 472.461 1014.36 472.056 1068.88 472.056C1109.83 472.056 1131.11 472.664 1129.29 474.083C1127.46 475.096 1126.25 477.934 1126.25 480.569C1126.25 484.825 1125.03 485.231 1110.03 486.65C1101.11 487.46 1086.92 489.082 1078.61 490.095C1070.1 491.311 1041.93 492.73 1015.78 493.338C989.43 493.946 964.702 494.96 960.446 495.365C954.973 495.973 952.541 495.568 951.933 493.338C951.122 490.906 952.135 490.501 956.392 491.311C960.243 492.122 962.472 491.514 963.486 489.285C964.499 487.46 966.526 486.65 969.161 487.258C971.391 487.663 973.012 487.46 973.012 486.65C973.012 485.839 971.391 484.015 969.567 482.798C966.324 480.569 966.526 480.164 971.188 480.164C973.823 480.164 977.066 480.974 978.282 481.988C979.296 483.204 982.336 483.609 984.768 483.001C987.201 482.596 989.43 480.974 989.43 479.555C989.43 478.137 988.214 475.907 986.795 474.488C984.768 472.461 985.579 471.853 990.849 472.056V472.056ZM249.614 488.474C253.465 488.474 261.573 489.285 267.856 490.095C277.585 491.514 276.369 491.717 257.722 491.919C243.331 492.122 237.25 491.514 239.48 490.298C241.101 489.082 245.561 488.271 249.614 488.474ZM108.543 492.933C111.38 494.149 113.205 495.771 113.002 496.379C112.596 496.784 109.353 498.406 105.908 499.824C101.651 501.649 99.4216 501.649 99.4216 500.23C99.2189 499.014 100.232 496.379 101.449 494.149C103.273 490.906 104.286 490.703 108.543 492.933V492.933ZM241.304 509.351C263.195 510.364 282.045 511.378 283.463 511.783C284.882 512.188 285.288 513.607 284.477 514.823C283.463 516.445 275.559 516.85 257.722 515.837C243.736 515.026 224.684 514.013 215.563 513.607C203.807 512.796 199.347 511.783 200.158 510.162C201.172 508.54 212.522 508.337 241.304 509.351V509.351ZM351.972 510.77C376.498 510.567 401.023 510.972 406.699 511.783C413.793 512.594 415.82 513.607 413.793 514.823C411.968 515.634 385.822 516.445 355.418 516.648C320.556 516.648 299.881 515.837 299.273 514.621C298.665 513.405 300.287 512.188 302.719 511.783C305.151 511.378 327.447 510.972 351.972 510.77ZM147.256 512.999C153.337 512.796 159.418 513.202 160.836 514.013C162.458 514.823 160.228 516.242 155.364 517.661C150.499 519.08 144.824 519.283 141.581 518.269C138.541 517.256 136.108 515.837 136.108 515.026C136.108 514.215 140.973 513.405 147.256 512.999ZM1032.4 524.755C1036.05 524.755 1042.74 526.579 1047.2 528.809C1051.66 531.039 1057.33 532.863 1059.76 532.863C1062.2 532.863 1064.83 533.673 1065.24 534.484C1065.84 535.498 1059.16 536.916 1050.64 537.525C1041.93 538.335 1030.78 538.943 1025.91 538.741C1018.82 538.741 1017.4 538.335 1019.83 536.511C1021.46 535.498 1025.31 534.687 1028.14 535.092C1030.98 535.498 1033.21 535.295 1032.6 534.89C1032.2 534.282 1033.62 532.66 1035.44 531.444C1038.48 529.214 1038.08 528.809 1032.4 528.809C1028.75 528.809 1025.91 527.796 1025.91 526.782C1025.91 525.566 1028.75 524.755 1032.4 524.755ZM913.422 531.241C922.34 531.241 931.461 531.849 937.744 534.079L933.691 536.308C929.637 538.538 929.839 538.741 935.109 540.768C938.15 541.984 942.812 542.997 945.244 543.2C948.892 543.2 948.69 543.605 943.825 545.024C940.379 546.038 915.854 548.672 889.099 550.902C862.344 553.132 823.428 556.172 802.956 557.388C772.755 559.415 763.634 559.415 756.337 557.388C751.27 555.969 743.163 553.74 738.501 552.321C733.636 551.105 729.785 549.281 729.785 548.47C729.785 547.659 732.42 546.443 735.461 545.835C738.501 545.227 756.135 542.997 774.58 540.97C792.822 538.741 823.022 536.106 841.467 534.89C859.709 533.673 879.775 532.457 886.059 532.052C892.139 531.849 904.503 531.444 913.422 531.241ZM1206.71 534.89C1223.74 535.092 1241.17 535.7 1245.63 536.511C1249.89 537.322 1253.74 538.943 1254.14 540.362C1254.75 542.389 1247.45 542.997 1222.93 542.997C1203.27 542.795 1188.07 541.984 1183.4 540.362C1179.15 538.943 1175.7 537.119 1175.7 536.308C1175.7 535.498 1189.69 534.89 1206.71 534.89V534.89ZM304.138 536.917C386.024 536.917 411.968 537.525 410.144 539.146C408.32 540.97 379.741 541.578 303.732 541.376C231.778 541.173 199.145 540.565 197.929 538.943C196.307 537.322 226.305 536.714 304.138 536.917V536.917ZM1306.64 538.538C1323.26 538.943 1338.26 540.16 1340.08 541.173C1341.7 542.186 1328.33 542.794 1308.06 542.794C1286.78 542.997 1272.79 542.186 1272.18 540.97C1271.57 539.754 1272.18 538.538 1273.6 538.133C1275.02 537.93 1289.82 537.93 1306.64 538.538V538.538ZM179.281 538.943C180.497 538.943 179.889 540.362 177.66 541.984C175.43 543.605 168.133 545.835 161.445 546.848C154.756 548.064 145.027 549.483 140.162 550.294C135.095 550.902 131.447 551.105 132.055 550.294C132.46 549.483 138.541 547.659 145.229 546.038C151.918 544.416 161.242 542.997 165.904 542.997C170.566 542.997 175.025 541.984 175.633 540.97C176.241 539.754 177.862 538.943 179.281 538.943V538.943ZM1110.03 538.943L1104.96 542.997C1102.13 545.024 1089.96 551.105 1078.01 556.375C1066.05 561.442 1055.71 566.712 1054.7 567.928C1053.68 569.549 1054.49 569.752 1057.33 568.536C1059.56 567.725 1069.49 565.496 1079.63 563.874C1090.57 562.05 1102.53 561.239 1110.03 562.05C1116.72 562.861 1124.42 563.469 1127.26 563.469C1129.89 563.469 1133.74 564.482 1135.77 565.496C1137.8 566.509 1139.42 568.536 1139.42 570.36C1139.42 572.387 1137.39 573.401 1133.34 573.401C1129.89 573.401 1124.02 574.617 1120.16 576.441C1116.11 578.062 1110.03 583.535 1106.38 588.602C1102.73 593.67 1099.29 597.723 1098.88 597.723C1098.27 597.926 1096.45 596.304 1094.83 594.48C1093 592.656 1089.15 589.818 1086.11 588.4C1080.64 585.562 1080.44 585.765 1079.63 591.643C1078.82 595.494 1076.59 598.534 1073.34 600.156C1070.51 601.574 1067.87 604.412 1067.26 606.236C1066.86 608.263 1065.03 609.885 1063.41 609.885C1061.59 609.885 1059.76 607.858 1058.14 600.764L1054.09 605.223C1050.24 609.682 1050.03 609.682 1048.21 605.831C1046.99 603.601 1044.97 601.98 1043.75 602.182C1042.53 602.588 1040.71 599.953 1039.49 596.71C1038.48 593.264 1037.26 589.21 1036.66 587.589C1036.05 585.765 1034.02 589.818 1031.99 596.71C1030.17 603.399 1027.54 610.695 1026.12 612.925C1023.89 616.776 1023.89 616.776 1021.86 607.858L1017.81 612.317C1014.16 616.776 1013.96 616.776 1010.31 613.33C1006.66 609.885 1006.46 609.885 1003.21 613.33C1001.19 615.357 996.119 617.181 991.457 617.384C985.376 617.79 983.349 617.181 983.349 614.952C983.349 612.925 982.133 612.317 979.701 613.128C977.674 613.938 974.634 614.344 972.607 614.141C970.58 613.938 968.553 614.749 968.148 615.965C967.54 616.979 963.891 617.992 960.04 617.992C955.986 617.992 950.311 619.006 947.271 620.019C944.23 621.235 938.555 621.641 927.61 619.614L930.65 591.643L916.867 592.859C909.368 593.467 897.004 595.088 889.504 596.304C881.802 597.723 874.505 598.129 873.289 597.318C871.668 596.372 871.533 595.223 872.884 593.872C873.897 592.859 882.207 590.021 891.126 587.791C900.044 585.562 935.515 578.67 970.175 572.59C1004.63 566.306 1037.67 560.023 1043.55 558.199C1050.71 556.172 1053.75 554.348 1052.67 552.726C1051.66 551.105 1045.98 550.902 1033.01 551.916C1022.87 552.726 1005.65 554.753 994.497 556.375C983.349 557.793 959.635 561.847 941.798 565.293C923.961 568.739 897.004 574.617 882.005 578.265C866.803 582.116 854.439 584.751 854.034 583.94C853.831 583.13 852.007 580.089 849.777 577.454C845.926 572.59 844.71 572.387 827.887 572.793C817.955 572.995 795.456 575.427 777.62 578.265C759.783 581.305 738.906 584.954 731.407 586.575C720.259 589.008 717.624 590.426 716.61 594.075C716.002 596.71 716.408 601.169 717.624 604.209C718.84 607.25 721.88 610.898 724.313 612.317C727.353 614.141 738.906 614.952 760.391 614.952C777.62 614.952 799.916 613.533 810.05 612.114C819.982 610.493 830.319 608.06 832.751 606.439C835.184 605.02 842.48 602.385 848.966 600.764C855.453 599.142 861.128 598.129 861.736 598.737C862.141 599.142 861.331 600.966 859.709 602.791C857.885 604.615 849.777 608.263 841.467 610.898C832.143 613.938 822.82 618.6 817.55 622.857C812.685 626.911 809.037 631.775 809.037 634.207C809.037 636.437 810.05 638.667 811.469 639.072C812.888 639.68 814.712 641.91 815.523 644.139C816.334 646.571 819.982 649.004 823.63 650.017C830.116 651.639 830.116 651.639 825.657 654.071C823.225 655.287 809.442 657.314 795.254 658.53C781.066 659.746 753.905 660.557 735.055 660.557C716.002 660.557 698.774 660.76 696.544 660.76C694.315 660.962 686.004 660.962 678.302 660.76C670.397 660.76 659.857 660.76 654.79 661.165C647.291 661.368 643.44 660.152 624.589 648.396L622.765 652.855C621.752 655.49 619.725 658.53 618.103 659.746C616.482 660.962 606.956 662.178 595.605 662.381C584.254 662.381 575.336 661.57 574.931 660.557C574.323 659.341 571.485 658.53 568.85 658.53C566.012 658.53 562.769 660.152 561.756 661.976C560.134 665.016 559.121 665.219 555.675 662.989C552.432 660.962 550.811 660.962 547.568 662.989C544.527 665.016 542.703 665.016 538.447 662.989C535.609 661.57 532.163 661.165 530.744 661.976C529.326 662.786 516.151 663.395 501.557 663.395C486.761 663.597 474.397 664.205 473.586 665.016C472.978 665.827 470.546 665.421 468.316 664.003C464.87 661.976 463.857 661.976 462.438 664.611C461.019 667.043 460.006 667.043 457.371 665.016C455.344 663.395 453.925 663.192 453.317 664.611C452.641 665.962 451.425 665.962 449.669 664.611C448.25 663.395 446.426 663.192 445.412 664.003C444.399 664.813 441.358 665.827 438.318 666.03C435.278 666.232 431.832 665.219 430.413 664.003C428.386 661.976 427.778 662.178 427.778 664.003C427.778 665.421 426.562 666.638 424.941 666.638C423.116 666.638 421.9 665.421 421.9 664.003C421.9 662.584 420.279 663.192 417.644 665.624C413.995 669.07 413.185 669.273 411.766 666.638C410.144 663.8 409.536 663.8 406.699 666.638C403.658 669.273 403.05 669.273 401.631 666.638C400.415 664.408 398.794 664.003 396.159 665.219C394.132 666.232 389.065 667.246 384.808 667.246C380.754 667.448 377.309 666.638 377.309 665.624C377.309 664.408 375.89 664.611 374.268 666.03C371.836 668.056 371.025 668.056 370.417 666.03C370.012 664.205 368.998 664.205 366.161 666.638C363.12 669.273 362.512 669.273 360.891 666.638C359.269 663.8 358.661 663.8 357.04 666.638C355.215 669.273 354.81 669.273 352.986 666.638C351.364 663.8 350.756 663.8 347.716 666.638C345.081 668.867 343.865 669.07 343.459 667.043C342.851 665.016 342.041 665.016 339.406 667.043C336.771 669.07 335.757 669.07 333.933 666.435C331.906 663.597 331.298 663.597 329.069 665.827C327.244 667.854 325.623 668.056 323.596 666.638C321.569 665.286 320.218 665.286 319.542 666.638C318.934 667.651 316.705 668.056 314.475 667.651C312.245 667.043 309.813 667.651 309.002 669.07C308.192 671.097 307.381 670.894 306.165 668.665C304.746 666.232 303.935 666.03 301.705 668.056C299.679 670.083 298.665 670.083 296.638 668.056C294.409 666.03 293.395 666.03 291.571 668.056C289.544 670.083 288.531 670.083 286.098 668.056C283.869 666.03 283.261 666.03 282.653 668.056C282.045 670.083 281.234 670.083 278.802 668.056C276.167 666.03 275.153 666.232 273.937 668.665C272.316 671.299 271.707 671.299 268.667 668.665C265.627 665.827 265.221 666.03 263.6 669.07C262.181 671.705 260.965 672.11 258.735 670.691C256.911 669.475 254.682 669.273 253.263 670.083C252.047 670.894 250.222 670.286 249.412 668.665C247.993 666.03 247.182 666.232 244.75 669.678C242.723 672.516 241.709 672.921 240.696 671.097C239.885 669.678 238.466 668.665 237.453 668.665C236.237 668.665 235.831 669.475 236.44 670.691C236.845 671.705 236.44 673.124 235.426 673.732C234.21 674.137 232.791 673.732 232.386 672.718C231.778 671.502 229.954 671.097 228.332 671.705C226.305 672.313 224.076 670.489 222.251 667.043C219.414 661.773 219.211 661.773 219.211 666.03C219.211 668.664 218.603 671.908 218.198 673.732C217.184 676.164 216.576 676.164 213.941 674.137C211.306 672.11 210.293 672.313 209.077 674.745C208.063 676.367 207.05 676.772 206.442 675.759C205.833 674.543 205.225 670.489 204.82 666.638C204.617 662.584 204.617 657.922 204.82 655.895C204.82 653.463 206.847 652.247 211.306 651.841C214.955 651.639 217.792 652.449 218.4 653.868C218.941 655.625 220.36 655.895 222.657 654.679C224.684 653.666 232.588 652.247 240.493 651.639C248.196 650.828 278.396 649.004 307.381 647.382C336.365 645.761 386.43 643.328 418.86 642.112C451.087 641.099 498.111 638.666 523.245 636.842C548.176 635.221 570.674 633.599 572.904 633.194C575.133 632.991 581.822 631.775 588.105 630.559C594.186 629.343 607.766 627.316 618.509 626.302C629.049 625.086 642.021 622.654 647.291 621.033C653.574 619.006 657.831 616.168 659.452 612.925C661.479 608.871 661.479 607.452 659.047 604.817C657.222 602.993 654.385 601.574 652.358 601.574C650.128 601.777 648.912 600.156 648.912 597.723C648.912 595.494 650.736 592.656 652.966 591.643C655.196 590.426 672.221 587.183 690.869 584.346C709.516 581.711 732.623 578.062 742.149 576.441C751.473 574.819 770.728 572.59 784.714 571.374C798.497 570.158 826.873 567.725 847.548 566.104C868.019 564.28 902.274 560.834 923.556 558.199C944.636 555.564 974.836 552.321 990.444 550.902C1006.05 549.483 1036.05 546.443 1057.33 543.808C1078.41 541.376 1098.88 539.349 1110.03 538.943V538.943ZM1177.32 549.281C1179.15 549.686 1180.77 551.105 1181.17 552.524C1181.58 553.942 1179.76 555.564 1177.32 556.172C1174.89 556.78 1172.26 556.983 1171.85 556.172C1171.24 555.564 1171.45 553.74 1172.46 551.916C1173.27 550.091 1175.5 549.078 1177.32 549.281V549.281ZM1225.56 549.078C1241.17 548.875 1254.55 549.686 1255.16 550.497C1255.97 551.307 1255.97 553.74 1255.16 555.767C1253.94 559.415 1251.71 559.618 1225.16 558.807C1205.09 558.402 1195.57 557.388 1193.74 555.564C1191.51 553.334 1191.51 552.524 1194.15 550.902C1195.77 549.889 1209.96 549.078 1225.56 549.078V549.078ZM704.652 551.307C705.665 551.105 712.557 552.929 719.853 555.361C726.948 557.591 734.244 560.023 736.069 560.631C737.893 561.239 736.271 562.455 732.015 563.266C727.961 564.28 707.895 566.915 687.423 569.144C666.749 571.374 637.562 574.211 622.563 575.427C607.361 576.644 589.322 578.062 582.43 578.468C570.471 579.279 569.863 579.684 569.863 584.548C569.863 587.589 571.485 590.426 573.917 591.643C576.147 592.656 591.146 593.67 607.361 593.67C623.373 593.67 637.967 594.075 639.791 594.683C641.413 595.088 642.831 597.521 642.831 599.75C642.831 601.98 641.21 604.209 639.183 604.817C637.156 605.425 623.373 607.25 608.374 608.871C593.173 610.493 565.404 613.128 546.554 614.749C527.501 616.573 498.314 618.803 481.694 620.019C464.87 621.235 404.266 623.87 346.905 626.1C289.341 628.329 234.413 630.154 224.684 630.154C213.536 630.154 207.252 629.343 208.063 628.127C208.468 626.911 212.928 625.492 217.589 625.086C222.251 624.478 255.898 622.046 292.179 620.019C328.258 617.79 392.105 614.141 434.062 611.709C475.816 609.479 516.759 606.642 525.272 605.628C533.582 604.412 542.703 602.385 545.541 600.966C548.176 599.75 550.811 596.71 551.013 594.075C551.216 591.643 550.203 587.589 548.378 584.954C546.757 582.522 545.946 578.873 546.351 576.846C547.162 574.211 552.432 572.184 566.215 569.144C576.552 566.915 598.645 563.266 615.468 561.037C632.089 558.807 658.641 555.767 674.248 554.348C689.855 552.726 703.436 551.51 704.652 551.307ZM1110.03 551.105C1116.72 551.105 1124.42 552.524 1132.33 556.983H1126.25C1122.8 556.983 1114.08 556.577 1106.58 555.767C1098.88 554.956 1094.22 553.74 1095.44 552.726C1096.86 551.915 1103.34 551.105 1110.03 551.105V551.105ZM1303.19 551.105C1319.41 551.105 1334.2 551.916 1336.03 552.929C1337.65 553.942 1338.26 555.564 1337.45 556.983C1336.43 558.402 1325.29 559.212 1304.61 559.212C1285.56 559.212 1272.79 558.402 1272.18 557.185C1271.57 555.969 1271.57 554.145 1272.18 553.132C1272.79 551.916 1285.36 551.105 1303.19 551.105ZM1363.8 553.334C1365.22 553.132 1366.43 554.348 1366.43 556.172C1366.43 557.996 1364.41 559.212 1361.36 559.212C1358.53 559.212 1356.09 558.402 1355.89 557.388C1355.49 556.375 1356.7 554.956 1358.32 554.348C1359.95 553.942 1362.38 553.334 1363.8 553.334ZM1375.55 553.334C1375.55 553.334 1380.01 554.55 1385.69 555.969C1391.16 557.388 1396.23 559.82 1396.63 561.442C1397.24 563.671 1396.43 563.874 1392.58 562.455C1389.94 561.442 1383.66 560.428 1379 560.023C1374.34 559.415 1370.28 558.402 1370.08 557.388C1369.68 556.375 1370.89 554.956 1372.51 554.348C1374.13 553.942 1375.55 553.334 1375.55 553.334ZM487.166 555.361C497.909 555.159 505.003 555.969 505.003 557.185C505.003 558.199 498.314 559.618 490.206 560.226C482.099 560.834 459.6 562.253 440.142 563.266C420.481 564.28 401.834 564.28 398.591 563.469C394.132 562.253 393.321 561.239 395.551 560.428C397.172 559.82 414.401 558.402 434.062 557.388C453.52 556.577 477.437 555.564 487.166 555.361ZM305.759 561.442C350.554 561.442 387.443 561.847 387.443 562.658C387.443 563.469 381.768 564.888 374.674 565.698C367.782 566.509 328.258 567.32 287.112 567.32C245.763 567.32 208.874 566.712 205.023 565.698C198.334 564.28 198.942 564.077 211.103 563.063C218.198 562.455 260.965 561.645 305.759 561.442ZM177.052 565.901C177.862 566.104 178.47 567.117 178.47 568.333C178.47 569.347 176.038 570.968 172.998 571.779C169.957 572.59 156.58 573.806 143.203 574.414C126.852 575.225 119.758 574.955 121.92 573.603C123.542 572.59 134.487 570.968 146.243 570.158C157.796 569.347 169.349 567.928 171.579 567.117C173.809 566.306 176.241 565.698 177.052 565.901ZM1201.24 566.306C1203.47 566.712 1213.81 567.523 1224.55 568.131C1235.09 568.941 1246.64 569.955 1256.98 571.374L1256.78 584.954C1256.78 592.453 1255.97 602.182 1254.75 606.236C1253.74 610.493 1252.12 613.938 1251.3 613.938C1250.49 613.938 1248.67 612.925 1247.45 611.506C1246.03 610.087 1244.21 605.02 1243.4 600.156C1242.18 593.872 1240.76 591.44 1238.13 591.643C1236.1 591.643 1234.08 592.453 1233.67 593.67C1233.06 594.683 1230.83 595.696 1228.6 595.696C1226.37 595.696 1224.35 596.304 1224.35 597.115C1224.35 597.926 1222.52 600.966 1220.29 603.804C1216.24 608.669 1216.24 608.871 1213.2 604.817C1211.37 602.588 1208.74 597.723 1207.12 594.075C1205.09 589.413 1204.69 586.373 1206.31 583.535C1207.32 581.305 1207.52 579.076 1206.71 578.468C1205.9 578.062 1199.01 576.846 1177.93 574.414L1168.81 583.94C1163.74 589.21 1158.68 593.061 1157.66 592.656C1156.45 592.048 1155.64 590.426 1155.64 589.008C1155.64 587.589 1153.81 584.143 1151.78 581.508C1149.55 578.671 1148.14 574.617 1148.74 572.387C1149.35 569.347 1151.38 568.333 1155.64 568.333C1158.88 568.333 1161.72 568.941 1161.72 569.752C1161.72 570.563 1163.74 570.766 1166.18 570.158C1168.61 569.549 1176.71 568.333 1184.01 567.32C1191.11 566.509 1199.01 565.901 1201.24 566.306V566.306ZM88.6791 569.347C89.2872 570.968 87.463 578.67 85.0307 586.17C82.3957 593.872 79.3554 600.156 78.342 599.953C77.1258 599.75 75.9097 594.48 75.707 587.994C75.3016 581.711 75.5043 575.022 76.1124 573.401C77.1258 570.968 77.7339 570.766 79.7608 572.793C81.1796 574.211 83.0038 575.427 83.8146 575.427C84.6253 575.427 85.8415 573.401 86.6522 570.766C87.463 567.523 88.071 567.117 88.6791 569.347V569.347ZM1286.98 569.347C1295.49 569.549 1307.04 570.36 1312.72 571.374C1318.19 572.59 1326.91 573.806 1331.97 574.211C1336.84 574.414 1342.11 573.806 1343.73 572.59C1345.76 570.766 1346.57 571.374 1347.18 574.819C1347.78 577.454 1349 579.481 1350.22 579.481C1351.23 579.481 1352.24 580.292 1352.24 581.508C1352.24 582.522 1349.81 583.535 1347.18 583.535C1344.34 583.535 1341.7 584.548 1341.1 585.967C1340.49 587.792 1338.87 586.981 1336.03 583.94C1333.8 581.508 1328.73 578.468 1324.88 577.454C1320.15 576.103 1315.08 576.103 1309.68 577.454C1305.22 578.468 1298.73 581.711 1295.49 584.548C1292.05 587.183 1289.41 590.629 1289.41 592.048C1289.41 593.467 1286.57 598.939 1283.33 604.209C1279.88 609.479 1276.24 613.938 1275.22 613.938C1274.01 613.938 1272.38 604.615 1271.57 593.061C1270.56 581.711 1270.15 571.576 1270.56 570.766C1270.97 569.955 1278.26 569.347 1286.98 569.347V569.347ZM839.44 578.468C843.291 579.076 847.142 580.495 847.953 581.914C848.764 583.332 848.764 585.157 847.953 586.17C847.142 586.981 830.522 590.832 811.064 594.683C791.403 598.534 766.067 602.385 754.311 603.196C736.069 604.615 733.434 604.412 734.244 601.777C734.852 599.953 738.501 598.129 742.149 597.318C746 596.507 763.229 593.061 780.66 589.616C797.889 586.17 816.536 581.914 822.211 580.292C827.684 578.873 835.386 577.86 839.44 578.468ZM512.502 579.887C523.853 579.481 531.352 580.292 531.352 581.508C531.352 582.522 530.136 583.94 528.717 584.346C527.299 584.954 503.381 586.778 475.613 588.4C447.642 590.224 403.861 592.453 378.322 593.67C352.581 594.683 302.516 596.304 266.843 596.913C222.657 597.723 202.59 597.521 204.009 596.102C205.023 594.886 229.345 593.061 260.762 591.643C290.76 590.426 350.554 587.589 393.524 585.359C436.291 583.332 476.424 581.103 482.707 580.9C488.788 580.495 502.165 580.089 512.502 579.887V579.887ZM170.971 594.075C178.47 593.872 184.956 594.278 185.565 595.088C185.97 595.899 181.105 597.318 174.822 598.129C168.539 599.142 150.702 600.966 135.095 602.588C119.488 604.209 106.11 605.223 105.705 604.615C105.097 604.007 106.313 601.98 108.137 600.156C110.975 597.521 116.853 596.304 134.487 595.494C147.054 594.886 163.471 594.278 170.971 594.075V594.075ZM95.9759 596.304C98.4082 596.102 100.84 596.507 101.043 596.913C101.246 597.318 99.827 599.547 97.8001 601.777C95.5705 604.007 92.3275 605.831 90.706 605.831C88.8818 605.831 87.2603 604.615 87.0576 603.196C86.6522 601.777 87.6657 599.547 88.8818 598.534C90.0979 597.521 93.341 596.507 95.9759 596.304V596.304ZM916.867 608.06C923.353 607.858 924.57 608.466 924.57 612.317C924.57 614.952 923.556 617.992 921.935 619.208C920.516 620.424 918.083 621.641 916.462 621.843C914.638 622.249 905.111 622.451 895.18 622.654C884.64 622.857 876.938 622.249 876.532 621.033C876.127 619.816 876.532 617.79 877.343 616.371C878.154 614.952 885.653 612.52 894.166 610.898C902.476 609.479 912.611 608.06 916.867 608.06ZM1344.34 613.128C1345.35 613.533 1345.35 614.952 1344.54 616.371C1343.53 617.992 1344.34 618.195 1347.58 617.384C1350.69 616.438 1352.18 616.776 1352.04 618.398C1352.04 620.424 1352.45 620.424 1354.68 618.398C1356.7 616.573 1357.72 616.573 1359.95 618.398C1361.97 620.424 1362.99 620.222 1364.41 617.384C1365.42 615.56 1367.04 614.344 1368.05 614.952C1368.86 615.56 1369.47 617.384 1369.07 619.006C1368.66 620.627 1370.28 622.857 1372.51 624.073C1375.55 625.492 1377.17 625.289 1379.4 622.451C1381.03 620.627 1383.05 619.614 1383.86 620.424C1384.88 621.438 1383.86 623.668 1382.04 625.492C1379 628.329 1374.13 628.937 1356.09 628.937C1339.68 629.14 1334 628.329 1334 626.505C1334 625.086 1335.83 621.438 1338.26 618.195C1340.69 614.952 1343.53 612.722 1344.34 613.128V613.128ZM1311.91 620.222C1313.94 621.235 1317.58 621.438 1319.81 621.033C1323.26 620.019 1323.46 620.627 1322.04 624.478C1321.03 627.113 1317.79 630.964 1314.75 633.194C1310.49 636.234 1306.03 637.248 1295.09 637.248C1283.13 637.248 1280.49 636.64 1278.06 633.194C1276.44 630.964 1275.83 628.329 1276.44 627.316C1277.05 626.302 1282.11 626.1 1287.59 626.911C1296.1 627.924 1298.13 627.519 1302.79 623.262C1306.84 619.614 1309.07 618.803 1311.91 620.222ZM865.182 620.222C866.6 620.019 868.019 621.033 868.627 622.451C869.033 623.87 869.843 632.18 871.87 656.503L865.182 655.895C860.114 655.49 858.493 654.274 857.682 650.422C856.871 647.044 854.439 644.747 850.385 643.531C846.737 642.518 843.494 639.68 841.872 636.032C839.845 631.37 839.845 629.748 841.872 628.532C843.291 627.721 848.358 625.492 853.426 623.667C858.493 621.843 863.763 620.222 865.182 620.222V620.222ZM181.105 624.276C183.132 624.073 185.97 624.478 187.794 625.086C189.416 625.492 190.834 626.911 190.834 628.127C190.834 629.14 188.2 630.559 185.159 631.167C182.119 631.572 162.661 632.991 142.189 634.207C115.231 635.626 103.273 637.045 100.03 639.275C95.9759 641.91 95.3679 641.91 95.3679 638.666C95.3679 636.842 96.9894 633.599 99.0163 631.572C102.057 628.532 108.34 627.721 140.162 626.302C160.634 625.492 179.079 624.478 181.105 624.276V624.276ZM1237.72 630.559C1254.95 629.951 1258.2 630.356 1258.6 632.991C1258.8 634.815 1257.79 636.64 1256.37 637.045C1254.95 637.653 1241.98 639.072 1227.59 640.288C1213 641.504 1195.97 644.342 1177.93 650.422L1172.05 641.301L1171.85 645.761C1171.85 648.396 1170.84 650.422 1169.82 650.422C1168.61 650.422 1167.19 649.206 1166.58 647.787C1165.97 645.963 1160.3 645.355 1146.92 645.558C1136.58 645.761 1089.96 647.788 1043.14 650.017C996.322 652.449 942.406 654.476 923.556 654.679C904.503 654.882 887.883 654.476 886.464 653.868C885.045 653.057 882.613 652.855 880.991 653.463C878.559 654.071 877.748 652.855 877.748 647.787C877.748 641.91 878.356 641.099 885.451 639.68C889.707 638.869 913.219 638.261 937.744 638.261C962.27 638.261 1028.35 637.248 1084.69 636.032C1140.84 634.815 1193.74 633.194 1202.25 632.383C1210.56 631.572 1226.58 630.762 1237.72 630.559V630.559ZM191.848 654.476L191.24 662.989C190.632 669.475 189.416 672.11 186.173 673.934C182.727 675.556 180.092 675.556 175.835 673.934C171.174 672.11 169.755 672.313 168.133 674.745C166.714 676.975 165.904 676.975 165.296 675.151C164.688 673.732 163.471 672.718 162.458 672.718C161.242 672.718 160.431 673.934 160.431 675.759C160.431 677.38 159.62 678.799 158.81 678.799C157.999 678.799 155.972 677.583 154.35 675.759C152.121 673.529 150.499 673.326 148.675 674.745C146.851 676.164 145.635 675.759 144.216 673.124C142.392 669.881 141.986 669.881 140.973 673.732C140.162 676.569 138.338 677.38 135.298 676.975C132.865 676.367 130.23 675.151 129.622 673.934C128.676 672.448 126.987 672.853 124.555 675.151C121.515 677.988 120.299 678.191 118.272 676.164C116.448 674.137 115.637 674.34 114.826 677.177C114.218 679.204 112.799 680.826 111.786 680.826C110.57 680.826 108.745 677.786 107.732 674.137C106.313 669.07 105.908 668.664 105.705 672.11C105.705 674.948 104.083 677.177 101.651 677.786C99.4216 678.191 97.5974 680.015 97.5974 681.839C97.5974 683.866 96.1786 684.474 92.9356 683.664C90.5033 682.853 87.6657 681.839 86.6522 681.029C85.8415 680.421 85.6388 676.164 86.2468 671.705C86.8549 667.246 88.6791 662.178 90.5033 660.557C93.341 657.922 94.5571 657.922 98.2055 660.152C101.246 662.178 102.867 662.178 103.678 660.557C104.286 659.341 110.57 658.327 119.893 658.53C128.204 658.53 138.743 657.719 143.203 656.706C147.662 655.692 160.431 654.882 191.848 654.476V654.476ZM1144.49 668.056C1154.42 668.462 1165.77 669.273 1169.82 669.881C1174.28 670.489 1176.11 671.705 1174.89 672.921C1173.67 673.934 1166.78 675.556 1159.69 676.569C1152.39 677.583 1126.85 679.407 1102.94 680.623C1078.82 681.839 1016.79 684.677 965.107 686.907C913.219 688.933 863.56 690.96 854.642 691.163C845.723 691.366 838.224 690.758 837.819 689.744C837.616 688.731 839.237 685.488 841.264 682.853C845.115 677.786 845.318 677.786 897.409 675.353C926.191 674.137 982.741 671.908 1022.87 670.691C1063.01 669.475 1102.53 668.259 1111.04 667.854C1119.35 667.448 1134.35 667.448 1144.49 668.056V668.056Z" fill="#E6EDCD"/>
<defs>
<linearGradient id="paint0_linear_392_24" x1="712.971" y1="58.5889" x2="712.971" y2="1083.72" gradientUnits="userSpaceOnUse">
<stop stop-color="white"/>
<stop offset="1" stop-color="#D5E1A8"/>
</linearGradient>
</defs>
</svg>
