<svg width="29" height="29" viewBox="0 0 29 29" fill="none" xmlns="http://www.w3.org/2000/svg">
<path fill-rule="evenodd" clip-rule="evenodd" d="M2.03 2.03C1.72853e-07 4.07933 0 7.35633 0 13.92V15.08C0 21.634 1.72853e-07 24.911 2.03 26.97C4.07933 29 7.35633 29 13.92 29H15.08C21.634 29 24.911 29 26.97 26.97C29 24.9207 29 21.6437 29 15.08V13.92C29 7.366 29 4.089 26.97 2.03C24.9207 1.72853e-07 21.6437 0 15.08 0H13.92C7.366 0 4.089 1.72853e-07 2.03 2.03ZM4.89133 8.82567C5.046 16.3657 8.816 20.8897 15.428 20.8897H15.8147V16.5783C18.241 16.82 20.0777 18.5987 20.8123 20.8897H24.244C23.8921 19.5879 23.268 18.3754 22.4132 17.3323C21.5585 16.2893 20.4923 15.4393 19.285 14.8383C20.3668 14.1796 21.3012 13.3046 22.0297 12.2685C22.7582 11.2323 23.2652 10.057 23.519 8.816H20.4063C19.7297 11.2133 17.719 13.3883 15.8147 13.5913V8.82567H12.6923V17.1777C10.759 16.6943 8.323 14.355 8.21666 8.82567H4.89133Z" fill="#282C11"/>
</svg>
