<svg width="23" height="18" viewBox="0 0 23 18" fill="none" xmlns="http://www.w3.org/2000/svg">
<path d="M11.7812 0C12.3953 0.00337521 13.9318 0.0180011 15.5649 0.0821301L16.1445 0.106881C17.7879 0.182261 19.4302 0.312769 20.2456 0.534408C21.3324 0.833677 22.1858 1.70448 22.4744 2.8093C22.9344 4.56441 22.9919 7.98687 22.9988 8.81605L23 8.98706V9.18282C22.9919 10.012 22.9344 13.4356 22.4744 15.1896C22.1823 16.2978 21.3278 17.1697 20.2456 17.4645C19.4302 17.6861 17.7879 17.8166 16.1445 17.892L15.5649 17.9179C13.9318 17.9809 12.3953 17.9966 11.7812 17.9989L11.5109 18H11.2177C9.91809 17.9921 4.48292 17.9347 2.75324 17.4645C1.66758 17.1652 0.813091 16.2944 0.524426 15.1896C0.0644033 13.4345 0.00690034 10.012 0 9.18282V8.81605C0.00690034 7.98687 0.0644033 4.56329 0.524426 2.8093C0.816541 1.70111 1.67103 0.829177 2.75439 0.535533C4.48292 0.0641288 9.91925 0.00675042 11.2188 0H11.7812ZM9.19931 5.06282V12.9383L16.0997 9.00056L9.19931 5.06282Z" fill="white"/>
</svg>
