<svg width="21" height="18" viewBox="0 0 21 18" fill="none" xmlns="http://www.w3.org/2000/svg">
<path d="M20.9905 0.805851C21.0105 0.686934 20.9988 0.564917 20.9564 0.451873C20.9141 0.338829 20.8426 0.238676 20.7492 0.161324C20.6557 0.0839722 20.5434 0.0321024 20.4234 0.0108471C20.3034 -0.0104082 20.1799 -0.000312174 20.0651 0.040136L0.464891 6.96342C0.335694 7.00898 0.22288 7.09108 0.140461 7.19952C0.0580419 7.30796 0.00965098 7.43796 0.00129913 7.57337C-0.00705272 7.70878 0.0250025 7.84363 0.093483 7.96117C0.161964 8.07872 0.263851 8.17377 0.38649 8.23453L5.98655 11.0038C6.09692 11.0585 6.21992 11.0833 6.3431 11.0757C6.46628 11.0682 6.58525 11.0286 6.68796 10.9609L11.336 7.89529L8.55418 11.3375C8.49365 11.4125 8.44951 11.499 8.42457 11.5917C8.39963 11.6844 8.39443 11.7812 8.4093 11.8759C8.42418 11.9707 8.4588 12.0614 8.51097 12.1422C8.56314 12.2231 8.63173 12.2923 8.71239 12.3456L17.1125 17.8842C17.2098 17.9482 17.3217 17.987 17.438 17.9973C17.5544 18.0075 17.6714 17.9888 17.7786 17.9428C17.8858 17.8968 17.9796 17.8251 18.0515 17.7341C18.1235 17.643 18.1712 17.5357 18.1905 17.4217L20.9905 0.805851Z" fill="white"/>
</svg>
