<svg width="19" height="19" viewBox="0 0 19 19" fill="none" xmlns="http://www.w3.org/2000/svg">
<path d="M1.33551 1.33551C0 2.67111 0 4.82091 0 9.12V9.88C0 14.1791 0 16.3289 1.33551 17.6644C2.67111 19 4.82091 19 9.12 19H9.88C14.1791 19 16.3289 19 17.6644 17.6644C19 16.3289 19 14.1791 19 9.88V9.12C19 4.82087 19 2.67107 17.6644 1.33551C16.3289 8.0892e-08 14.1791 0 9.88 0H9.12C4.82087 0 2.67107 8.0892e-08 1.33551 1.33551ZM3.20625 5.77922H5.37543C5.44668 9.40504 7.04582 10.9409 8.3125 11.2575V5.77918H10.355V8.90625C11.6058 8.77168 12.92 7.34668 13.3633 5.77918H15.4058C15.2387 6.59211 14.9057 7.36183 14.4276 8.0402C13.9494 8.71856 13.3365 9.29099 12.6271 9.72168C13.4192 10.1149 14.1188 10.6718 14.6797 11.3555C15.2406 12.0392 15.65 12.8342 15.8808 13.6879H13.6325C13.4253 12.9464 13.0037 12.2826 12.4206 11.7797C11.8376 11.2769 11.1189 10.9576 10.355 10.8617V13.6879H10.1096C5.77918 13.6879 3.30918 10.7192 3.20625 5.77918V5.77922Z" fill="white"/>
</svg>
