<svg width="19" height="19" viewBox="0 0 19 19" fill="none" xmlns="http://www.w3.org/2000/svg">
<path d="M10.4766 0.00116884C11.1698 -0.00149129 11.863 0.00547589 12.5561 0.0220682L12.7403 0.0287179C12.9531 0.0363177 13.1631 0.0458173 13.4167 0.0572169C14.4275 0.104715 15.1171 0.26431 15.7222 0.498952C16.3492 0.740244 16.8774 1.06703 17.4056 1.59521C17.8885 2.06982 18.2622 2.64393 18.5008 3.27761C18.7355 3.88274 18.8951 4.57336 18.9426 5.58413C18.954 5.83682 18.9635 6.04771 18.9711 6.26051L18.9768 6.4448C18.9937 7.13751 19.0009 7.83042 18.9986 8.52333L18.9996 9.23201V10.4765C19.0019 11.1697 18.9946 11.8629 18.9777 12.5559L18.972 12.7402C18.9644 12.953 18.9549 13.163 18.9435 13.4166C18.896 14.4274 18.7345 15.1171 18.5008 15.7222C18.263 16.3565 17.8892 16.9311 17.4056 17.4055C16.9305 17.8884 16.3562 18.2622 15.7222 18.5008C15.1171 18.7355 14.4275 18.8951 13.4167 18.9426C13.1631 18.954 12.9531 18.9635 12.7403 18.9711L12.5561 18.9768C11.863 18.9937 11.1698 19.0009 10.4766 18.9986L9.76795 18.9996H8.52446C7.83124 19.0019 7.13803 18.9946 6.44502 18.9777L6.26073 18.972C6.03522 18.9639 5.80976 18.9543 5.58436 18.9435C4.57361 18.896 3.88395 18.7345 3.27788 18.5008C2.64396 18.2627 2.06977 17.8889 1.59552 17.4055C1.11203 16.9308 0.737923 16.3563 0.499273 15.7222C0.264635 15.1171 0.105043 14.4274 0.0575451 13.4166C0.0469655 13.1912 0.0374659 12.9657 0.0290466 12.7402L0.024297 12.5559C0.0067833 11.8629 -0.00113381 11.1697 0.000548123 10.4765V8.52333C-0.00210316 7.83042 0.00486389 7.13751 0.0214471 6.4448L0.0280968 6.26051C0.0356964 6.04771 0.0451958 5.83682 0.0565953 5.58413C0.104093 4.57241 0.263685 3.88369 0.498322 3.27761C0.737114 2.64362 1.11196 2.06967 1.59647 1.59616C2.07039 1.1124 2.64423 0.737938 3.27788 0.498952C3.88395 0.26431 4.57266 0.104715 5.58436 0.0572169L6.26073 0.0287179L6.44502 0.0239682C7.13771 0.00646299 7.8306 -0.00145426 8.52351 0.000218937L10.4766 0.00116884ZM9.50006 4.75101C8.87072 4.74211 8.24589 4.85838 7.66188 5.09306C7.07787 5.32774 6.54633 5.67616 6.09814 6.11806C5.64995 6.55996 5.29406 7.08654 5.05114 7.66718C4.80823 8.24783 4.68313 8.87096 4.68313 9.50037C4.68313 10.1298 4.80823 10.7529 5.05114 11.3336C5.29406 11.9142 5.64995 12.4408 6.09814 12.8827C6.54633 13.3246 7.07787 13.673 7.66188 13.9077C8.24589 14.1424 8.87072 14.2586 9.50006 14.2497C10.7598 14.2497 11.9679 13.7493 12.8586 12.8585C13.7494 11.9678 14.2498 10.7596 14.2498 9.4999C14.2498 8.24016 13.7494 7.03202 12.8586 6.14125C11.9679 5.25048 10.7598 4.75101 9.50006 4.75101ZM9.50006 6.65094C9.87862 6.64397 10.2548 6.7125 10.6066 6.85253C10.9583 6.99257 11.2787 7.2013 11.5489 7.46653C11.8191 7.73177 12.0337 8.04819 12.1803 8.39731C12.3268 8.74643 12.4024 9.12125 12.4024 9.49989C12.4025 9.87852 12.3271 10.2534 12.1807 10.6025C12.0342 10.9517 11.8197 11.2682 11.5496 11.5335C11.2795 11.7989 10.9592 12.0077 10.6074 12.1478C10.2557 12.288 9.87958 12.3566 9.50101 12.3498C8.74518 12.3498 8.02031 12.0495 7.48586 11.5151C6.95141 10.9806 6.65116 10.2557 6.65116 9.4999C6.65116 8.74405 6.95141 8.01917 7.48586 7.48471C8.02031 6.95025 8.74518 6.64999 9.50101 6.64999L9.50006 6.65094ZM14.4873 3.32606C14.1808 3.33832 13.891 3.46869 13.6785 3.68987C13.466 3.91104 13.3474 4.20585 13.3474 4.51257C13.3474 4.81928 13.466 5.11409 13.6785 5.33526C13.891 5.55644 14.1808 5.68681 14.4873 5.69908C14.8022 5.69908 15.1043 5.57397 15.327 5.35128C15.5496 5.12858 15.6747 4.82655 15.6747 4.51162C15.6747 4.19668 15.5496 3.89465 15.327 3.67195C15.1043 3.44926 14.8022 3.32416 14.4873 3.32416V3.32606Z" fill="white"/>
</svg>
