<svg width="159" height="45" viewBox="0 0 159 45" fill="none" xmlns="http://www.w3.org/2000/svg">
<path d="M12.03 15.72H22.56V17.34C22.56 20.34 21.6 22.77 19.68 24.63C17.76 26.49 15.28 27.42 12.24 27.42C9 27.42 6.31 26.37 4.17 24.27C2.05 22.15 0.99 19.57 0.99 16.53C0.99 13.47 2.04 10.88 4.14 8.76C6.26 6.64 8.88 5.58 12 5.58C13.94 5.58 15.72 6.02 17.34 6.9C18.96 7.78 20.23 8.97 21.15 10.47L17.61 12.51C17.11 11.65 16.35 10.95 15.33 10.41C14.31 9.87 13.19 9.6 11.97 9.6C9.95 9.6 8.3 10.26 7.02 11.58C5.74 12.86 5.1 14.51 5.1 16.53C5.1 18.51 5.75 20.15 7.05 21.45C8.35 22.73 10.09 23.37 12.27 23.37C13.85 23.37 15.17 23.02 16.23 22.32C17.29 21.62 18.01 20.64 18.39 19.38H12.03V15.72ZM29.1947 12V14.58C29.5347 13.64 30.1147 12.93 30.9347 12.45C31.7547 11.95 32.6947 11.7 33.7547 11.7V16.02C32.5747 15.86 31.5147 16.1 30.5747 16.74C29.6547 17.36 29.1947 18.39 29.1947 19.83V27H25.3247V12H29.1947ZM50.0414 21.09H38.7314C39.2314 22.97 40.6414 23.91 42.9614 23.91C44.4414 23.91 45.5614 23.41 46.3214 22.41L49.4414 24.21C47.9614 26.35 45.7814 27.42 42.9014 27.42C40.4214 27.42 38.4314 26.67 36.9314 25.17C35.4314 23.67 34.6814 21.78 34.6814 19.5C34.6814 17.26 35.4214 15.38 36.9014 13.86C38.3614 12.34 40.2614 11.58 42.6014 11.58C44.8214 11.58 46.6314 12.34 48.0314 13.86C49.4714 15.38 50.1914 17.26 50.1914 19.5C50.1914 19.92 50.1414 20.45 50.0414 21.09ZM38.6714 18.09H46.3214C46.1014 17.11 45.6514 16.36 44.9714 15.84C44.3114 15.32 43.5214 15.06 42.6014 15.06C41.5614 15.06 40.7014 15.33 40.0214 15.87C39.3414 16.39 38.8914 17.13 38.6714 18.09ZM67.3559 21.09H56.0459C56.5459 22.97 57.9559 23.91 60.2759 23.91C61.7559 23.91 62.8759 23.41 63.6359 22.41L66.7559 24.21C65.2759 26.35 63.0959 27.42 60.2159 27.42C57.7359 27.42 55.7459 26.67 54.2459 25.17C52.7459 23.67 51.9959 21.78 51.9959 19.5C51.9959 17.26 52.7359 15.38 54.2159 13.86C55.6759 12.34 57.5759 11.58 59.9159 11.58C62.1359 11.58 63.9459 12.34 65.3459 13.86C66.7859 15.38 67.5059 17.26 67.5059 19.5C67.5059 19.92 67.4559 20.45 67.3559 21.09ZM55.9859 18.09H63.6359C63.4159 17.11 62.9659 16.36 62.2859 15.84C61.6259 15.32 60.8359 15.06 59.9159 15.06C58.8759 15.06 58.0159 15.33 57.3359 15.87C56.6559 16.39 56.2059 17.13 55.9859 18.09ZM78.5475 11.58C80.2075 11.58 81.5575 12.13 82.5975 13.23C83.6775 14.35 84.2175 15.87 84.2175 17.79V27H80.3475V18.27C80.3475 17.29 80.0775 16.53 79.5375 15.99C79.0175 15.45 78.2975 15.18 77.3775 15.18C76.3575 15.18 75.5475 15.5 74.9475 16.14C74.3675 16.76 74.0775 17.68 74.0775 18.9V27H70.2075V12H74.0775V13.68C74.9975 12.28 76.4875 11.58 78.5475 11.58ZM86.142 6H101.592V9.96H95.922V27H91.782V9.96H86.142V6ZM113.779 25.14C112.259 26.66 110.379 27.42 108.139 27.42C105.899 27.42 104.019 26.66 102.499 25.14C100.979 23.62 100.219 21.74 100.219 19.5C100.219 17.28 100.979 15.41 102.499 13.89C104.039 12.35 105.919 11.58 108.139 11.58C110.359 11.58 112.239 12.35 113.779 13.89C115.319 15.43 116.089 17.3 116.089 19.5C116.089 21.72 115.319 23.6 113.779 25.14ZM105.229 22.47C106.009 23.25 106.979 23.64 108.139 23.64C109.299 23.64 110.269 23.25 111.049 22.47C111.829 21.69 112.219 20.7 112.219 19.5C112.219 18.3 111.829 17.31 111.049 16.53C110.269 15.75 109.299 15.36 108.139 15.36C106.979 15.36 106.009 15.75 105.229 16.53C104.469 17.33 104.089 18.32 104.089 19.5C104.089 20.68 104.469 21.67 105.229 22.47ZM128.711 20.1V12H132.581V27H128.711V25.32C127.791 26.72 126.301 27.42 124.241 27.42C122.601 27.42 121.241 26.87 120.161 25.77C119.101 24.65 118.571 23.13 118.571 21.21V12H122.441V20.73C122.441 21.71 122.701 22.47 123.221 23.01C123.761 23.55 124.491 23.82 125.411 23.82C126.431 23.82 127.231 23.51 127.811 22.89C128.411 22.25 128.711 21.32 128.711 20.1ZM139.995 12V14.58C140.335 13.64 140.915 12.93 141.735 12.45C142.555 11.95 143.495 11.7 144.555 11.7V16.02C143.375 15.86 142.315 16.1 141.375 16.74C140.455 17.36 139.995 18.39 139.995 19.83V27H136.125V12H139.995ZM149.92 16.26C149.92 16.9 150.83 17.45 152.65 17.91C153.29 18.05 153.87 18.22 154.39 18.42C154.91 18.6 155.43 18.87 155.95 19.23C156.49 19.57 156.91 20.03 157.21 20.61C157.51 21.19 157.66 21.86 157.66 22.62C157.66 24.16 157.08 25.35 155.92 26.19C154.76 27.01 153.33 27.42 151.63 27.42C148.55 27.42 146.45 26.23 145.33 23.85L148.69 21.96C149.15 23.26 150.13 23.91 151.63 23.91C153.01 23.91 153.7 23.48 153.7 22.62C153.7 21.98 152.79 21.43 150.97 20.97C150.29 20.79 149.71 20.61 149.23 20.43C148.75 20.25 148.23 19.99 147.67 19.65C147.11 19.29 146.68 18.84 146.38 18.3C146.1 17.74 145.96 17.09 145.96 16.35C145.96 14.87 146.5 13.71 147.58 12.87C148.68 12.01 150.04 11.58 151.66 11.58C152.88 11.58 153.99 11.86 154.99 12.42C155.99 12.96 156.78 13.74 157.36 14.76L154.06 16.56C153.58 15.54 152.78 15.03 151.66 15.03C151.16 15.03 150.74 15.15 150.4 15.39C150.08 15.61 149.92 15.9 149.92 16.26Z" fill="white"/>
<path d="M3.77 36.5H8.39V42H7.664V37.204H4.496V42H3.77V36.5ZM12.4663 36.368C13.2876 36.368 13.9439 36.6577 14.4353 37.237C14.9413 37.809 15.1943 38.4873 15.1943 39.272C15.1943 39.3087 15.1869 39.4223 15.1723 39.613H10.3433C10.4166 40.163 10.6513 40.603 11.0473 40.933C11.4433 41.263 11.9383 41.428 12.5323 41.428C13.3683 41.428 13.9586 41.1163 14.3033 40.493L14.9413 40.867C14.6993 41.263 14.3656 41.5747 13.9403 41.802C13.5223 42.022 13.0493 42.132 12.5213 42.132C11.6559 42.132 10.9519 41.8607 10.4093 41.318C9.86661 40.7753 9.59527 40.086 9.59527 39.25C9.59527 38.4213 9.86294 37.7357 10.3983 37.193C10.9336 36.643 11.6229 36.368 12.4663 36.368ZM12.4663 37.072C11.8943 37.072 11.4139 37.2407 11.0253 37.578C10.6439 37.9153 10.4166 38.359 10.3433 38.909H14.4463C14.3656 38.3223 14.1419 37.8713 13.7753 37.556C13.3939 37.2333 12.9576 37.072 12.4663 37.072ZM22.9931 41.296V36.5H23.7191V42H16.3491V36.5H17.0751V41.296H19.6711V36.5H20.3971V41.296H22.9931ZM25.9804 40.735L29.2584 36.5H29.8744V42H29.1484V37.765L25.8704 42H25.2544V36.5H25.9804V40.735ZM33.9506 36.368C34.772 36.368 35.4283 36.6577 35.9196 37.237C36.4256 37.809 36.6786 38.4873 36.6786 39.272C36.6786 39.3087 36.6713 39.4223 36.6566 39.613H31.8276C31.901 40.163 32.1356 40.603 32.5316 40.933C32.9276 41.263 33.4226 41.428 34.0166 41.428C34.8526 41.428 35.443 41.1163 35.7876 40.493L36.4256 40.867C36.1836 41.263 35.85 41.5747 35.4246 41.802C35.0066 42.022 34.5336 42.132 34.0056 42.132C33.1403 42.132 32.4363 41.8607 31.8936 41.318C31.351 40.7753 31.0796 40.086 31.0796 39.25C31.0796 38.4213 31.3473 37.7357 31.8826 37.193C32.418 36.643 33.1073 36.368 33.9506 36.368ZM33.9506 37.072C33.3786 37.072 32.8983 37.2407 32.5096 37.578C32.1283 37.9153 31.901 38.359 31.8276 38.909H35.9306C35.85 38.3223 35.6263 37.8713 35.2596 37.556C34.8783 37.2333 34.442 37.072 33.9506 37.072ZM42.5415 36.368C43.3701 36.368 44.0375 36.643 44.5435 37.193C45.0495 37.7357 45.3025 38.4213 45.3025 39.25C45.3025 40.086 45.0458 40.7753 44.5325 41.318C44.0265 41.8607 43.3555 42.132 42.5195 42.132C41.9328 42.132 41.4195 42.0037 40.9795 41.747C40.5468 41.483 40.2315 41.1273 40.0335 40.68L40.6605 40.317C40.7925 40.6617 41.0198 40.933 41.3425 41.131C41.6651 41.329 42.0575 41.428 42.5195 41.428C43.0621 41.428 43.5168 41.2593 43.8835 40.922C44.2575 40.5847 44.4811 40.1447 44.5545 39.602H41.8155V38.898H44.5545C44.4885 38.3553 44.2721 37.9153 43.9055 37.578C43.5388 37.2407 43.0841 37.072 42.5415 37.072C42.1235 37.072 41.7531 37.171 41.4305 37.369C41.1078 37.567 40.8695 37.8347 40.7155 38.172L40.0775 37.809C40.2975 37.3617 40.6238 37.0097 41.0565 36.753C41.4965 36.4963 41.9915 36.368 42.5415 36.368ZM48.0092 39.14L50.9572 42H49.9892L47.2392 39.349V42H46.5132V36.5H47.2392V38.931L49.8572 36.5H50.8472L48.0092 39.14ZM53.9639 42.132C53.1352 42.132 52.4459 41.857 51.8959 41.307C51.3459 40.7423 51.0709 40.0567 51.0709 39.25C51.0709 38.436 51.3459 37.754 51.8959 37.204C52.4459 36.6467 53.1352 36.368 53.9639 36.368C54.5065 36.368 54.9942 36.5 55.4269 36.764C55.8595 37.0207 56.1749 37.369 56.3729 37.809L55.7789 38.15C55.6322 37.82 55.3939 37.5597 55.0639 37.369C54.7412 37.171 54.3745 37.072 53.9639 37.072C53.3552 37.072 52.8419 37.2847 52.4239 37.71C52.0059 38.128 51.7969 38.6413 51.7969 39.25C51.7969 39.8513 52.0059 40.3683 52.4239 40.801C52.8419 41.219 53.3552 41.428 53.9639 41.428C54.3672 41.428 54.7302 41.3327 55.0529 41.142C55.3829 40.9513 55.6395 40.6873 55.8229 40.35L56.4279 40.702C56.2005 41.142 55.8669 41.4903 55.4269 41.747C54.9869 42.0037 54.4992 42.132 53.9639 42.132ZM58.9662 39.14L61.9142 42H60.9462L58.1962 39.349V42H57.4702V36.5H58.1962V38.931L60.8142 36.5H61.8042L58.9662 39.14ZM64.8689 41.109L66.6509 36.5H67.4209L65.0669 42.506C64.8469 43.0633 64.5389 43.4923 64.1429 43.793C63.7542 44.101 63.3216 44.2367 62.8449 44.2V43.518C63.5049 43.5987 64.0072 43.2173 64.3519 42.374L64.4949 42.033L62.0309 36.5H62.8009L64.8689 41.109ZM71.2463 36.368C72.031 36.368 72.6983 36.6467 73.2483 37.204C73.8057 37.7613 74.0843 38.4433 74.0843 39.25C74.0843 40.0567 73.8057 40.7387 73.2483 41.296C72.6983 41.8533 72.031 42.132 71.2463 42.132C70.271 42.132 69.5303 41.7287 69.0243 40.922V44.2H68.2983V36.5H69.0243V37.578C69.5303 36.7713 70.271 36.368 71.2463 36.368ZM69.6513 40.801C70.0693 41.219 70.5827 41.428 71.1913 41.428C71.8 41.428 72.3133 41.219 72.7313 40.801C73.1493 40.3683 73.3583 39.8513 73.3583 39.25C73.3583 38.6413 73.1493 38.128 72.7313 37.71C72.3133 37.2847 71.8 37.072 71.1913 37.072C70.5827 37.072 70.0693 37.2847 69.6513 37.71C69.2333 38.128 69.0243 38.6413 69.0243 39.25C69.0243 39.8513 69.2333 40.3683 69.6513 40.801ZM77.8545 42.132C77.0258 42.132 76.3365 41.857 75.7865 41.307C75.2365 40.7423 74.9615 40.0567 74.9615 39.25C74.9615 38.436 75.2365 37.754 75.7865 37.204C76.3365 36.6467 77.0258 36.368 77.8545 36.368C78.3972 36.368 78.8848 36.5 79.3175 36.764C79.7502 37.0207 80.0655 37.369 80.2635 37.809L79.6695 38.15C79.5228 37.82 79.2845 37.5597 78.9545 37.369C78.6318 37.171 78.2652 37.072 77.8545 37.072C77.2458 37.072 76.7325 37.2847 76.3145 37.71C75.8965 38.128 75.6875 38.6413 75.6875 39.25C75.6875 39.8513 75.8965 40.3683 76.3145 40.801C76.7325 41.219 77.2458 41.428 77.8545 41.428C78.2578 41.428 78.6208 41.3327 78.9435 41.142C79.2735 40.9513 79.5302 40.6873 79.7135 40.35L80.3185 40.702C80.0912 41.142 79.7575 41.4903 79.3175 41.747C78.8775 42.0037 78.3898 42.132 77.8545 42.132ZM82.0868 40.735L85.3648 36.5H85.9808V42H85.2548V37.765L81.9768 42H81.3608V36.5H82.0868V40.735ZM88.2421 40.735L91.5201 36.5H92.1361V42H91.4101V37.765L88.1321 42H87.5161V36.5H88.2421V40.735Z" fill="white"/>
</svg>
