<svg width="72" height="72" viewBox="0 0 72 72" fill="none" xmlns="http://www.w3.org/2000/svg">
<circle cx="36" cy="36" r="36" fill="#FAFBF4"/>
<path d="M45.9976 41.5314C45.9874 42.7277 45.6517 43.9007 45.0239 44.9342C44.3961 45.9677 43.4978 46.8259 42.4182 47.4239C41.2148 48.1549 39.8823 48.6685 38.4863 48.9393V51.5724C38.4965 51.8876 38.4407 52.2015 38.3221 52.4956C38.2035 52.7897 38.0245 53.0579 37.7959 53.2843C37.5672 53.5107 37.2934 53.6908 36.9909 53.8137C36.6883 53.9366 36.3631 54 36.0345 54C35.706 54 35.3808 53.9366 35.0782 53.8137C34.7756 53.6908 34.5019 53.5107 34.2732 53.2843C34.0445 53.0579 33.8656 52.7897 33.747 52.4956C33.6284 52.2015 33.5725 51.8876 33.5828 51.5724V48.9644L33.4327 48.9393C32.5628 48.7794 31.7133 48.5303 30.8988 48.1964C29.6887 47.7155 28.6176 46.9612 27.7766 45.9976C27.566 45.7641 27.4053 45.493 27.3038 45.1999C27.2024 44.9068 27.162 44.5974 27.1851 44.2893C27.2082 43.9812 27.2943 43.6805 27.4385 43.4044C27.5827 43.1283 27.7822 42.8821 28.0255 42.6799C28.2688 42.4778 28.5512 42.3236 28.8566 42.2262C29.162 42.1288 29.4844 42.0901 29.8054 42.1122C30.1264 42.1344 30.4397 42.2171 30.7274 42.3554C31.0151 42.4938 31.2716 42.6853 31.4823 42.9188C31.814 43.3115 32.2385 43.6226 32.7206 43.8262L32.7254 43.8285C33.2218 44.0366 33.7388 44.1959 34.2686 44.3039H34.2734C34.8197 44.4052 35.3728 44.4694 35.9286 44.4959C37.275 44.4942 38.5958 44.1427 39.7509 43.4788C40.9417 42.7359 41.0941 42.0502 41.0941 41.5337C41.0898 40.9876 40.8829 40.4609 40.5106 40.048C40.1374 39.643 39.6943 39.3028 39.2008 39.0423C38.7009 38.7939 38.1693 38.6094 37.6194 38.4937C37.1104 38.3913 36.5915 38.3408 36.0714 38.3428C35.2673 38.3463 34.4643 38.2852 33.6709 38.16C32.6059 37.9911 31.573 37.6715 30.6059 37.2114C29.4865 36.6725 28.4993 35.9113 27.7099 34.9783C26.6232 33.7218 26.0195 32.145 26 30.5121C26.0033 29.4531 26.2651 28.4096 26.7645 27.4652C27.4504 26.2058 28.4824 25.1506 29.7485 24.4138C30.9275 23.7173 32.2269 23.2288 33.5851 22.9716V20.4276C33.5749 20.1124 33.6307 19.7985 33.7494 19.5044C33.868 19.2103 34.0469 18.9421 34.2756 18.7157C34.5043 18.4893 34.778 18.3092 35.0806 18.1863C35.3831 18.0634 35.7084 18 36.0369 18C36.3655 18 36.6907 18.0634 36.9932 18.1863C37.2958 18.3092 37.5696 18.4893 37.7982 18.7157C38.0269 18.9421 38.2059 19.2103 38.3245 19.5044C38.4431 19.7985 38.4989 20.1124 38.4887 20.4276V23.0424L38.6387 23.0744H38.6435C39.525 23.2687 40.383 23.5506 41.2036 23.9156C42.2274 24.3591 43.1606 24.9744 43.959 25.7327C44.3899 26.1788 44.6242 26.7676 44.6128 27.3758C44.6013 27.9839 44.3451 28.5643 43.8977 28.9951C43.4503 29.426 42.8465 29.6739 42.2129 29.687C41.5793 29.7001 40.9649 29.4772 40.4987 29.0652C40.1189 28.7072 39.6763 28.4163 39.1912 28.2058C38.6803 27.9765 38.1465 27.7973 37.598 27.671L37.4408 27.639C37.0053 27.5304 36.5606 27.4592 36.1119 27.4264C34.7962 27.4179 33.5026 27.7512 32.3682 28.3909C31.9498 28.5879 31.5937 28.8882 31.3363 29.2609C31.0789 29.6337 30.9295 30.0655 30.9035 30.5121C30.9287 31.0614 31.1431 31.5872 31.5132 32.0069L31.518 32.0138C31.869 32.4226 32.3045 32.7572 32.7969 32.9966L32.8016 33.0012C33.331 33.249 33.8949 33.4222 34.4758 33.5155H34.4806C35.0064 33.5983 35.5386 33.6389 36.0714 33.6366C36.9414 33.6338 37.8091 33.7196 38.6602 33.8926L38.6673 33.8949C39.6462 34.1012 40.5926 34.4301 41.4823 34.8732L41.4918 34.8777C42.5161 35.4081 43.4339 36.1093 44.202 36.9486L44.2067 36.9531C45.361 38.2213 45.9956 39.8475 45.9976 41.5314Z" fill="#7B9636"/>
</svg>
