<svg width="51" height="79" viewBox="0 0 51 79" fill="none" xmlns="http://www.w3.org/2000/svg">
<path d="M19.249 9.14429C19.122 7.11223 20.265 4.31814 21.7891 2.79409C23.5671 1.01603 25.9802 0 28.7743 0C31.5684 0 34.2355 1.01603 35.7595 2.54008C37.1566 3.93713 38.2996 6.73121 38.2996 8.89028C38.2996 11.1764 37.1566 13.9704 35.1245 15.8755C33.4734 17.6536 30.5523 19.0506 28.7743 19.0506C26.9962 19.0506 24.2021 17.6536 22.4241 15.8755C20.646 14.0974 19.249 11.1764 19.249 9.14429Z" fill="#F1F4E8"/>
<path d="M2.35745 22.6067C2.99247 22.2257 4.77052 21.5907 6.54858 21.2097C8.32664 20.9557 10.1047 20.5747 10.6127 20.4477C11.2477 20.4477 11.8828 20.9557 12.2638 21.5907C12.6448 22.2257 12.1368 27.4329 11.3747 33.021C10.1047 40.5143 9.21567 43.1814 7.81862 43.1814C6.80259 43.3084 4.51652 42.1653 2.73846 40.7683C-0.182633 38.4822 -0.436641 37.8472 0.452387 30.989C0.960404 26.7979 1.84943 23.1147 2.35745 22.6067Z" fill="#F1F4E8"/>
<path d="M15.6929 26.7979C16.5819 24.3848 18.487 21.9717 19.884 21.4637C21.2811 20.9557 23.5671 20.8287 24.9642 21.2097C26.3612 21.5907 30.0443 23.4957 33.2194 25.5278C36.3945 27.5599 40.4587 29.2109 42.4907 29.2109C44.3958 29.2109 47.0629 29.8459 48.4599 30.481C49.857 31.116 51 32.894 51 34.2911C51 35.6881 49.984 37.2122 48.8409 37.7202C47.5709 38.1012 43.1257 37.9742 38.9346 37.2122C34.7435 36.4502 31.3144 35.9421 31.1874 36.0691C31.0604 36.0691 30.6794 38.4822 30.1713 41.2763C29.4093 46.1025 29.6633 46.4835 34.1085 49.6586C38.4266 52.5797 39.1886 53.9767 41.2207 62.359C42.3637 67.5661 43.3798 72.7733 43.3798 74.0434C43.3798 75.1864 42.2367 76.8374 40.8397 77.4725C39.4426 78.1075 37.4106 78.4885 36.3945 78.1075C35.3785 77.7265 34.2355 76.4564 33.8545 75.3134C33.6004 74.0434 32.7114 70.2332 31.9494 66.6771C31.1874 63.248 29.7903 59.5649 29.0283 58.6759C28.1393 57.7868 27.1232 57.0248 26.6152 57.1518C25.9802 57.1518 25.3452 58.4219 24.9642 60.0729C24.7102 61.597 21.7891 66.4231 18.614 70.7412C15.4389 75.1864 12.0098 78.7425 10.9937 78.7425C9.97769 78.7425 8.19963 77.8535 7.1836 76.8374C6.16757 75.8214 5.27854 74.5514 5.27854 74.0434C5.27854 73.4083 7.43761 69.8522 10.1047 66.0421C12.7718 62.232 15.6929 57.2788 16.3279 55.2468C17.4709 52.0717 17.2169 50.9286 15.1849 48.2615C13.0258 45.5945 12.7718 43.9434 13.4068 38.1012C13.7878 34.2911 14.9308 29.2109 15.6929 26.7979Z" fill="#F1F4E8"/>
</svg>
