<svg width="66" height="65" viewBox="0 0 66 65" fill="none" xmlns="http://www.w3.org/2000/svg">
<path d="M32.0942 9.53951C33.0376 5.24149 34.2956 1.36279 35.0294 0.943467C35.7632 0.419319 36.9163 0 37.4405 0C37.9646 0 39.5371 0.943467 40.795 2.09659C42.1578 3.24972 43.5206 5.45115 43.8351 7.02359C44.2544 8.70087 44.2544 13.1037 43.2061 24.1108H52.6408C61.3417 24.1108 62.1803 24.3205 63.5431 26.4171C64.2769 27.7799 65.0107 31.8682 65.1155 35.6421C65.1155 41.1981 64.801 42.8754 63.0189 44.5526C61.8658 45.7058 60.9224 47.9072 61.0272 49.4796C61.0272 51.1569 60.0837 53.2535 58.9306 54.197C57.7775 55.2453 56.834 57.3419 56.834 58.9143C56.834 60.5916 56.1002 62.5833 55.1567 63.422C53.8988 64.5751 50.8587 64.9944 42.3675 64.9944C35.4487 64.9944 29.0541 64.3654 25.5947 63.422C22.6595 62.5833 19.7243 61.0109 19.305 60.0674C18.7808 59.0191 18.2567 51.5762 18.047 28.8282L22.7643 25.4736C25.3851 23.5867 28.1107 20.9659 28.9493 19.708C29.7879 18.3452 31.2555 13.8375 32.0942 9.53951Z" fill="#F9FAF3"/>
<path d="M0.0162924 45.2864C-0.0885373 35.5373 0.330782 27.2557 0.7501 26.8364C1.27425 26.4171 4.31431 26.2074 13.3297 26.7316L13.8538 62.8978H0.225952L0.0162924 45.2864Z" fill="#F9FAF3"/>
</svg>
