<svg width="64" height="64" viewBox="0 0 64 64" fill="none" xmlns="http://www.w3.org/2000/svg">
<path fill-rule="evenodd" clip-rule="evenodd" d="M32 64C49.6732 64 64 49.6732 64 32C64 14.3269 49.6732 0 32 0C14.3269 0 0 14.3269 0 32C0 49.6732 14.3269 64 32 64ZM35.5556 12.4444C35.5556 10.4808 33.9637 8.88889 32 8.88889C30.0363 8.88889 28.4444 10.4808 28.4444 12.4444V31.1111C28.4444 33.5659 30.4341 35.5556 32.8889 35.5556H44.4444C46.4082 35.5556 48 33.9637 48 32C48 30.0363 46.4082 28.4444 44.4444 28.4444H35.5556V12.4444Z" fill="white"/>
</svg>
