<svg width="39" height="39" viewBox="0 0 39 39" fill="none" xmlns="http://www.w3.org/2000/svg">
<path d="M5.81495 0.957204L19.5 14.6417L33.1141 1.02811C33.4149 0.708038 33.7771 0.451994 34.1792 0.275328C34.5813 0.0986623 35.0149 0.00501413 35.4541 0C36.3944 0 37.2961 0.373511 37.961 1.03836C38.6259 1.70322 38.9994 2.60495 38.9994 3.5452C39.0077 3.97985 38.927 4.4116 38.7624 4.81396C38.5978 5.21632 38.3527 5.5808 38.0422 5.88503L24.2508 19.4986L38.0422 33.2894C38.6265 33.8611 38.9692 34.6351 38.9994 35.452C38.9994 36.3922 38.6259 37.294 37.961 37.9588C37.2961 38.6237 36.3944 38.9972 35.4541 38.9972C35.0022 39.0159 34.5514 38.9405 34.1303 38.7757C33.7092 38.611 33.3269 38.3604 33.0078 38.04L19.5 24.3555L5.8504 38.0045C5.55084 38.3139 5.19297 38.5609 4.79744 38.7313C4.40191 38.9017 3.97656 38.9921 3.54593 38.9972C2.60564 38.9972 1.70387 38.6237 1.03899 37.9588C0.374104 37.294 0.000576852 36.3922 0.000576852 35.452C-0.00768911 35.0173 0.0729566 34.5856 0.237566 34.1832C0.402174 33.7809 0.647274 33.4164 0.957821 33.1122L14.7492 19.4986L0.957821 5.70777C0.373494 5.13614 0.0308528 4.36206 0.000576852 3.5452C0.000576852 2.60495 0.374104 1.70322 1.03899 1.03836C1.70387 0.373511 2.60564 0 3.54593 0C4.39681 0.0106356 5.21224 0.35452 5.81495 0.957204Z" fill="white"/>
</svg>
