<svg width="42" height="38" viewBox="0 0 42 38" fill="none" xmlns="http://www.w3.org/2000/svg">
<path fill-rule="evenodd" clip-rule="evenodd" d="M16.3333 38H25.6666C32.2209 38 35.498 38 37.8521 36.4475C38.871 35.7753 39.7461 34.9117 40.4271 33.9059C42 31.5824 42 28.3478 42 21.8787C42 15.4098 42 12.1752 40.4271 9.85171C39.7461 8.84585 38.871 7.9822 37.8521 7.3101C36.3392 6.3125 34.4457 5.95593 31.5462 5.82848C30.1625 5.82848 28.9714 4.79366 28.7001 3.45454C28.2929 1.44588 26.506 0 24.4308 0H17.5692C15.4939 0 13.707 1.44588 13.3 3.45454C13.0287 4.79366 11.8374 5.82848 10.4538 5.82848C7.55439 5.95593 5.66065 6.3125 4.148 7.3101C3.12889 7.9822 2.25389 8.84585 1.57294 9.85171C2.50339e-07 12.1752 0 15.4098 0 21.8787C0 28.3478 2.50339e-07 31.5824 1.57294 33.9059C2.25389 34.9117 3.12889 35.7753 4.148 36.4475C6.5021 38 9.77917 38 16.3333 38ZM21 13.2424C16.1675 13.2424 12.25 17.1091 12.25 21.8787C12.25 26.6486 16.1675 30.5151 21 30.5151C25.8325 30.5151 29.7501 26.6486 29.7501 21.8787C29.7501 17.1091 25.8325 13.2424 21 13.2424ZM21 16.697C18.1005 16.697 15.75 19.0169 15.75 21.8787C15.75 24.7405 18.1005 27.0606 21 27.0606C23.8995 27.0606 26.25 24.7405 26.25 21.8787C26.25 19.0169 23.8995 16.697 21 16.697ZM30.9166 14.9697C30.9166 14.0158 31.7001 13.2424 32.6668 13.2424H35.0001C35.9665 13.2424 36.75 14.0158 36.75 14.9697C36.75 15.9237 35.9665 16.697 35.0001 16.697H32.6668C31.7001 16.697 30.9166 15.9237 30.9166 14.9697Z" fill="white"/>
</svg>
