<svg width="51" height="39" viewBox="0 0 51 39" fill="none" xmlns="http://www.w3.org/2000/svg">
<path fill-rule="evenodd" clip-rule="evenodd" d="M4.20245 14.1437C-0.334439 11.8381 0.186187 9.26798 4.74374 9.53656L5.76433 11.4497L7.8675 4.90877C8.69389 2.33456 10.0698 0 12.768 0H39.667C42.3652 0 43.9188 2.2891 44.5717 4.90463L46.1501 11.2472L47.0591 9.53656C51.7448 9.26385 52.1621 11.9868 47.2037 14.3379L48.0095 15.5733C51.2696 18.9244 50.9638 24.8496 50.4556 33.1259V36.4893C50.4556 37.3322 49.7655 38.0223 48.9226 38.0223H42.3817C41.5388 38.0223 40.8488 37.3322 40.8488 36.4893V34.6134H9.93347V36.4893C9.93347 37.3322 9.24344 38.0223 8.40052 38.0223H1.85963C1.01671 38.0223 0.326674 37.3322 0.326674 36.4893V32.3119C0.326674 32.2293 0.334938 32.1508 0.343201 32.0723C-0.152633 25.7214 -0.850934 17.4162 4.20245 14.1437ZM12.5531 24.2546L6.7436 23.5232C5.37179 23.3704 5.00405 23.9488 5.47096 25.1306L6.09902 26.6553C6.30148 27.0478 6.57006 27.3329 6.88409 27.5312C7.25183 27.7585 7.69395 27.8701 8.18566 27.8907L13.3671 27.932C14.6191 27.9279 15.1604 27.4279 14.7679 26.2793C14.4456 25.2008 13.7101 24.5232 12.5531 24.2546ZM22.4698 21.8126H28.4199C28.7711 21.8126 29.0603 22.1018 29.0603 22.4531C29.0603 22.8043 28.7711 23.0935 28.4199 23.0935H22.4698C22.1186 23.0935 21.8294 22.8043 21.8294 22.4531C21.8252 22.1018 22.1145 21.8126 22.4698 21.8126ZM37.1713 30.2253H43.1214C43.4726 30.2253 43.7618 30.5145 43.7618 30.8657C43.7618 31.2169 43.4726 31.5062 43.1214 31.5062H37.1713C36.8201 31.5062 36.5309 31.2169 36.5309 30.8657C36.5309 30.5145 36.816 30.2253 37.1713 30.2253ZM38.2209 24.2546L44.0304 23.5232C45.4022 23.3704 45.7699 23.9488 45.303 25.1306L44.675 26.6553C44.4725 27.0478 44.2039 27.3329 43.8899 27.5312C43.5222 27.7585 43.08 27.8701 42.5883 27.8907L37.4069 27.932C36.1549 27.9279 35.6136 27.4279 36.0061 26.2793C36.3284 25.2008 37.0639 24.5232 38.2209 24.2546ZM7.60718 30.2253H13.5572C13.9084 30.2253 14.1977 30.5145 14.1977 30.8657C14.1977 31.2169 13.9084 31.5062 13.5572 31.5062H7.60718C7.25597 31.5062 6.96673 31.2169 6.96673 30.8657C6.96673 30.5145 7.25597 30.2253 7.60718 30.2253ZM7.946 12.8917H43.8197L42.2371 6.31363C41.8033 4.30963 40.5554 2.57421 38.4977 2.57421H13.6605C11.6069 2.57421 10.5533 4.35508 9.92108 6.31363L7.946 12.8917Z" fill="white"/>
</svg>
