<svg width="259" height="75" viewBox="0 0 259 75" fill="none" xmlns="http://www.w3.org/2000/svg">
<path d="M19.649 25.576H36.848V28.222C36.848 33.122 35.28 37.091 32.144 40.129C29.008 43.167 24.9573 44.686 19.992 44.686C14.7 44.686 10.3063 42.971 6.811 39.541C3.34833 36.0783 1.617 31.8643 1.617 26.899C1.617 21.901 3.332 17.6707 6.762 14.208C10.2247 10.7453 14.504 9.014 19.6 9.014C22.7687 9.014 25.676 9.73266 28.322 11.17C30.968 12.6073 33.0423 14.551 34.545 17.001L28.763 20.333C27.9463 18.9283 26.705 17.785 25.039 16.903C23.373 16.021 21.5437 15.58 19.551 15.58C16.2517 15.58 13.5567 16.658 11.466 18.814C9.37533 20.9047 8.33 23.5997 8.33 26.899C8.33 30.133 9.39167 32.8117 11.515 34.935C13.6383 37.0257 16.4803 38.071 20.041 38.071C22.6217 38.071 24.7777 37.4993 26.509 36.356C28.2403 35.2127 29.4163 33.612 30.037 31.554H19.649V25.576ZM47.6847 19.5V23.714C48.24 22.1787 49.1873 21.019 50.5267 20.235C51.866 19.4183 53.4013 19.01 55.1327 19.01V26.066C53.2053 25.8047 51.474 26.1967 49.9387 27.242C48.436 28.2547 47.6847 29.937 47.6847 32.289V44H41.3637V19.5H47.6847ZM81.7343 34.347H63.2613C64.078 37.4177 66.381 38.953 70.1703 38.953C72.5876 38.953 74.417 38.1363 75.6583 36.503L80.7543 39.443C78.337 42.9383 74.7763 44.686 70.0723 44.686C66.0216 44.686 62.7713 43.461 60.3213 41.011C57.8713 38.561 56.6463 35.474 56.6463 31.75C56.6463 28.0913 57.855 25.0207 60.2723 22.538C62.657 20.0553 65.7603 18.814 69.5823 18.814C73.2083 18.814 76.1646 20.0553 78.4513 22.538C80.8033 25.0207 81.9793 28.0913 81.9793 31.75C81.9793 32.436 81.8976 33.3017 81.7343 34.347ZM63.1633 29.447H75.6583C75.299 27.8463 74.564 26.6213 73.4533 25.772C72.3753 24.9227 71.085 24.498 69.5823 24.498C67.8836 24.498 66.479 24.939 65.3683 25.821C64.2576 26.6703 63.5226 27.879 63.1633 29.447ZM110.015 34.347H91.5416C92.3582 37.4177 94.6612 38.953 98.4506 38.953C100.868 38.953 102.697 38.1363 103.939 36.503L109.035 39.443C106.617 42.9383 103.057 44.686 98.3526 44.686C94.3019 44.686 91.0516 43.461 88.6016 41.011C86.1516 38.561 84.9266 35.474 84.9266 31.75C84.9266 28.0913 86.1352 25.0207 88.5526 22.538C90.9372 20.0553 94.0406 18.814 97.8626 18.814C101.489 18.814 104.445 20.0553 106.732 22.538C109.084 25.0207 110.26 28.0913 110.26 31.75C110.26 32.436 110.178 33.3017 110.015 34.347ZM91.4436 29.447H103.939C103.579 27.8463 102.844 26.6213 101.734 25.772C100.656 24.9227 99.3652 24.498 97.8626 24.498C96.1639 24.498 94.7592 24.939 93.6486 25.821C92.5379 26.6703 91.8029 27.879 91.4436 29.447ZM128.294 18.814C131.006 18.814 133.211 19.7123 134.909 21.509C136.673 23.3383 137.555 25.821 137.555 28.957V44H131.234V29.741C131.234 28.1403 130.793 26.899 129.911 26.017C129.062 25.135 127.886 24.694 126.383 24.694C124.717 24.694 123.394 25.2167 122.414 26.262C121.467 27.2747 120.993 28.7773 120.993 30.77V44H114.672V19.5H120.993V22.244C122.496 19.9573 124.93 18.814 128.294 18.814ZM140.699 9.7H165.934V16.168H156.673V44H149.911V16.168H140.699V9.7ZM185.838 40.962C183.356 43.4447 180.285 44.686 176.626 44.686C172.968 44.686 169.897 43.4447 167.414 40.962C164.932 38.4793 163.69 35.4087 163.69 31.75C163.69 28.124 164.932 25.0697 167.414 22.587C169.93 20.0717 173 18.814 176.626 18.814C180.252 18.814 183.323 20.0717 185.838 22.587C188.354 25.1023 189.611 28.1567 189.611 31.75C189.611 35.376 188.354 38.4467 185.838 40.962ZM171.873 36.601C173.147 37.875 174.732 38.512 176.626 38.512C178.521 38.512 180.105 37.875 181.379 36.601C182.653 35.327 183.29 33.71 183.29 31.75C183.29 29.79 182.653 28.173 181.379 26.899C180.105 25.625 178.521 24.988 176.626 24.988C174.732 24.988 173.147 25.625 171.873 26.899C170.632 28.2057 170.011 29.8227 170.011 31.75C170.011 33.6773 170.632 35.2943 171.873 36.601ZM210.228 32.73V19.5H216.549V44H210.228V41.256C208.725 43.5427 206.292 44.686 202.927 44.686C200.248 44.686 198.027 43.7877 196.263 41.991C194.532 40.1617 193.666 37.679 193.666 34.543V19.5H199.987V33.759C199.987 35.3597 200.412 36.601 201.261 37.483C202.143 38.365 203.335 38.806 204.838 38.806C206.504 38.806 207.811 38.2997 208.758 37.287C209.738 36.2417 210.228 34.7227 210.228 32.73ZM228.659 19.5V23.714C229.215 22.1787 230.162 21.019 231.501 20.235C232.841 19.4183 234.376 19.01 236.107 19.01V26.066C234.18 25.8047 232.449 26.1967 230.913 27.242C229.411 28.2547 228.659 29.937 228.659 32.289V44H222.338V19.5H228.659ZM244.869 26.458C244.869 27.5033 246.356 28.4017 249.328 29.153C250.374 29.3817 251.321 29.6593 252.17 29.986C253.02 30.28 253.869 30.721 254.718 31.309C255.6 31.8643 256.286 32.6157 256.776 33.563C257.266 34.5103 257.511 35.6047 257.511 36.846C257.511 39.3613 256.564 41.305 254.669 42.677C252.775 44.0163 250.439 44.686 247.662 44.686C242.632 44.686 239.202 42.7423 237.372 38.855L242.86 35.768C243.612 37.8913 245.212 38.953 247.662 38.953C249.916 38.953 251.043 38.2507 251.043 36.846C251.043 35.8007 249.557 34.9023 246.584 34.151C245.474 33.857 244.526 33.563 243.742 33.269C242.958 32.975 242.109 32.5503 241.194 31.995C240.28 31.407 239.577 30.672 239.087 29.79C238.63 28.8753 238.401 27.8137 238.401 26.605C238.401 24.1877 239.283 22.293 241.047 20.921C242.844 19.5163 245.065 18.814 247.711 18.814C249.704 18.814 251.517 19.2713 253.15 20.186C254.784 21.068 256.074 22.342 257.021 24.008L251.631 26.948C250.847 25.282 249.541 24.449 247.711 24.449C246.895 24.449 246.209 24.645 245.653 25.037C245.131 25.3963 244.869 25.87 244.869 26.458Z" fill="white"/>
<path d="M5.26 60H12.82V69H11.632V61.152H6.448V69H5.26V60ZM19.4903 59.784C20.8343 59.784 21.9083 60.258 22.7123 61.206C23.5403 62.142 23.9543 63.252 23.9543 64.536C23.9543 64.596 23.9423 64.782 23.9183 65.094H16.0163C16.1363 65.994 16.5203 66.714 17.1683 67.254C17.8163 67.794 18.6263 68.064 19.5983 68.064C20.9663 68.064 21.9323 67.554 22.4963 66.534L23.5403 67.146C23.1443 67.794 22.5983 68.304 21.9023 68.676C21.2183 69.036 20.4443 69.216 19.5803 69.216C18.1643 69.216 17.0123 68.772 16.1243 67.884C15.2363 66.996 14.7923 65.868 14.7923 64.5C14.7923 63.144 15.2303 62.022 16.1063 61.134C16.9823 60.234 18.1103 59.784 19.4903 59.784ZM19.4903 60.936C18.5543 60.936 17.7683 61.212 17.1323 61.764C16.5083 62.316 16.1363 63.042 16.0163 63.942H22.7303C22.5983 62.982 22.2323 62.244 21.6323 61.728C21.0083 61.2 20.2943 60.936 19.4903 60.936ZM36.716 67.848V60H37.904V69H25.844V60H27.032V67.848H31.28V60H32.468V67.848H36.716ZM41.6043 66.93L46.9683 60H47.9763V69H46.7883V62.07L41.4243 69H40.4163V60H41.6043V66.93ZM54.6465 59.784C55.9905 59.784 57.0645 60.258 57.8685 61.206C58.6965 62.142 59.1105 63.252 59.1105 64.536C59.1105 64.596 59.0985 64.782 59.0745 65.094H51.1725C51.2925 65.994 51.6765 66.714 52.3245 67.254C52.9725 67.794 53.7825 68.064 54.7545 68.064C56.1225 68.064 57.0885 67.554 57.6525 66.534L58.6965 67.146C58.3005 67.794 57.7545 68.304 57.0585 68.676C56.3745 69.036 55.6005 69.216 54.7365 69.216C53.3205 69.216 52.1685 68.772 51.2805 67.884C50.3925 66.996 49.9485 65.868 49.9485 64.5C49.9485 63.144 50.3865 62.022 51.2625 61.134C52.1385 60.234 53.2665 59.784 54.6465 59.784ZM54.6465 60.936C53.7105 60.936 52.9245 61.212 52.2885 61.764C51.6645 62.316 51.2925 63.042 51.1725 63.942H57.8865C57.7545 62.982 57.3885 62.244 56.7885 61.728C56.1645 61.2 55.4505 60.936 54.6465 60.936ZM68.7042 59.784C70.0602 59.784 71.1522 60.234 71.9802 61.134C72.8082 62.022 73.2222 63.144 73.2222 64.5C73.2222 65.868 72.8022 66.996 71.9622 67.884C71.1342 68.772 70.0362 69.216 68.6682 69.216C67.7082 69.216 66.8682 69.006 66.1482 68.586C65.4402 68.154 64.9242 67.572 64.6002 66.84L65.6262 66.246C65.8422 66.81 66.2142 67.254 66.7422 67.578C67.2702 67.902 67.9122 68.064 68.6682 68.064C69.5562 68.064 70.3002 67.788 70.9002 67.236C71.5122 66.684 71.8782 65.964 71.9982 65.076H67.5162V63.924H71.9982C71.8902 63.036 71.5362 62.316 70.9362 61.764C70.3362 61.212 69.5922 60.936 68.7042 60.936C68.0202 60.936 67.4142 61.098 66.8862 61.422C66.3582 61.746 65.9682 62.184 65.7162 62.736L64.6722 62.142C65.0322 61.41 65.5662 60.834 66.2742 60.414C66.9942 59.994 67.8042 59.784 68.7042 59.784ZM77.6514 64.32L82.4754 69H80.8914L76.3914 64.662V69H75.2034V60H76.3914V63.978L80.6754 60H82.2954L77.6514 64.32ZM87.3954 69.216C86.0394 69.216 84.9114 68.766 84.0114 67.866C83.1114 66.942 82.6614 65.82 82.6614 64.5C82.6614 63.168 83.1114 62.052 84.0114 61.152C84.9114 60.24 86.0394 59.784 87.3954 59.784C88.2834 59.784 89.0814 60 89.7894 60.432C90.4974 60.852 91.0134 61.422 91.3374 62.142L90.3654 62.7C90.1254 62.16 89.7354 61.734 89.1954 61.422C88.6674 61.098 88.0674 60.936 87.3954 60.936C86.3994 60.936 85.5594 61.284 84.8754 61.98C84.1914 62.664 83.8494 63.504 83.8494 64.5C83.8494 65.484 84.1914 66.33 84.8754 67.038C85.5594 67.722 86.3994 68.064 87.3954 68.064C88.0554 68.064 88.6494 67.908 89.1774 67.596C89.7174 67.284 90.1374 66.852 90.4374 66.3L91.4274 66.876C91.0554 67.596 90.5094 68.166 89.7894 68.586C89.0694 69.006 88.2714 69.216 87.3954 69.216ZM95.581 64.32L100.405 69H98.821L94.321 64.662V69H93.133V60H94.321V63.978L98.605 60H100.225L95.581 64.32ZM105.24 67.542L108.156 60H109.416L105.564 69.828C105.204 70.74 104.7 71.442 104.052 71.934C103.416 72.438 102.708 72.66 101.928 72.6V71.484C103.008 71.616 103.83 70.992 104.394 69.612L104.628 69.054L100.596 60H101.856L105.24 67.542ZM115.676 59.784C116.96 59.784 118.052 60.24 118.952 61.152C119.864 62.064 120.32 63.18 120.32 64.5C120.32 65.82 119.864 66.936 118.952 67.848C118.052 68.76 116.96 69.216 115.676 69.216C114.08 69.216 112.868 68.556 112.04 67.236V72.6H110.852V60H112.04V61.764C112.868 60.444 114.08 59.784 115.676 59.784ZM113.066 67.038C113.75 67.722 114.59 68.064 115.586 68.064C116.582 68.064 117.422 67.722 118.106 67.038C118.79 66.33 119.132 65.484 119.132 64.5C119.132 63.504 118.79 62.664 118.106 61.98C117.422 61.284 116.582 60.936 115.586 60.936C114.59 60.936 113.75 61.284 113.066 61.98C112.382 62.664 112.04 63.504 112.04 64.5C112.04 65.484 112.382 66.33 113.066 67.038ZM126.489 69.216C125.133 69.216 124.005 68.766 123.105 67.866C122.205 66.942 121.755 65.82 121.755 64.5C121.755 63.168 122.205 62.052 123.105 61.152C124.005 60.24 125.133 59.784 126.489 59.784C127.377 59.784 128.175 60 128.883 60.432C129.591 60.852 130.107 61.422 130.431 62.142L129.459 62.7C129.219 62.16 128.829 61.734 128.289 61.422C127.761 61.098 127.161 60.936 126.489 60.936C125.493 60.936 124.653 61.284 123.969 61.98C123.285 62.664 122.943 63.504 122.943 64.5C122.943 65.484 123.285 66.33 123.969 67.038C124.653 67.722 125.493 68.064 126.489 68.064C127.149 68.064 127.743 67.908 128.271 67.596C128.811 67.284 129.231 66.852 129.531 66.3L130.521 66.876C130.149 67.596 129.603 68.166 128.883 68.586C128.163 69.006 127.365 69.216 126.489 69.216ZM133.415 66.93L138.779 60H139.787V69H138.599V62.07L133.235 69H132.227V60H133.415V66.93ZM143.487 66.93L148.851 60H149.859V69H148.671V62.07L143.307 69H142.299V60H143.487V66.93Z" fill="white"/>
</svg>
