<svg width="908" height="451" viewBox="0 0 908 451" fill="none" xmlns="http://www.w3.org/2000/svg">
<path d="M815.065 9.39744C816.61 5.14729 818.156 1.15472 818.542 0.639551C819.057 -0.00441172 819.572 -0.133204 819.701 0.124381C819.83 0.381966 819.444 3.2154 818.8 6.30642C818.284 9.39744 817.641 13.2612 817.641 14.9355C817.641 16.481 820.088 20.7312 823.05 24.4662C826.141 28.2011 831.035 33.4816 833.997 36.4439C836.959 39.2773 839.406 42.4971 839.406 43.5274C839.406 44.5578 837.475 48.0352 835.028 51.255C832.709 54.4748 830.133 58.5962 829.361 60.6568C828.459 62.9751 828.33 64.3918 829.232 64.7782C829.876 65.1646 832.967 63.1039 835.929 60.3993C839.02 57.5658 843.013 54.7324 844.945 53.9596C847.005 53.1869 850.225 52.5429 852.415 52.5429C855.248 52.5429 856.278 51.899 856.278 50.3535C856.278 49.0655 858.339 45.9745 865.423 39.0197L880.491 38.7621C893.628 38.5045 895.946 38.7621 899.037 40.9516C901.098 42.3683 902.644 44.429 902.644 45.4593C902.644 47.0048 902.128 47.1336 899.681 45.9745C898.136 45.2018 895.302 44.9442 889.764 46.1033L896.59 53.5733C900.325 57.5658 903.803 62.2024 904.318 63.8767C904.833 65.551 904.704 66.7101 903.932 66.7101C903.159 66.7101 902.128 65.6798 901.356 64.5206C900.325 62.5887 900.197 62.8463 900.068 69.9299L896.848 65.8085C893.886 61.816 893.499 61.6872 891.052 63.4903C888.605 65.2934 888.348 65.1646 886.545 60.9144C885.514 58.4674 883.969 56.1491 883.325 55.7627C882.552 55.3764 881.779 55.2476 881.393 55.5051C881.135 55.6339 881.65 58.9825 882.681 62.8463C883.711 66.7101 884.613 72.1194 884.613 74.824C884.613 77.3999 883.84 79.9757 882.938 80.4909C882.166 80.8773 880.234 81.3924 878.817 81.3924C876.628 81.5212 876.112 82.6804 875.597 89.5064C875.211 93.8853 874.696 97.7491 874.309 98.1355C873.923 98.5218 873.279 96.4612 872.635 93.7565C872.12 90.9231 870.961 87.1881 870.059 85.385C869.286 83.5819 868.127 82.1652 867.483 82.1652C866.968 82.1652 866.582 83.0667 866.582 84.0971C866.582 85.1274 865.938 86.029 865.294 86.029C864.521 86.029 864.006 89.5064 864.006 93.7565C864.006 99.9386 863.491 101.613 861.688 102.386C860.528 102.772 858.468 104.06 857.309 105.219C855.248 107.151 854.99 107.022 854.346 104.06C853.702 101.355 852.801 100.84 849.452 101.098C846.705 101.184 845.46 101.828 845.717 103.03C845.975 103.931 847.907 108.568 849.967 113.462C852.028 118.227 853.702 122.735 853.702 123.379C853.702 124.152 854.604 124.667 855.634 124.667C856.665 124.667 862.074 122.735 867.483 120.417C873.021 117.97 882.166 114.492 887.832 112.689C893.499 110.886 900.325 108.954 907.795 107.924V118.871C907.795 125.311 907.28 129.818 906.507 129.818C905.735 129.818 904.576 128.144 903.932 125.955C903.159 123.894 902 122.091 901.356 122.091C900.583 122.091 899.295 123.636 898.265 125.697C897.234 127.629 896.204 130.591 896.075 132.394C895.56 135.485 895.818 135.614 907.795 134.97V143.728C907.795 150.94 907.409 152.615 905.219 154.031C903.159 155.319 902.644 155.319 902.644 154.031C902.772 152.872 902.128 152.872 900.583 154.289C899.424 155.319 897.621 157.766 896.719 159.827C894.916 163.176 895.045 163.304 900.068 165.88C904.962 168.327 905.348 168.327 906.507 166.267C907.28 164.721 907.667 170.259 907.795 183.654C907.795 194.343 907.409 203.23 906.765 203.23C906.25 203.23 905.091 201.169 904.189 198.722C903.416 196.275 902 194.472 901.356 194.859C900.583 195.245 900.068 194.215 900.068 192.669C900.068 190.995 899.553 188.805 898.909 187.775C898.265 186.745 897.492 186.358 897.105 187.131C896.848 187.904 896.075 190.48 894.658 197.434L891.825 193.957C889.764 191.381 888.734 190.866 887.446 192.025C886.158 193.313 885.901 192.669 885.901 189.449C885.901 187.131 885.643 184.298 885.257 183.267C884.87 182.237 884.226 181.335 883.582 181.335C883.067 181.335 881.908 182.752 881.006 184.555C880.234 186.358 879.461 188.805 879.461 190.093C879.461 191.252 878.173 193.571 873.665 198.078L870.059 194.859C868.127 193.056 866.582 190.608 866.582 189.449C866.582 188.161 866.067 186.616 865.294 185.843C864.392 184.942 864.392 183.396 865.294 181.078C865.938 179.017 866.324 177.472 865.938 177.472C865.551 177.472 862.332 180.563 852.157 190.995L852.93 186.23C853.316 183.525 853.96 179.146 855.119 171.676L851.771 177.858C849.967 181.207 848.293 183.911 847.907 183.911C847.52 183.911 847.52 181.851 847.907 179.404C848.293 176.828 848.036 174.896 847.263 174.896C846.49 174.896 844.687 176.956 843.013 179.404C841.467 181.851 839.793 183.911 839.149 183.911C838.634 183.911 838.634 181.464 839.149 178.631C840.05 174.252 839.793 173.35 838.247 173.737C837.217 173.994 835.028 173.479 833.353 172.578C831.035 171.29 830.262 171.418 829.232 173.35C828.073 175.282 828.073 175.282 828.073 172.964C828.073 171.547 827.558 170.002 827.042 169.486C826.527 168.971 824.209 169.229 822.148 170.002C819.057 171.032 817.383 170.903 813.39 168.971C810.214 167.34 808.153 166.954 807.208 167.812C806.564 168.585 805.534 182.623 804.117 234.398L808.625 234.14C811.072 233.883 814.55 233.883 816.353 234.012C819.057 234.269 818.8 234.656 814.421 236.072C811.587 236.974 810.171 237.875 811.201 238.004C812.231 238.133 815.966 238.519 819.572 238.777C823.436 239.163 826.914 240.194 828.33 241.61C830.262 243.413 830.649 243.413 830.649 241.868C830.649 240.838 829.618 238.519 828.33 236.716C827.042 234.913 825.239 231.307 824.338 228.731C823.565 226.026 823.05 223.451 823.436 222.935C823.823 222.291 826.141 222.935 828.588 224.223C831.035 225.382 833.096 226.928 833.096 227.701C833.096 228.473 834.126 229.375 835.285 229.761C837.088 230.405 837.346 230.019 836.573 228.473C836.058 227.314 836.573 224.223 837.861 221.261C839.149 218.428 840.566 216.109 841.081 216.109C841.725 216.109 842.111 217.526 842.111 219.329C842.111 221.132 843.013 222.807 844.043 223.193C845.073 223.579 847.263 222.935 848.808 221.905C850.483 220.875 852.157 219.973 852.672 219.973C853.316 219.973 853.702 221.132 853.702 222.549C853.702 223.966 854.604 225.125 855.634 225.125C856.665 225.125 857.566 225.64 857.566 226.413C857.566 227.186 856.407 228.473 854.99 229.375C853.574 230.148 852.415 231.307 852.415 231.951C852.415 232.466 853.574 232.852 854.99 232.852C856.407 232.852 857.309 233.368 856.922 234.14C856.536 234.913 857.051 236.33 857.824 237.36C859.112 239.034 859.112 239.421 857.824 239.292C857.051 239.292 856.021 238.519 855.763 237.747C855.506 236.845 854.99 236.459 854.475 237.103C854.089 237.618 853.96 238.519 854.346 239.292C854.733 240.065 857.309 240.58 860.142 240.58C862.976 240.58 867.354 241.739 869.802 243.156C872.764 244.83 874.824 245.345 875.855 244.573C876.971 243.8 877.529 243.971 877.529 245.088C877.529 245.989 876.885 246.504 876.241 245.989C875.468 245.603 876.37 246.891 878.173 248.694C879.976 250.626 881.522 251.914 881.65 251.527C881.908 251.141 881.65 250.111 881.135 249.338C880.62 248.436 879.976 246.891 879.847 246.118C879.59 245.216 879.976 244.701 880.749 245.088C881.393 245.474 882.294 244.186 882.552 242.254C882.681 240.194 883.067 243.413 883.196 249.338C883.196 255.391 883.84 259.899 884.613 259.899C885.257 259.899 885.772 258.868 885.514 257.709C885.385 255.906 886.287 255.262 889.764 255.005C892.211 254.876 894.787 255.262 895.56 256.035C896.462 256.937 895.689 257.323 893.242 257.323C891.31 257.323 889.507 257.838 889.12 258.611C888.734 259.384 889.378 260.156 890.408 260.543C891.439 260.929 894.015 261.187 896.204 261.187C899.166 261.187 899.939 260.672 899.681 258.997C899.51 257.452 900.368 256.593 902.257 256.421C904.704 256.164 905.219 256.679 905.219 259.255C905.219 261.058 905.735 262.475 906.507 262.475C907.409 262.475 907.795 287.332 907.795 334.598C907.795 402.215 907.666 406.722 905.477 407.495C904.189 407.881 902.644 407.237 901.742 405.821C900.841 404.533 899.166 402.472 897.878 401.313C896.59 400.025 895.174 399.381 894.53 399.639C894.014 400.025 893.628 399.381 893.628 398.351C893.628 397.063 892.77 396.634 891.052 397.063C889.335 397.492 888.219 396.977 887.704 395.517C887.188 393.457 886.931 393.457 885.901 395.131C885.257 396.161 884.613 397.964 884.613 398.995C884.613 400.025 886.673 401.957 889.378 403.245C892.083 404.533 895.946 406.851 902 411.616L896.848 412.518C894.015 413.033 890.923 413.548 890.022 413.935C889.249 414.192 888.605 415.48 888.863 416.768C889.12 418.7 890.537 418.958 907.795 418.314V427.715C907.795 435.572 907.409 437.246 905.219 438.663C903.03 439.951 902.644 439.822 902.644 438.019C902.515 435.829 902.515 435.829 900.969 437.89C900.068 439.178 899.037 440.08 898.393 440.208C897.878 440.208 897.492 439.307 897.492 438.276C897.492 437.246 896.848 436.345 896.204 436.345C895.431 436.345 894.53 437.375 894.143 438.663C893.499 440.724 893.242 440.595 891.567 438.276C890.022 436.087 889.636 435.958 888.476 437.632C887.832 438.663 887.189 442.011 887.189 445.102C887.189 450.383 887.06 450.512 882.681 450.512C879.075 450.512 878.044 449.997 877.529 447.678C877.143 446.004 876.885 443.299 876.885 441.496C876.885 438.792 876.37 438.405 873.279 438.792C871.347 439.049 869.158 440.08 868.514 440.981C867.483 442.398 866.711 442.269 864.65 440.208C863.233 438.663 861.688 437.504 861.044 437.632C860.528 437.632 860.142 438.92 860.142 440.595C860.142 442.784 859.885 443.171 858.597 441.883C857.309 440.595 856.536 440.595 855.248 441.883C853.96 443.171 853.574 442.913 853.702 441.239C853.702 439.951 853.059 438.663 852.415 438.276C851.642 437.89 850.225 439.436 849.195 441.496C848.164 443.557 847.263 446.519 847.263 447.936C847.263 449.868 846.361 450.512 843.657 450.512C841.338 450.512 838.763 448.966 835.8 445.618C833.224 442.784 831.293 441.496 831.035 442.527C830.649 443.686 829.747 443.428 827.815 441.883C825.626 439.951 824.853 439.822 822.663 441.239C821.375 442.011 819.959 442.784 819.572 442.784C819.186 442.784 818.929 441.883 818.929 440.852C818.929 439.822 818.285 438.92 817.641 438.92C816.868 438.92 816.353 439.436 816.353 440.208C816.353 440.981 815.065 441.367 813.39 441.239C810.943 440.852 810.557 441.496 810.171 445.746C809.913 450.383 809.784 450.512 804.761 450.512C799.61 450.512 799.61 450.512 800.254 446.39C800.64 444.072 800.511 441.367 799.996 440.466C799.223 439.307 798.064 439.178 795.746 440.079C793.943 440.723 769.086 441.883 740.365 442.655C711.644 443.428 661.286 444.974 628.316 446.004C595.345 447.034 557.737 448.58 544.6 449.224C530.82 449.997 441.953 450.512 333.381 450.512C193.254 450.383 146.632 450.125 148.563 448.966C149.98 448.193 151.526 446.777 152.041 445.746C152.685 444.845 153.844 444.458 154.617 444.974C155.518 445.489 159.768 446.39 164.019 447.034C168.269 447.678 172.648 448.193 173.678 448.193C174.708 448.193 180.504 447.936 186.557 447.678C192.611 447.421 198.277 446.648 199.05 446.262C199.952 445.746 200.982 445.746 201.24 446.39C201.497 446.906 204.331 447.163 207.422 447.034C210.384 447.034 224.809 446.519 239.362 446.133C253.916 445.746 302.599 445.102 347.548 444.587C392.496 444.201 429.846 443.428 430.619 443.042C431.263 442.655 448.392 442.527 468.613 442.655C488.833 442.784 508.667 442.398 512.789 441.883C519.486 440.981 520.259 440.466 521.418 436.988C522.191 434.928 522.706 432.352 522.706 431.579C522.706 430.291 516.137 430.034 492.053 430.678C475.31 431.064 446.203 431.837 427.399 432.481C408.596 433.254 364.291 434.284 328.873 435.057C293.455 435.701 240.135 436.86 210.384 437.632C180.633 438.405 155.647 439.564 155.003 440.079C154.23 440.723 150.624 441.11 146.889 440.723C143.283 440.466 140.192 440.595 140.192 441.239C140.063 441.754 141.351 443.299 142.768 444.716C144.185 446.133 145.472 448.065 145.344 448.966C145.344 450.125 142.124 450.512 133.752 450.512C122.934 450.512 122.032 450.383 121.131 447.678C120.487 446.004 119.199 444.33 118.168 443.815C117.138 443.299 115.335 443.557 114.047 444.458C112.888 445.36 109.153 445.875 106.062 445.746C102.842 445.489 100.266 445.746 100.266 446.39C100.266 446.906 97.8193 447.421 94.7282 447.421C91.766 447.549 88.1598 448.193 86.7431 448.966C85.1976 449.739 71.1592 450.254 15.5208 449.868L19.2558 445.746C21.3165 443.428 22.7332 440.981 22.3468 440.208C21.9605 439.436 20.6725 439.307 19.3846 439.693C18.0967 440.08 16.1648 441.239 15.1345 442.269C13.589 443.815 13.0738 443.815 11.7859 441.883C10.2404 439.693 10.1116 439.822 9.4676 442.527C9.08122 444.072 8.17967 445.36 7.53571 445.36C6.76296 445.36 6.24779 444.458 6.24779 443.428C6.24779 442.14 5.38917 441.711 3.67194 442.14C1.48246 442.655 1.22488 442.269 1.86884 439.307C2.38401 437.246 3.92952 433.254 5.47503 430.291C6.89175 427.2 7.7933 424.496 7.14933 424.109C6.63416 423.723 5.08865 423.98 3.67194 424.753C2.25522 425.526 0.8385 425.784 0.452123 425.397C0.0657451 425.011 1.74005 423.336 3.92952 421.533C6.24779 419.859 10.4979 417.67 18.4831 414.836L13.0738 411.745C10.1116 410.071 8.05088 408.139 8.56605 407.495C9.08122 406.851 12.8162 406.722 16.8088 407.109C23.506 407.881 24.4075 407.753 25.1803 405.434C25.8242 403.889 26.7258 402.987 27.4985 403.245C28.1425 403.502 29.3016 404.919 30.0744 406.465C30.7184 408.01 31.7487 409.298 32.2639 409.298C32.9078 409.298 33.5518 408.397 33.9382 407.366C34.3246 406.078 36.2564 405.434 44.8855 405.434L44.2416 400.025C43.984 396.934 43.2112 387.919 42.6961 379.933C41.7945 366.797 41.4081 365.122 38.7035 363.448C37.158 362.418 34.9685 359.713 33.9382 357.524C32.1351 353.531 32.0063 353.402 31.3623 356.236C30.9759 357.781 30.0744 359.069 29.4304 359.069C28.6577 359.069 27.8849 358.167 27.4985 357.137C27.1122 356.107 25.953 355.205 24.9227 355.205C23.8924 355.205 21.8317 356.751 17.7103 362.289L18.3543 357.524C18.9982 353.402 18.7407 352.629 16.8088 352.629C15.6496 352.629 13.4602 353.402 12.0434 354.561C10.6267 355.592 8.69484 356.493 7.7933 356.493C6.89175 356.493 6.24779 354.819 6.37658 352.372C6.37658 350.054 6.89175 346.963 7.40692 345.546C8.05088 344.129 10.4979 342.326 12.8162 341.553C16.68 340.265 16.9376 339.879 14.6193 339.106C13.2026 338.462 9.98277 337.303 3.02797 334.47L6.24779 331.894C8.05088 330.477 10.6267 329.318 12.0434 329.318C13.4602 329.447 17.4527 330.22 21.0589 331.25C24.5363 332.409 27.6273 332.924 27.7561 332.667C28.0137 332.28 24.9227 330.091 21.0589 327.901C16.9376 325.325 13.9753 322.75 13.9753 321.462C13.9753 320.045 15.2633 318.886 17.4527 318.371C19.5134 317.855 23.6348 317.855 26.8546 318.113C30.0744 318.499 33.8094 319.272 35.2261 319.787C37.4156 320.689 37.4156 320.431 34.5821 317.34C32.779 315.408 29.1728 312.317 26.4682 310.385C23.7636 308.454 21.5741 306.522 21.7029 306.007C21.7029 305.363 23.6348 305.363 25.8242 305.749C28.5289 306.264 30.4608 306.007 30.9759 305.105C31.6199 304.332 30.7184 302.014 29.0441 299.824C27.4985 297.764 26.597 295.574 27.1122 295.059C27.6273 294.415 30.7184 295.574 33.9382 297.635C37.158 299.567 39.7338 300.597 39.7338 299.824C39.7338 299.052 39.0899 297.249 38.1883 295.703C36.7716 292.87 36.9004 292.741 40.1202 293.771C42.0521 294.286 43.34 294.286 42.9536 293.771C42.6961 293.127 43.2112 291.453 44.2416 289.907C45.2719 288.233 46.9462 286.945 47.719 286.945C48.6205 286.945 51.3252 285.013 53.6434 282.695C55.9617 280.506 57.7648 277.672 57.7648 276.642C57.7648 275.354 56.2193 276.255 53.5146 279.089C49.5221 283.339 49.3933 283.339 48.3629 280.763C47.8478 279.089 45.9159 277.543 43.8552 277.157C41.9233 276.642 38.9611 275.483 37.158 274.452C34.1958 272.649 33.8094 272.649 32.2639 274.839C31.1047 276.642 30.332 276.899 29.688 275.74C29.0441 274.581 27.6273 274.452 24.2787 275.354C21.8317 276.127 19.6422 276.642 19.3846 276.642C19.2558 276.642 19.3846 275.483 19.771 274.066C20.1574 272.263 19.5134 271.104 17.4527 270.073C15.9072 269.172 12.5586 268.914 9.72518 269.429C7.14933 269.816 4.95986 269.816 4.95986 269.301C4.83107 268.657 6.50537 267.626 8.43726 266.725C10.3691 265.823 14.1041 264.664 16.5512 264.02C20.0286 263.247 21.1877 262.217 21.4453 259.77C21.7029 258.096 22.4756 256.164 23.2484 255.391C23.8924 254.618 27.7561 253.073 31.7487 251.914C35.7413 250.626 40.249 249.595 41.6657 249.595C43.0824 249.595 46.431 250.368 49.0069 251.527C51.7115 252.558 54.1586 253.459 54.545 253.459C54.9314 253.459 55.1889 250.755 55.0601 247.406C55.0601 243.929 54.545 238.39 54.1586 234.784C53.3858 229.633 52.7419 228.473 50.9388 228.731C49.7797 228.86 48.6205 228.216 48.6205 227.443C48.4917 226.542 48.1053 227.443 47.5902 229.504C47.2038 231.693 46.1735 233.239 45.5295 233.11C44.7567 233.11 43.7264 230.792 43.2112 228.087C42.6961 225.382 41.6657 222.678 41.1506 221.905C40.3778 221.132 39.4762 222.291 38.5747 224.867C37.8019 227.057 36.514 228.989 35.8701 228.989C35.0973 228.989 34.067 227.958 33.2942 226.799C32.1351 224.738 31.7487 224.738 28.7865 228.087C26.9834 230.019 25.3091 231.564 24.9227 231.564C24.5363 231.564 24.2787 230.019 24.1499 224.481L22.6044 227.701C21.1877 230.663 21.0589 230.405 20.8013 224.223C20.5438 220.488 19.771 217.397 19.127 217.397C18.3543 217.397 16.68 218.943 15.2633 221.003C13.0738 224.095 12.8162 224.223 12.6874 221.905C12.5586 219.587 12.4298 219.458 11.0131 221.519C10.1116 222.807 8.56605 223.708 7.53571 223.708C6.50537 223.708 4.70228 224.61 3.67194 225.769C2.6416 226.928 1.48246 227.829 1.09609 227.701C0.709708 227.701 0.32333 224.223 0.0657451 219.973C-0.19184 213.147 0.194538 211.73 3.28556 208.124C5.60382 205.548 6.37658 203.874 5.21745 203.617C4.44469 203.359 3.67194 202.071 3.67194 200.654C3.67194 199.238 4.95986 197.177 6.50537 196.147C8.56605 194.859 12.6874 194.215 19.3846 194.215C24.9227 194.215 29.1729 193.828 28.9153 193.313C28.6577 192.669 24.0211 190.093 18.6119 187.517C13.2026 184.813 9.08122 182.108 9.4676 181.335C9.85398 180.563 12.1722 180.047 14.6193 180.047C17.0664 180.047 22.2181 181.207 32.6502 185.199L27.8849 180.434C25.1803 177.729 22.9908 175.153 22.9908 174.638C22.9908 173.994 24.9227 173.994 27.1122 174.381C29.4304 174.767 32.3927 175.282 33.5518 175.669C35.4837 176.055 35.6125 175.797 34.5821 173.608C33.7235 171.891 33.7235 171.032 34.5821 171.032C35.2261 171.032 37.9307 172.706 44.8855 178.76L47.075 175.025C48.6205 172.706 50.166 171.547 51.5827 171.805C52.8707 172.062 53.901 173.479 53.901 174.896C53.901 176.57 55.0601 177.858 60.9846 179.532L55.8329 182.366C52.9995 184.04 51.0676 185.586 51.5827 185.843C52.2267 186.23 53.901 185.586 55.4465 184.555C57.1208 183.525 60.9846 182.623 64.2044 182.623C67.4242 182.623 70.9016 183.139 71.932 183.911C72.9623 184.555 73.6063 185.199 73.2199 185.457C72.8335 185.714 70.2577 187.002 67.553 188.419C64.7196 189.836 62.2725 191.768 62.0149 192.669C61.7574 193.828 63.1741 193.957 67.6818 193.313C71.1592 192.927 75.023 192.54 76.4397 192.669C77.8564 192.798 79.2731 193.313 79.6595 193.699C80.0459 194.086 79.1443 195.245 77.7276 196.275C76.3109 197.306 74.5078 198.336 73.8638 198.594C73.0911 198.851 75.6669 202.2 79.2731 206.321C83.0081 210.314 86.0991 214.049 86.0991 214.821C86.0991 215.594 85.0688 215.723 83.7809 215.337C82.6217 214.95 79.7883 214.306 73.8638 213.018L79.6595 222.549L75.7957 225.125C73.2199 226.842 71.932 227.186 71.932 226.155C71.932 224.867 71.6744 224.867 70.3865 226.026C69.0985 227.186 68.0682 227.057 65.4923 224.996C63.6892 223.579 61.6286 222.42 60.9846 222.549C60.2118 222.549 59.9543 227.701 60.3406 236.587C60.8558 248.823 61.371 251.141 63.9468 254.361C65.4923 256.293 68.0682 260.028 69.6137 262.475C72.1895 266.596 72.5759 266.725 73.3487 264.407C73.8638 262.99 74.8942 257.452 75.6669 252.171C76.5685 246.891 77.9852 241.739 78.758 240.838C79.9171 239.421 79.9171 238.906 78.3716 238.004C77.2125 237.36 76.8261 236.201 77.3412 234.913C77.9852 233.754 82.6217 230.792 87.6446 228.345C96.4025 224.352 98.4632 223.837 133.108 221.647L141.48 225.898C146.116 228.216 151.526 231.822 153.715 234.012C156.42 236.587 158.352 237.489 159.897 236.974C161.185 236.459 162.087 235.171 161.829 234.14C161.572 232.852 160.155 232.337 157.837 232.595C154.874 232.852 154.359 232.337 154.359 229.633C154.359 227.829 152.942 223.837 151.139 220.617C149.336 217.397 147.662 215.208 147.276 215.852C146.889 216.367 146.503 217.912 146.503 219.329C146.503 221.647 146.374 221.647 145.215 219.072C144.571 217.397 143.669 216.109 143.025 216.109C142.51 216.238 141.48 217.14 140.578 218.428C139.033 220.488 139.033 220.488 138.904 218.428C138.904 216.625 138.003 216.238 135.298 216.496C133.366 216.625 130.661 217.526 129.245 218.428C127.828 219.2 126.282 219.587 125.638 219.329C125.123 218.943 126.798 215.337 129.245 211.344C131.692 207.223 133.752 203.488 133.752 202.973C133.752 202.329 132.851 201.942 131.82 201.942C130.79 201.942 129.889 201.041 129.889 200.01C129.889 198.98 131.434 197.306 133.366 196.275C135.427 195.374 139.548 194.086 148.563 192.669L144.829 189.965C142.639 188.29 141.48 186.487 141.866 185.586C142.51 184.298 145.601 184.169 153.973 184.813C162.602 185.457 165.049 185.328 164.276 184.169C163.761 183.267 161.314 182.108 158.867 181.335C156.42 180.563 154.617 179.532 155.003 178.76C155.389 177.987 157.965 177.729 160.799 178.116C163.632 178.502 165.95 178.502 165.95 178.116C165.95 177.729 164.92 176.055 163.632 174.252C162.473 172.449 161.829 170.517 162.473 170.002C162.988 169.487 165.564 170.13 168.269 171.547C171.231 173.093 173.678 173.479 174.837 172.835C176.125 171.934 176.383 170.259 175.739 166.267C175.095 161.373 175.224 160.729 177.542 160.729C179.731 160.729 180.118 161.63 180.118 165.88C180.118 170.646 180.375 171.032 183.595 171.032C186.815 171.161 186.944 171.29 185.012 172.706C183.724 173.608 182.822 174.509 182.694 174.896C182.694 175.282 184.883 175.282 187.588 175.153C190.679 174.767 192.611 175.282 193.254 176.441C193.77 177.472 192.868 178.888 190.679 180.305C188.747 181.593 186.042 182.623 184.625 182.623C182.178 182.623 182.178 182.752 184.883 184.555C187.459 186.23 188.618 186.23 194.542 184.684C198.277 183.654 201.755 183.01 202.27 183.396C202.914 183.654 202.012 185.586 200.338 187.775C198.793 189.836 197.762 191.768 198.149 192.025C198.535 192.154 200.982 193.313 203.558 194.601C206.263 195.76 208.452 197.306 208.452 198.078C208.452 198.851 207.55 199.109 206.52 198.722C205.49 198.336 203.429 198.594 202.012 199.366C200.295 200.225 199.437 201.942 199.437 204.518C199.437 207.223 198.921 208.124 197.762 207.48C196.989 206.836 194.929 206.45 193.383 206.45C191.323 206.45 190.421 207.223 190.421 209.026C190.421 210.443 189.648 213.791 188.489 216.496C186.944 220.36 186.815 221.905 188.103 224.481C189.262 226.799 190.807 227.701 192.997 227.701C194.8 227.572 198.149 225.898 200.338 223.837C202.656 221.647 205.747 219.973 207.164 219.973C208.581 219.973 212.831 221.132 216.437 222.549C220.172 223.966 225.581 226.928 233.567 233.239L241.552 230.405C247.863 228.345 252.757 227.701 263.833 227.701C276.197 227.701 278.901 227.314 285.341 224.481C289.462 222.678 295.001 220.617 297.576 219.973C300.839 219.115 305.046 216.109 310.198 210.958C316.251 204.904 317.926 203.745 317.926 205.806C317.926 207.223 318.441 209.412 319.085 210.7C319.729 211.859 325.653 215.465 332.222 218.685C339.692 222.291 345.358 226.026 347.419 228.731C349.222 231.049 352.184 233.239 353.988 233.625C356.134 234.054 357.508 233.625 358.109 232.337C358.753 231.178 360.041 230.277 361.071 230.277C362.101 230.277 363.389 231.049 363.905 232.08C364.549 232.981 365.836 234.14 366.867 234.527C368.284 235.042 368.026 235.299 366.223 235.299C363.905 235.299 363.905 235.557 365.579 237.36C366.609 238.519 366.867 239.421 366.223 239.421C365.45 239.55 366.996 240.065 369.443 240.838C371.89 241.482 375.496 242.254 377.428 242.641C380.519 243.027 381.034 242.769 381.034 239.936C381.034 237.747 380.132 236.459 378.072 235.815C375.238 234.913 375.238 234.913 378.458 234.14C380.39 233.625 381.807 232.337 381.807 230.921C381.936 229.504 382.064 226.284 382.193 223.837C382.322 220.488 382.708 219.844 383.61 221.261C384.254 222.291 384.898 224.352 384.898 225.769C384.898 227.186 385.799 229.89 386.83 231.951C387.86 233.883 388.118 235.428 387.474 235.428C386.701 235.428 386.186 236.201 386.186 237.103C386.186 237.875 389.148 240.451 392.883 242.512C396.618 244.701 400.739 246.247 401.898 246.118C403.186 245.86 404.217 244.573 404.217 243.156C404.217 241.224 405.505 240.194 408.982 239.292C411.687 238.648 416.066 238.004 418.641 238.004C421.861 238.004 423.793 237.36 424.179 236.072C424.566 234.784 426.627 234.14 430.233 234.14C434.612 234.012 436.286 234.656 437.831 236.974C439.763 239.678 441.309 240.065 453.287 240.709C460.628 241.224 468.355 241.997 470.545 242.641C473.765 243.413 474.151 243.285 473.121 241.739C472.348 240.709 471.833 239.034 471.961 238.004C471.961 236.974 472.734 234.527 473.507 232.595C474.409 230.534 475.052 227.572 475.052 225.769C475.052 223.966 475.568 222.291 476.34 221.905C477.113 221.519 477.628 223.322 477.628 226.155C477.5 229.246 478.53 232.208 483.424 238.39L480.462 237.618C478.401 236.974 477.628 237.231 477.628 238.648C477.628 240.065 479.174 240.58 483.682 240.58C487.159 240.58 491.28 240.194 493.083 239.807C495.015 239.292 495.659 238.648 494.758 238.133C493.856 237.747 495.53 236.33 499.008 234.784C502.099 233.368 504.675 231.822 504.675 231.307C504.675 230.663 503.387 230.663 501.713 231.049C500.167 231.564 498.106 232.595 497.205 233.368C495.917 234.527 495.788 234.14 496.561 231.693C497.205 230.019 498.364 228.216 499.137 227.572C500.167 226.928 502.485 226.928 504.675 227.701C506.735 228.473 508.539 228.602 508.539 228.087C508.667 227.443 506.864 226.284 504.675 225.511C502.614 224.61 501.069 223.322 501.455 222.549C501.884 221.69 503.258 221.69 505.576 222.549C507.637 223.322 509.955 223.579 510.728 223.193C511.63 222.807 512.402 220.488 512.402 218.041C512.402 214.95 513.046 213.534 514.334 213.534C515.365 213.534 517.168 215.594 518.198 218.041C519.228 220.488 520.645 222.549 521.418 222.549C522.062 222.549 522.706 223.451 522.706 224.481C522.706 225.511 523.607 226.284 524.895 226.155C526.054 225.898 528.501 223.708 530.176 221.261C531.85 218.814 533.653 216.625 534.426 216.496C535.07 216.238 535.843 218.041 535.971 220.36C536.229 222.549 536.873 225.511 537.259 226.799C537.903 228.473 537.517 228.989 535.585 228.989C534.168 228.989 533.009 229.504 533.009 230.277C533.009 231.049 534.297 231.307 535.843 231.049C537.517 230.792 540.35 231.178 542.411 232.08C544.343 232.852 545.888 233.883 545.888 234.527C545.888 235.042 543.956 235.428 541.638 235.557C538.29 235.557 538.032 235.815 540.093 236.587C541.509 237.231 543.57 237.36 544.6 236.845C545.76 236.459 546.146 236.587 545.631 237.36C545.116 238.133 546.146 239.421 547.82 240.322C549.623 241.095 552.586 242.641 554.517 243.542C556.321 244.315 562.374 245.088 567.912 245.088C573.45 245.088 577.571 245.474 577.056 245.989C576.541 246.504 572.935 248.05 569.071 249.338C565.207 250.755 561.859 252.429 561.601 253.33C561.472 254.103 562.116 254.747 562.889 254.747C563.791 254.747 571.518 252.171 580.018 248.951C588.519 245.732 595.602 243.156 595.731 243.156C595.989 243.156 595.731 243.8 595.087 244.701C594.443 245.86 594.958 246.118 596.761 245.603C598.307 245.088 600.11 245.732 601.269 246.891C602.299 247.921 604.231 251.012 605.391 253.717C607.58 258.482 607.966 258.611 614.148 258.611C617.626 258.611 620.588 258.225 620.588 257.709C620.717 257.065 619.429 255.52 618.012 254.103C616.595 252.686 615.307 250.497 615.436 249.338C615.436 248.05 616.595 246.762 618.012 246.376C619.429 245.989 620.846 246.247 621.232 247.02C621.618 247.792 623.164 248.307 624.709 248.307C626.384 248.307 628.444 248.951 629.346 249.853C630.763 251.27 631.278 251.141 632.308 249.338C632.952 248.05 633.982 247.02 634.755 247.02C635.399 247.02 636.558 248.308 637.202 249.982C638.104 252.042 639.263 252.686 641.452 252.3C642.998 252.042 645.96 252.944 648.021 254.232C649.953 255.649 651.756 257.967 652.142 259.641C652.529 261.187 653.301 262.475 654.074 262.475C654.718 262.475 656.521 260.156 657.938 257.323C659.355 254.49 661.029 252.171 661.802 252.171C662.446 252.171 663.991 253.588 665.021 255.391C666.052 257.194 666.953 260.543 666.953 262.861C666.953 266.982 666.953 266.982 673.264 266.982C679.189 266.982 679.833 267.369 685.757 273.68C689.234 277.415 693.098 280.506 694.257 280.506C695.545 280.506 696.576 280.377 696.576 280.248C696.576 279.99 694.644 273.551 692.068 265.694C689.621 257.838 687.56 251.012 687.56 250.239C687.56 249.467 688.462 250.368 689.492 252.171C690.522 253.974 693.356 259.641 695.932 264.793C698.379 269.816 700.439 274.581 700.439 275.354C700.439 276.127 701.083 276.642 701.727 276.642C702.371 276.642 703.015 274.968 703.015 272.778C703.015 270.589 702.371 265.823 701.599 262.217C700.697 257.581 700.697 255.005 701.599 254.103C702.5 253.202 703.53 254.876 704.69 259.255C705.72 262.861 707.137 265.823 708.038 266.081C708.811 266.21 709.712 263.891 710.099 260.285C710.485 256.808 711.644 253.202 712.803 252.171C714.735 250.497 714.864 250.497 714.607 252.171C714.478 253.202 714.349 255.391 714.478 257.065C714.478 258.611 714.993 259.899 715.508 259.899C716.152 259.899 717.311 257.323 718.084 254.103C718.985 250.883 720.145 248.307 720.66 248.307C721.304 248.307 721.561 249.853 721.304 251.527C721.175 253.846 721.819 255.005 723.88 255.906C725.554 256.55 727.228 256.808 727.743 256.55C728.387 256.293 728.387 255.005 728.001 253.846C727.357 252.042 727.743 251.785 729.289 252.558C730.577 253.073 731.736 252.815 732.251 251.914C732.637 251.012 731.994 249.595 730.577 248.694C728.259 247.277 728.259 247.148 731.35 246.504C733.153 246.118 735.085 246.504 735.6 247.406C736.372 248.565 736.888 248.436 737.403 247.02C737.918 245.474 738.304 245.603 739.85 247.664C740.88 249.08 741.395 249.338 741.009 248.307C740.623 247.277 740.88 244.83 741.653 242.898C742.426 240.58 743.842 239.292 745.517 239.292C747.191 239.292 747.706 238.777 747.062 237.875C746.547 237.103 747.062 235.943 748.093 235.299C749.123 234.784 751.312 234.527 752.858 234.784C755.434 235.299 755.82 234.913 755.82 231.564C755.82 229.375 756.464 227.701 757.366 227.701C758.267 227.701 760.07 228.345 761.358 229.246C762.646 230.148 763.805 232.208 763.934 233.754C764.192 236.201 765.222 236.845 769.987 237.489C773.207 237.875 776.813 238.519 777.972 238.777C779.26 239.034 780.291 238.777 780.291 238.004C780.291 237.231 781.707 236.716 783.511 236.716C785.958 236.716 786.859 237.489 788.018 243.156L790.594 240.322C792.655 237.875 793.299 234.656 793.943 221.905C794.458 213.405 794.458 201.427 793.943 195.245C793.299 185.972 792.784 184.04 791.238 184.555C789.95 184.942 788.533 183.525 786.859 180.434C785.571 177.729 782.867 174.123 780.935 172.32C777.972 169.615 777.586 169.486 778.616 171.676C779.389 173.093 780.935 175.153 782.094 176.184C783.253 177.214 784.283 178.502 784.155 179.146C784.155 179.661 781.965 179.79 779.26 179.404C776.685 179.017 773.594 178.631 772.563 178.631C771.533 178.631 769.215 178.76 767.411 178.888C765.608 179.017 763.033 178.631 761.745 177.987C759.298 176.828 759.169 177.214 760.07 186.23C760.714 192.154 760.457 195.503 759.684 195.503C759.04 195.503 756.979 193.313 751.956 185.843V190.093C751.956 192.283 751.57 194.215 750.926 194.215C750.411 194.086 749.381 193.184 748.479 191.896C747.062 189.965 746.933 190.093 746.805 193.313C746.805 195.245 746.547 197.692 746.161 198.722C745.774 199.753 744.744 200.654 743.842 200.654C743.07 200.654 740.88 199.366 736.115 194.859L737.016 199.753C737.532 202.973 737.274 204.389 736.372 204.26C735.471 204.003 734.054 201.813 733.153 199.366C732.251 196.919 731.478 195.76 731.478 196.791C731.478 198.336 731.092 198.465 729.418 197.177C727.872 195.76 727.357 196.018 726.713 198.465C726.327 200.01 725.167 203.23 724.137 205.548C722.978 208.253 721.69 209.412 720.402 209.026C719.372 208.639 718.47 208.897 718.47 209.67C718.47 210.443 717.182 210.829 715.637 210.7C713.834 210.443 712.546 209.283 712.288 207.738C712.031 206.321 711.258 204.647 710.614 203.874C709.841 203.101 709.455 204.904 709.455 208.768C709.455 212.374 708.94 214.564 708.167 214.177C707.523 213.791 706.879 212.374 706.879 210.958C706.879 209.541 706.235 208.382 705.591 208.382C704.947 208.382 704.303 209.799 704.303 211.602C704.303 213.405 703.144 215.852 701.856 217.14C700.568 218.299 697.864 220.617 696.06 222.291C694.257 223.837 691.81 224.867 690.78 224.481C689.492 224.052 688.419 225.125 687.56 227.701C686.53 230.663 685.499 231.564 683.052 231.564C681.249 231.564 678.802 232.595 677.514 233.883C676.355 235.171 674.681 237.36 674.037 238.648C673.135 240.322 671.976 240.709 670.173 240.065C667.984 239.292 667.726 238.39 668.37 233.754C668.756 230.792 671.203 223.837 673.779 218.428C676.355 212.89 680.734 205.935 683.31 202.973C686.015 200.01 692.583 194.343 697.864 190.48C703.144 186.487 713.447 180.047 720.789 176.184C732.251 170.002 734.054 168.714 733.925 165.88C733.925 164.077 733.153 161.244 732.251 159.569C731.478 157.766 730.062 156.221 729.418 155.963C728.645 155.835 728.13 156.865 728.259 158.539C728.259 160.085 728.13 161.759 727.872 162.403C727.615 162.918 726.584 162.274 725.554 161.115C723.88 158.926 723.751 159.054 724.266 161.759C724.781 163.691 724.266 164.592 722.978 164.592C721.948 164.592 720.789 164.077 720.402 163.304C720.016 162.532 718.342 162.017 716.538 162.017C714.735 162.017 713.061 161.115 712.675 160.085C712.288 159.054 711.387 158.153 710.743 158.153C709.97 158.153 709.455 159.183 709.455 160.471C709.455 162.274 708.94 162.017 704.303 156.221V160.729C704.303 163.176 703.917 166.395 703.53 167.812C703.144 169.486 701.727 170.388 699.409 170.517C696.704 170.517 695.416 169.615 693.613 166.267C692.454 163.948 690.78 162.017 690.136 162.017C689.363 162.017 688.848 164.592 688.848 167.812C688.848 171.032 688.204 174.767 687.56 176.184C686.53 178.116 685.757 178.502 684.34 177.472C682.924 176.57 682.022 176.828 680.734 178.631C679.189 180.949 679.06 180.949 676.87 177.987C675.711 176.313 674.037 174.896 673.393 174.896C672.62 174.896 672.105 177.987 672.105 181.722C672.105 186.487 671.719 187.904 670.817 186.487C670.173 185.457 669.529 183.01 669.529 181.078C669.529 178.502 669.014 177.6 667.597 178.116C666.567 178.502 665.408 177.858 665.021 176.828C664.635 175.797 663.991 175.153 663.347 175.411C662.832 175.669 662.059 178.76 661.415 182.108C660.9 185.586 659.741 190.608 658.839 193.313C658.067 195.889 656.908 198.078 656.264 198.078C655.748 198.078 655.362 196.662 655.362 194.859C655.362 192.54 654.847 191.768 653.43 192.283C652.271 192.669 650.725 191.51 647.763 185.843L647.634 190.737C647.634 193.442 647.119 195.245 646.346 194.859C645.574 194.472 645.059 192.798 645.059 190.995C645.059 189.192 644.415 187.775 643.771 187.775C642.998 187.775 642.225 189.063 641.839 190.737C641.452 192.283 641.195 195.116 641.195 197.177C641.195 199.109 640.551 200.397 639.907 200.01C639.134 199.624 638.619 197.95 638.619 196.147C638.619 194.343 637.975 192.669 637.331 192.283C636.558 191.896 635.657 193.571 634.369 200.01L629.99 190.995L625.869 196.791C623.55 200.01 621.232 203.488 620.588 204.518C619.944 205.548 619.043 205.935 618.399 205.42C617.883 204.904 618.012 201.427 618.914 197.692C619.686 193.957 621.747 187.517 623.293 183.267C624.967 179.017 627.929 173.608 629.861 171.418C631.793 169.1 633.21 166.653 632.823 165.88C632.437 165.108 630.763 164.85 628.96 165.236C627.156 165.623 625.482 165.365 625.096 164.592C624.709 163.82 625.869 163.047 627.672 162.661C629.99 162.145 631.278 160.729 632.308 157.251C633.21 154.547 636.172 149.008 639.134 144.887C642.225 140.379 647.248 135.485 651.498 132.652C655.362 130.076 665.279 124.667 673.393 120.545C681.507 116.553 691.682 111.916 695.932 110.5C700.182 109.083 705.205 107.924 707.137 107.924C709.197 107.924 717.698 111.53 741.524 124.023L744.358 121.447C745.903 120.03 748.221 116.295 749.509 113.075C750.926 109.856 751.699 107.022 751.184 106.636C750.797 106.249 749.123 107.666 744.486 113.719L743.714 108.954C743.327 106.249 742.297 104.318 741.653 104.704C741.009 105.09 740.623 106.765 741.009 108.568C741.524 111.015 741.138 111.787 739.335 111.787C737.403 111.787 737.274 111.015 738.047 105.09C738.433 101.355 739.206 97.2339 739.592 96.0748C739.979 94.7869 739.721 93.7565 739.077 93.7565C738.433 93.7565 737.532 95.1732 737.145 96.9763C736.759 98.7794 735.085 100.711 733.281 101.484C731.478 102.128 729.675 103.545 729.16 104.446C728.559 105.477 728.001 104.919 727.486 102.772C726.971 100.711 725.94 99.681 724.524 99.9386C723.364 100.067 722.334 99.9386 722.334 99.5522C722.334 99.1658 722.978 97.4915 723.622 95.6884C724.652 93.1126 724.524 92.4686 722.978 92.4686C721.304 92.4686 721.304 91.8246 723.107 87.0593C724.137 83.9683 725.554 81.2636 726.198 80.8773C726.713 80.4909 727.357 78.1726 727.486 75.7256C727.615 73.2797 727.615 70.5764 727.615 69.9308V69.9299C727.486 69.2859 724.781 71.6042 715.894 81.5212V76.7559C715.894 74.0513 715.637 70.9603 715.251 69.9299C714.864 68.8996 713.705 68.2556 712.675 68.642C711.644 69.0284 710.743 68.8996 710.743 68.3844C710.872 67.7404 711.644 65.9373 712.675 64.1342C713.705 62.3312 714.478 59.6265 714.607 58.081C714.607 56.4067 713.705 54.2172 712.675 53.1869C711.644 52.1565 708.94 50.9974 706.879 50.611C704.69 50.2247 703.273 49.3231 703.659 48.6791C704.046 48.0352 706.75 47.3912 709.712 47.3912C713.319 47.2624 717.054 46.2321 720.402 44.1714C723.236 42.3683 726.456 40.9516 727.486 40.9516C728.516 40.9516 731.092 41.8531 733.281 43.0123C735.342 44.0426 740.365 45.5881 744.229 46.3609C748.093 47.0048 753.888 48.9367 757.108 50.611C760.328 52.2853 766.896 57.1795 771.919 61.5584C779.389 68.1268 781.192 69.1572 782.609 67.7404C784.026 66.3237 783.897 65.1646 781.707 60.6568C779.132 55.3764 779.132 54.8612 781.063 49.0655C782.094 45.5881 784.541 41.2092 786.473 39.2773C788.405 37.2166 792.14 34.512 794.715 33.0953C797.42 31.8073 800.511 30.6482 801.542 30.6482C802.572 30.6482 803.473 29.8754 803.473 29.1027C803.473 28.2011 805.405 25.1101 807.852 22.2767C810.299 19.4433 813.519 13.6476 815.065 9.39744Z" fill="#9EB465"/>
<path fill-rule="evenodd" clip-rule="evenodd" d="M779.003 70.5737C779.776 70.5737 780.548 71.4753 780.935 72.5056C781.321 73.536 781.579 76.4982 781.579 78.9452C781.579 81.3923 780.935 83.453 780.291 83.453C779.647 83.453 778.359 81.9075 777.586 79.8468C776.942 77.9149 776.556 75.0815 777.071 73.4072C777.457 71.8617 778.359 70.5737 779.003 70.5737ZM867.483 72.892C867.741 74.4375 867.226 76.8846 866.582 78.3013C865.938 79.718 864.907 80.7483 864.521 80.4908C864.135 80.362 864.521 77.9149 865.423 75.0815C866.839 71.0889 867.226 70.5737 867.483 72.7632V72.892ZM782.995 91.3093C783.639 91.3093 785.958 93.37 788.018 95.8171C790.079 98.2641 791.882 101.226 791.882 102.257C791.882 103.416 790.723 104.189 788.92 104.189C787.374 104.189 784.541 102.514 782.48 100.582C780.548 98.6505 779.003 96.7186 779.003 96.0746C779.003 95.5595 780.033 95.5595 781.192 96.0746C782.995 96.9762 783.253 96.5898 782.609 94.1428C782.223 92.5972 782.351 91.3093 782.995 91.3093ZM770.889 111.916C771.79 111.916 772.821 112.56 773.207 113.204C773.594 113.848 773.207 115.651 772.563 117.068C771.919 118.485 770.503 119.386 769.601 119.128C768.828 119 767.411 117.712 766.768 116.553C765.866 115.007 765.995 114.106 767.411 113.204C768.442 112.56 770.116 111.916 770.889 111.916ZM838.505 113.204C839.02 113.204 840.437 114.492 841.467 116.037C842.498 117.712 843.399 119.772 843.399 120.545C843.399 121.576 841.725 122.22 839.535 122.22C836.187 122.22 835.672 121.704 835.414 118.613C835.285 116.553 835.672 114.492 836.315 114.106C836.959 113.59 837.861 113.204 838.505 113.204ZM887.189 126.083C887.833 126.083 888.863 127.371 889.249 128.917C889.764 130.591 889.764 132.909 889.249 134.068C888.734 135.614 887.189 136.387 884.613 136.387C882.552 136.387 880.749 136 880.749 135.356C880.749 134.841 881.908 132.523 883.325 130.205C884.741 128.015 886.416 126.083 887.189 126.083ZM870.961 131.235C871.733 131.106 873.279 132.008 874.309 133.167C875.984 135.099 875.984 135.485 874.309 136.515C873.279 137.159 870.317 138.19 867.87 138.963C865.423 139.606 862.589 140.25 861.688 140.25C860.915 140.25 860.271 139.22 860.528 137.932C860.657 136.773 862.074 135.614 863.62 135.356C865.165 135.099 867.097 134.068 867.998 133.038C868.771 132.008 870.059 131.235 870.961 131.235ZM725.296 135.356C726.713 135.614 728.13 136.515 728.387 137.288C728.645 138.319 727.486 138.963 725.554 138.963C723.493 138.963 722.334 138.319 722.463 136.902C722.463 135.614 723.493 135.099 725.296 135.356ZM853.059 136.387C854.862 136.387 856.665 137.159 857.051 137.932C857.437 138.834 857.309 140.122 856.794 140.637C856.15 141.281 854.346 141.41 852.672 141.023C851.127 140.637 849.839 139.349 849.839 138.319C849.839 137.159 850.998 136.387 853.059 136.387ZM759.942 140.379C762.26 141.023 764.964 142.311 765.866 143.213C766.768 144.114 767.54 145.145 767.411 145.66C767.411 146.304 766.381 146.69 765.093 146.69C763.934 146.69 760.972 145.531 758.654 144.114C756.464 142.698 754.79 141.023 755.176 140.379C755.434 139.607 757.366 139.607 759.942 140.379ZM880.105 147.334L880.363 151.455C880.62 153.774 880.105 156.865 879.461 158.281C878.817 159.698 877.529 160.6 876.885 160.213C876.241 159.827 875.597 158.281 875.468 156.607C875.34 155.062 876.37 152.228 877.787 150.554L880.105 147.334ZM863.362 151.842C864.392 151.842 866.067 152.099 867.226 152.486C868.256 152.743 869.158 154.289 869.158 155.706C869.158 157.766 868.514 158.024 866.195 157.509C864.65 156.993 862.589 156.092 861.688 155.577C860.786 154.933 860.4 153.774 860.786 153.13C861.172 152.357 862.332 151.842 863.362 151.842ZM789.564 161.115C791.496 161.372 792.655 162.66 793.17 165.365C793.556 167.426 793.685 170.259 793.17 171.547C792.526 173.608 791.753 173.221 786.73 168.714C781.579 164.077 781.192 163.433 783.768 163.433C785.314 163.433 786.73 162.789 786.73 162.016C786.859 161.244 788.147 160.857 789.564 161.115ZM177.542 231.693C178.186 231.693 179.087 232.723 179.474 233.883C179.86 235.171 179.86 237.231 179.474 238.39C178.83 240.451 180.118 240.709 194.285 240.709C203.3 240.709 209.998 241.224 210.384 241.997C210.642 242.641 208.194 244.315 204.846 245.732C201.497 247.019 196.99 248.565 194.929 249.08C192.739 249.595 187.974 251.398 184.239 253.073C178.057 255.906 177.542 256.421 178.186 259.641C178.959 263.118 178.83 263.119 176.898 260.671C175.481 258.868 174.837 255.391 174.837 248.694C174.837 243.542 175.481 239.034 176.254 238.777C177.113 238.347 177.113 237.489 176.254 236.201C175.481 235.042 175.224 233.625 175.61 232.981C175.996 232.208 176.898 231.693 177.542 231.693ZM324.88 236.201C327.07 236.458 333.252 237.102 338.661 237.489C344.199 238.004 348.707 238.906 348.707 239.549C348.707 240.193 347.419 240.966 345.874 241.353C344.328 241.61 338.79 241.997 333.638 241.997C328.487 241.997 323.979 241.353 323.721 240.709C323.335 239.936 322.176 240.322 321.145 241.61C319.471 243.8 318.698 243.8 304.402 241.353C296.289 239.936 289.463 238.262 289.463 237.746C289.463 237.231 295.516 237.231 302.728 237.618C311.228 238.133 316.895 238.004 318.441 237.102C319.858 236.33 322.691 235.943 324.88 236.201ZM164.019 238.39C168.784 238.133 169.686 238.519 169.428 240.193C169.299 241.481 168.398 242.64 167.496 242.769C166.466 243.113 166.251 242.598 166.852 241.224C167.625 239.549 167.367 239.292 165.435 240.193C164.147 240.837 163.375 242.125 163.503 243.284C163.761 244.315 165.307 245.732 166.852 246.504C168.913 247.406 169.814 249.209 170.458 254.232C170.845 257.709 170.973 260.671 170.845 260.8C170.587 260.929 168.913 261.444 167.238 261.959C164.534 262.603 163.761 262.217 162.988 259.77C162.473 258.096 162.087 254.103 162.087 251.012C162.087 247.792 161.185 244.057 160.155 242.641C159.125 241.224 158.223 239.678 158.223 239.421C158.223 239.034 160.799 238.648 164.019 238.39ZM84.94 240.709C85.584 240.709 86.0992 241.481 86.0992 242.641C86.0992 243.671 87.0007 244.444 88.2886 244.315C89.5766 244.057 92.0236 244.959 93.8267 246.247C95.501 247.406 97.8193 248.179 98.9784 247.792C100.009 247.406 102.198 248.179 103.744 249.595C105.418 251.141 106.964 251.656 107.35 251.012C107.608 250.239 108.509 249.982 109.282 250.368C109.926 250.626 110.57 253.588 110.57 256.808C110.57 259.899 110.312 262.603 110.183 262.603C110.055 262.603 107.865 261.702 105.418 260.543C101.683 258.74 99.88 258.611 95.7586 259.77C92.9252 260.543 90.0917 260.8 89.5766 260.543C89.0614 260.285 88.675 260.543 88.675 261.315C88.675 261.959 87.2583 262.603 85.7128 262.603C84.1673 262.603 81.7202 261.831 80.4323 260.929C78.3716 259.641 78.114 258.353 78.8868 252.558C79.2732 248.823 80.5611 244.701 81.7202 243.284C82.8794 241.868 84.2961 240.709 84.94 240.709ZM157.965 248.694C159.253 248.951 160.284 250.497 160.412 252.558C160.541 254.489 160.412 256.164 160.155 256.164C159.768 256.164 158.352 254.876 156.935 253.201C155.647 251.656 154.874 249.853 155.261 249.338C155.647 248.694 156.806 248.436 157.965 248.694ZM150.495 249.724C151.139 249.724 152.041 250.497 152.427 251.656C152.685 252.686 153.071 255.005 153.071 256.808C153.071 258.482 152.427 260.027 151.783 260.027C151.011 260.027 150.109 261.187 149.851 262.603C149.465 264.02 148.564 265.179 147.92 265.179C147.147 265.179 146.503 263.505 146.503 261.573C146.503 259.641 147.147 256.164 147.92 253.845C148.692 251.527 149.851 249.724 150.495 249.724ZM114.434 251.012C115.077 251.012 115.721 252.171 115.721 253.588C115.721 255.005 116.494 256.421 117.653 256.808C118.684 257.065 120.1 257.065 120.873 256.808C121.517 256.421 122.161 255.52 122.161 254.876C122.161 254.103 121.26 253.845 120.229 254.232C119.07 254.618 118.297 254.103 118.297 252.944C118.297 251.785 118.941 251.012 119.843 251.012C120.744 251.012 122.161 251.398 123.191 251.914C124.093 252.429 124.737 253.974 124.479 255.391C124.222 256.808 122.419 258.353 120.229 258.997C118.04 259.641 115.593 259.899 114.691 259.512C113.79 258.997 113.146 256.936 113.146 254.876C113.146 252.686 113.661 251.012 114.434 251.012ZM362.617 251.012C363.132 251.012 364.42 251.527 365.579 252.3C367.124 253.33 367.124 253.459 365.193 253.588C363.905 253.588 363.003 254.103 363.003 254.876C363.003 255.52 364.162 256.164 365.579 256.164C366.996 256.164 368.412 256.679 368.799 257.452C369.185 258.224 369.958 258.224 370.988 257.452C372.019 256.808 373.306 256.679 374.594 257.452C375.625 258.096 380.776 258.611 386.186 258.611C391.466 258.611 398.163 258.096 400.997 257.452C403.83 256.936 418.255 256.164 433.195 255.906C454.059 255.649 460.241 255.906 460.499 257.065C460.628 257.967 460.757 260.929 460.757 263.505C460.757 266.21 461.143 267.884 461.787 267.24C462.302 266.725 463.075 263.762 463.461 260.929C463.976 255.777 464.105 255.649 469.514 255.262C473.249 255.005 474.924 255.391 474.924 256.421C474.924 257.709 475.31 257.709 476.856 256.421C478.015 255.52 479.045 255.262 479.303 255.777C479.56 256.292 480.848 259.899 484.712 270.975L484.97 262.861C485.356 254.876 485.356 254.876 489.22 254.489C491.409 254.361 493.47 254.618 493.727 255.133C494.114 255.649 495.015 255.52 495.917 254.876C496.818 254.232 498.75 253.974 500.167 254.361C501.97 254.876 502.614 255.906 502.357 258.096C502.099 260.156 503.258 262.346 505.576 264.535C507.508 266.338 508.796 267.884 508.539 268.141C508.152 268.399 498.235 271.104 486.644 274.066C474.924 277.157 463.848 279.862 462.173 280.248C459.855 280.634 456.378 279.218 450.84 275.483C444.4 271.361 441.566 270.331 436.672 270.202C432.036 270.202 429.975 270.846 428.043 273.036C426.627 274.452 424.051 276.255 422.505 276.899C420.316 277.672 417.611 277.157 412.202 274.71C408.08 272.907 402.156 270.846 399.065 270.202C393.784 269.043 393.012 269.172 391.337 271.619C389.534 273.937 388.633 274.066 384.254 273.164C380.776 272.392 377.943 272.52 375.882 273.422C374.079 274.195 371.632 275.869 370.344 277.028C369.056 278.316 367.511 279.346 366.867 279.346C366.094 279.346 365.193 278.702 364.935 278.058C364.549 277.286 362.488 276.771 360.427 276.771C357.594 276.771 356.306 275.998 355.919 274.195C355.404 272.263 354.116 271.619 351.412 271.619C348.063 271.619 347.29 270.975 346.518 267.626C345.616 264.149 345.101 263.762 340.464 263.762C335.57 263.891 335.184 263.634 334.926 260.027C334.669 256.808 335.055 256.164 337.502 256.035C339.048 256.035 344.715 255.649 350.124 255.262C356.435 254.876 360.041 253.974 360.685 252.815C361.329 251.785 362.23 251.012 362.617 251.012ZM721.175 257.452C721.69 257.452 722.334 258.611 722.334 260.027C722.334 261.444 722.849 262.603 723.622 262.603C724.266 262.603 724.91 263.247 724.91 264.149C724.91 265.05 723.751 266.853 722.334 268.013C720.917 269.301 719.114 270.331 718.47 270.331C717.698 270.331 717.44 269.301 717.955 268.013C718.47 266.853 719.114 263.891 719.372 261.573C719.63 259.255 720.531 257.452 721.175 257.452ZM120.229 262.603C122.676 262.603 124.995 263.119 125.381 263.891C125.638 264.535 125.252 266.338 124.351 267.755C123.449 269.172 122.29 270.331 121.775 270.331C121.26 270.331 119.714 269.172 118.297 267.755C116.881 266.338 115.721 264.535 115.721 263.891C115.721 263.119 117.653 262.603 120.229 262.603ZM67.1667 277.414C68.7122 277.93 71.0305 279.475 72.1896 281.021C73.6063 282.695 74.5079 285.786 74.5079 288.619C74.5079 291.71 73.8639 293.514 72.8335 293.385C71.932 293.385 68.4546 291.582 65.106 289.263C61.6286 286.945 58.924 284.627 58.924 284.112C58.924 283.597 59.6967 282.695 60.7271 282.18C61.6286 281.665 62.7877 280.248 63.3029 278.96C64.0757 277.157 65.106 276.771 67.1667 277.414ZM399.065 285.142C407.823 285.528 415.937 285.915 417.096 285.915C418.126 285.915 425.725 285.657 434.097 285.142C449.165 284.498 449.294 284.498 449.165 287.331C449.165 290.294 449.036 290.294 433.453 289.779C424.437 289.521 416.323 289.907 414.52 290.68C411.687 291.839 411.687 292.097 413.876 292.097C415.293 292.097 417.611 292.998 419.028 294.029C421.346 295.703 420.96 295.832 415.164 295.445C411.558 295.317 407.565 294.673 406.149 294.158C404.732 293.642 402.414 292.741 400.997 292.226C399.58 291.582 395.201 290.68 391.337 290.294C387.345 289.779 383.095 288.748 381.678 288.104C379.488 286.945 379.36 286.559 381.034 285.657C382.064 285.013 390.178 284.756 399.065 285.142ZM522.577 287.203C527.085 287.074 530.562 287.331 530.305 287.589C529.918 287.975 522.191 289.135 513.046 290.165C503.773 291.324 493.727 292.226 490.508 292.226C487.417 292.226 485.356 291.839 486 291.582C486.644 291.195 493.341 290.036 500.811 289.135C508.152 288.104 517.94 287.331 522.577 287.203ZM429.331 292.741C429.975 292.87 430.619 293.771 430.619 294.544C430.619 295.317 430.362 297.506 430.233 299.309C430.104 301.112 429.074 302.529 428.043 302.529C426.884 302.529 425.467 300.597 424.695 298.279C424.051 295.961 423.278 294.029 423.149 293.9C423.02 293.771 424.051 293.385 425.467 293.127C426.884 292.741 428.558 292.612 429.331 292.741ZM464.62 299.052C465.779 299.18 466.681 300.34 466.939 301.499C467.196 303.302 466.295 303.817 462.817 303.817C460.241 303.817 457.923 303.173 457.666 302.529C457.279 301.756 458.31 300.597 459.855 299.953C461.401 299.309 463.59 298.923 464.62 299.052ZM547.434 300.211C596.761 300.468 623.937 300.984 624.452 301.885C624.709 302.529 621.747 303.559 617.368 304.203C613.118 304.847 605.519 305.362 600.625 305.491C595.602 305.491 587.488 305.105 582.594 304.461C574.609 303.559 572.806 303.688 567.139 306.264C563.533 307.809 558.381 310.257 555.548 311.673C552.457 313.348 549.495 313.992 548.464 313.348C547.305 312.832 539.578 312.188 531.077 312.06C520.259 311.802 515.107 312.06 513.948 313.219C512.531 314.378 511.758 314.249 510.084 312.446C507.895 310.257 508.023 310.128 510.728 310.257C512.274 310.257 513.69 309.613 513.69 308.969C513.69 308.196 512.66 307.681 511.372 307.552C510.084 307.552 508.023 308.711 506.607 310.257C505.19 311.673 502.614 312.832 501.069 312.832C499.008 312.832 498.235 312.06 498.235 310.257C498.235 308.196 497.334 307.681 494.371 307.681C492.182 307.681 490.508 307.037 490.508 306.393C490.508 305.62 491.023 305.105 491.796 305.105C492.44 305.105 493.083 304.461 493.083 303.817C493.083 303.044 488.705 302.658 482.136 302.787C474.151 303.044 471.189 302.658 471.06 301.499C471.06 300.34 487.803 300.082 547.434 300.211ZM630.505 299.953C633.596 299.953 634.498 300.34 634.111 301.885C633.682 303.173 634.326 303.817 636.043 303.817C637.46 303.817 638.877 302.915 639.263 301.885C639.778 300.211 645.445 299.953 680.09 299.953C706.106 299.953 719.63 300.34 718.47 301.241C717.311 301.885 716.538 303.688 716.538 305.362C716.538 308.067 715.766 308.325 706.235 309.226C700.568 309.741 691.553 310.772 686.272 311.416C680.863 312.188 662.961 313.09 646.347 313.476C629.604 313.863 613.891 314.507 611.186 314.764C607.709 315.151 606.163 314.893 605.777 313.476C605.262 311.931 605.906 311.673 608.61 312.188C611.057 312.704 612.474 312.317 613.118 310.901C613.762 309.741 615.05 309.226 616.724 309.613C618.141 309.87 619.171 309.741 619.171 309.226C619.171 308.711 618.141 307.552 616.982 306.779C614.921 305.362 615.05 305.105 618.012 305.105C619.687 305.105 621.747 305.62 622.52 306.264C623.164 307.037 625.096 307.294 626.641 306.908C628.187 306.65 629.604 305.62 629.604 304.718C629.604 303.817 628.831 302.4 627.929 301.499C626.641 300.211 627.156 299.824 630.505 299.953ZM159.511 310.385C161.958 310.385 167.11 310.901 171.102 311.416C177.284 312.317 176.512 312.446 164.663 312.575C155.518 312.704 151.655 312.317 153.071 311.544C154.102 310.772 156.935 310.257 159.511 310.385ZM69.8713 313.219C71.6744 313.992 72.8335 315.022 72.7048 315.408C72.4472 315.666 70.3865 316.696 68.197 317.598C65.4924 318.757 64.0757 318.757 64.0757 317.855C63.9469 317.083 64.5908 315.408 65.3636 313.992C66.5227 311.931 67.1667 311.802 69.8713 313.219ZM154.23 323.651C168.14 324.295 180.118 324.939 181.019 325.196C181.921 325.454 182.178 326.356 181.663 327.128C181.019 328.159 175.996 328.416 164.663 327.772C155.776 327.257 143.669 326.613 137.874 326.356C130.404 325.84 127.57 325.196 128.086 324.166C128.729 323.136 135.942 323.007 154.23 323.651ZM224.551 324.553C240.135 324.424 255.719 324.681 259.325 325.196C263.833 325.712 265.121 326.356 263.833 327.128C262.674 327.644 246.059 328.159 226.741 328.288C204.588 328.288 191.451 327.772 191.065 327C190.679 326.227 191.709 325.454 193.255 325.196C194.8 324.939 208.967 324.681 224.551 324.553ZM94.4707 325.969C98.3345 325.84 102.198 326.098 103.1 326.613C104.13 327.128 102.713 328.03 99.6224 328.931C96.5314 329.833 92.9252 329.962 90.8645 329.318C88.9326 328.674 87.3871 327.772 87.3871 327.257C87.3871 326.742 90.4781 326.227 94.4707 325.969ZM656.908 333.439C659.226 333.439 663.476 334.598 666.309 336.015C669.143 337.432 672.749 338.591 674.295 338.591C675.84 338.591 677.514 339.106 677.772 339.621C678.158 340.265 673.908 341.167 668.499 341.553C662.961 342.068 655.877 342.455 652.786 342.326C648.278 342.326 647.377 342.068 648.922 340.909C649.953 340.265 652.4 339.75 654.203 340.008C656.006 340.265 657.423 340.136 657.036 339.879C656.779 339.492 657.68 338.462 658.839 337.689C660.771 336.273 660.514 336.015 656.908 336.015C654.589 336.015 652.786 335.371 652.786 334.727C652.786 333.954 654.589 333.439 656.908 333.439ZM581.306 337.561C586.973 337.561 592.769 337.947 596.761 339.364L594.186 340.78C591.61 342.197 591.739 342.326 595.087 343.614C597.019 344.387 599.981 345.031 601.527 345.159C603.845 345.159 603.716 345.417 600.625 346.318C598.436 346.962 582.852 348.637 565.851 350.053C548.851 351.47 524.122 353.402 511.114 354.175C491.924 355.463 486.129 355.463 481.492 354.175C478.272 353.273 473.121 351.857 470.158 350.955C467.067 350.182 464.62 349.023 464.62 348.508C464.62 347.993 466.295 347.22 468.227 346.834C470.158 346.447 481.363 345.031 493.083 343.743C504.675 342.326 523.865 340.652 535.585 339.879C547.176 339.106 559.927 338.333 563.919 338.076C567.783 337.947 575.639 337.689 581.306 337.561ZM767.669 339.879C778.488 340.008 789.564 340.394 792.397 340.909C795.102 341.424 797.549 342.455 797.807 343.356C798.193 344.644 793.556 345.031 777.973 345.031C765.48 344.902 755.82 344.387 752.858 343.356C750.153 342.455 747.964 341.296 747.964 340.78C747.964 340.265 756.851 339.879 767.669 339.879ZM194.156 341.167C246.188 341.167 262.674 341.553 261.515 342.583C260.355 343.743 242.196 344.129 193.898 344C148.177 343.871 127.442 343.485 126.669 342.455C125.638 341.424 144.7 341.038 194.156 341.167ZM831.164 342.197C841.725 342.455 851.255 343.227 852.415 343.871C853.445 344.515 844.945 344.902 832.065 344.902C818.542 345.031 809.655 344.515 809.269 343.743C808.883 342.97 809.269 342.197 810.171 341.94C811.072 341.811 820.474 341.811 831.164 342.197ZM114.82 342.455C115.593 342.455 115.206 343.356 113.79 344.387C112.373 345.417 107.736 346.834 103.486 347.478C99.236 348.25 93.054 349.152 89.963 349.667C86.7431 350.053 84.4249 350.182 84.8113 349.667C85.0688 349.152 88.9326 347.993 93.1828 346.962C97.4329 345.932 103.357 345.031 106.32 345.031C109.282 345.031 112.115 344.387 112.502 343.743C112.888 342.97 113.918 342.455 114.82 342.455ZM706.235 342.455L703.015 345.031C701.212 346.318 693.485 350.182 685.886 353.531C678.287 356.751 671.719 360.099 671.075 360.872C670.431 361.902 670.946 362.031 672.749 361.258C674.166 360.743 680.477 359.326 686.916 358.296C693.871 357.137 701.47 356.622 706.235 357.137C710.485 357.652 715.379 358.039 717.182 358.039C718.857 358.039 721.304 358.683 722.592 359.326C723.88 359.97 724.91 361.258 724.91 362.418C724.91 363.705 723.622 364.349 721.046 364.349C718.857 364.349 715.122 365.122 712.675 366.281C710.099 367.312 706.235 370.789 703.917 374.009C701.599 377.229 699.409 379.805 699.151 379.805C698.765 379.933 697.606 378.903 696.576 377.744C695.417 376.585 692.969 374.782 691.038 373.88C687.56 372.077 687.431 372.206 686.916 375.941C686.401 378.388 684.984 380.32 682.924 381.35C681.121 382.252 679.446 384.055 679.06 385.214C678.802 386.502 677.643 387.532 676.613 387.532C675.454 387.532 674.294 386.244 673.264 381.736L670.688 384.57C668.241 387.403 668.112 387.403 666.953 384.956C666.181 383.539 664.893 382.509 664.12 382.638C663.347 382.896 662.188 381.221 661.415 379.161C660.771 376.971 659.999 374.395 659.612 373.365C659.226 372.206 657.938 374.782 656.65 379.161C655.491 383.411 653.817 388.047 652.915 389.464C651.498 391.911 651.498 391.911 650.21 386.244L647.634 389.078C645.316 391.911 645.187 391.911 642.869 389.722C640.551 387.532 640.422 387.532 638.361 389.722C637.073 391.009 633.854 392.169 630.891 392.297C627.028 392.555 625.74 392.169 625.74 390.752C625.74 389.464 624.967 389.078 623.422 389.593C622.134 390.108 620.202 390.365 618.914 390.237C617.626 390.108 616.338 390.623 616.08 391.396C615.694 392.04 613.376 392.684 610.929 392.684C608.353 392.684 604.747 393.328 602.815 393.972C600.883 394.744 597.277 395.002 590.322 393.714L592.254 375.941L583.496 376.713C578.731 377.1 570.874 378.13 566.109 378.903C561.215 379.804 556.578 380.062 555.805 379.547C554.775 378.946 554.689 378.216 555.548 377.357C556.192 376.713 561.472 374.91 567.139 373.494C572.806 372.077 595.345 367.698 617.368 363.834C639.263 359.842 660.256 355.849 663.991 354.69C668.542 353.402 670.474 352.243 669.787 351.213C669.143 350.182 665.537 350.053 657.294 350.697C650.854 351.213 639.907 352.5 632.823 353.531C625.74 354.432 610.671 357.008 599.337 359.198C588.004 361.387 570.874 365.122 561.344 367.44C551.684 369.887 543.828 371.562 543.57 371.047C543.441 370.531 542.282 368.6 540.866 366.925C538.418 363.834 537.646 363.705 526.956 363.963C520.645 364.092 506.349 365.637 495.015 367.44C483.682 369.372 470.416 371.691 465.651 372.721C458.567 374.266 456.893 375.168 456.249 377.486C455.862 379.161 456.12 381.994 456.893 383.926C457.666 385.858 459.597 388.176 461.143 389.078C463.075 390.237 470.416 390.752 484.068 390.752C495.015 390.752 509.183 389.85 515.622 388.949C521.933 387.918 528.501 386.373 530.047 385.343C531.592 384.441 536.229 382.767 540.35 381.736C544.472 380.706 548.078 380.062 548.464 380.448C548.722 380.706 548.207 381.865 547.176 383.024C546.017 384.183 540.866 386.502 535.585 388.176C529.661 390.108 523.736 393.07 520.388 395.775C517.296 398.351 514.978 401.442 514.978 402.987C514.978 404.404 515.622 405.821 516.524 406.078C517.425 406.465 518.584 407.881 519.1 409.298C519.615 410.843 521.933 412.389 524.251 413.033C528.373 414.063 528.373 414.063 525.539 415.609C523.994 416.382 515.236 417.669 506.22 418.442C497.205 419.215 479.947 419.73 467.969 419.73C455.862 419.73 444.915 419.859 443.498 419.859C442.082 419.988 436.801 419.988 431.907 419.859C426.884 419.859 420.187 419.859 416.967 420.117C412.202 420.245 409.755 419.473 397.777 412.003L396.618 414.836C395.974 416.51 394.686 418.442 393.656 419.215C392.625 419.988 386.572 420.76 379.36 420.889C372.147 420.889 366.48 420.374 366.223 419.73C365.836 418.957 364.033 418.442 362.359 418.442C360.556 418.442 358.495 419.473 357.851 420.632C356.821 422.564 356.177 422.692 353.988 421.276C351.927 419.988 350.897 419.988 348.836 421.276C346.904 422.564 345.745 422.564 343.04 421.276C341.237 420.374 339.048 420.117 338.146 420.632C337.245 421.147 328.873 421.533 319.6 421.533C310.198 421.662 302.342 422.048 301.827 422.564C301.44 423.079 299.895 422.821 298.478 421.92C296.289 420.632 295.645 420.632 294.743 422.306C293.841 423.852 293.198 423.852 291.523 422.564C290.235 421.533 289.334 421.404 288.947 422.306C288.518 423.165 287.745 423.165 286.629 422.306C285.728 421.533 284.568 421.404 283.924 421.92C283.281 422.435 281.349 423.079 279.417 423.208C277.485 423.336 275.295 422.692 274.394 421.92C273.106 420.632 272.719 420.76 272.719 421.92C272.719 422.821 271.947 423.594 270.916 423.594C269.757 423.594 268.985 422.821 268.985 421.92C268.985 421.018 267.954 421.404 266.28 422.95C263.962 425.139 263.446 425.268 262.545 423.594C261.515 421.791 261.128 421.791 259.325 423.594C257.393 425.268 257.007 425.268 256.105 423.594C255.333 422.177 254.302 421.92 252.628 422.692C251.34 423.336 248.12 423.98 245.415 423.98C242.84 424.109 240.65 423.594 240.65 422.95C240.65 422.177 239.749 422.306 238.718 423.208C237.173 424.495 236.658 424.495 236.271 423.208C236.014 422.048 235.37 422.048 233.567 423.594C231.635 425.268 231.248 425.268 230.218 423.594C229.188 421.791 228.801 421.791 227.771 423.594C226.612 425.268 226.354 425.268 225.195 423.594C224.165 421.791 223.778 421.791 221.846 423.594C220.172 425.011 219.399 425.139 219.142 423.852C218.755 422.564 218.24 422.564 216.566 423.852C214.892 425.139 214.248 425.139 213.089 423.465C211.801 421.662 211.414 421.662 209.998 423.079C208.838 424.367 207.808 424.495 206.52 423.594C205.232 422.735 204.374 422.735 203.944 423.594C203.558 424.238 202.141 424.495 200.725 424.238C199.308 423.852 197.762 424.238 197.247 425.139C196.732 426.427 196.217 426.299 195.444 424.882C194.542 423.336 194.027 423.208 192.611 424.495C191.323 425.783 190.679 425.783 189.391 424.495C187.974 423.208 187.33 423.208 186.171 424.495C184.883 425.783 184.239 425.783 182.694 424.495C181.277 423.208 180.89 423.208 180.504 424.495C180.118 425.783 179.603 425.783 178.057 424.495C176.383 423.208 175.739 423.336 174.966 424.882C173.936 426.556 173.549 426.556 171.617 424.882C169.686 423.079 169.428 423.208 168.398 425.139C167.496 426.814 166.723 427.071 165.307 426.17C164.147 425.397 162.731 425.268 161.829 425.783C161.056 426.299 159.897 425.912 159.382 424.882C158.481 423.208 157.965 423.336 156.42 425.526C155.132 427.329 154.488 427.586 153.844 426.427C153.329 425.526 152.427 424.882 151.783 424.882C151.011 424.882 150.753 425.397 151.139 426.17C151.397 426.814 151.139 427.715 150.495 428.102C149.723 428.359 148.821 428.102 148.564 427.458C148.177 426.685 147.018 426.427 145.988 426.814C144.7 427.2 143.283 426.041 142.124 423.852C140.321 420.503 140.192 420.503 140.192 423.208C140.192 424.882 139.806 426.943 139.548 428.102C138.904 429.647 138.518 429.647 136.843 428.359C135.169 427.071 134.525 427.2 133.752 428.746C133.108 429.776 132.464 430.034 132.078 429.39C131.692 428.617 131.305 426.041 131.048 423.594C130.919 421.018 130.919 418.056 131.048 416.768C131.048 415.222 132.336 414.45 135.169 414.192C137.487 414.063 139.29 414.578 139.677 415.48C140.02 416.596 140.922 416.768 142.381 415.995C143.669 415.351 148.692 414.45 153.715 414.063C158.609 413.548 177.799 412.389 196.217 411.359C214.634 410.328 246.446 408.783 267.053 408.01C287.531 407.366 317.411 405.821 333.381 404.661C349.222 403.631 363.518 402.601 364.935 402.343C366.352 402.214 370.602 401.442 374.594 400.669C378.458 399.896 387.087 398.608 393.913 397.964C400.61 397.191 408.853 395.646 412.202 394.616C416.194 393.328 418.899 391.525 419.929 389.464C421.217 386.888 421.217 385.987 419.672 384.312C418.513 383.153 416.71 382.252 415.422 382.252C414.005 382.38 413.232 381.35 413.232 379.805C413.232 378.388 414.391 376.585 415.808 375.941C417.225 375.168 428.043 373.107 439.892 371.304C451.741 369.63 466.423 367.312 472.477 366.281C478.401 365.251 490.636 363.834 499.523 363.061C508.281 362.289 526.312 360.743 539.449 359.713C552.457 358.554 574.223 356.364 587.746 354.69C601.14 353.016 620.33 350.955 630.247 350.053C640.164 349.152 659.226 347.22 672.749 345.546C686.143 344 699.151 342.712 706.235 342.455ZM748.994 349.023C750.153 349.281 751.184 350.182 751.441 351.084C751.699 351.985 750.54 353.016 748.994 353.402C747.449 353.788 745.774 353.917 745.517 353.402C745.13 353.016 745.259 351.857 745.903 350.697C746.418 349.538 747.835 348.894 748.994 349.023ZM779.647 348.894C789.564 348.766 798.064 349.281 798.45 349.796C798.966 350.311 798.966 351.857 798.45 353.144C797.678 355.463 796.261 355.591 779.389 355.076C766.639 354.819 760.586 354.175 759.426 353.016C758.01 351.599 758.01 351.084 759.684 350.053C760.714 349.409 769.73 348.894 779.647 348.894ZM448.65 350.311C449.294 350.182 453.673 351.341 458.31 352.887C462.817 354.304 467.454 355.849 468.613 356.235C469.772 356.622 468.742 357.395 466.037 357.91C463.461 358.554 450.711 360.228 437.703 361.645C424.566 363.061 406.02 364.865 396.489 365.637C386.83 366.41 375.367 367.312 370.988 367.569C363.389 368.084 363.003 368.342 363.003 371.433C363.003 373.365 364.033 375.168 365.579 375.941C366.996 376.585 376.526 377.229 386.83 377.229C397.004 377.229 406.277 377.486 407.436 377.873C408.467 378.13 409.368 379.676 409.368 381.092C409.368 382.509 408.338 383.926 407.05 384.312C405.762 384.699 397.004 385.858 387.474 386.888C377.814 387.918 360.17 389.593 348.192 390.623C336.085 391.782 317.539 393.199 306.978 393.972C296.289 394.744 257.78 396.419 221.331 397.835C184.754 399.252 149.851 400.411 143.669 400.411C136.586 400.411 132.593 399.896 133.108 399.123C133.366 398.351 136.199 397.449 139.162 397.191C142.124 396.805 163.503 395.26 186.557 393.972C209.482 392.555 250.052 390.237 276.712 388.691C303.243 387.274 329.259 385.471 334.669 384.827C339.949 384.055 345.745 382.767 347.548 381.865C349.222 381.092 350.897 379.161 351.025 377.486C351.154 375.941 350.51 373.365 349.351 371.691C348.321 370.145 347.806 367.827 348.063 366.539C348.578 364.865 351.927 363.577 360.685 361.645C367.253 360.228 381.292 357.91 391.981 356.493C402.542 355.076 419.414 353.144 429.331 352.243C439.248 351.213 447.877 350.44 448.65 350.311ZM706.235 350.182C710.485 350.182 715.379 351.084 720.402 353.917H716.538C714.349 353.917 708.811 353.66 704.046 353.144C699.151 352.629 696.189 351.857 696.962 351.213C697.864 350.697 701.985 350.182 706.235 350.182ZM828.974 350.182C839.278 350.182 848.68 350.697 849.839 351.341C850.869 351.985 851.255 353.016 850.74 353.917C850.096 354.819 843.013 355.334 829.876 355.334C817.769 355.334 809.655 354.819 809.269 354.046C808.883 353.273 808.883 352.114 809.269 351.47C809.655 350.697 817.641 350.182 828.974 350.182ZM867.483 351.599C868.385 351.47 869.158 352.243 869.158 353.402C869.158 354.561 867.87 355.334 865.938 355.334C864.135 355.334 862.589 354.819 862.46 354.175C862.203 353.531 862.976 352.629 864.006 352.243C865.036 351.985 866.582 351.599 867.483 351.599ZM874.953 351.599C874.953 351.599 877.787 352.372 881.393 353.273C884.87 354.175 888.09 355.72 888.348 356.751C888.734 358.167 888.219 358.296 885.772 357.395C884.098 356.751 880.105 356.107 877.143 355.849C874.18 355.463 871.605 354.819 871.476 354.175C871.218 353.531 871.991 352.629 873.021 352.243C874.052 351.985 874.953 351.599 874.953 351.599ZM310.456 352.887C317.282 352.758 321.789 353.273 321.789 354.046C321.789 354.69 317.539 355.592 312.388 355.978C307.236 356.364 292.94 357.266 280.576 357.91C268.083 358.554 256.234 358.554 254.173 358.039C251.34 357.266 250.825 356.622 252.242 356.107C253.272 355.72 264.219 354.819 276.712 354.175C289.076 353.66 304.274 353.016 310.456 352.887ZM195.186 356.751C223.65 356.751 247.09 357.008 247.09 357.523C247.09 358.039 243.484 358.94 238.976 359.455C234.597 359.97 209.482 360.486 183.338 360.486C157.064 360.486 133.624 360.099 131.177 359.455C126.926 358.554 127.313 358.425 135.04 357.781C139.548 357.395 166.723 356.879 195.186 356.751ZM113.403 359.584C113.918 359.713 114.305 360.357 114.305 361.13C114.305 361.774 112.759 362.804 110.827 363.319C108.895 363.834 100.395 364.607 91.8948 364.993C81.5056 365.509 76.9978 365.337 78.3716 364.478C79.402 363.834 86.3568 362.804 93.8267 362.289C101.168 361.774 108.509 360.872 109.926 360.357C111.343 359.842 112.888 359.455 113.403 359.584ZM764.192 359.842C765.608 360.099 772.177 360.614 779.003 361.001C785.7 361.516 793.041 362.16 799.61 363.061L799.481 371.691C799.481 376.456 798.966 382.638 798.193 385.214C797.549 387.918 796.519 390.108 796.003 390.108C795.488 390.108 794.329 389.464 793.556 388.562C792.655 387.661 791.496 384.441 790.981 381.35C790.208 377.357 789.306 375.812 787.632 375.941C786.344 375.941 785.056 376.456 784.798 377.229C784.412 377.873 782.995 378.517 781.579 378.517C780.162 378.517 778.874 378.903 778.874 379.418C778.874 379.933 777.715 381.865 776.298 383.668C773.722 386.759 773.722 386.888 771.79 384.312C770.631 382.896 768.957 379.805 767.927 377.486C766.639 374.524 766.381 372.592 767.411 370.789C768.055 369.372 768.184 367.956 767.669 367.569C767.154 367.312 762.775 366.539 749.381 364.993L743.585 371.047C740.365 374.395 737.145 376.842 736.501 376.585C735.729 376.198 735.213 375.168 735.213 374.266C735.213 373.365 734.054 371.175 732.766 369.501C731.35 367.698 730.448 365.122 730.834 363.705C731.221 361.774 732.509 361.13 735.213 361.13C737.274 361.13 739.077 361.516 739.077 362.031C739.077 362.546 740.365 362.675 741.911 362.289C743.456 361.902 748.608 361.13 753.244 360.486C757.752 359.97 762.775 359.584 764.192 359.842ZM57.2497 361.774C57.636 362.804 56.4769 367.698 54.9314 372.463C53.2571 377.357 51.3252 381.35 50.6812 381.221C49.9085 381.092 49.1357 377.744 49.0069 373.622C48.7494 369.63 48.8781 365.38 49.2645 364.349C49.9085 362.804 50.2949 362.675 51.5828 363.963C52.4843 364.865 53.6435 365.637 54.1586 365.637C54.6738 365.637 55.4466 364.349 55.9617 362.675C56.4769 360.614 56.8633 360.357 57.2497 361.774ZM818.671 361.774C824.08 361.902 831.421 362.418 835.028 363.061C838.505 363.834 844.043 364.607 847.263 364.865C850.354 364.993 853.702 364.607 854.733 363.834C856.021 362.675 856.536 363.061 856.922 365.251C857.309 366.925 858.081 368.213 858.854 368.213C859.498 368.213 860.142 368.728 860.142 369.501C860.142 370.145 858.597 370.789 856.922 370.789C855.119 370.789 853.445 371.433 853.059 372.335C852.672 373.494 851.642 372.978 849.839 371.047C848.422 369.501 845.202 367.569 842.755 366.925C839.75 366.067 836.53 366.067 833.096 366.925C830.262 367.569 826.141 369.63 824.08 371.433C821.891 373.107 820.216 375.297 820.216 376.198C820.216 377.1 818.413 380.577 816.353 383.926C814.163 387.274 811.845 390.108 811.201 390.108C810.428 390.108 809.398 384.183 808.883 376.842C808.239 369.63 807.981 363.19 808.239 362.675C808.496 362.16 813.133 361.774 818.671 361.774ZM534.297 367.569C536.744 367.956 539.191 368.857 539.706 369.759C540.222 370.66 540.222 371.819 539.706 372.463C539.191 372.978 528.63 375.426 516.266 377.873C503.773 380.32 487.674 382.767 480.204 383.282C468.613 384.183 466.939 384.055 467.454 382.38C467.84 381.221 470.158 380.062 472.477 379.547C474.924 379.032 485.871 376.842 496.947 374.653C507.895 372.463 519.744 369.759 523.35 368.728C526.827 367.827 531.721 367.183 534.297 367.569ZM326.555 368.471C333.767 368.213 338.532 368.728 338.532 369.501C338.532 370.145 337.76 371.047 336.858 371.304C335.957 371.691 320.759 372.85 303.115 373.88C285.341 375.039 257.522 376.456 241.294 377.229C224.938 377.873 193.126 378.903 170.458 379.289C142.382 379.805 129.631 379.676 130.533 378.774C131.177 378.001 146.632 376.842 166.594 375.941C185.656 375.168 223.65 373.365 250.954 371.948C278.129 370.66 303.63 369.244 307.622 369.115C311.486 368.857 319.986 368.6 326.555 368.471ZM109.539 377.486C114.305 377.357 118.426 377.615 118.812 378.13C119.07 378.645 115.979 379.547 111.986 380.062C107.994 380.706 96.6602 381.865 86.7431 382.896C76.8261 383.926 68.3258 384.57 68.0682 384.183C67.6818 383.797 68.4546 382.509 69.6137 381.35C71.4168 379.676 75.1518 378.903 86.3568 378.388C94.3419 378.001 104.774 377.615 109.539 377.486ZM61.8862 378.903C63.4317 378.774 64.9772 379.032 65.106 379.289C65.2348 379.547 64.3332 380.964 63.0453 382.38C61.6286 383.797 59.5679 384.956 58.5376 384.956C57.3784 384.956 56.3481 384.183 56.2193 383.282C55.9617 382.38 56.6057 380.964 57.3784 380.32C58.1512 379.676 60.2119 379.032 61.8862 378.903ZM583.496 386.373C587.617 386.244 588.39 386.63 588.39 389.078C588.39 390.752 587.746 392.684 586.716 393.456C585.814 394.229 584.269 395.002 583.238 395.131C582.079 395.388 576.026 395.517 569.715 395.646C563.018 395.775 558.124 395.388 557.866 394.616C557.609 393.843 557.866 392.555 558.381 391.653C558.896 390.752 563.662 389.206 569.071 388.176C574.352 387.274 580.791 386.373 583.496 386.373ZM855.119 389.593C855.763 389.85 855.763 390.752 855.248 391.653C854.604 392.684 855.119 392.813 857.18 392.297C859.155 391.696 860.099 391.911 860.013 392.941C860.013 394.229 860.271 394.229 861.688 392.941C862.976 391.782 863.62 391.782 865.036 392.941C866.324 394.229 866.968 394.1 867.87 392.297C868.514 391.138 869.544 390.365 870.188 390.752C870.703 391.138 871.089 392.297 870.832 393.328C870.574 394.358 871.605 395.775 873.021 396.548C874.953 397.449 875.984 397.32 877.4 395.517C878.431 394.358 879.719 393.714 880.234 394.229C880.878 394.873 880.234 396.29 879.075 397.449C877.143 399.252 874.052 399.639 862.589 399.639C852.157 399.767 848.551 399.252 848.551 398.093C848.551 397.191 849.71 394.873 851.255 392.813C852.801 390.752 854.604 389.335 855.119 389.593ZM834.512 394.1C835.8 394.744 838.119 394.873 839.535 394.616C841.725 393.972 841.854 394.358 840.952 396.805C840.308 398.479 838.247 400.926 836.315 402.343C833.611 404.275 830.777 404.919 823.823 404.919C816.224 404.919 814.55 404.533 813.004 402.343C811.974 400.926 811.587 399.252 811.974 398.608C812.36 397.964 815.58 397.835 819.057 398.351C824.467 398.995 825.754 398.737 828.717 396.032C831.293 393.714 832.709 393.199 834.512 394.1ZM550.654 394.1C551.555 393.972 552.457 394.616 552.843 395.517C553.101 396.419 553.616 401.699 554.904 417.154L550.654 416.768C547.434 416.51 546.404 415.738 545.888 413.291C545.373 411.144 543.828 409.684 541.252 408.912C538.934 408.268 536.873 406.465 535.843 404.146C534.555 401.184 534.555 400.154 535.843 399.381C536.744 398.866 539.964 397.449 543.184 396.29C546.404 395.131 549.752 394.1 550.654 394.1ZM115.979 396.676C117.267 396.548 119.07 396.805 120.229 397.191C121.26 397.449 122.161 398.351 122.161 399.123C122.161 399.767 120.487 400.669 118.555 401.055C116.623 401.313 104.259 402.214 91.2509 402.987C74.1215 403.889 66.5227 404.79 64.462 406.207C61.8862 407.881 61.4998 407.881 61.4998 405.821C61.4998 404.661 62.5301 402.601 63.8181 401.313C65.75 399.381 69.7425 398.866 89.963 397.964C102.971 397.449 114.691 396.805 115.979 396.676ZM787.374 400.669C798.322 400.282 800.382 400.54 800.64 402.214C800.769 403.374 800.125 404.533 799.223 404.79C798.322 405.177 790.079 406.078 780.935 406.851C771.662 407.624 760.843 409.427 749.381 413.291L745.646 407.495L745.517 410.328C745.517 412.003 744.873 413.291 744.229 413.291C743.456 413.291 742.555 412.518 742.168 411.616C741.782 410.457 738.176 410.071 729.675 410.2C723.107 410.328 693.485 411.616 663.734 413.033C633.982 414.578 599.724 415.866 587.746 415.995C575.639 416.124 565.078 415.866 564.177 415.48C563.275 414.965 561.73 414.836 560.7 415.222C559.154 415.609 558.639 414.836 558.639 411.616C558.639 407.881 559.025 407.366 563.533 406.465C566.238 405.949 581.178 405.563 596.761 405.563C612.345 405.563 654.332 404.919 690.136 404.146C725.812 403.374 759.426 402.343 764.836 401.828C770.116 401.313 780.291 400.798 787.374 400.669ZM122.805 415.866L122.419 421.276C122.032 425.397 121.26 427.071 119.199 428.23C117.009 429.261 115.335 429.261 112.63 428.23C109.668 427.071 108.767 427.2 107.736 428.746C106.835 430.162 106.32 430.162 105.933 429.003C105.547 428.102 104.774 427.458 104.13 427.458C103.357 427.458 102.842 428.23 102.842 429.39C102.842 430.42 102.327 431.322 101.812 431.322C101.297 431.322 100.009 430.549 98.9784 429.39C97.5617 427.973 96.5314 427.844 95.3722 428.746C94.2131 429.647 93.4403 429.39 92.5388 427.715C91.3797 425.655 91.1221 425.655 90.4781 428.102C89.9629 429.905 88.8038 430.42 86.8719 430.162C85.3264 429.776 83.6521 429.003 83.2657 428.23C82.6647 427.286 81.5914 427.544 80.0459 429.003C78.114 430.806 77.3413 430.935 76.0534 429.647C74.8942 428.359 74.3791 428.488 73.8639 430.291C73.4775 431.579 72.576 432.609 71.932 432.609C71.1592 432.609 70.0001 430.678 69.3562 428.359C68.4546 425.139 68.197 424.882 68.0682 427.071C68.0682 428.874 67.0379 430.291 65.4924 430.678C64.0757 430.935 62.9165 432.094 62.9165 433.253C62.9165 434.541 62.015 434.928 59.9543 434.413C58.4088 433.897 56.6057 433.253 55.9617 432.738C55.4466 432.352 55.3178 429.647 55.7041 426.814C56.0905 423.98 57.2497 420.761 58.4088 419.73C60.2119 418.056 60.9846 418.056 63.3029 419.473C65.2348 420.76 66.2651 420.761 66.7803 419.73C67.1667 418.957 71.1592 418.313 77.0837 418.442C82.3642 418.442 89.0614 417.927 91.8948 417.283C94.7283 416.639 102.842 416.124 122.805 415.866ZM728.13 424.495C734.441 424.753 741.653 425.268 744.229 425.655C747.062 426.041 748.221 426.814 747.449 427.587C746.676 428.23 742.297 429.261 737.789 429.905C733.153 430.549 716.925 431.708 701.727 432.481C686.401 433.253 646.991 435.056 614.148 436.473C581.178 437.761 549.623 439.049 543.957 439.178C538.29 439.307 533.524 438.92 533.267 438.276C533.138 437.632 534.168 435.572 535.456 433.897C537.903 430.678 538.032 430.678 571.132 429.132C589.42 428.359 625.353 426.943 650.854 426.17C676.355 425.397 701.47 424.624 706.879 424.367C712.16 424.109 721.69 424.109 728.13 424.495Z" fill="#2E3316"/>
</svg>
