<svg width="682" height="339" viewBox="0 0 682 339" fill="none" xmlns="http://www.w3.org/2000/svg">
<path d="M611.927 7.05533C613.087 3.86444 614.248 0.866931 614.538 0.480156C614.925 -0.00331219 615.311 -0.100006 615.408 0.0933815C615.505 0.286769 615.215 2.41403 614.731 4.73468C614.344 7.05533 613.861 9.95614 613.861 11.2132C613.861 12.3735 615.698 15.5644 617.922 18.3685C620.243 21.1726 623.917 25.1371 626.141 27.361C628.365 29.4883 630.202 31.9056 630.202 32.6792C630.202 33.4527 628.752 36.0634 626.915 38.4808C625.174 40.8981 623.24 43.9923 622.66 45.5394C621.983 47.2799 621.887 48.3435 622.563 48.6336C623.047 48.9237 625.367 47.3766 627.591 45.346C629.912 43.2188 632.91 41.0915 634.36 40.5114C635.907 39.9312 638.325 39.4477 639.968 39.4477C642.096 39.4477 642.869 38.9642 642.869 37.8039C642.869 36.837 644.416 34.5163 649.734 29.2949L661.047 29.1015C670.91 28.9081 672.651 29.1015 674.971 30.7453C676.518 31.8089 677.679 33.356 677.679 34.1296C677.679 35.2899 677.292 35.3866 675.455 34.5163C674.294 33.9362 672.167 33.7428 668.009 34.613L673.134 40.2213C675.938 43.2188 678.549 46.6997 678.936 47.9568C679.323 49.2138 679.226 50.084 678.646 50.084C678.066 50.084 677.292 49.3105 676.712 48.4402C675.938 46.9898 675.842 47.1832 675.745 52.5014L673.328 49.4072C671.104 46.4097 670.814 46.313 668.976 47.6667C667.139 49.0204 666.946 48.9237 665.592 45.7328C664.819 43.8956 663.658 42.1551 663.175 41.8651C662.595 41.575 662.014 41.4783 661.724 41.6717C661.531 41.7684 661.918 44.2824 662.691 47.1832C663.465 50.084 664.142 54.1452 664.142 56.1757C664.142 58.1096 663.562 60.0435 662.885 60.4303C662.305 60.7203 660.854 61.1071 659.791 61.1071C658.147 61.2038 657.76 62.074 657.373 67.1988C657.083 70.4864 656.696 73.3872 656.406 73.6773C656.116 73.9674 655.633 72.4203 655.149 70.3897C654.762 68.2625 653.892 65.4583 653.215 64.1046C652.635 62.7509 651.765 61.6873 651.281 61.6873C650.895 61.6873 650.605 62.3641 650.605 63.1377C650.605 63.9112 650.121 64.5881 649.638 64.5881C649.057 64.5881 648.671 67.1988 648.671 70.3897C648.671 75.031 648.284 76.288 646.93 76.8682C646.06 77.1583 644.513 78.1252 643.643 78.9954C642.096 80.4458 641.902 80.3492 641.419 78.1252C640.935 76.0946 640.258 75.7079 637.744 75.9012C635.682 75.9657 634.747 76.4492 634.94 77.3517C635.134 78.0285 636.584 81.5095 638.131 85.1838C639.678 88.7615 640.935 92.1458 640.935 92.6293C640.935 93.2094 641.612 93.5962 642.386 93.5962C643.159 93.5962 647.22 92.1458 651.281 90.4053C655.439 88.5681 662.305 85.9574 666.559 84.6037C670.814 83.25 675.938 81.7996 681.547 81.026V89.245C681.547 94.0797 681.16 97.4639 680.58 97.4639C680 97.4639 679.129 96.2069 678.646 94.5631C678.066 93.016 677.195 91.6623 676.712 91.6623C676.132 91.6623 675.165 92.8226 674.391 94.3697C673.618 95.8202 672.844 98.0441 672.747 99.3978C672.361 101.718 672.554 101.815 681.547 101.332V107.907C681.547 113.322 681.257 114.579 679.613 115.642C678.066 116.609 677.679 116.609 677.679 115.642C677.776 114.772 677.292 114.772 676.132 115.836C675.261 116.609 673.908 118.446 673.231 119.994C671.877 122.508 671.974 122.604 675.745 124.538C679.419 126.375 679.709 126.375 680.58 124.828C681.16 123.668 681.45 127.826 681.547 137.882C681.547 145.907 681.256 152.579 680.773 152.579C680.386 152.579 679.516 151.032 678.839 149.195C678.259 147.358 677.195 146.004 676.712 146.294C676.132 146.584 675.745 145.811 675.745 144.65C675.745 143.393 675.358 141.75 674.875 140.976C674.391 140.203 673.811 139.912 673.521 140.493C673.328 141.073 672.747 143.007 671.684 148.228L669.557 145.617C668.009 143.684 667.236 143.297 666.269 144.167C665.302 145.134 665.109 144.65 665.109 142.233C665.109 140.493 664.915 138.365 664.625 137.592C664.335 136.818 663.852 136.141 663.368 136.141C662.981 136.141 662.111 137.205 661.434 138.559C660.854 139.912 660.274 141.75 660.274 142.717C660.274 143.587 659.307 145.327 655.923 148.712L653.215 146.294C651.765 144.941 650.605 143.103 650.605 142.233C650.605 141.266 650.218 140.106 649.638 139.526C648.961 138.849 648.961 137.689 649.638 135.948C650.121 134.401 650.411 133.241 650.121 133.241C649.831 133.241 647.414 135.561 639.775 143.393L640.355 139.816C640.645 137.785 641.129 134.498 641.999 128.889L639.485 133.531C638.131 136.045 636.874 138.075 636.584 138.075C636.294 138.075 636.294 136.528 636.584 134.691C636.874 132.757 636.681 131.307 636.101 131.307C635.52 131.307 634.167 132.854 632.91 134.691C631.749 136.528 630.492 138.075 630.009 138.075C629.622 138.075 629.622 136.238 630.009 134.111C630.686 130.823 630.492 130.146 629.332 130.436C628.558 130.63 626.915 130.243 625.658 129.566C623.917 128.599 623.337 128.696 622.563 130.146C621.693 131.597 621.693 131.597 621.693 129.856C621.693 128.793 621.306 127.632 620.92 127.246C620.533 126.859 618.792 127.052 617.245 127.632C614.925 128.406 613.668 128.309 610.67 126.859C608.285 125.634 606.738 125.344 606.029 125.989C605.545 126.569 604.772 137.108 603.708 175.979L607.092 175.786C608.93 175.592 611.54 175.592 612.894 175.689C614.925 175.883 614.731 176.173 611.444 177.236C609.316 177.913 608.253 178.59 609.026 178.687C609.8 178.783 612.604 179.073 615.311 179.267C618.212 179.557 620.823 180.33 621.887 181.394C623.337 182.748 623.627 182.748 623.627 181.587C623.627 180.814 622.854 179.073 621.887 177.72C620.92 176.366 619.566 173.659 618.889 171.725C618.309 169.694 617.922 167.76 618.212 167.373C618.502 166.89 620.243 167.373 622.08 168.34C623.917 169.211 625.464 170.371 625.464 170.951C625.464 171.531 626.238 172.208 627.108 172.498C628.462 172.982 628.655 172.692 628.075 171.531C627.688 170.661 628.075 168.34 629.042 166.116C630.009 163.989 631.072 162.249 631.459 162.249C631.943 162.249 632.233 163.312 632.233 164.666C632.233 166.02 632.91 167.277 633.683 167.567C634.457 167.857 636.101 167.373 637.261 166.6C638.518 165.826 639.775 165.15 640.162 165.15C640.645 165.15 640.935 166.02 640.935 167.083C640.935 168.147 641.612 169.017 642.386 169.017C643.159 169.017 643.836 169.404 643.836 169.984C643.836 170.564 642.966 171.531 641.902 172.208C640.839 172.788 639.968 173.659 639.968 174.142C639.968 174.529 640.839 174.819 641.902 174.819C642.966 174.819 643.643 175.206 643.353 175.786C643.062 176.366 643.449 177.43 644.029 178.203C644.996 179.46 644.996 179.75 644.029 179.654C643.449 179.654 642.676 179.073 642.482 178.493C642.289 177.816 641.902 177.526 641.515 178.01C641.225 178.397 641.129 179.073 641.419 179.654C641.709 180.234 643.643 180.621 645.77 180.621C647.897 180.621 651.185 181.491 653.022 182.554C655.246 183.811 656.793 184.198 657.567 183.618C658.405 183.038 658.824 183.167 658.824 184.005C658.824 184.682 658.34 185.068 657.857 184.682C657.276 184.392 657.953 185.359 659.307 186.712C660.661 188.163 661.821 189.13 661.918 188.839C662.111 188.549 661.918 187.776 661.531 187.196C661.144 186.519 660.661 185.359 660.564 184.778C660.371 184.102 660.661 183.715 661.241 184.005C661.724 184.295 662.401 183.328 662.595 181.878C662.691 180.33 662.981 182.748 663.078 187.196C663.078 191.74 663.562 195.125 664.142 195.125C664.625 195.125 665.012 194.351 664.819 193.481C664.722 192.127 665.399 191.644 668.009 191.45C669.847 191.354 671.781 191.644 672.361 192.224C673.038 192.901 672.457 193.191 670.62 193.191C669.17 193.191 667.816 193.577 667.526 194.158C667.236 194.738 667.719 195.318 668.493 195.608C669.266 195.898 671.2 196.092 672.844 196.092C675.068 196.092 675.648 195.705 675.455 194.448C675.326 193.287 675.971 192.643 677.389 192.514C679.226 192.32 679.613 192.707 679.613 194.641C679.613 195.995 680 197.058 680.58 197.058C681.257 197.058 681.547 215.72 681.547 251.207C681.547 301.971 681.45 305.355 679.806 305.936C678.839 306.226 677.679 305.742 677.002 304.679C676.325 303.712 675.068 302.165 674.101 301.294C673.134 300.327 672.071 299.844 671.587 300.037C671.2 300.327 670.91 299.844 670.91 299.07C670.91 298.103 670.266 297.781 668.976 298.103C667.687 298.426 666.849 298.039 666.462 296.943C666.076 295.396 665.882 295.396 665.109 296.653C664.625 297.427 664.142 298.78 664.142 299.554C664.142 300.327 665.689 301.778 667.719 302.745C669.75 303.712 672.651 305.452 677.195 309.03L673.328 309.707C671.2 310.093 668.88 310.48 668.203 310.77C667.623 310.964 667.139 311.931 667.333 312.898C667.526 314.348 668.59 314.541 681.547 314.058V321.116C681.547 327.015 681.257 328.272 679.613 329.335C677.969 330.302 677.679 330.206 677.679 328.852C677.582 327.208 677.582 327.208 676.422 328.755C675.745 329.722 674.971 330.399 674.488 330.496C674.101 330.496 673.811 329.819 673.811 329.045C673.811 328.272 673.328 327.595 672.844 327.595C672.264 327.595 671.587 328.369 671.297 329.335C670.814 330.883 670.62 330.786 669.363 329.045C668.203 327.402 667.913 327.305 667.043 328.562C666.559 329.335 666.076 331.849 666.076 334.17C666.076 338.135 665.979 338.231 662.691 338.231C659.984 338.231 659.21 337.845 658.824 336.104C658.534 334.847 658.34 332.816 658.34 331.463C658.34 329.432 657.953 329.142 655.633 329.432C654.182 329.626 652.538 330.399 652.055 331.076C651.281 332.14 650.701 332.043 649.154 330.496C648.091 329.335 646.93 328.465 646.447 328.562C646.06 328.562 645.77 329.529 645.77 330.786C645.77 332.43 645.577 332.72 644.61 331.753C643.643 330.786 643.062 330.786 642.096 331.753C641.129 332.72 640.839 332.526 640.935 331.269C640.935 330.302 640.452 329.335 639.968 329.045C639.388 328.755 638.325 329.916 637.551 331.463C636.777 333.01 636.101 335.234 636.101 336.297C636.101 337.748 635.424 338.231 633.393 338.231C631.653 338.231 629.719 337.071 627.495 334.557C625.561 332.43 624.11 331.463 623.917 332.236C623.627 333.107 622.95 332.913 621.5 331.753C619.856 330.302 619.276 330.206 617.632 331.269C616.665 331.849 615.602 332.43 615.311 332.43C615.021 332.43 614.828 331.753 614.828 330.979C614.828 330.206 614.344 329.529 613.861 329.529C613.281 329.529 612.894 329.916 612.894 330.496C612.894 331.076 611.927 331.366 610.67 331.269C608.833 330.979 608.543 331.463 608.253 334.654C608.059 338.135 607.963 338.231 604.192 338.231C600.324 338.231 600.324 338.231 600.807 335.137C601.097 333.397 601.001 331.366 600.614 330.689C600.034 329.819 599.164 329.722 597.423 330.399C596.069 330.883 577.407 331.753 555.845 332.333C534.282 332.913 496.475 334.073 471.721 334.847C446.968 335.621 418.733 336.781 408.87 337.264C398.524 337.844 331.805 338.231 250.293 338.231C145.09 338.135 110.087 337.941 111.537 337.071C112.601 336.491 113.761 335.427 114.148 334.654C114.631 333.977 115.502 333.687 116.082 334.073C116.759 334.46 119.95 335.137 123.14 335.621C126.331 336.104 129.619 336.491 130.392 336.491C131.166 336.491 135.517 336.297 140.062 336.104C144.606 335.911 148.861 335.33 149.441 335.04C150.118 334.654 150.892 334.654 151.085 335.137C151.278 335.524 153.406 335.717 155.726 335.621C157.95 335.621 168.78 335.234 179.706 334.944C190.633 334.654 227.183 334.17 260.929 333.783C294.675 333.493 322.716 332.913 323.296 332.623C323.78 332.333 336.64 332.236 351.821 332.333C367.002 332.43 381.893 332.14 384.987 331.753C390.015 331.076 390.595 330.689 391.465 328.078C392.046 326.531 392.432 324.597 392.432 324.017C392.432 323.05 387.501 322.857 369.419 323.34C356.849 323.631 334.996 324.211 320.879 324.694C306.762 325.274 273.499 326.048 246.908 326.628C220.318 327.111 180.286 327.982 157.95 328.562C135.614 329.142 116.855 330.012 116.372 330.399C115.792 330.883 113.084 331.173 110.28 330.883C107.573 330.689 105.252 330.786 105.252 331.269C105.155 331.656 106.122 332.816 107.186 333.88C108.25 334.944 109.217 336.394 109.12 337.071C109.12 337.941 106.703 338.231 100.417 338.231C92.2951 338.231 91.6183 338.135 90.9414 336.104C90.458 334.847 89.491 333.59 88.7175 333.203C87.9439 332.816 86.5902 333.01 85.6233 333.687C84.753 334.364 81.9489 334.75 79.6283 334.654C77.2109 334.46 75.2771 334.654 75.2771 335.137C75.2771 335.524 73.4399 335.911 71.1192 335.911C68.8953 336.007 66.1879 336.491 65.1242 337.071C63.9639 337.651 53.4243 338.038 11.6526 337.748L14.4567 334.654C16.0038 332.913 17.0675 331.076 16.7774 330.496C16.4873 329.916 15.5204 329.819 14.5534 330.109C13.5865 330.399 12.1361 331.269 11.3625 332.043C10.2022 333.203 9.81542 333.203 8.84849 331.753C7.68816 330.109 7.59147 330.206 7.108 332.236C6.81792 333.397 6.14106 334.364 5.65759 334.364C5.07743 334.364 4.69066 333.687 4.69066 332.913C4.69066 331.946 4.04603 331.624 2.75678 331.946C1.11299 332.333 0.919603 332.043 1.40307 329.819C1.78985 328.272 2.95017 325.274 4.11049 323.05C5.17413 320.73 5.85098 318.699 5.36751 318.409C4.98074 318.119 3.82041 318.312 2.75678 318.893C1.69315 319.473 0.629522 319.666 0.339441 319.376C0.0493595 319.086 1.30638 317.829 2.95017 316.475C4.69066 315.218 7.88155 313.574 13.8766 311.447L9.81542 309.126C7.59147 307.869 6.04437 306.419 6.43114 305.936C6.81792 305.452 9.62204 305.355 12.6195 305.646C17.6476 306.226 18.3245 306.129 18.9046 304.388C19.3881 303.228 20.065 302.551 20.6451 302.745C21.1286 302.938 21.9988 304.002 22.579 305.162C23.0625 306.322 23.836 307.289 24.2228 307.289C24.7063 307.289 25.1897 306.612 25.4798 305.839C25.7699 304.872 27.2203 304.388 33.6988 304.388L33.2153 300.327C33.0219 298.007 32.4417 291.238 32.055 285.243C31.3781 275.38 31.088 274.123 29.0575 272.866C27.8971 272.093 26.2534 270.062 25.4798 268.418C24.1261 265.421 24.0294 265.324 23.5459 267.452C23.2558 268.612 22.579 269.579 22.0955 269.579C21.5154 269.579 20.9352 268.902 20.6451 268.128C20.355 267.355 19.4848 266.678 18.7112 266.678C17.9377 266.678 16.3906 267.838 13.2964 271.996L13.7799 268.418C14.2633 265.324 14.0699 264.744 12.6195 264.744C11.7493 264.744 10.1055 265.324 9.04187 266.194C7.97824 266.968 6.52784 267.645 5.85098 267.645C5.17413 267.645 4.69066 266.388 4.78735 264.551C4.78735 262.81 5.17413 260.49 5.5609 259.426C6.04437 258.362 7.88155 257.009 9.62204 256.428C12.5228 255.461 12.7162 255.171 10.9757 254.591C9.91212 254.108 7.49477 253.237 2.27331 251.11L4.69066 249.176C6.04437 248.113 7.97824 247.242 9.04187 247.242C10.1055 247.339 13.103 247.919 15.8104 248.693C18.4212 249.563 20.7418 249.95 20.8385 249.757C21.0319 249.466 18.7112 247.823 15.8104 246.179C12.7162 244.245 10.4923 242.311 10.4923 241.344C10.4923 240.281 11.4592 239.41 13.103 239.024C14.6501 238.637 17.7443 238.637 20.1616 238.83C22.579 239.12 25.3831 239.7 26.4467 240.087C28.0905 240.764 28.0905 240.571 25.9633 238.25C24.6096 236.8 21.9021 234.479 19.8716 233.029C17.841 231.578 16.1972 230.128 16.2939 229.741C16.2939 229.257 17.7443 229.257 19.3881 229.548C21.4187 229.934 22.8691 229.741 23.2558 229.064C23.7393 228.484 23.0625 226.743 21.8054 225.1C20.6451 223.553 19.9683 221.909 20.355 221.522C20.7418 221.038 23.0625 221.909 25.4798 223.456C27.8971 224.906 29.831 225.68 29.831 225.1C29.831 224.519 29.3475 223.166 28.6707 222.005C27.6071 219.878 27.7038 219.781 30.1211 220.555C31.5715 220.942 32.5384 220.942 32.2484 220.555C32.055 220.072 32.4417 218.815 33.2153 217.654C33.9888 216.397 35.2459 215.43 35.826 215.43C36.5029 215.43 38.5335 213.98 40.2739 212.239C42.0144 210.596 43.3681 208.468 43.3681 207.695C43.3681 206.728 42.2078 207.405 40.1772 209.532C37.1797 212.723 37.083 212.723 36.3095 210.789C35.9227 209.532 34.4723 208.372 32.9252 208.082C31.4748 207.695 29.2509 206.825 27.8971 206.051C25.6732 204.697 25.3831 204.697 24.2228 206.341C23.3525 207.695 22.7724 207.888 22.2889 207.018C21.8054 206.148 20.7418 206.051 18.2278 206.728C16.3906 207.308 14.7468 207.695 14.5534 207.695C14.4567 207.695 14.5534 206.825 14.8435 205.761C15.1336 204.407 14.6501 203.537 13.103 202.763C11.9427 202.087 9.42865 201.893 7.30139 202.28C5.36751 202.57 3.72372 202.57 3.72372 202.183C3.62703 201.7 4.88404 200.926 6.33445 200.249C7.78486 199.572 10.589 198.702 12.4262 198.219C15.0369 197.639 15.9071 196.865 16.1005 195.028C16.2939 193.771 16.8741 192.32 17.4542 191.74C17.9377 191.16 20.8385 190 23.836 189.13C26.8335 188.163 30.2178 187.389 31.2814 187.389C32.3451 187.389 34.8591 187.969 36.793 188.839C38.8235 189.613 40.6607 190.29 40.9508 190.29C41.2409 190.29 41.4343 188.259 41.3376 185.745C41.3376 183.135 40.9508 178.977 40.6607 176.269C40.0806 172.402 39.5971 171.531 38.2434 171.725C37.3731 171.821 36.5029 171.338 36.5029 170.758C36.4062 170.081 36.1161 170.758 35.7293 172.305C35.4393 173.949 34.6657 175.109 34.1822 175.012C33.6021 175.012 32.8285 173.272 32.4417 171.241C32.055 169.211 31.2814 167.18 30.8947 166.6C30.3145 166.02 29.6376 166.89 28.9608 168.824C28.3806 170.468 27.4137 171.918 26.9302 171.918C26.35 171.918 25.5765 171.145 24.9963 170.274C24.1261 168.727 23.836 168.727 21.6121 171.241C20.2583 172.692 19.0013 173.852 18.7112 173.852C18.4212 173.852 18.2278 172.692 18.1311 168.534L16.9708 170.951C15.9071 173.175 15.8104 172.982 15.617 168.34C15.4237 165.536 14.8435 163.216 14.36 163.216C13.7799 163.216 12.5228 164.376 11.4592 165.923C9.81542 168.244 9.62204 168.34 9.52534 166.6C9.42865 164.859 9.33195 164.763 8.26832 166.31C7.59147 167.277 6.43114 167.954 5.65759 167.954C4.88404 167.954 3.53033 168.631 2.75678 169.501C1.98323 170.371 1.11299 171.048 0.822909 170.951C0.532828 170.951 0.242747 168.34 0.0493595 165.15C-0.144028 160.025 0.146053 158.961 2.4667 156.254C4.20719 154.32 4.78735 153.063 3.91711 152.869C3.33695 152.676 2.75678 151.709 2.75678 150.645C2.75678 149.582 3.72372 148.035 4.88404 147.261C6.43114 146.294 9.52534 145.811 14.5534 145.811C18.7112 145.811 21.9021 145.521 21.7087 145.134C21.5154 144.65 18.0344 142.717 13.9733 140.783C9.91212 138.752 6.81792 136.722 7.108 136.141C7.39808 135.561 9.13857 135.174 10.9757 135.174C12.8129 135.174 16.6807 136.045 24.5129 139.042L20.9352 135.465C18.9046 133.434 17.2608 131.5 17.2608 131.113C17.2608 130.63 18.7112 130.63 20.355 130.92C22.0955 131.21 24.3195 131.597 25.1897 131.887C26.6401 132.177 26.7368 131.984 25.9633 130.34C25.3186 129.051 25.3186 128.406 25.9633 128.406C26.4467 128.406 28.4773 129.663 33.6988 134.208L35.3426 131.403C36.5029 129.663 37.6632 128.793 38.7268 128.986C39.6938 129.179 40.4673 130.243 40.4673 131.307C40.4673 132.564 41.3376 133.531 45.7855 134.788L41.9177 136.915C39.7905 138.172 38.3401 139.332 38.7268 139.526C39.2103 139.816 40.4673 139.332 41.6277 138.559C42.8847 137.785 45.7855 137.108 48.2028 137.108C50.6202 137.108 53.2309 137.495 54.0044 138.075C54.778 138.559 55.2615 139.042 54.9714 139.236C54.6813 139.429 52.7474 140.396 50.7169 141.46C48.5896 142.523 46.7524 143.974 46.559 144.65C46.3656 145.521 47.4293 145.617 50.8136 145.134C53.4243 144.844 56.3251 144.554 57.3887 144.65C58.4524 144.747 59.516 145.134 59.8061 145.424C60.0961 145.714 59.4193 146.584 58.3557 147.358C57.292 148.131 55.9383 148.905 55.4548 149.098C54.8747 149.292 56.8086 151.806 59.516 154.9C62.3201 157.898 64.6407 160.702 64.6407 161.282C64.6407 161.862 63.8672 161.959 62.9003 161.669C62.03 161.378 59.9028 160.895 55.4548 159.928L59.8061 167.083L56.9053 169.017C54.9714 170.307 54.0044 170.564 54.0044 169.791C54.0044 168.824 53.8111 168.824 52.8441 169.694C51.8772 170.564 51.1036 170.468 49.1698 168.921C47.816 167.857 46.2689 166.987 45.7855 167.083C45.2053 167.083 45.0119 170.951 45.302 177.623C45.6888 186.809 46.0756 188.549 48.0094 190.967C49.1698 192.417 51.1036 195.221 52.264 197.058C54.1978 200.153 54.4879 200.249 55.0681 198.509C55.4548 197.445 56.2284 193.287 56.8086 189.323C57.4854 185.359 58.549 181.491 59.1292 180.814C59.9995 179.75 59.9995 179.364 58.8391 178.687C57.9689 178.203 57.6788 177.333 58.0656 176.366C58.549 175.496 62.03 173.272 65.8011 171.435C72.3763 168.437 73.9233 168.05 99.934 166.407L106.219 169.597C109.7 171.338 113.761 174.045 115.405 175.689C117.436 177.623 118.886 178.3 120.046 177.913C121.013 177.526 121.69 176.559 121.497 175.786C121.303 174.819 120.24 174.432 118.499 174.626C116.275 174.819 115.888 174.432 115.888 172.402C115.888 171.048 114.825 168.05 113.471 165.633C112.117 163.216 110.86 161.572 110.57 162.055C110.28 162.442 109.99 163.602 109.99 164.666C109.99 166.407 109.893 166.407 109.023 164.473C108.54 163.216 107.863 162.249 107.379 162.249C106.993 162.345 106.219 163.022 105.542 163.989C104.382 165.536 104.382 165.536 104.285 163.989C104.285 162.635 103.608 162.345 101.578 162.539C100.127 162.635 98.0968 163.312 97.0331 163.989C95.9695 164.569 94.8092 164.859 94.3257 164.666C93.9389 164.376 95.196 161.669 97.0331 158.671C98.8703 155.577 100.417 152.773 100.417 152.386C100.417 151.902 99.7406 151.612 98.967 151.612C98.1935 151.612 97.5166 150.936 97.5166 150.162C97.5166 149.388 98.6769 148.131 100.127 147.358C101.674 146.681 104.769 145.714 111.537 144.65L108.733 142.62C107.089 141.363 106.219 140.009 106.509 139.332C106.993 138.365 109.313 138.269 115.598 138.752C122.077 139.236 123.914 139.139 123.334 138.269C122.947 137.592 121.11 136.722 119.273 136.141C117.436 135.561 116.082 134.788 116.372 134.208C116.662 133.627 118.596 133.434 120.723 133.724C122.85 134.014 124.591 134.014 124.591 133.724C124.591 133.434 123.817 132.177 122.85 130.823C121.98 129.47 121.497 128.019 121.98 127.632C122.367 127.246 124.301 127.729 126.331 128.793C128.555 129.953 130.392 130.243 131.263 129.76C132.23 129.083 132.423 127.826 131.94 124.828C131.456 121.154 131.553 120.67 133.293 120.67C134.937 120.67 135.227 121.347 135.227 124.538C135.227 128.116 135.421 128.406 137.838 128.406C140.255 128.503 140.352 128.599 138.902 129.663C137.935 130.34 137.258 131.017 137.161 131.307C137.161 131.597 138.805 131.597 140.835 131.5C143.156 131.21 144.606 131.597 145.09 132.467C145.477 133.241 144.8 134.304 143.156 135.368C141.706 136.335 139.675 137.108 138.611 137.108C136.774 137.108 136.774 137.205 138.805 138.559C140.739 139.816 141.609 139.816 146.057 138.655C148.861 137.882 151.472 137.398 151.858 137.689C152.342 137.882 151.665 139.332 150.408 140.976C149.248 142.523 148.474 143.974 148.764 144.167C149.054 144.264 150.892 145.134 152.825 146.101C154.856 146.971 156.5 148.131 156.5 148.712C156.5 149.292 155.823 149.485 155.049 149.195C154.276 148.905 152.729 149.098 151.665 149.679C150.376 150.323 149.731 151.612 149.731 153.546C149.731 155.577 149.344 156.254 148.474 155.77C147.894 155.287 146.347 154.997 145.187 154.997C143.64 154.997 142.963 155.577 142.963 156.931C142.963 157.994 142.382 160.508 141.512 162.539C140.352 165.44 140.255 166.6 141.222 168.534C142.092 170.274 143.253 170.951 144.897 170.951C146.25 170.854 148.764 169.597 150.408 168.05C152.149 166.407 154.469 165.15 155.533 165.15C156.596 165.15 159.787 166.02 162.495 167.083C165.299 168.147 169.36 170.371 175.355 175.109L181.35 172.982C186.088 171.435 189.762 170.951 198.078 170.951C207.361 170.951 209.391 170.661 214.226 168.534C217.32 167.18 221.478 165.633 223.412 165.15C225.861 164.505 229.02 162.249 232.888 158.381C237.432 153.836 238.689 152.966 238.689 154.513C238.689 155.577 239.076 157.221 239.56 158.188C240.043 159.058 244.491 161.765 249.422 164.183C255.031 166.89 259.285 169.694 260.832 171.725C262.186 173.465 264.41 175.109 265.764 175.399C267.375 175.721 268.407 175.399 268.858 174.432C269.341 173.562 270.308 172.885 271.082 172.885C271.855 172.885 272.822 173.465 273.209 174.239C273.693 174.916 274.659 175.786 275.433 176.076C276.497 176.463 276.303 176.656 274.95 176.656C273.209 176.656 273.209 176.849 274.466 178.203C275.24 179.073 275.433 179.75 274.95 179.75C274.369 179.847 275.53 180.234 277.367 180.814C279.204 181.297 281.911 181.878 283.362 182.168C285.683 182.458 286.069 182.264 286.069 180.137C286.069 178.493 285.392 177.526 283.845 177.043C281.718 176.366 281.718 176.366 284.135 175.786C285.586 175.399 286.65 174.432 286.65 173.368C286.746 172.305 286.843 169.888 286.94 168.05C287.036 165.536 287.326 165.053 288.003 166.116C288.487 166.89 288.97 168.437 288.97 169.501C288.97 170.564 289.647 172.595 290.421 174.142C291.194 175.592 291.387 176.753 290.904 176.753C290.324 176.753 289.937 177.333 289.937 178.01C289.937 178.59 292.161 180.524 294.965 182.071C297.769 183.715 300.863 184.875 301.734 184.778C302.701 184.585 303.474 183.618 303.474 182.554C303.474 181.104 304.441 180.33 307.052 179.654C309.082 179.17 312.37 178.687 314.304 178.687C316.721 178.687 318.172 178.203 318.462 177.236C318.752 176.269 320.299 175.786 323.006 175.786C326.294 175.689 327.551 176.173 328.711 177.913C330.162 179.944 331.322 180.234 340.314 180.717C345.826 181.104 351.628 181.684 353.271 182.168C355.689 182.748 355.979 182.651 355.205 181.491C354.625 180.717 354.238 179.46 354.335 178.687C354.335 177.913 354.915 176.076 355.495 174.626C356.172 173.078 356.656 170.854 356.656 169.501C356.656 168.147 357.043 166.89 357.623 166.6C358.203 166.31 358.59 167.664 358.59 169.791C358.493 172.111 359.266 174.335 362.941 178.977L360.717 178.397C359.17 177.913 358.59 178.106 358.59 179.17C358.59 180.234 359.75 180.621 363.134 180.621C365.745 180.621 368.839 180.33 370.193 180.04C371.643 179.654 372.127 179.17 371.45 178.783C370.773 178.493 372.03 177.43 374.641 176.269C376.961 175.206 378.895 174.045 378.895 173.659C378.895 173.175 377.928 173.175 376.671 173.465C375.511 173.852 373.964 174.626 373.287 175.206C372.32 176.076 372.223 175.786 372.804 173.949C373.287 172.692 374.157 171.338 374.737 170.854C375.511 170.371 377.251 170.371 378.895 170.951C380.442 171.531 381.796 171.628 381.796 171.241C381.893 170.758 380.539 169.888 378.895 169.307C377.348 168.631 376.188 167.664 376.478 167.083C376.8 166.439 377.832 166.439 379.572 167.083C381.119 167.664 382.86 167.857 383.44 167.567C384.117 167.277 384.697 165.536 384.697 163.699C384.697 161.378 385.18 160.315 386.147 160.315C386.921 160.315 388.275 161.862 389.048 163.699C389.822 165.536 390.885 167.083 391.465 167.083C391.949 167.083 392.432 167.76 392.432 168.534C392.432 169.307 393.109 169.888 394.076 169.791C394.946 169.597 396.784 167.954 398.041 166.116C399.298 164.279 400.651 162.635 401.232 162.539C401.715 162.345 402.295 163.699 402.392 165.44C402.585 167.083 403.069 169.307 403.359 170.274C403.842 171.531 403.552 171.918 402.102 171.918C401.038 171.918 400.168 172.305 400.168 172.885C400.168 173.465 401.135 173.659 402.295 173.465C403.552 173.272 405.679 173.562 407.227 174.239C408.677 174.819 409.837 175.592 409.837 176.076C409.837 176.463 408.387 176.753 406.646 176.849C404.132 176.849 403.939 177.043 405.486 177.623C406.55 178.107 408.097 178.203 408.87 177.816C409.741 177.526 410.031 177.623 409.644 178.203C409.257 178.783 410.031 179.75 411.288 180.427C412.641 181.007 414.865 182.168 416.316 182.844C417.669 183.425 422.214 184.005 426.372 184.005C430.53 184.005 433.624 184.295 433.237 184.682C432.85 185.068 430.143 186.229 427.242 187.196C424.341 188.259 421.827 189.516 421.634 190.193C421.537 190.773 422.021 191.257 422.601 191.257C423.278 191.257 429.079 189.323 435.461 186.906C441.843 184.488 447.161 182.554 447.258 182.554C447.451 182.554 447.258 183.038 446.774 183.715C446.291 184.585 446.678 184.778 448.031 184.392C449.192 184.005 450.545 184.488 451.416 185.359C452.189 186.132 453.64 188.453 454.51 190.483C456.154 194.061 456.444 194.158 461.085 194.158C463.696 194.158 465.92 193.868 465.92 193.481C466.016 192.997 465.049 191.837 463.986 190.773C462.922 189.71 461.955 188.066 462.052 187.196C462.052 186.229 462.922 185.262 463.986 184.972C465.049 184.682 466.113 184.875 466.403 185.455C466.693 186.035 467.853 186.422 469.014 186.422C470.271 186.422 471.818 186.906 472.495 187.582C473.558 188.646 473.945 188.549 474.719 187.196C475.202 186.229 475.976 185.455 476.556 185.455C477.039 185.455 477.91 186.422 478.393 187.679C479.07 189.226 479.94 189.71 481.584 189.42C482.744 189.226 484.968 189.903 486.515 190.87C487.966 191.934 489.319 193.674 489.61 194.931C489.9 196.092 490.48 197.058 491.06 197.058C491.543 197.058 492.897 195.318 493.961 193.191C495.024 191.063 496.281 189.323 496.862 189.323C497.345 189.323 498.505 190.387 499.279 191.74C500.053 193.094 500.729 195.608 500.729 197.349C500.729 200.443 500.729 200.443 505.467 200.443C509.915 200.443 510.399 200.733 514.847 205.471C517.457 208.275 520.358 210.596 521.228 210.596C522.195 210.596 522.969 210.499 522.969 210.402C522.969 210.209 521.518 205.374 519.585 199.476C517.747 193.577 516.2 188.453 516.2 187.873C516.2 187.292 516.877 187.969 517.651 189.323C518.424 190.676 520.55 194.928 522.483 198.795L522.485 198.799C524.323 202.57 525.87 206.148 525.87 206.728C525.87 207.308 526.353 207.695 526.837 207.695C527.32 207.695 527.804 206.438 527.804 204.794C527.804 203.15 527.32 199.572 526.74 196.865C526.063 193.384 526.063 191.45 526.74 190.773C527.417 190.097 528.19 191.354 529.061 194.641C529.834 197.349 530.898 199.572 531.575 199.766C532.155 199.863 532.832 198.122 533.122 195.415C533.412 192.804 534.282 190.097 535.152 189.323C536.603 188.066 536.699 188.066 536.506 189.323C536.409 190.097 536.313 191.74 536.409 192.997C536.409 194.158 536.796 195.125 537.183 195.125C537.666 195.125 538.537 193.191 539.117 190.773C539.794 188.356 540.664 186.422 541.051 186.422C541.534 186.422 541.727 187.582 541.534 188.839C541.437 190.58 541.921 191.45 543.468 192.127C544.725 192.611 545.982 192.804 546.369 192.611C546.852 192.417 546.852 191.45 546.562 190.58C546.079 189.226 546.369 189.033 547.529 189.613C548.496 190 549.366 189.806 549.753 189.13C550.043 188.453 549.56 187.389 548.496 186.712C546.756 185.649 546.756 185.552 549.076 185.068C550.43 184.778 551.88 185.068 552.267 185.745C552.847 186.616 553.234 186.519 553.621 185.455C554.008 184.295 554.298 184.392 555.458 185.939C556.232 187.002 556.618 187.196 556.328 186.422C556.038 185.649 556.232 183.811 556.812 182.361C557.392 180.621 558.456 179.654 559.713 179.654C560.97 179.654 561.356 179.267 560.873 178.59C560.486 178.01 560.873 177.14 561.646 176.656C562.42 176.269 564.064 176.076 565.224 176.269C567.158 176.656 567.448 176.366 567.448 173.852C567.448 172.208 567.931 170.951 568.608 170.951C569.285 170.951 570.639 171.435 571.606 172.111C572.573 172.788 573.443 174.335 573.54 175.496C573.733 177.333 574.507 177.816 578.084 178.3C580.502 178.59 583.209 179.073 584.079 179.267C585.046 179.46 585.82 179.267 585.82 178.687C585.82 178.106 586.883 177.72 588.237 177.72C590.074 177.72 590.751 178.3 591.621 182.554L593.555 180.427C595.102 178.59 595.586 176.173 596.069 166.6C596.456 160.218 596.456 151.226 596.069 146.584C595.586 139.622 595.199 138.172 594.039 138.559C593.072 138.849 592.008 137.785 590.751 135.465C589.784 133.434 587.754 130.727 586.303 129.373C584.079 127.342 583.789 127.246 584.563 128.889C585.143 129.953 586.303 131.5 587.174 132.274C588.044 133.047 588.817 134.014 588.721 134.498C588.721 134.884 587.077 134.981 585.046 134.691C583.112 134.401 580.792 134.111 580.018 134.111C579.245 134.111 577.504 134.208 576.15 134.304C574.797 134.401 572.863 134.111 571.896 133.627C570.059 132.757 569.962 133.047 570.639 139.816C571.122 144.264 570.929 146.778 570.349 146.778C569.865 146.778 568.318 145.134 564.547 139.526V142.717C564.547 144.36 564.257 145.811 563.774 145.811C563.387 145.714 562.613 145.037 561.936 144.07C560.873 142.62 560.776 142.717 560.679 145.134C560.679 146.584 560.486 148.422 560.196 149.195C559.906 149.969 559.132 150.645 558.455 150.645C557.875 150.645 556.232 149.679 552.654 146.294L553.331 149.969C553.717 152.386 553.524 153.45 552.847 153.353C552.17 153.16 551.107 151.516 550.43 149.679C549.753 147.841 549.173 146.971 549.173 147.745C549.173 148.905 548.883 149.002 547.626 148.035C546.466 146.971 546.079 147.165 545.595 149.002C545.305 150.162 544.435 152.579 543.661 154.32C542.791 156.35 541.824 157.221 540.857 156.931C540.084 156.64 539.407 156.834 539.407 157.414C539.407 157.994 538.44 158.284 537.28 158.188C535.926 157.994 534.959 157.124 534.766 155.964C534.572 154.9 533.992 153.643 533.508 153.063C532.928 152.483 532.638 153.836 532.638 156.737C532.638 159.445 532.252 161.088 531.671 160.798C531.188 160.508 530.704 159.445 530.704 158.381C530.704 157.317 530.221 156.447 529.737 156.447C529.254 156.447 528.771 157.511 528.771 158.864C528.771 160.218 527.9 162.055 526.933 163.022C525.966 163.893 523.936 165.633 522.582 166.89C521.228 168.05 519.391 168.824 518.618 168.534C517.651 168.212 516.845 169.017 516.2 170.951C515.427 173.175 514.653 173.852 512.816 173.852C511.462 173.852 509.625 174.626 508.658 175.592C507.788 176.559 506.531 178.203 506.048 179.17C505.371 180.427 504.5 180.717 503.147 180.234C501.503 179.654 501.31 178.977 501.793 175.496C502.083 173.272 503.92 168.05 505.854 163.989C507.788 159.831 511.076 154.61 513.009 152.386C515.04 150.162 519.971 145.907 523.936 143.007C527.9 140.009 535.636 135.174 541.147 132.274C549.753 127.632 551.107 126.665 551.01 124.538C551.01 123.184 550.43 121.057 549.753 119.8C549.173 118.446 548.109 117.286 547.626 117.093C547.046 116.996 546.659 117.77 546.756 119.027C546.756 120.187 546.659 121.444 546.465 121.927C546.272 122.314 545.499 121.831 544.725 120.961C543.468 119.317 543.371 119.413 543.758 121.444C544.145 122.894 543.758 123.571 542.791 123.571C542.018 123.571 541.147 123.184 540.857 122.604C540.567 122.024 539.31 121.637 537.956 121.637C536.603 121.637 535.346 120.961 535.056 120.187C534.766 119.413 534.089 118.737 533.605 118.737C533.025 118.737 532.638 119.51 532.638 120.477C532.638 121.831 532.252 121.637 528.771 117.286V120.67C528.771 122.508 528.48 124.925 528.19 125.989C527.9 127.246 526.837 127.922 525.096 128.019C523.066 128.019 522.099 127.342 520.745 124.828C519.875 123.088 518.618 121.637 518.134 121.637C517.554 121.637 517.167 123.571 517.167 125.989C517.167 128.406 516.684 131.21 516.2 132.274C515.427 133.724 514.847 134.014 513.783 133.241C512.719 132.564 512.042 132.757 511.076 134.111C509.915 135.851 509.819 135.851 508.175 133.627C507.305 132.37 506.048 131.307 505.564 131.307C504.984 131.307 504.597 133.627 504.597 136.432C504.597 140.009 504.307 141.073 503.63 140.009C503.147 139.236 502.663 137.398 502.663 135.948C502.663 134.014 502.276 133.337 501.213 133.724C500.439 134.014 499.569 133.531 499.279 132.757C498.989 131.984 498.505 131.5 498.022 131.694C497.635 131.887 497.055 134.208 496.572 136.722C496.185 139.332 495.315 143.103 494.638 145.134C494.057 147.068 493.187 148.712 492.704 148.712C492.317 148.712 492.027 147.648 492.027 146.294C492.027 144.554 491.64 143.974 490.577 144.36C489.706 144.65 488.546 143.78 486.322 139.526L486.225 143.2C486.225 145.231 485.839 146.584 485.258 146.294C484.678 146.004 484.291 144.747 484.291 143.393C484.291 142.04 483.808 140.976 483.324 140.976C482.744 140.976 482.164 141.943 481.874 143.2C481.584 144.36 481.391 146.488 481.391 148.035C481.391 149.485 480.907 150.452 480.424 150.162C479.844 149.872 479.457 148.615 479.457 147.261C479.457 145.907 478.973 144.65 478.49 144.36C477.91 144.07 477.233 145.327 476.266 150.162L472.978 143.393L469.884 147.745C468.144 150.162 466.403 152.773 465.92 153.546C465.436 154.32 464.759 154.61 464.276 154.223C463.889 153.836 463.986 151.226 464.663 148.422C465.243 145.617 466.79 140.783 467.95 137.592C469.207 134.401 471.431 130.34 472.882 128.696C474.332 126.956 475.396 125.118 475.105 124.538C474.815 123.958 473.558 123.765 472.205 124.055C470.851 124.345 469.594 124.151 469.304 123.571C469.014 122.991 469.884 122.411 471.238 122.121C472.978 121.734 473.945 120.67 474.719 118.06C475.396 116.029 477.62 111.871 479.844 108.777C482.164 105.393 485.935 101.718 489.126 99.5912C492.027 97.6573 499.472 93.5962 505.564 90.502C511.656 87.5045 519.295 84.0235 522.485 82.9599C525.676 81.8963 529.447 81.026 530.898 81.026C532.445 81.026 538.827 83.7334 556.715 93.1127L558.842 91.1789C560.003 90.1152 561.743 87.3111 562.71 84.8938C563.774 82.4764 564.354 80.3492 563.967 80.0591C563.677 79.769 562.42 80.8326 558.939 85.3772L558.359 81.7996C558.069 79.769 557.295 78.3186 556.812 78.6087C556.328 78.8988 556.038 80.1558 556.328 81.5095C556.715 83.3467 556.425 83.9268 555.071 83.9268C553.621 83.9268 553.524 83.3467 554.104 78.8988C554.394 76.0946 554.974 73.0004 555.265 72.1302C555.555 71.1633 555.361 70.3897 554.878 70.3897C554.394 70.3897 553.718 71.4533 553.427 72.8071C553.137 74.1608 551.88 75.6112 550.527 76.1913C549.173 76.6748 547.819 77.7384 547.432 78.4153C546.981 79.1888 546.562 78.7698 546.175 77.1583C545.789 75.6112 545.015 74.8376 543.951 75.031C543.081 75.1277 542.308 75.031 542.308 74.7409C542.308 74.4508 542.791 73.1938 543.275 71.8401C544.048 69.9062 543.951 69.4228 542.791 69.4228C541.534 69.4228 541.534 68.9393 542.888 65.3616C543.661 63.041 544.725 61.0104 545.208 60.7203C545.595 60.4303 546.079 58.6898 546.175 56.8526C546.272 55.0154 546.272 52.9848 546.272 52.5014C546.175 52.0179 544.145 53.7584 537.473 61.2038V57.6261C537.473 55.5956 537.28 53.2749 536.99 52.5014C536.699 51.7278 535.829 51.2444 535.056 51.5344C534.282 51.8245 533.605 51.7278 533.605 51.341C533.702 50.8576 534.282 49.5039 535.056 48.1502C535.829 46.7964 536.409 44.7659 536.506 43.6055C536.506 42.3485 535.829 40.7047 535.056 39.9312C534.282 39.1576 532.252 38.2874 530.704 37.9973C529.061 37.7072 527.997 37.0304 528.287 36.5469C528.577 36.0634 530.608 35.58 532.832 35.58C535.539 35.4833 538.343 34.7097 540.857 33.1626C542.984 31.8089 545.402 30.7453 546.175 30.7453C546.949 30.7453 548.883 31.4221 550.527 32.2924C552.074 33.0659 555.845 34.2263 558.746 34.8064C561.646 35.2899 565.998 36.7403 568.415 37.9973C570.832 39.2543 575.764 42.9287 579.535 46.2163C585.143 51.1477 586.497 51.9212 587.56 50.8576C588.624 49.7939 588.527 48.9237 586.883 45.5394C584.95 41.575 584.95 41.1882 586.4 36.837C587.174 34.2263 589.011 30.9387 590.461 29.4883C591.911 27.9412 594.716 25.9106 596.649 24.847C598.68 23.88 601.001 23.0098 601.774 23.0098C602.548 23.0098 603.225 22.4296 603.225 21.8495C603.225 21.1726 604.675 18.852 606.512 16.7247C608.349 14.5974 610.767 10.2462 611.927 7.05533Z" fill="#9EB465"/>
<path fill-rule="evenodd" clip-rule="evenodd" d="M584.853 52.9846C585.433 52.9846 586.013 53.6615 586.303 54.435C586.593 55.2086 586.787 57.4325 586.787 59.2697C586.787 61.1069 586.303 62.654 585.82 62.654C585.336 62.654 584.369 61.4937 583.789 59.9466C583.306 58.4962 583.015 56.3689 583.402 55.1119C583.692 53.9516 584.369 52.9846 584.853 52.9846ZM651.281 54.7251C651.475 55.8854 651.088 57.7226 650.604 58.7862C650.121 59.8499 649.347 60.6234 649.057 60.43C648.767 60.3333 649.057 58.4962 649.734 56.3689C650.798 53.3714 651.088 52.9846 651.281 54.6284V54.7251ZM587.85 68.5523C588.334 68.5523 590.074 70.0994 591.621 71.9366C593.168 73.7738 594.522 75.9977 594.522 76.7713C594.522 77.6415 593.652 78.2217 592.298 78.2217C591.138 78.2217 589.011 76.9647 587.463 75.5142C586.013 74.0638 584.853 72.6134 584.853 72.13C584.853 71.7432 585.626 71.7432 586.496 72.13C587.85 72.8068 588.044 72.5167 587.56 70.6796C587.27 69.5192 587.367 68.5523 587.85 68.5523ZM578.761 84.0233C579.438 84.0233 580.211 84.5068 580.501 84.9902C580.792 85.4737 580.501 86.8274 580.018 87.891C579.535 88.9547 578.471 89.6315 577.794 89.4381C577.214 89.3414 576.15 88.3745 575.667 87.5043C574.99 86.3439 575.087 85.6671 576.15 84.9902C576.924 84.5068 578.181 84.0233 578.761 84.0233ZM629.525 84.9902C629.912 84.9902 630.976 85.9572 631.749 87.1175C632.523 88.3745 633.2 89.9216 633.2 90.5018C633.2 91.2753 631.943 91.7588 630.299 91.7588C627.785 91.7588 627.398 91.372 627.205 89.0514C627.108 87.5043 627.398 85.9572 627.881 85.6671C628.365 85.2803 629.042 84.9902 629.525 84.9902ZM666.075 94.6596C666.559 94.6596 667.332 95.6265 667.622 96.7869C668.009 98.0439 668.009 99.7844 667.622 100.655C667.236 101.815 666.075 102.395 664.142 102.395C662.594 102.395 661.241 102.105 661.241 101.622C661.241 101.235 662.111 99.4943 663.175 97.7538C664.238 96.11 665.495 94.6596 666.075 94.6596ZM653.892 98.5273C654.472 98.4307 655.632 99.1075 656.406 99.9778C657.663 101.428 657.663 101.718 656.406 102.492C655.632 102.975 653.409 103.749 651.571 104.329C649.734 104.812 647.607 105.296 646.93 105.296C646.35 105.296 645.866 104.522 646.06 103.555C646.156 102.685 647.22 101.815 648.38 101.622C649.541 101.428 650.991 100.655 651.668 99.8811C652.248 99.1075 653.215 98.5273 653.892 98.5273ZM544.531 101.622C545.595 101.815 546.659 102.492 546.852 103.072C547.045 103.846 546.175 104.329 544.725 104.329C543.178 104.329 542.307 103.846 542.404 102.782C542.404 101.815 543.178 101.428 544.531 101.622ZM640.452 102.395C641.805 102.395 643.159 102.975 643.449 103.555C643.739 104.232 643.642 105.199 643.256 105.586C642.772 106.069 641.419 106.166 640.161 105.876C639.001 105.586 638.034 104.619 638.034 103.846C638.034 102.975 638.904 102.395 640.452 102.395V102.395ZM570.542 105.393C572.283 105.876 574.313 106.843 574.99 107.52C575.667 108.197 576.247 108.97 576.15 109.357C576.15 109.841 575.377 110.131 574.41 110.131C573.54 110.131 571.316 109.26 569.575 108.197C567.931 107.133 566.674 105.876 566.964 105.393C567.158 104.812 568.608 104.812 570.542 105.393V105.393ZM660.757 110.614L660.951 113.708C661.144 115.449 660.757 117.769 660.274 118.833C659.79 119.897 658.823 120.574 658.34 120.283C657.856 119.993 657.373 118.833 657.276 117.576C657.18 116.416 657.953 114.288 659.017 113.031L660.757 110.614ZM648.187 113.998C648.961 113.998 650.218 114.192 651.088 114.482C651.861 114.675 652.538 115.836 652.538 116.899C652.538 118.446 652.055 118.64 650.314 118.253C649.154 117.866 647.607 117.189 646.93 116.802C646.253 116.319 645.963 115.449 646.253 114.965C646.543 114.385 647.414 113.998 648.187 113.998ZM592.782 120.96C594.232 121.154 595.102 122.121 595.489 124.151C595.779 125.698 595.876 127.826 595.489 128.792C595.006 130.34 594.425 130.049 590.654 126.665C586.787 123.184 586.496 122.701 588.43 122.701C589.591 122.701 590.654 122.217 590.654 121.637C590.751 121.057 591.718 120.767 592.782 120.96V120.96ZM133.293 173.948C133.777 173.948 134.453 174.722 134.743 175.592C135.034 176.559 135.034 178.106 134.743 178.977C134.26 180.524 135.227 180.717 145.863 180.717C152.632 180.717 157.66 181.104 157.95 181.684C158.143 182.167 156.306 183.424 153.792 184.488C151.278 185.455 147.894 186.615 146.347 187.002C144.703 187.389 141.125 188.743 138.321 190C133.68 192.127 133.293 192.514 133.777 194.931C134.357 197.542 134.26 197.542 132.81 195.705C131.746 194.351 131.263 191.74 131.263 186.712C131.263 182.844 131.746 179.46 132.326 179.267C132.971 178.944 132.971 178.3 132.326 177.333C131.746 176.462 131.553 175.399 131.843 174.915C132.133 174.335 132.81 173.948 133.293 173.948ZM243.911 177.333C245.554 177.526 250.196 178.01 254.257 178.3C258.415 178.686 261.799 179.363 261.799 179.847C261.799 180.33 260.832 180.91 259.672 181.2C258.511 181.394 254.354 181.684 250.486 181.684C246.618 181.684 243.234 181.2 243.04 180.717C242.75 180.137 241.88 180.427 241.107 181.394C239.85 183.038 239.269 183.038 228.536 181.2C222.445 180.137 217.32 178.88 217.32 178.493C217.32 178.106 221.865 178.106 227.279 178.396C233.661 178.783 237.916 178.686 239.076 178.01C240.14 177.429 242.267 177.139 243.911 177.333V177.333ZM123.14 178.977C126.718 178.783 127.395 179.073 127.201 180.33C127.105 181.297 126.428 182.167 125.751 182.264C124.977 182.522 124.816 182.135 125.267 181.104C125.848 179.847 125.654 179.653 124.204 180.33C123.237 180.814 122.657 181.781 122.753 182.651C122.947 183.424 124.107 184.488 125.267 185.068C126.815 185.745 127.491 187.099 127.975 190.87C128.265 193.481 128.362 195.705 128.265 195.801C128.072 195.898 126.815 196.285 125.558 196.671C123.527 197.155 122.947 196.865 122.367 195.028C121.98 193.771 121.69 190.773 121.69 188.452C121.69 186.035 121.013 183.231 120.239 182.167C119.466 181.104 118.789 179.943 118.789 179.75C118.789 179.46 120.723 179.17 123.14 178.977ZM63.7703 180.717C64.2538 180.717 64.6405 181.297 64.6405 182.167C64.6405 182.941 65.3174 183.521 66.2843 183.424C67.2513 183.231 69.0884 183.908 70.4422 184.875C71.6992 185.745 73.4397 186.325 74.3099 186.035C75.0835 185.745 76.7273 186.325 77.8876 187.389C79.1446 188.549 80.3049 188.936 80.595 188.452C80.7884 187.872 81.4652 187.679 82.0454 187.969C82.5289 188.162 83.0123 190.386 83.0123 192.804C83.0123 195.124 82.819 197.155 82.7223 197.155C82.6256 197.155 80.9818 196.478 79.1446 195.608C76.3405 194.254 74.9868 194.157 71.8926 195.028C69.7653 195.608 67.638 195.801 67.2513 195.608C66.8645 195.414 66.5744 195.608 66.5744 196.188C66.5744 196.671 65.5108 197.155 64.3505 197.155C63.1901 197.155 61.353 196.575 60.386 195.898C58.8389 194.931 58.6455 193.964 59.2257 189.613C59.5158 186.809 60.4827 183.715 61.353 182.651C62.2232 181.587 63.2868 180.717 63.7703 180.717V180.717ZM118.596 186.712C119.563 186.905 120.336 188.066 120.433 189.613C120.529 191.063 120.433 192.32 120.239 192.32C119.949 192.32 118.886 191.353 117.822 190.096C116.855 188.936 116.275 187.582 116.565 187.195C116.855 186.712 117.725 186.519 118.596 186.712ZM112.987 187.486C113.471 187.486 114.148 188.066 114.438 188.936C114.631 189.71 114.921 191.45 114.921 192.804C114.921 194.061 114.438 195.221 113.954 195.221C113.374 195.221 112.697 196.091 112.504 197.155C112.214 198.219 111.537 199.089 111.054 199.089C110.473 199.089 109.99 197.832 109.99 196.381C109.99 194.931 110.473 192.32 111.054 190.58C111.634 188.839 112.504 187.486 112.987 187.486ZM85.9132 188.452C86.3966 188.452 86.8801 189.323 86.8801 190.386C86.8801 191.45 87.4603 192.514 88.3305 192.804C89.104 192.997 90.1677 192.997 90.7478 192.804C91.2313 192.514 91.7148 191.837 91.7148 191.353C91.7148 190.773 91.0379 190.58 90.2644 190.87C89.3941 191.16 88.814 190.773 88.814 189.903C88.814 189.033 89.2974 188.452 89.9743 188.452C90.6511 188.452 91.7148 188.743 92.4883 189.129C93.1652 189.516 93.6486 190.676 93.4553 191.74C93.2619 192.804 91.9082 193.964 90.2644 194.447C88.6206 194.931 86.7834 195.124 86.1065 194.834C85.4297 194.447 84.9462 192.9 84.9462 191.353C84.9462 189.71 85.333 188.452 85.9132 188.452ZM272.242 188.452C272.629 188.452 273.596 188.839 274.466 189.419C275.626 190.193 275.626 190.29 274.176 190.386C273.209 190.386 272.532 190.773 272.532 191.353C272.532 191.837 273.402 192.32 274.466 192.32C275.53 192.32 276.593 192.707 276.883 193.287C277.173 193.867 277.753 193.867 278.527 193.287C279.301 192.804 280.268 192.707 281.234 193.287C282.008 193.771 285.876 194.157 289.937 194.157C293.901 194.157 298.929 193.771 301.057 193.287C303.184 192.9 314.014 192.32 325.23 192.127C340.894 191.933 345.536 192.127 345.729 192.997C345.826 193.674 345.923 195.898 345.923 197.832C345.923 199.862 346.213 201.119 346.696 200.636C347.083 200.249 347.663 198.025 347.953 195.898C348.34 192.03 348.437 191.933 352.498 191.643C355.302 191.45 356.559 191.74 356.559 192.514C356.559 193.481 356.849 193.481 358.009 192.514C358.879 191.837 359.653 191.643 359.846 192.03C360.04 192.417 361.007 195.124 363.908 203.44L364.101 197.348C364.391 191.353 364.391 191.353 367.292 191.063C368.936 190.967 370.483 191.16 370.676 191.547C370.966 191.933 371.643 191.837 372.32 191.353C372.997 190.87 374.447 190.676 375.511 190.967C376.865 191.353 377.348 192.127 377.155 193.771C376.961 195.318 377.831 196.962 379.572 198.605C381.022 199.959 381.989 201.119 381.796 201.313C381.506 201.506 374.06 203.537 365.358 205.761C356.559 208.081 348.243 210.112 346.986 210.402C345.246 210.692 342.635 209.628 338.477 206.824C333.642 203.73 331.515 202.957 327.841 202.86C324.36 202.86 322.813 203.343 321.362 204.987C320.299 206.051 318.365 207.404 317.205 207.888C315.561 208.468 313.53 208.081 309.469 206.244C306.375 204.89 301.927 203.343 299.606 202.86C295.642 201.99 295.062 202.086 293.805 203.923C292.451 205.664 291.774 205.761 288.486 205.084C285.876 204.504 283.748 204.6 282.201 205.277C280.848 205.857 279.01 207.114 278.044 207.985C277.077 208.952 275.916 209.725 275.433 209.725C274.853 209.725 274.176 209.242 273.982 208.758C273.692 208.178 272.145 207.791 270.598 207.791C268.471 207.791 267.504 207.211 267.214 205.857C266.827 204.407 265.86 203.923 263.83 203.923C261.316 203.923 260.735 203.44 260.155 200.926C259.478 198.315 259.092 198.025 255.611 198.025C251.936 198.122 251.646 197.928 251.453 195.221C251.259 192.804 251.549 192.32 253.387 192.224C254.547 192.224 258.802 191.933 262.863 191.643C267.601 191.353 270.308 190.676 270.792 189.806C271.275 189.033 271.952 188.452 272.242 188.452V188.452ZM541.437 193.287C541.824 193.287 542.307 194.157 542.307 195.221C542.307 196.285 542.694 197.155 543.274 197.155C543.758 197.155 544.241 197.638 544.241 198.315C544.241 198.992 543.371 200.346 542.307 201.216C541.244 202.183 539.89 202.957 539.407 202.957C538.826 202.957 538.633 202.183 539.02 201.216C539.407 200.346 539.89 198.122 540.084 196.381C540.277 194.641 540.954 193.287 541.437 193.287ZM90.2644 197.155C92.1016 197.155 93.842 197.542 94.1321 198.122C94.3255 198.605 94.0354 199.959 93.3586 201.023C92.6817 202.086 91.8115 202.957 91.4247 202.957C91.0379 202.957 89.8776 202.086 88.814 201.023C87.7503 199.959 86.8801 198.605 86.8801 198.122C86.8801 197.542 88.3305 197.155 90.2644 197.155ZM50.4266 208.275C51.5869 208.661 53.3274 209.822 54.1976 210.982C55.2612 212.239 55.9381 214.56 55.9381 216.687C55.9381 219.008 55.4546 220.361 54.6811 220.265C54.0042 220.265 51.3935 218.911 48.8795 217.171C46.2687 215.43 44.2382 213.69 44.2382 213.303C44.2382 212.916 44.8183 212.239 45.5919 211.852C46.2687 211.466 47.139 210.402 47.5258 209.435C48.1059 208.081 48.8795 207.791 50.4266 208.275V208.275ZM299.606 214.076C306.181 214.366 312.273 214.656 313.143 214.656C313.917 214.656 319.622 214.463 325.907 214.076C337.22 213.593 337.317 213.593 337.22 215.72C337.22 217.944 337.123 217.944 325.423 217.557C318.655 217.364 312.563 217.654 311.209 218.234C309.082 219.104 309.082 219.298 310.726 219.298C311.79 219.298 313.53 219.975 314.594 220.748C316.334 222.005 316.044 222.102 311.693 221.812C308.986 221.715 305.988 221.232 304.924 220.845C303.861 220.458 302.12 219.781 301.057 219.394C299.993 218.911 296.705 218.234 293.805 217.944C290.807 217.557 287.616 216.784 286.553 216.3C284.909 215.43 284.812 215.14 286.069 214.463C286.843 213.98 292.934 213.786 299.606 214.076V214.076ZM392.336 215.623C395.72 215.527 398.331 215.72 398.137 215.913C397.847 216.204 392.045 217.074 385.18 217.847C378.218 218.718 370.676 219.394 368.259 219.394C365.938 219.394 364.391 219.104 364.874 218.911C365.358 218.621 370.386 217.751 375.994 217.074C381.506 216.3 388.855 215.72 392.336 215.623ZM322.329 219.781C322.813 219.878 323.296 220.555 323.296 221.135C323.296 221.715 323.103 223.359 323.006 224.713C322.909 226.066 322.136 227.13 321.362 227.13C320.492 227.13 319.428 225.68 318.848 223.939C318.365 222.199 317.785 220.748 317.688 220.651C317.591 220.555 318.365 220.265 319.428 220.071C320.492 219.781 321.749 219.685 322.329 219.781V219.781ZM348.823 224.519C349.694 224.616 350.37 225.486 350.564 226.356C350.757 227.71 350.08 228.097 347.47 228.097C345.536 228.097 343.795 227.613 343.602 227.13C343.312 226.55 344.085 225.68 345.246 225.196C346.406 224.713 348.05 224.423 348.823 224.519V224.519ZM410.997 225.389C448.031 225.583 468.433 225.97 468.82 226.647C469.014 227.13 466.79 227.904 463.502 228.387C460.311 228.87 454.606 229.257 450.932 229.354C447.161 229.354 441.069 229.064 437.395 228.58C431.4 227.904 430.046 228 425.792 229.934C423.084 231.094 419.216 232.932 417.089 233.995C414.768 235.252 412.544 235.736 411.771 235.252C410.901 234.865 405.099 234.382 398.717 234.285C390.595 234.092 386.727 234.285 385.857 235.156C384.793 236.026 384.213 235.929 382.956 234.575C381.312 232.932 381.409 232.835 383.44 232.932C384.6 232.932 385.664 232.448 385.664 231.965C385.664 231.384 384.89 230.998 383.923 230.901C382.956 230.901 381.409 231.771 380.345 232.932C379.282 233.995 377.348 234.865 376.188 234.865C374.641 234.865 374.06 234.285 374.06 232.932C374.06 231.384 373.384 230.998 371.16 230.998C369.516 230.998 368.259 230.514 368.259 230.031C368.259 229.451 368.646 229.064 369.226 229.064C369.709 229.064 370.193 228.58 370.193 228.097C370.193 227.517 366.905 227.227 361.974 227.323C355.979 227.517 353.755 227.227 353.658 226.356C353.658 225.486 366.228 225.293 410.997 225.389V225.389ZM473.365 225.196C475.685 225.196 476.362 225.486 476.072 226.647C475.75 227.613 476.233 228.097 477.523 228.097C478.586 228.097 479.65 227.42 479.94 226.647C480.327 225.389 484.581 225.196 510.592 225.196C530.124 225.196 540.277 225.486 539.407 226.163C538.536 226.647 537.956 228 537.956 229.257C537.956 231.288 537.376 231.481 530.221 232.158C525.966 232.545 519.198 233.318 515.233 233.802C511.172 234.382 497.732 235.059 485.258 235.349C472.688 235.639 460.891 236.122 458.861 236.316C456.25 236.606 455.09 236.413 454.8 235.349C454.413 234.189 454.896 233.995 456.927 234.382C458.764 234.769 459.828 234.479 460.311 233.415C460.795 232.545 461.762 232.158 463.019 232.448C464.082 232.642 464.856 232.545 464.856 232.158C464.856 231.771 464.082 230.901 463.212 230.321C461.665 229.257 461.762 229.064 463.986 229.064C465.243 229.064 466.79 229.451 467.37 229.934C467.853 230.514 469.304 230.708 470.464 230.418C471.624 230.224 472.688 229.451 472.688 228.774C472.688 228.097 472.108 227.033 471.431 226.356C470.464 225.389 470.851 225.099 473.365 225.196V225.196ZM119.756 233.028C121.593 233.028 125.461 233.415 128.458 233.802C133.1 234.479 132.52 234.575 123.624 234.672C116.758 234.769 113.858 234.479 114.921 233.899C115.695 233.318 117.822 232.932 119.756 233.028ZM52.4571 235.156C53.8108 235.736 54.6811 236.509 54.5844 236.799C54.391 236.993 52.8439 237.766 51.2001 238.443C49.1695 239.313 48.1059 239.313 48.1059 238.637C48.0092 238.056 48.4927 236.799 49.0729 235.736C49.9431 234.189 50.4266 234.092 52.4571 235.156V235.156ZM115.792 242.988C126.234 243.471 135.227 243.955 135.904 244.148C136.581 244.341 136.774 245.018 136.387 245.598C135.904 246.372 132.133 246.565 123.624 246.082C116.952 245.695 107.863 245.212 103.511 245.018C97.9032 244.632 95.7759 244.148 96.1627 243.374C96.6462 242.601 102.061 242.504 115.792 242.988V242.988ZM168.586 243.665C180.286 243.568 191.986 243.761 194.694 244.148C198.078 244.535 199.045 245.018 198.078 245.598C197.208 245.985 184.734 246.372 170.23 246.469C153.599 246.469 143.736 246.082 143.446 245.502C143.156 244.922 143.929 244.341 145.09 244.148C146.25 243.955 156.886 243.761 168.586 243.665ZM70.9256 244.728C73.8264 244.632 76.7273 244.825 77.4041 245.212C78.1777 245.598 77.114 246.275 74.7934 246.952C72.4727 247.629 69.7653 247.726 68.2182 247.242C66.7678 246.759 65.6075 246.082 65.6075 245.695C65.6075 245.308 67.9281 244.922 70.9256 244.728ZM493.187 250.336C494.928 250.336 498.118 251.207 500.246 252.27C502.373 253.334 505.08 254.204 506.241 254.204C507.401 254.204 508.658 254.591 508.851 254.978C509.142 255.461 505.951 256.138 501.889 256.428C497.732 256.815 492.413 257.105 490.093 257.008C486.709 257.008 486.032 256.815 487.192 255.945C487.966 255.461 489.803 255.074 491.156 255.268C492.51 255.461 493.574 255.365 493.284 255.171C493.09 254.881 493.767 254.107 494.637 253.527C496.088 252.464 495.894 252.27 493.187 252.27C491.447 252.27 490.093 251.787 490.093 251.303C490.093 250.723 491.447 250.336 493.187 250.336ZM436.428 253.431C440.682 253.431 445.034 253.721 448.031 254.784L446.097 255.848C444.163 256.912 444.26 257.008 446.774 257.975C448.224 258.555 450.448 259.039 451.609 259.136C453.349 259.136 453.253 259.329 450.932 260.006C449.288 260.489 437.588 261.746 424.825 262.81C412.061 263.874 393.496 265.324 383.73 265.904C369.322 266.871 364.971 266.871 361.49 265.904C359.073 265.227 355.205 264.164 352.981 263.487C350.661 262.907 348.823 262.036 348.823 261.65C348.823 261.263 350.08 260.683 351.531 260.393C352.981 260.103 361.394 259.039 370.193 258.072C378.895 257.008 393.302 255.751 402.102 255.171C410.804 254.591 420.377 254.011 423.374 253.817C426.275 253.721 432.173 253.527 436.428 253.431ZM576.344 255.171C584.466 255.268 592.782 255.558 594.909 255.945C596.939 256.331 598.777 257.105 598.97 257.782C599.26 258.749 595.779 259.039 584.079 259.039C574.7 258.942 567.448 258.555 565.224 257.782C563.193 257.105 561.55 256.235 561.55 255.848C561.55 255.461 568.221 255.171 576.344 255.171V255.171ZM145.767 256.138C184.831 256.138 197.208 256.428 196.337 257.202C195.467 258.072 181.833 258.362 145.573 258.265C111.247 258.169 95.6792 257.879 95.0991 257.105C94.3255 256.331 108.636 256.041 145.767 256.138V256.138ZM624.014 256.912C631.943 257.105 639.098 257.685 639.968 258.169C640.742 258.652 634.36 258.942 624.69 258.942C614.538 259.039 607.866 258.652 607.576 258.072C607.286 257.492 607.576 256.912 608.253 256.718C608.929 256.622 615.988 256.622 624.014 256.912V256.912ZM86.2032 257.105C86.7834 257.105 86.4933 257.782 85.4297 258.555C84.3661 259.329 80.8851 260.393 77.6942 260.876C74.5033 261.456 69.862 262.133 67.5413 262.52C65.124 262.81 63.3835 262.907 63.6736 262.52C63.867 262.133 66.7678 261.263 69.9587 260.489C73.1496 259.716 77.5975 259.039 79.8215 259.039C82.0454 259.039 84.1727 258.555 84.4627 258.072C84.7528 257.492 85.5264 257.105 86.2032 257.105V257.105ZM530.221 257.105L527.803 259.039C526.45 260.006 520.648 262.907 514.943 265.421C509.238 267.838 504.307 270.352 503.823 270.932C503.34 271.706 503.727 271.802 505.08 271.222C506.144 270.836 510.882 269.772 515.717 268.998C520.938 268.128 526.643 267.741 530.221 268.128C533.412 268.515 537.086 268.805 538.44 268.805C539.697 268.805 541.534 269.288 542.501 269.772C543.468 270.255 544.241 271.222 544.241 272.093C544.241 273.059 543.274 273.543 541.341 273.543C539.697 273.543 536.893 274.123 535.055 274.993C533.122 275.767 530.221 278.378 528.48 280.795C526.74 283.212 525.096 285.146 524.903 285.146C524.613 285.243 523.742 284.469 522.969 283.599C522.098 282.729 520.261 281.375 518.811 280.698C516.2 279.345 516.103 279.441 515.717 282.245C515.33 284.083 514.266 285.533 512.719 286.307C511.365 286.983 510.108 288.337 509.818 289.207C509.625 290.174 508.755 290.948 507.981 290.948C507.111 290.948 506.241 289.981 505.467 286.597L503.533 288.724C501.696 290.851 501.599 290.851 500.729 289.014C500.149 287.95 499.182 287.177 498.602 287.273C498.022 287.467 497.151 286.21 496.571 284.663C496.088 283.019 495.508 281.085 495.218 280.312C494.928 279.441 493.961 281.375 492.994 284.663C492.123 287.854 490.866 291.335 490.19 292.398C489.126 294.235 489.126 294.235 488.159 289.981L486.225 292.108C484.485 294.235 484.388 294.235 482.647 292.592C480.907 290.948 480.81 290.948 479.263 292.592C478.296 293.559 475.879 294.429 473.655 294.525C470.754 294.719 469.787 294.429 469.787 293.365C469.787 292.398 469.207 292.108 468.047 292.495C467.08 292.882 465.629 293.075 464.662 292.978C463.695 292.882 462.729 293.268 462.535 293.849C462.245 294.332 460.505 294.816 458.667 294.816C456.734 294.816 454.026 295.299 452.576 295.782C451.125 296.363 448.418 296.556 443.196 295.589L444.647 282.245L438.072 282.826C434.494 283.116 428.596 283.889 425.018 284.469C421.344 285.146 417.863 285.34 417.282 284.953C416.509 284.502 416.444 283.954 417.089 283.309C417.573 282.826 421.537 281.472 425.792 280.408C430.046 279.345 446.967 276.057 463.502 273.156C479.94 270.159 495.701 267.161 498.505 266.291C501.922 265.324 503.372 264.454 502.856 263.68C502.373 262.907 499.666 262.81 493.477 263.293C488.642 263.68 480.423 264.647 475.105 265.421C469.787 266.098 458.474 268.031 449.965 269.675C441.456 271.319 428.596 274.123 421.44 275.864C414.188 277.701 408.29 278.958 408.097 278.571C408 278.184 407.13 276.734 406.066 275.477C404.229 273.156 403.649 273.059 395.623 273.253C390.885 273.35 380.152 274.51 371.643 275.864C363.134 277.314 353.175 279.054 349.597 279.828C344.279 280.988 343.022 281.665 342.538 283.406C342.248 284.663 342.442 286.79 343.022 288.24C343.602 289.691 345.052 291.431 346.213 292.108C347.663 292.978 353.175 293.365 363.424 293.365C371.643 293.365 382.279 292.688 387.114 292.011C391.852 291.238 396.783 290.078 397.944 289.304C399.104 288.627 402.585 287.37 405.679 286.597C408.773 285.823 411.481 285.34 411.771 285.63C411.964 285.823 411.578 286.693 410.804 287.564C409.934 288.434 406.066 290.174 402.102 291.431C397.654 292.882 393.206 295.106 390.692 297.136C388.371 299.07 386.631 301.391 386.631 302.551C386.631 303.615 387.114 304.678 387.791 304.872C388.468 305.162 389.338 306.225 389.725 307.289C390.112 308.449 391.852 309.61 393.593 310.093C396.687 310.867 396.687 310.867 394.559 312.027C393.399 312.607 386.824 313.574 380.055 314.154C373.287 314.734 360.33 315.121 351.337 315.121C342.248 315.121 334.029 315.218 332.966 315.218C331.902 315.315 327.938 315.315 324.263 315.218C320.492 315.218 315.464 315.218 313.047 315.411C309.469 315.508 307.632 314.928 298.639 309.32L297.769 311.447C297.286 312.704 296.319 314.154 295.545 314.734C294.772 315.315 290.227 315.895 284.812 315.991C279.397 315.991 275.143 315.605 274.949 315.121C274.659 314.541 273.306 314.154 272.049 314.154C270.695 314.154 269.148 314.928 268.664 315.798C267.891 317.248 267.407 317.345 265.763 316.282C264.216 315.315 263.443 315.315 261.896 316.282C260.445 317.248 259.575 317.248 257.544 316.282C256.191 315.605 254.547 315.411 253.87 315.798C253.193 316.185 246.908 316.475 239.946 316.475C232.888 316.572 226.989 316.862 226.602 317.248C226.312 317.635 225.152 317.442 224.088 316.765C222.445 315.798 221.961 315.798 221.284 317.055C220.607 318.215 220.124 318.215 218.867 317.248C217.9 316.475 217.223 316.378 216.933 317.055C216.611 317.7 216.031 317.7 215.193 317.055C214.516 316.475 213.646 316.378 213.162 316.765C212.679 317.152 211.228 317.635 209.778 317.732C208.327 317.829 206.684 317.345 206.007 316.765C205.04 315.798 204.75 315.895 204.75 316.765C204.75 317.442 204.17 318.022 203.396 318.022C202.526 318.022 201.946 317.442 201.946 316.765C201.946 316.088 201.172 316.378 199.915 317.539C198.175 319.182 197.788 319.279 197.111 318.022C196.337 316.668 196.047 316.668 194.694 318.022C193.243 319.279 192.953 319.279 192.276 318.022C191.696 316.958 190.923 316.765 189.666 317.345C188.699 317.829 186.281 318.312 184.251 318.312C182.317 318.409 180.673 318.022 180.673 317.539C180.673 316.958 179.996 317.055 179.223 317.732C178.062 318.699 177.675 318.699 177.385 317.732C177.192 316.862 176.709 316.862 175.355 318.022C173.904 319.279 173.614 319.279 172.841 318.022C172.067 316.668 171.777 316.668 171.004 318.022C170.133 319.279 169.94 319.279 169.07 318.022C168.296 316.668 168.006 316.668 166.556 318.022C165.299 319.086 164.719 319.182 164.525 318.215C164.235 317.248 163.848 317.248 162.591 318.215C161.334 319.182 160.851 319.182 159.981 317.925C159.014 316.572 158.724 316.572 157.66 317.635C156.79 318.602 156.016 318.699 155.049 318.022C154.082 317.377 153.438 317.377 153.115 318.022C152.825 318.506 151.762 318.699 150.698 318.506C149.634 318.215 148.474 318.505 148.087 319.182C147.7 320.149 147.314 320.053 146.733 318.989C146.057 317.829 145.67 317.732 144.606 318.699C143.639 319.666 143.156 319.666 142.189 318.699C141.125 317.732 140.642 317.732 139.772 318.699C138.805 319.666 138.321 319.666 137.161 318.699C136.097 317.732 135.807 317.732 135.517 318.699C135.227 319.666 134.84 319.666 133.68 318.699C132.423 317.732 131.939 317.829 131.359 318.989C130.586 320.246 130.296 320.246 128.845 318.989C127.395 317.635 127.201 317.732 126.428 319.182C125.751 320.439 125.171 320.633 124.107 319.956C123.237 319.376 122.173 319.279 121.496 319.666C120.916 320.053 120.046 319.763 119.659 318.989C118.982 317.732 118.596 317.829 117.435 319.472C116.468 320.826 115.985 321.02 115.501 320.149C115.115 319.472 114.438 318.989 113.954 318.989C113.374 318.989 113.181 319.376 113.471 319.956C113.664 320.439 113.471 321.116 112.987 321.406C112.407 321.6 111.73 321.406 111.537 320.923C111.247 320.343 110.377 320.149 109.603 320.439C108.636 320.729 107.573 319.859 106.702 318.215C105.349 315.701 105.252 315.701 105.252 317.732C105.252 318.989 104.962 320.536 104.768 321.406C104.285 322.567 103.995 322.567 102.738 321.6C101.481 320.633 100.997 320.729 100.417 321.89C99.9337 322.663 99.4503 322.857 99.1602 322.373C98.8701 321.793 98.58 319.859 98.3866 318.022C98.2899 316.088 98.2899 313.864 98.3866 312.897C98.3866 311.737 99.3536 311.157 101.481 310.963C103.221 310.867 104.575 311.253 104.865 311.93C105.123 312.768 105.8 312.897 106.896 312.317C107.863 311.834 111.634 311.157 115.405 310.867C119.079 310.48 133.486 309.61 147.314 308.836C161.141 308.063 185.024 306.902 200.495 306.322C215.869 305.839 238.302 304.678 250.292 303.808C262.186 303.035 272.919 302.261 273.982 302.068C275.046 301.971 278.237 301.391 281.234 300.811C284.135 300.23 290.614 299.263 295.738 298.78C300.767 298.2 306.955 297.04 309.469 296.266C312.467 295.299 314.497 293.945 315.271 292.398C316.238 290.464 316.238 289.787 315.077 288.53C314.207 287.66 312.853 286.983 311.886 286.983C310.823 287.08 310.243 286.307 310.243 285.146C310.243 284.083 311.113 282.729 312.176 282.245C313.24 281.665 321.362 280.118 330.258 278.764C339.154 277.507 350.177 275.767 354.722 274.993C359.17 274.22 368.355 273.156 375.027 272.576C381.603 271.996 395.14 270.836 405.002 270.062C414.768 269.192 431.11 267.548 441.263 266.291C451.319 265.034 465.726 263.487 473.171 262.81C480.617 262.133 494.928 260.683 505.08 259.426C515.137 258.265 524.903 257.298 530.221 257.105V257.105ZM562.323 262.036C563.193 262.23 563.967 262.907 564.16 263.583C564.354 264.26 563.483 265.034 562.323 265.324C561.163 265.614 559.906 265.711 559.712 265.324C559.422 265.034 559.519 264.164 560.002 263.293C560.389 262.423 561.453 261.94 562.323 262.036V262.036ZM585.336 261.94C592.782 261.843 599.163 262.23 599.453 262.617C599.84 263.003 599.84 264.164 599.453 265.131C598.873 266.871 597.81 266.968 585.143 266.581C575.57 266.388 571.025 265.904 570.155 265.034C569.092 263.97 569.092 263.583 570.349 262.81C571.122 262.326 577.891 261.94 585.336 261.94V261.94ZM336.833 263.003C337.317 262.907 340.604 263.777 344.085 264.937C347.47 266.001 350.951 267.161 351.821 267.451C352.691 267.741 351.918 268.321 349.887 268.708C347.953 269.192 338.38 270.449 328.614 271.512C318.752 272.576 304.828 273.93 297.672 274.51C290.42 275.09 281.815 275.767 278.527 275.96C272.822 276.347 272.532 276.54 272.532 278.861C272.532 280.312 273.306 281.665 274.466 282.245C275.53 282.729 282.685 283.212 290.42 283.212C298.059 283.212 305.021 283.406 305.891 283.696C306.665 283.889 307.342 285.049 307.342 286.113C307.342 287.177 306.568 288.24 305.601 288.53C304.634 288.821 298.059 289.691 290.904 290.464C283.652 291.238 270.405 292.495 261.412 293.268C252.323 294.139 238.399 295.202 230.47 295.782C222.445 296.363 193.533 297.62 166.169 298.683C138.708 299.747 112.504 300.617 107.863 300.617C102.544 300.617 99.547 300.23 99.9337 299.65C100.127 299.07 102.254 298.393 104.478 298.2C106.702 297.91 122.753 296.749 140.062 295.782C157.273 294.719 187.732 292.978 207.747 291.818C227.666 290.754 247.198 289.401 251.259 288.917C255.224 288.337 259.575 287.37 260.929 286.693C262.186 286.113 263.443 284.663 263.539 283.406C263.636 282.245 263.153 280.311 262.282 279.054C261.509 277.894 261.122 276.154 261.316 275.187C261.702 273.93 264.216 272.963 270.792 271.512C275.723 270.449 286.263 268.708 294.288 267.645C302.217 266.581 314.884 265.131 322.329 264.454C329.775 263.68 336.253 263.1 336.833 263.003ZM530.221 262.907C533.412 262.907 537.086 263.583 540.857 265.711H537.956C536.312 265.711 532.155 265.517 528.577 265.131C524.903 264.744 522.679 264.164 523.259 263.68C523.936 263.293 527.03 262.907 530.221 262.907V262.907ZM622.37 262.907C630.105 262.907 637.164 263.293 638.034 263.777C638.808 264.26 639.098 265.034 638.711 265.711C638.228 266.388 632.909 266.774 623.047 266.774C613.957 266.774 607.866 266.388 607.576 265.807C607.286 265.227 607.286 264.357 607.576 263.874C607.866 263.293 613.861 262.907 622.37 262.907ZM651.281 263.97C651.958 263.874 652.538 264.454 652.538 265.324C652.538 266.194 651.571 266.774 650.121 266.774C648.767 266.774 647.607 266.388 647.51 265.904C647.317 265.421 647.897 264.744 648.671 264.454C649.444 264.26 650.604 263.97 651.281 263.97ZM656.889 263.97C656.889 263.97 659.017 264.55 661.724 265.227C664.335 265.904 666.752 267.064 666.946 267.838C667.236 268.902 666.849 268.998 665.012 268.321C663.755 267.838 660.757 267.355 658.533 267.161C656.309 266.871 654.375 266.388 654.279 265.904C654.085 265.421 654.666 264.744 655.439 264.454C656.213 264.26 656.889 263.97 656.889 263.97ZM233.081 264.937C238.206 264.841 241.59 265.227 241.59 265.807C241.59 266.291 238.399 266.968 234.531 267.258C230.664 267.548 219.931 268.225 210.648 268.708C201.269 269.192 192.373 269.192 190.826 268.805C188.699 268.225 188.312 267.741 189.375 267.355C190.149 267.064 198.368 266.388 207.747 265.904C217.03 265.517 228.44 265.034 233.081 264.937ZM146.54 267.838C167.909 267.838 185.508 268.031 185.508 268.418C185.508 268.805 182.8 269.482 179.416 269.869C176.128 270.255 157.273 270.642 137.644 270.642C117.919 270.642 100.321 270.352 98.4833 269.869C95.2924 269.192 95.5825 269.095 101.384 268.612C104.768 268.321 125.171 267.935 146.54 267.838ZM85.1396 269.965C85.5264 270.062 85.8165 270.545 85.8165 271.126C85.8165 271.609 84.6561 272.383 83.2057 272.769C81.7553 273.156 75.3735 273.736 68.9918 274.026C61.1918 274.413 57.8075 274.284 58.8389 273.64C59.6125 273.156 64.8339 272.383 70.4422 271.996C75.9537 271.609 81.4652 270.932 82.5289 270.545C83.5925 270.159 84.7528 269.869 85.1396 269.965ZM573.733 270.159C574.797 270.352 579.728 270.739 584.853 271.029C589.881 271.416 595.392 271.899 600.324 272.576L600.227 279.054C600.227 282.632 599.84 287.273 599.26 289.207C598.777 291.238 598.003 292.882 597.616 292.882C597.229 292.882 596.359 292.398 595.779 291.721C595.102 291.044 594.232 288.627 593.845 286.307C593.265 283.309 592.588 282.149 591.331 282.245C590.364 282.245 589.397 282.632 589.204 283.212C588.914 283.696 587.85 284.179 586.787 284.179C585.723 284.179 584.756 284.469 584.756 284.856C584.756 285.243 583.886 286.693 582.822 288.047C580.888 290.368 580.888 290.464 579.438 288.53C578.568 287.467 577.311 285.146 576.537 283.406C575.57 281.182 575.377 279.731 576.15 278.378C576.634 277.314 576.73 276.25 576.344 275.96C575.957 275.767 572.669 275.187 562.613 274.026L558.262 278.571C555.845 281.085 553.427 282.922 552.944 282.729C552.364 282.439 551.977 281.665 551.977 280.988C551.977 280.311 551.107 278.668 550.14 277.411C549.076 276.057 548.399 274.123 548.689 273.059C548.979 271.609 549.946 271.126 551.977 271.126C553.524 271.126 554.878 271.416 554.878 271.802C554.878 272.189 555.845 272.286 557.005 271.996C558.165 271.706 562.033 271.126 565.514 270.642C568.898 270.255 572.669 269.965 573.733 270.159V270.159ZM42.9811 271.609C43.2712 272.383 42.401 276.057 41.2407 279.635C39.9836 283.309 38.5332 286.307 38.0498 286.21C37.4696 286.113 36.8894 283.599 36.7928 280.505C36.5994 277.507 36.6961 274.316 36.9861 273.543C37.4696 272.383 37.7597 272.286 38.7266 273.253C39.4035 273.93 40.2737 274.51 40.6605 274.51C41.0473 274.51 41.6274 273.543 42.0142 272.286C42.401 270.739 42.6911 270.545 42.9811 271.609V271.609ZM614.634 271.609C618.695 271.706 624.207 272.093 626.914 272.576C629.525 273.156 633.683 273.736 636.1 273.93C638.421 274.026 640.935 273.736 641.709 273.156C642.676 272.286 643.062 272.576 643.352 274.22C643.642 275.477 644.223 276.444 644.803 276.444C645.286 276.444 645.77 276.831 645.77 277.411C645.77 277.894 644.609 278.378 643.352 278.378C641.999 278.378 640.742 278.861 640.452 279.538C640.161 280.408 639.388 280.021 638.034 278.571C636.971 277.411 634.553 275.96 632.716 275.477C630.46 274.832 628.043 274.832 625.464 275.477C623.337 275.96 620.243 277.507 618.695 278.861C617.052 280.118 615.795 281.762 615.795 282.439C615.795 283.116 614.441 285.726 612.894 288.24C611.25 290.754 609.51 292.882 609.026 292.882C608.446 292.882 607.672 288.434 607.286 282.922C606.802 277.507 606.609 272.673 606.802 272.286C606.996 271.899 610.476 271.609 614.634 271.609V271.609ZM401.135 275.96C402.972 276.25 404.809 276.927 405.196 277.604C405.583 278.281 405.583 279.151 405.196 279.635C404.809 280.021 396.88 281.859 387.598 283.696C378.218 285.533 366.132 287.37 360.523 287.757C351.821 288.434 350.564 288.337 350.951 287.08C351.241 286.21 352.981 285.34 354.722 284.953C356.559 284.566 364.778 282.922 373.093 281.278C381.312 279.635 390.208 277.604 392.916 276.831C395.526 276.154 399.201 275.67 401.135 275.96ZM245.168 276.637C250.583 276.444 254.16 276.831 254.16 277.411C254.16 277.894 253.58 278.571 252.903 278.764C252.226 279.054 240.816 279.925 227.569 280.698C214.226 281.569 193.34 282.632 181.156 283.212C168.876 283.696 144.993 284.469 127.975 284.759C106.896 285.146 97.323 285.049 97.9999 284.373C98.4833 283.792 110.087 282.922 125.074 282.245C139.385 281.665 167.909 280.311 188.408 279.248C208.811 278.281 227.956 277.217 230.954 277.121C233.855 276.927 240.236 276.734 245.168 276.637V276.637ZM82.2388 283.406C85.8165 283.309 88.9107 283.502 89.2007 283.889C89.3941 284.276 87.0735 284.953 84.076 285.34C81.0785 285.823 72.5694 286.693 65.124 287.467C57.6786 288.24 51.2968 288.724 51.1034 288.434C50.8133 288.144 51.3935 287.177 52.2637 286.307C53.6175 285.049 56.4216 284.469 64.8339 284.083C70.8289 283.792 78.6611 283.502 82.2388 283.406V283.406ZM46.4621 284.469C47.6224 284.373 48.7828 284.566 48.8795 284.759C48.9762 284.953 48.2993 286.016 47.3324 287.08C46.2687 288.144 44.7216 289.014 43.9481 289.014C43.0778 289.014 42.3043 288.434 42.2076 287.757C42.0142 287.08 42.4977 286.016 43.0778 285.533C43.658 285.049 45.2051 284.566 46.4621 284.469V284.469ZM438.072 290.078C441.166 289.981 441.746 290.271 441.746 292.108C441.746 293.365 441.263 294.816 440.489 295.396C439.812 295.976 438.652 296.556 437.878 296.653C437.008 296.846 432.463 296.943 427.725 297.039C422.697 297.136 419.023 296.846 418.83 296.266C418.636 295.686 418.83 294.719 419.216 294.042C419.603 293.365 423.181 292.205 427.242 291.431C431.206 290.754 436.041 290.078 438.072 290.078ZM641.999 292.495C642.482 292.688 642.482 293.365 642.095 294.042C641.612 294.816 641.999 294.912 643.546 294.525C645.028 294.074 645.738 294.235 645.673 295.009C645.673 295.976 645.866 295.976 646.93 295.009C647.897 294.139 648.38 294.139 649.444 295.009C650.411 295.976 650.894 295.879 651.571 294.525C652.055 293.655 652.828 293.075 653.312 293.365C653.699 293.655 653.989 294.525 653.795 295.299C653.602 296.073 654.375 297.136 655.439 297.716C656.889 298.393 657.663 298.297 658.727 296.943C659.5 296.073 660.467 295.589 660.854 295.976C661.337 296.459 660.854 297.523 659.984 298.393C658.533 299.747 656.213 300.037 647.607 300.037C639.775 300.134 637.067 299.747 637.067 298.877C637.067 298.2 637.938 296.459 639.098 294.912C640.258 293.365 641.612 292.302 641.999 292.495V292.495ZM626.528 295.879C627.495 296.363 629.235 296.459 630.299 296.266C631.943 295.782 632.039 296.073 631.362 297.91C630.879 299.167 629.332 301.004 627.881 302.068C625.851 303.518 623.724 304.001 618.502 304.001C612.797 304.001 611.54 303.711 610.38 302.068C609.606 301.004 609.316 299.747 609.606 299.263C609.896 298.78 612.314 298.683 614.924 299.07C618.986 299.554 619.952 299.36 622.176 297.33C624.11 295.589 625.174 295.202 626.528 295.879ZM413.415 295.879C414.092 295.782 414.768 296.266 415.059 296.943C415.252 297.62 415.639 301.584 416.606 313.187L413.415 312.897C410.997 312.704 410.224 312.124 409.837 310.287C409.45 308.675 408.29 307.579 406.356 306.999C404.616 306.515 403.069 305.162 402.295 303.421C401.328 301.197 401.328 300.424 402.295 299.844C402.972 299.457 405.389 298.393 407.806 297.523C410.224 296.653 412.738 295.879 413.415 295.879V295.879ZM87.0735 297.813C88.0404 297.716 89.3941 297.91 90.2644 298.2C91.0379 298.393 91.7148 299.07 91.7148 299.65C91.7148 300.134 90.4578 300.811 89.0074 301.101C87.5569 301.294 78.2744 301.971 68.5083 302.551C55.648 303.228 49.9431 303.905 48.396 304.968C46.4621 306.225 46.172 306.225 46.172 304.678C46.172 303.808 46.9456 302.261 47.9125 301.294C49.3629 299.844 52.3604 299.457 67.5413 298.78C77.3074 298.393 86.1065 297.91 87.0735 297.813V297.813ZM591.138 300.811C599.357 300.52 600.904 300.714 601.097 301.971C601.194 302.841 600.71 303.711 600.034 303.905C599.357 304.195 593.168 304.872 586.303 305.452C579.341 306.032 571.219 307.386 562.613 310.287L559.809 305.935L559.712 308.063C559.712 309.32 559.229 310.287 558.745 310.287C558.165 310.287 557.488 309.706 557.198 309.03C556.908 308.159 554.201 307.869 547.819 307.966C542.888 308.063 520.648 309.03 498.312 310.093C475.976 311.253 450.255 312.22 441.263 312.317C432.173 312.414 424.244 312.22 423.568 311.93C422.891 311.544 421.73 311.447 420.957 311.737C419.797 312.027 419.41 311.447 419.41 309.03C419.41 306.225 419.7 305.839 423.084 305.162C425.115 304.775 436.331 304.485 448.031 304.485C459.731 304.485 491.253 304.001 518.134 303.421C544.918 302.841 570.155 302.068 574.216 301.681C578.181 301.294 585.82 300.907 591.138 300.811V300.811ZM92.1982 312.22L91.9082 316.282C91.6181 319.376 91.0379 320.633 89.4908 321.503C87.847 322.277 86.59 322.277 84.5594 321.503C82.3355 320.633 81.6586 320.729 80.8851 321.89C80.2082 322.953 79.8214 322.953 79.5314 322.083C79.2413 321.406 78.6611 320.923 78.1777 320.923C77.5975 320.923 77.2107 321.503 77.2107 322.373C77.2107 323.147 76.8239 323.824 76.4372 323.824C76.0504 323.824 75.0835 323.244 74.3099 322.373C73.2463 321.31 72.4727 321.213 71.6025 321.89C70.7322 322.567 70.1521 322.373 69.4752 321.116C68.605 319.569 68.4116 319.569 67.9281 321.406C67.5413 322.76 66.6711 323.147 65.2207 322.953C64.0604 322.663 62.8034 322.083 62.5133 321.503C62.062 320.794 61.2563 320.987 60.0959 322.083C58.6455 323.437 58.0654 323.534 57.0984 322.567C56.2282 321.6 55.8414 321.696 55.4546 323.05C55.1646 324.017 54.4877 324.791 54.0042 324.791C53.4241 324.791 52.5538 323.34 52.0704 321.6C51.3935 319.182 51.2001 318.989 51.1034 320.633C51.1034 321.986 50.3299 323.05 49.1695 323.34C48.1059 323.534 47.2357 324.404 47.2357 325.274C47.2357 326.241 46.5588 326.531 45.0117 326.144C43.8514 325.758 42.4977 325.274 42.0142 324.887C41.6274 324.597 41.5307 322.567 41.8208 320.439C42.1109 318.312 42.9811 315.895 43.8514 315.121C45.2051 313.864 45.7853 313.864 47.5258 314.928C48.9762 315.895 49.7497 315.895 50.1365 315.121C50.4266 314.541 53.4241 314.058 57.872 314.154C61.8364 314.154 66.8645 313.768 68.9918 313.284C71.119 312.801 77.2107 312.414 92.1982 312.22V312.22ZM546.659 318.699C551.397 318.892 556.812 319.279 558.745 319.569C560.873 319.859 561.743 320.439 561.163 321.02C560.583 321.503 557.295 322.277 553.911 322.76C550.43 323.243 538.246 324.114 526.836 324.694C515.33 325.274 485.742 326.628 461.085 327.691C436.331 328.658 412.641 329.625 408.387 329.722C404.132 329.819 400.554 329.529 400.361 329.045C400.264 328.562 401.038 327.015 402.005 325.758C403.842 323.34 403.939 323.34 428.789 322.18C442.52 321.6 469.497 320.536 488.642 319.956C507.788 319.376 526.643 318.796 530.704 318.602C534.669 318.409 541.824 318.409 546.659 318.699V318.699Z" fill="#2E3316"/>
</svg>
